%TF.GenerationSoftware,KiCad,Pcbnew,8.0.3-8.0.3-0~ubuntu22.04.1*%
%TF.CreationDate,2024-06-07T23:15:48+01:00*%
%TF.ProjectId,0002-65C816S-minimal,30303032-2d36-4354-9338-3136532d6d69,A*%
%TF.SameCoordinates,Original*%
%TF.FileFunction,Copper,L3,Inr*%
%TF.FilePolarity,Positive*%
%FSLAX46Y46*%
G04 Gerber Fmt 4.6, Leading zero omitted, Abs format (unit mm)*
G04 Created by KiCad (PCBNEW 8.0.3-8.0.3-0~ubuntu22.04.1) date 2024-06-07 23:15:48*
%MOMM*%
%LPD*%
G01*
G04 APERTURE LIST*
%TA.AperFunction,ComponentPad*%
%ADD10R,1.650000X1.650000*%
%TD*%
%TA.AperFunction,ComponentPad*%
%ADD11C,1.650000*%
%TD*%
%TA.AperFunction,ViaPad*%
%ADD12C,0.600000*%
%TD*%
%TA.AperFunction,ViaPad*%
%ADD13C,1.400000*%
%TD*%
G04 APERTURE END LIST*
D10*
%TO.N,/GND*%
%TO.C,PL2*%
X124460000Y-116840000D03*
D11*
%TO.N,/MX*%
X127000000Y-116840000D03*
%TO.N,/E*%
X124460000Y-114300000D03*
%TO.N,/VDA*%
X127000000Y-114300000D03*
%TO.N,/VPA*%
X124460000Y-111760000D03*
%TO.N,/RnW*%
X127000000Y-111760000D03*
%TO.N,/D7*%
X124460000Y-109220000D03*
%TO.N,/D6*%
X127000000Y-109220000D03*
%TO.N,/D5*%
X124460000Y-106680000D03*
%TO.N,/D4*%
X127000000Y-106680000D03*
%TO.N,/GND*%
X124460000Y-104140000D03*
%TO.N,/D3*%
X127000000Y-104140000D03*
%TO.N,/D2*%
X124460000Y-101600000D03*
%TO.N,/D1*%
X127000000Y-101600000D03*
%TO.N,/D0*%
X124460000Y-99060000D03*
%TO.N,/A15*%
X127000000Y-99060000D03*
%TO.N,/A14*%
X124460000Y-96520000D03*
%TO.N,/A13*%
X127000000Y-96520000D03*
%TO.N,/GND*%
X124460000Y-93980000D03*
%TO.N,/A12*%
X127000000Y-93980000D03*
%TD*%
D10*
%TO.N,/A11*%
%TO.C,PL1*%
X124460000Y-88900000D03*
D11*
%TO.N,/A10*%
X127000000Y-88900000D03*
%TO.N,/A9*%
X124460000Y-86360000D03*
%TO.N,/A8*%
X127000000Y-86360000D03*
%TO.N,/A7*%
X124460000Y-83820000D03*
%TO.N,/A6*%
X127000000Y-83820000D03*
%TO.N,/A5*%
X124460000Y-81280000D03*
%TO.N,/A4*%
X127000000Y-81280000D03*
%TO.N,/A3*%
X124460000Y-78740000D03*
%TO.N,/A2*%
X127000000Y-78740000D03*
%TO.N,/A1*%
X124460000Y-76200000D03*
%TO.N,/A0*%
X127000000Y-76200000D03*
%TO.N,unconnected-(PL1-Pad13)*%
X124460000Y-73660000D03*
%TO.N,unconnected-(PL1-Pad14)*%
X127000000Y-73660000D03*
%TO.N,unconnected-(PL1-Pad15)*%
X124460000Y-71120000D03*
%TO.N,unconnected-(PL1-Pad16)*%
X127000000Y-71120000D03*
%TO.N,/GND*%
X124460000Y-68580000D03*
%TO.N,unconnected-(PL1-Pad18)*%
X127000000Y-68580000D03*
%TO.N,/VDD*%
X124460000Y-66040000D03*
X127000000Y-66040000D03*
%TD*%
D10*
%TO.N,/GND*%
%TO.C,PL3*%
X124460000Y-144780000D03*
D11*
%TO.N,/5V0*%
X127000000Y-144780000D03*
%TO.N,/GND*%
X124460000Y-142240000D03*
%TO.N,/5V0*%
X127000000Y-142240000D03*
%TO.N,/GND*%
X124460000Y-139700000D03*
%TO.N,/5V0*%
X127000000Y-139700000D03*
%TO.N,unconnected-(PL3-Pad7)*%
X124460000Y-137160000D03*
%TO.N,unconnected-(PL3-Pad8)*%
X127000000Y-137160000D03*
%TO.N,unconnected-(PL3-Pad9)*%
X124460000Y-134620000D03*
%TO.N,/S3A-UART-RX*%
X127000000Y-134620000D03*
%TO.N,/S3A-UART-TX*%
X124460000Y-132080000D03*
%TO.N,/SYSCLK*%
X127000000Y-132080000D03*
%TO.N,/BE*%
X124460000Y-129540000D03*
%TO.N,/nRESET*%
X127000000Y-129540000D03*
%TO.N,/nABORT*%
X124460000Y-127000000D03*
%TO.N,/nNMI*%
X127000000Y-127000000D03*
%TO.N,/nIRQ*%
X124460000Y-124460000D03*
%TO.N,/RDY*%
X127000000Y-124460000D03*
%TO.N,/nML*%
X124460000Y-121920000D03*
%TO.N,/nVP*%
X127000000Y-121920000D03*
%TD*%
D12*
%TO.N,/VDD*%
X160100000Y-91750000D03*
X160950000Y-111900000D03*
%TO.N,/GND*%
X138950000Y-131100000D03*
X167400000Y-117400000D03*
X142700000Y-85350000D03*
X168300000Y-113050000D03*
X129700000Y-123350000D03*
X129100000Y-130400000D03*
X162600000Y-113800000D03*
X147350000Y-111600000D03*
X170750000Y-99300000D03*
X164650000Y-106250000D03*
X164700000Y-101600000D03*
X163900000Y-90000000D03*
X149500000Y-95000000D03*
X129150000Y-99900000D03*
D13*
X140680000Y-136000000D03*
D12*
X148300000Y-90700000D03*
X154350000Y-130950000D03*
X165900000Y-121050000D03*
X162450000Y-109900000D03*
X131750000Y-84350000D03*
X148500000Y-106050000D03*
X130600000Y-118400000D03*
X147750000Y-123800000D03*
X161750000Y-93200000D03*
X154000000Y-113150000D03*
X155400000Y-106200000D03*
X169150000Y-102450000D03*
X154500000Y-108850000D03*
X129900000Y-77800000D03*
X155250000Y-96850000D03*
X147350000Y-115050000D03*
X133050000Y-135050000D03*
X152350000Y-101550000D03*
X162350000Y-125950000D03*
X162750000Y-88700000D03*
X159250000Y-115700000D03*
X160020000Y-101600000D03*
X166350000Y-95650000D03*
X147050000Y-118500000D03*
X160000000Y-90050000D03*
X131450000Y-124650000D03*
X164550000Y-121050000D03*
X130800000Y-114900000D03*
X129050000Y-91350000D03*
X167550000Y-101600000D03*
X171750000Y-107850000D03*
X144150000Y-96850000D03*
X160750000Y-112800000D03*
X164700000Y-96900000D03*
X152350000Y-102400000D03*
X131450000Y-106100000D03*
X129900000Y-111450000D03*
X132950000Y-138350000D03*
X129350000Y-97100000D03*
X155000000Y-133050000D03*
X140100000Y-90950000D03*
X161200000Y-88750000D03*
%TO.N,/D2*%
X160000000Y-111100000D03*
%TO.N,/D1*%
X160800000Y-110500000D03*
%TO.N,/D5*%
X157600000Y-112050000D03*
%TO.N,/VPA*%
X164200000Y-114900000D03*
X163250000Y-92950000D03*
%TO.N,/D7*%
X156000000Y-113000000D03*
%TO.N,/D0*%
X161600000Y-109900000D03*
%TO.N,/E*%
X164850000Y-112350000D03*
X164000000Y-116250000D03*
%TO.N,/D6*%
X156800000Y-112350000D03*
%TO.N,/D4*%
X158400000Y-111850000D03*
%TO.N,/D3*%
X159200000Y-111250000D03*
%TO.N,/MX*%
X168850000Y-104000000D03*
X169200000Y-106700000D03*
%TO.N,/nABORT*%
X168050000Y-99200000D03*
X170100000Y-109450000D03*
D13*
%TO.N,/S3A-UART-RX*%
X138140000Y-136000000D03*
D12*
%TO.N,/nVP*%
X168000000Y-100800000D03*
X168750000Y-108050000D03*
%TO.N,/RDY*%
X168550000Y-100000000D03*
X170050000Y-108400000D03*
%TO.N,/BE*%
X166150000Y-119750000D03*
X168050000Y-105600000D03*
%TO.N,/nRESET*%
X168150000Y-102400000D03*
X166750000Y-118300000D03*
%TO.N,/nNMI*%
X164800000Y-119400000D03*
X164020000Y-93770000D03*
%TO.N,/SYSCLK*%
X165200000Y-121650000D03*
X167600000Y-104800000D03*
%TO.N,/nIRQ*%
X168550000Y-98400000D03*
X171800000Y-106900000D03*
D13*
%TO.N,/S3A-UART-TX*%
X135600000Y-136000000D03*
%TD*%
%TA.AperFunction,Conductor*%
%TO.N,/GND*%
G36*
X176327826Y-63272174D02*
G01*
X176349500Y-63324500D01*
X176349500Y-147215500D01*
X176327826Y-147267826D01*
X176275500Y-147289500D01*
X120924500Y-147289500D01*
X120872174Y-147267826D01*
X120850500Y-147215500D01*
X120850500Y-143935302D01*
X123435000Y-143935302D01*
X123435000Y-144680000D01*
X123917393Y-144680000D01*
X123910000Y-144707591D01*
X123910000Y-144852409D01*
X123917393Y-144880000D01*
X123435000Y-144880000D01*
X123435000Y-145624697D01*
X123446603Y-145683035D01*
X123490807Y-145749191D01*
X123490808Y-145749192D01*
X123556964Y-145793396D01*
X123615303Y-145805000D01*
X124360000Y-145805000D01*
X124360000Y-145322606D01*
X124387591Y-145330000D01*
X124532409Y-145330000D01*
X124560000Y-145322606D01*
X124560000Y-145805000D01*
X125304697Y-145805000D01*
X125363035Y-145793396D01*
X125429191Y-145749192D01*
X125429192Y-145749191D01*
X125473396Y-145683035D01*
X125485000Y-145624697D01*
X125485000Y-144880000D01*
X125002607Y-144880000D01*
X125010000Y-144852409D01*
X125010000Y-144779996D01*
X125919892Y-144779996D01*
X125919892Y-144780003D01*
X125938281Y-144978457D01*
X125938283Y-144978470D01*
X125992827Y-145170175D01*
X125992828Y-145170177D01*
X125992829Y-145170180D01*
X126037251Y-145259392D01*
X126081674Y-145348605D01*
X126081676Y-145348607D01*
X126201791Y-145507664D01*
X126349090Y-145641945D01*
X126518554Y-145746873D01*
X126704414Y-145818876D01*
X126857861Y-145847559D01*
X126900334Y-145855499D01*
X126900335Y-145855499D01*
X126900340Y-145855500D01*
X126900342Y-145855500D01*
X127099658Y-145855500D01*
X127099660Y-145855500D01*
X127295586Y-145818876D01*
X127481446Y-145746873D01*
X127650910Y-145641945D01*
X127798209Y-145507664D01*
X127918326Y-145348604D01*
X128007171Y-145170180D01*
X128061717Y-144978469D01*
X128080108Y-144780000D01*
X128061717Y-144581531D01*
X128007171Y-144389820D01*
X127918326Y-144211396D01*
X127918325Y-144211395D01*
X127918325Y-144211394D01*
X127918323Y-144211392D01*
X127915035Y-144207038D01*
X127798209Y-144052336D01*
X127650910Y-143918055D01*
X127481446Y-143813127D01*
X127426587Y-143791874D01*
X127295588Y-143741124D01*
X127099665Y-143704500D01*
X127099660Y-143704500D01*
X126900340Y-143704500D01*
X126900334Y-143704500D01*
X126704411Y-143741124D01*
X126524540Y-143810808D01*
X126518554Y-143813127D01*
X126518549Y-143813129D01*
X126518549Y-143813130D01*
X126349092Y-143918053D01*
X126201793Y-144052333D01*
X126081676Y-144211392D01*
X126081674Y-144211394D01*
X125992829Y-144389820D01*
X125992827Y-144389824D01*
X125938283Y-144581529D01*
X125938281Y-144581542D01*
X125919892Y-144779996D01*
X125010000Y-144779996D01*
X125010000Y-144707591D01*
X125002607Y-144680000D01*
X125485000Y-144680000D01*
X125485000Y-143935302D01*
X125473396Y-143876964D01*
X125429192Y-143810808D01*
X125429191Y-143810807D01*
X125363035Y-143766603D01*
X125304697Y-143755000D01*
X124560000Y-143755000D01*
X124560000Y-144237393D01*
X124532409Y-144230000D01*
X124387591Y-144230000D01*
X124360000Y-144237393D01*
X124360000Y-143755000D01*
X123615303Y-143755000D01*
X123556964Y-143766603D01*
X123490808Y-143810807D01*
X123490807Y-143810808D01*
X123446603Y-143876964D01*
X123435000Y-143935302D01*
X120850500Y-143935302D01*
X120850500Y-142240000D01*
X123430040Y-142240000D01*
X123449830Y-142440936D01*
X123508442Y-142634150D01*
X123603620Y-142812215D01*
X123667961Y-142890615D01*
X124005607Y-142552968D01*
X124019890Y-142577708D01*
X124122292Y-142680110D01*
X124147029Y-142694391D01*
X123809383Y-143032038D01*
X123887784Y-143096379D01*
X124065849Y-143191557D01*
X124259063Y-143250169D01*
X124460000Y-143269959D01*
X124660936Y-143250169D01*
X124854150Y-143191557D01*
X125032215Y-143096379D01*
X125110615Y-143032038D01*
X124772970Y-142694392D01*
X124797708Y-142680110D01*
X124900110Y-142577708D01*
X124914392Y-142552969D01*
X125252038Y-142890615D01*
X125316379Y-142812215D01*
X125411557Y-142634150D01*
X125470169Y-142440936D01*
X125489959Y-142240000D01*
X125489959Y-142239996D01*
X125919892Y-142239996D01*
X125919892Y-142240003D01*
X125938281Y-142438457D01*
X125938283Y-142438470D01*
X125992827Y-142630175D01*
X125992828Y-142630177D01*
X125992829Y-142630180D01*
X126037251Y-142719392D01*
X126081674Y-142808605D01*
X126081676Y-142808607D01*
X126201791Y-142967664D01*
X126349090Y-143101945D01*
X126518554Y-143206873D01*
X126704414Y-143278876D01*
X126857861Y-143307559D01*
X126900334Y-143315499D01*
X126900335Y-143315499D01*
X126900340Y-143315500D01*
X126900342Y-143315500D01*
X127099658Y-143315500D01*
X127099660Y-143315500D01*
X127295586Y-143278876D01*
X127481446Y-143206873D01*
X127650910Y-143101945D01*
X127798209Y-142967664D01*
X127918326Y-142808604D01*
X128007171Y-142630180D01*
X128061717Y-142438469D01*
X128080108Y-142240000D01*
X128061717Y-142041531D01*
X128007171Y-141849820D01*
X127918326Y-141671396D01*
X127918325Y-141671395D01*
X127918325Y-141671394D01*
X127918323Y-141671392D01*
X127856392Y-141589383D01*
X127798209Y-141512336D01*
X127650910Y-141378055D01*
X127481446Y-141273127D01*
X127426587Y-141251874D01*
X127295588Y-141201124D01*
X127099665Y-141164500D01*
X127099660Y-141164500D01*
X126900340Y-141164500D01*
X126900334Y-141164500D01*
X126704411Y-141201124D01*
X126518559Y-141273125D01*
X126518554Y-141273127D01*
X126518549Y-141273129D01*
X126518549Y-141273130D01*
X126349092Y-141378053D01*
X126201793Y-141512333D01*
X126081676Y-141671392D01*
X126081674Y-141671394D01*
X125992829Y-141849820D01*
X125992827Y-141849824D01*
X125938283Y-142041529D01*
X125938281Y-142041542D01*
X125919892Y-142239996D01*
X125489959Y-142239996D01*
X125470169Y-142039063D01*
X125411557Y-141845849D01*
X125316379Y-141667784D01*
X125252038Y-141589383D01*
X124914391Y-141927028D01*
X124900110Y-141902292D01*
X124797708Y-141799890D01*
X124772968Y-141785607D01*
X125110615Y-141447961D01*
X125032215Y-141383620D01*
X124854150Y-141288442D01*
X124660936Y-141229830D01*
X124460000Y-141210040D01*
X124259063Y-141229830D01*
X124065849Y-141288442D01*
X123887785Y-141383620D01*
X123809383Y-141447961D01*
X124147029Y-141785607D01*
X124122292Y-141799890D01*
X124019890Y-141902292D01*
X124005607Y-141927029D01*
X123667961Y-141589383D01*
X123603620Y-141667785D01*
X123508442Y-141845849D01*
X123449830Y-142039063D01*
X123430040Y-142240000D01*
X120850500Y-142240000D01*
X120850500Y-139700000D01*
X123430040Y-139700000D01*
X123449830Y-139900936D01*
X123508442Y-140094150D01*
X123603620Y-140272215D01*
X123667961Y-140350615D01*
X124005607Y-140012968D01*
X124019890Y-140037708D01*
X124122292Y-140140110D01*
X124147029Y-140154391D01*
X123809383Y-140492038D01*
X123887784Y-140556379D01*
X124065849Y-140651557D01*
X124259063Y-140710169D01*
X124460000Y-140729959D01*
X124660936Y-140710169D01*
X124854150Y-140651557D01*
X125032215Y-140556379D01*
X125110615Y-140492038D01*
X124772970Y-140154392D01*
X124797708Y-140140110D01*
X124900110Y-140037708D01*
X124914392Y-140012969D01*
X125252038Y-140350615D01*
X125316379Y-140272215D01*
X125411557Y-140094150D01*
X125470169Y-139900936D01*
X125489959Y-139700000D01*
X125489959Y-139699996D01*
X125919892Y-139699996D01*
X125919892Y-139700003D01*
X125938281Y-139898457D01*
X125938283Y-139898470D01*
X125992827Y-140090175D01*
X125992828Y-140090177D01*
X125992829Y-140090180D01*
X126037251Y-140179392D01*
X126081674Y-140268605D01*
X126081676Y-140268607D01*
X126201791Y-140427664D01*
X126349090Y-140561945D01*
X126518554Y-140666873D01*
X126704414Y-140738876D01*
X126857861Y-140767559D01*
X126900334Y-140775499D01*
X126900335Y-140775499D01*
X126900340Y-140775500D01*
X126900342Y-140775500D01*
X127099658Y-140775500D01*
X127099660Y-140775500D01*
X127295586Y-140738876D01*
X127481446Y-140666873D01*
X127650910Y-140561945D01*
X127798209Y-140427664D01*
X127918326Y-140268604D01*
X128007171Y-140090180D01*
X128061717Y-139898469D01*
X128080108Y-139700000D01*
X128061717Y-139501531D01*
X128007171Y-139309820D01*
X127918326Y-139131396D01*
X127918325Y-139131395D01*
X127918325Y-139131394D01*
X127918323Y-139131392D01*
X127856392Y-139049383D01*
X127798209Y-138972336D01*
X127650910Y-138838055D01*
X127481446Y-138733127D01*
X127426587Y-138711874D01*
X127295588Y-138661124D01*
X127099665Y-138624500D01*
X127099660Y-138624500D01*
X126900340Y-138624500D01*
X126900334Y-138624500D01*
X126704411Y-138661124D01*
X126518559Y-138733125D01*
X126518554Y-138733127D01*
X126518549Y-138733129D01*
X126518549Y-138733130D01*
X126349092Y-138838053D01*
X126201793Y-138972333D01*
X126081676Y-139131392D01*
X126081674Y-139131394D01*
X125992829Y-139309820D01*
X125992827Y-139309824D01*
X125938283Y-139501529D01*
X125938281Y-139501542D01*
X125919892Y-139699996D01*
X125489959Y-139699996D01*
X125470169Y-139499063D01*
X125411557Y-139305849D01*
X125316379Y-139127784D01*
X125252038Y-139049383D01*
X124914391Y-139387028D01*
X124900110Y-139362292D01*
X124797708Y-139259890D01*
X124772968Y-139245607D01*
X125110615Y-138907961D01*
X125032215Y-138843620D01*
X124854150Y-138748442D01*
X124660936Y-138689830D01*
X124460000Y-138670040D01*
X124259063Y-138689830D01*
X124065849Y-138748442D01*
X123887785Y-138843620D01*
X123809383Y-138907961D01*
X124147029Y-139245607D01*
X124122292Y-139259890D01*
X124019890Y-139362292D01*
X124005607Y-139387029D01*
X123667961Y-139049383D01*
X123603620Y-139127785D01*
X123508442Y-139305849D01*
X123449830Y-139499063D01*
X123430040Y-139700000D01*
X120850500Y-139700000D01*
X120850500Y-137159996D01*
X123379892Y-137159996D01*
X123379892Y-137160003D01*
X123398281Y-137358457D01*
X123398283Y-137358470D01*
X123452827Y-137550175D01*
X123452829Y-137550179D01*
X123541674Y-137728605D01*
X123541676Y-137728607D01*
X123661791Y-137887664D01*
X123809090Y-138021945D01*
X123978554Y-138126873D01*
X124164414Y-138198876D01*
X124317861Y-138227559D01*
X124360334Y-138235499D01*
X124360335Y-138235499D01*
X124360340Y-138235500D01*
X124360342Y-138235500D01*
X124559658Y-138235500D01*
X124559660Y-138235500D01*
X124755586Y-138198876D01*
X124941446Y-138126873D01*
X125110910Y-138021945D01*
X125258209Y-137887664D01*
X125378326Y-137728604D01*
X125467171Y-137550180D01*
X125521717Y-137358469D01*
X125540108Y-137160000D01*
X125540108Y-137159996D01*
X125919892Y-137159996D01*
X125919892Y-137160003D01*
X125938281Y-137358457D01*
X125938283Y-137358470D01*
X125992827Y-137550175D01*
X125992829Y-137550179D01*
X126081674Y-137728605D01*
X126081676Y-137728607D01*
X126201791Y-137887664D01*
X126349090Y-138021945D01*
X126518554Y-138126873D01*
X126704414Y-138198876D01*
X126857861Y-138227559D01*
X126900334Y-138235499D01*
X126900335Y-138235499D01*
X126900340Y-138235500D01*
X126900342Y-138235500D01*
X127099658Y-138235500D01*
X127099660Y-138235500D01*
X127295586Y-138198876D01*
X127481446Y-138126873D01*
X127650910Y-138021945D01*
X127798209Y-137887664D01*
X127918326Y-137728604D01*
X128007171Y-137550180D01*
X128061717Y-137358469D01*
X128080108Y-137160000D01*
X128061717Y-136961531D01*
X128007171Y-136769820D01*
X127918326Y-136591396D01*
X127918325Y-136591395D01*
X127918325Y-136591394D01*
X127918323Y-136591392D01*
X127872434Y-136530626D01*
X127798209Y-136432336D01*
X127650910Y-136298055D01*
X127481446Y-136193127D01*
X127426587Y-136171874D01*
X127295588Y-136121124D01*
X127099665Y-136084500D01*
X127099660Y-136084500D01*
X126900340Y-136084500D01*
X126900334Y-136084500D01*
X126704411Y-136121124D01*
X126518559Y-136193125D01*
X126518554Y-136193127D01*
X126518549Y-136193129D01*
X126518549Y-136193130D01*
X126349092Y-136298053D01*
X126201793Y-136432333D01*
X126081676Y-136591392D01*
X126081674Y-136591394D01*
X125992829Y-136769820D01*
X125992827Y-136769824D01*
X125938283Y-136961529D01*
X125938281Y-136961542D01*
X125919892Y-137159996D01*
X125540108Y-137159996D01*
X125521717Y-136961531D01*
X125467171Y-136769820D01*
X125378326Y-136591396D01*
X125378325Y-136591395D01*
X125378325Y-136591394D01*
X125378323Y-136591392D01*
X125332434Y-136530626D01*
X125258209Y-136432336D01*
X125110910Y-136298055D01*
X124941446Y-136193127D01*
X124886587Y-136171874D01*
X124755588Y-136121124D01*
X124559665Y-136084500D01*
X124559660Y-136084500D01*
X124360340Y-136084500D01*
X124360334Y-136084500D01*
X124164411Y-136121124D01*
X123978559Y-136193125D01*
X123978554Y-136193127D01*
X123978549Y-136193129D01*
X123978549Y-136193130D01*
X123809092Y-136298053D01*
X123661793Y-136432333D01*
X123541676Y-136591392D01*
X123541674Y-136591394D01*
X123452829Y-136769820D01*
X123452827Y-136769824D01*
X123398283Y-136961529D01*
X123398281Y-136961542D01*
X123379892Y-137159996D01*
X120850500Y-137159996D01*
X120850500Y-136000000D01*
X134644901Y-136000000D01*
X134663253Y-136186332D01*
X134717605Y-136365505D01*
X134805859Y-136530617D01*
X134805862Y-136530622D01*
X134805864Y-136530625D01*
X134924643Y-136675357D01*
X135069375Y-136794136D01*
X135069380Y-136794138D01*
X135069382Y-136794140D01*
X135234494Y-136882394D01*
X135234496Y-136882394D01*
X135234499Y-136882396D01*
X135413669Y-136936747D01*
X135600000Y-136955099D01*
X135786331Y-136936747D01*
X135965501Y-136882396D01*
X136130625Y-136794136D01*
X136275357Y-136675357D01*
X136394136Y-136530625D01*
X136482396Y-136365501D01*
X136536747Y-136186331D01*
X136555099Y-136000000D01*
X137184901Y-136000000D01*
X137203253Y-136186332D01*
X137257605Y-136365505D01*
X137345859Y-136530617D01*
X137345862Y-136530622D01*
X137345864Y-136530625D01*
X137464643Y-136675357D01*
X137609375Y-136794136D01*
X137609380Y-136794138D01*
X137609382Y-136794140D01*
X137774494Y-136882394D01*
X137774496Y-136882394D01*
X137774499Y-136882396D01*
X137953669Y-136936747D01*
X138140000Y-136955099D01*
X138326331Y-136936747D01*
X138505501Y-136882396D01*
X138670625Y-136794136D01*
X138815357Y-136675357D01*
X138934136Y-136530625D01*
X139022396Y-136365501D01*
X139076747Y-136186331D01*
X139095099Y-136000000D01*
X139076747Y-135813669D01*
X139022396Y-135634499D01*
X139022394Y-135634496D01*
X139022394Y-135634494D01*
X138934140Y-135469382D01*
X138934138Y-135469380D01*
X138934136Y-135469375D01*
X138815357Y-135324643D01*
X138670625Y-135205864D01*
X138670622Y-135205862D01*
X138670617Y-135205859D01*
X138505505Y-135117605D01*
X138326332Y-135063253D01*
X138140000Y-135044901D01*
X137953667Y-135063253D01*
X137774494Y-135117605D01*
X137609382Y-135205859D01*
X137609373Y-135205865D01*
X137464643Y-135324643D01*
X137345865Y-135469373D01*
X137345859Y-135469382D01*
X137257605Y-135634494D01*
X137203253Y-135813667D01*
X137184901Y-136000000D01*
X136555099Y-136000000D01*
X136536747Y-135813669D01*
X136482396Y-135634499D01*
X136482394Y-135634496D01*
X136482394Y-135634494D01*
X136394140Y-135469382D01*
X136394138Y-135469380D01*
X136394136Y-135469375D01*
X136275357Y-135324643D01*
X136130625Y-135205864D01*
X136130622Y-135205862D01*
X136130617Y-135205859D01*
X135965505Y-135117605D01*
X135786332Y-135063253D01*
X135600000Y-135044901D01*
X135413667Y-135063253D01*
X135234494Y-135117605D01*
X135069382Y-135205859D01*
X135069373Y-135205865D01*
X134924643Y-135324643D01*
X134805865Y-135469373D01*
X134805859Y-135469382D01*
X134717605Y-135634494D01*
X134663253Y-135813667D01*
X134644901Y-136000000D01*
X120850500Y-136000000D01*
X120850500Y-134619996D01*
X123379892Y-134619996D01*
X123379892Y-134620003D01*
X123398281Y-134818457D01*
X123398283Y-134818470D01*
X123452827Y-135010175D01*
X123452828Y-135010177D01*
X123452829Y-135010180D01*
X123497251Y-135099392D01*
X123541674Y-135188605D01*
X123541676Y-135188607D01*
X123661791Y-135347664D01*
X123809090Y-135481945D01*
X123978554Y-135586873D01*
X124164414Y-135658876D01*
X124317861Y-135687559D01*
X124360334Y-135695499D01*
X124360335Y-135695499D01*
X124360340Y-135695500D01*
X124360342Y-135695500D01*
X124559658Y-135695500D01*
X124559660Y-135695500D01*
X124755586Y-135658876D01*
X124941446Y-135586873D01*
X125110910Y-135481945D01*
X125258209Y-135347664D01*
X125378326Y-135188604D01*
X125467171Y-135010180D01*
X125521717Y-134818469D01*
X125540108Y-134620000D01*
X125540108Y-134619996D01*
X125919892Y-134619996D01*
X125919892Y-134620003D01*
X125938281Y-134818457D01*
X125938283Y-134818470D01*
X125992827Y-135010175D01*
X125992828Y-135010177D01*
X125992829Y-135010180D01*
X126037251Y-135099392D01*
X126081674Y-135188605D01*
X126081676Y-135188607D01*
X126201791Y-135347664D01*
X126349090Y-135481945D01*
X126518554Y-135586873D01*
X126704414Y-135658876D01*
X126857861Y-135687559D01*
X126900334Y-135695499D01*
X126900335Y-135695499D01*
X126900340Y-135695500D01*
X126900342Y-135695500D01*
X127099658Y-135695500D01*
X127099660Y-135695500D01*
X127295586Y-135658876D01*
X127481446Y-135586873D01*
X127650910Y-135481945D01*
X127798209Y-135347664D01*
X127918326Y-135188604D01*
X128007171Y-135010180D01*
X128061717Y-134818469D01*
X128080108Y-134620000D01*
X128061717Y-134421531D01*
X128007171Y-134229820D01*
X127918326Y-134051396D01*
X127918325Y-134051395D01*
X127918325Y-134051394D01*
X127918323Y-134051392D01*
X127915035Y-134047038D01*
X127798209Y-133892336D01*
X127650910Y-133758055D01*
X127481446Y-133653127D01*
X127426587Y-133631874D01*
X127295588Y-133581124D01*
X127099665Y-133544500D01*
X127099660Y-133544500D01*
X126900340Y-133544500D01*
X126900334Y-133544500D01*
X126704411Y-133581124D01*
X126518559Y-133653125D01*
X126518554Y-133653127D01*
X126518549Y-133653129D01*
X126518549Y-133653130D01*
X126349092Y-133758053D01*
X126201793Y-133892333D01*
X126081676Y-134051392D01*
X126081674Y-134051394D01*
X125992829Y-134229820D01*
X125992827Y-134229824D01*
X125938283Y-134421529D01*
X125938281Y-134421542D01*
X125919892Y-134619996D01*
X125540108Y-134619996D01*
X125521717Y-134421531D01*
X125467171Y-134229820D01*
X125378326Y-134051396D01*
X125378325Y-134051395D01*
X125378325Y-134051394D01*
X125378323Y-134051392D01*
X125375035Y-134047038D01*
X125258209Y-133892336D01*
X125110910Y-133758055D01*
X124941446Y-133653127D01*
X124886587Y-133631874D01*
X124755588Y-133581124D01*
X124559665Y-133544500D01*
X124559660Y-133544500D01*
X124360340Y-133544500D01*
X124360334Y-133544500D01*
X124164411Y-133581124D01*
X123978559Y-133653125D01*
X123978554Y-133653127D01*
X123978549Y-133653129D01*
X123978549Y-133653130D01*
X123809092Y-133758053D01*
X123661793Y-133892333D01*
X123541676Y-134051392D01*
X123541674Y-134051394D01*
X123452829Y-134229820D01*
X123452827Y-134229824D01*
X123398283Y-134421529D01*
X123398281Y-134421542D01*
X123379892Y-134619996D01*
X120850500Y-134619996D01*
X120850500Y-132079996D01*
X123379892Y-132079996D01*
X123379892Y-132080003D01*
X123398281Y-132278457D01*
X123398283Y-132278470D01*
X123452827Y-132470175D01*
X123452829Y-132470179D01*
X123541674Y-132648605D01*
X123541676Y-132648607D01*
X123661791Y-132807664D01*
X123809090Y-132941945D01*
X123978554Y-133046873D01*
X124164414Y-133118876D01*
X124317861Y-133147559D01*
X124360334Y-133155499D01*
X124360335Y-133155499D01*
X124360340Y-133155500D01*
X124360342Y-133155500D01*
X124559658Y-133155500D01*
X124559660Y-133155500D01*
X124755586Y-133118876D01*
X124941446Y-133046873D01*
X125110910Y-132941945D01*
X125258209Y-132807664D01*
X125378326Y-132648604D01*
X125467171Y-132470180D01*
X125521717Y-132278469D01*
X125540108Y-132080000D01*
X125540108Y-132079996D01*
X125919892Y-132079996D01*
X125919892Y-132080003D01*
X125938281Y-132278457D01*
X125938283Y-132278470D01*
X125992827Y-132470175D01*
X125992829Y-132470179D01*
X126081674Y-132648605D01*
X126081676Y-132648607D01*
X126201791Y-132807664D01*
X126349090Y-132941945D01*
X126518554Y-133046873D01*
X126704414Y-133118876D01*
X126857861Y-133147559D01*
X126900334Y-133155499D01*
X126900335Y-133155499D01*
X126900340Y-133155500D01*
X126900342Y-133155500D01*
X127099658Y-133155500D01*
X127099660Y-133155500D01*
X127295586Y-133118876D01*
X127481446Y-133046873D01*
X127650910Y-132941945D01*
X127798209Y-132807664D01*
X127918326Y-132648604D01*
X128007171Y-132470180D01*
X128061717Y-132278469D01*
X128080108Y-132080000D01*
X128061717Y-131881531D01*
X128007171Y-131689820D01*
X127918326Y-131511396D01*
X127918325Y-131511395D01*
X127918325Y-131511394D01*
X127918323Y-131511392D01*
X127915035Y-131507038D01*
X127798209Y-131352336D01*
X127650910Y-131218055D01*
X127481446Y-131113127D01*
X127426587Y-131091874D01*
X127295588Y-131041124D01*
X127099665Y-131004500D01*
X127099660Y-131004500D01*
X126900340Y-131004500D01*
X126900334Y-131004500D01*
X126704411Y-131041124D01*
X126518559Y-131113125D01*
X126518554Y-131113127D01*
X126518549Y-131113129D01*
X126518549Y-131113130D01*
X126349092Y-131218053D01*
X126201793Y-131352333D01*
X126081676Y-131511392D01*
X126081674Y-131511394D01*
X125992829Y-131689820D01*
X125992827Y-131689824D01*
X125938283Y-131881529D01*
X125938281Y-131881542D01*
X125919892Y-132079996D01*
X125540108Y-132079996D01*
X125521717Y-131881531D01*
X125467171Y-131689820D01*
X125378326Y-131511396D01*
X125378325Y-131511395D01*
X125378325Y-131511394D01*
X125378323Y-131511392D01*
X125375035Y-131507038D01*
X125258209Y-131352336D01*
X125110910Y-131218055D01*
X124941446Y-131113127D01*
X124886587Y-131091874D01*
X124755588Y-131041124D01*
X124559665Y-131004500D01*
X124559660Y-131004500D01*
X124360340Y-131004500D01*
X124360334Y-131004500D01*
X124164411Y-131041124D01*
X123978559Y-131113125D01*
X123978554Y-131113127D01*
X123978549Y-131113129D01*
X123978549Y-131113130D01*
X123809092Y-131218053D01*
X123661793Y-131352333D01*
X123541676Y-131511392D01*
X123541674Y-131511394D01*
X123452829Y-131689820D01*
X123452827Y-131689824D01*
X123398283Y-131881529D01*
X123398281Y-131881542D01*
X123379892Y-132079996D01*
X120850500Y-132079996D01*
X120850500Y-129539996D01*
X123379892Y-129539996D01*
X123379892Y-129540003D01*
X123398281Y-129738457D01*
X123398283Y-129738470D01*
X123452827Y-129930175D01*
X123452829Y-129930179D01*
X123541674Y-130108605D01*
X123541676Y-130108607D01*
X123661791Y-130267664D01*
X123809090Y-130401945D01*
X123978554Y-130506873D01*
X124164414Y-130578876D01*
X124317861Y-130607559D01*
X124360334Y-130615499D01*
X124360335Y-130615499D01*
X124360340Y-130615500D01*
X124360342Y-130615500D01*
X124559658Y-130615500D01*
X124559660Y-130615500D01*
X124755586Y-130578876D01*
X124941446Y-130506873D01*
X125110910Y-130401945D01*
X125258209Y-130267664D01*
X125378326Y-130108604D01*
X125467171Y-129930180D01*
X125521717Y-129738469D01*
X125540108Y-129540000D01*
X125540108Y-129539996D01*
X125919892Y-129539996D01*
X125919892Y-129540003D01*
X125938281Y-129738457D01*
X125938283Y-129738470D01*
X125992827Y-129930175D01*
X125992829Y-129930179D01*
X126081674Y-130108605D01*
X126081676Y-130108607D01*
X126201791Y-130267664D01*
X126349090Y-130401945D01*
X126518554Y-130506873D01*
X126704414Y-130578876D01*
X126857861Y-130607559D01*
X126900334Y-130615499D01*
X126900335Y-130615499D01*
X126900340Y-130615500D01*
X126900342Y-130615500D01*
X127099658Y-130615500D01*
X127099660Y-130615500D01*
X127295586Y-130578876D01*
X127481446Y-130506873D01*
X127650910Y-130401945D01*
X127798209Y-130267664D01*
X127918326Y-130108604D01*
X128007171Y-129930180D01*
X128061717Y-129738469D01*
X128080108Y-129540000D01*
X128061717Y-129341531D01*
X128007171Y-129149820D01*
X127918326Y-128971396D01*
X127918325Y-128971395D01*
X127918325Y-128971394D01*
X127918323Y-128971392D01*
X127915035Y-128967038D01*
X127798209Y-128812336D01*
X127650910Y-128678055D01*
X127481446Y-128573127D01*
X127426587Y-128551874D01*
X127295588Y-128501124D01*
X127099665Y-128464500D01*
X127099660Y-128464500D01*
X126900340Y-128464500D01*
X126900334Y-128464500D01*
X126704411Y-128501124D01*
X126518559Y-128573125D01*
X126518554Y-128573127D01*
X126518549Y-128573129D01*
X126518549Y-128573130D01*
X126349092Y-128678053D01*
X126201793Y-128812333D01*
X126081676Y-128971392D01*
X126081674Y-128971394D01*
X125992829Y-129149820D01*
X125992827Y-129149824D01*
X125938283Y-129341529D01*
X125938281Y-129341542D01*
X125919892Y-129539996D01*
X125540108Y-129539996D01*
X125521717Y-129341531D01*
X125467171Y-129149820D01*
X125378326Y-128971396D01*
X125378325Y-128971395D01*
X125378325Y-128971394D01*
X125378323Y-128971392D01*
X125375035Y-128967038D01*
X125258209Y-128812336D01*
X125110910Y-128678055D01*
X124941446Y-128573127D01*
X124886587Y-128551874D01*
X124755588Y-128501124D01*
X124559665Y-128464500D01*
X124559660Y-128464500D01*
X124360340Y-128464500D01*
X124360334Y-128464500D01*
X124164411Y-128501124D01*
X123978559Y-128573125D01*
X123978554Y-128573127D01*
X123978549Y-128573129D01*
X123978549Y-128573130D01*
X123809092Y-128678053D01*
X123661793Y-128812333D01*
X123541676Y-128971392D01*
X123541674Y-128971394D01*
X123452829Y-129149820D01*
X123452827Y-129149824D01*
X123398283Y-129341529D01*
X123398281Y-129341542D01*
X123379892Y-129539996D01*
X120850500Y-129539996D01*
X120850500Y-126999996D01*
X123379892Y-126999996D01*
X123379892Y-127000003D01*
X123398281Y-127198457D01*
X123398283Y-127198470D01*
X123452827Y-127390175D01*
X123452829Y-127390179D01*
X123541674Y-127568605D01*
X123541676Y-127568607D01*
X123661791Y-127727664D01*
X123809090Y-127861945D01*
X123978554Y-127966873D01*
X124164414Y-128038876D01*
X124317861Y-128067559D01*
X124360334Y-128075499D01*
X124360335Y-128075499D01*
X124360340Y-128075500D01*
X124360342Y-128075500D01*
X124559658Y-128075500D01*
X124559660Y-128075500D01*
X124755586Y-128038876D01*
X124941446Y-127966873D01*
X125110910Y-127861945D01*
X125258209Y-127727664D01*
X125378326Y-127568604D01*
X125467171Y-127390180D01*
X125521717Y-127198469D01*
X125540108Y-127000000D01*
X125540108Y-126999996D01*
X125919892Y-126999996D01*
X125919892Y-127000003D01*
X125938281Y-127198457D01*
X125938283Y-127198470D01*
X125992827Y-127390175D01*
X125992829Y-127390179D01*
X126081674Y-127568605D01*
X126081676Y-127568607D01*
X126201791Y-127727664D01*
X126349090Y-127861945D01*
X126518554Y-127966873D01*
X126704414Y-128038876D01*
X126857861Y-128067559D01*
X126900334Y-128075499D01*
X126900335Y-128075499D01*
X126900340Y-128075500D01*
X126900342Y-128075500D01*
X127099658Y-128075500D01*
X127099660Y-128075500D01*
X127295586Y-128038876D01*
X127481446Y-127966873D01*
X127650910Y-127861945D01*
X127798209Y-127727664D01*
X127918326Y-127568604D01*
X128007171Y-127390180D01*
X128061717Y-127198469D01*
X128080108Y-127000000D01*
X128061717Y-126801531D01*
X128007171Y-126609820D01*
X127918326Y-126431396D01*
X127918325Y-126431395D01*
X127918325Y-126431394D01*
X127918323Y-126431392D01*
X127915035Y-126427038D01*
X127798209Y-126272336D01*
X127650910Y-126138055D01*
X127481446Y-126033127D01*
X127426587Y-126011874D01*
X127295588Y-125961124D01*
X127099665Y-125924500D01*
X127099660Y-125924500D01*
X126900340Y-125924500D01*
X126900334Y-125924500D01*
X126704411Y-125961124D01*
X126518559Y-126033125D01*
X126518554Y-126033127D01*
X126518549Y-126033129D01*
X126518549Y-126033130D01*
X126349092Y-126138053D01*
X126201793Y-126272333D01*
X126081676Y-126431392D01*
X126081674Y-126431394D01*
X125992829Y-126609820D01*
X125992827Y-126609824D01*
X125938283Y-126801529D01*
X125938281Y-126801542D01*
X125919892Y-126999996D01*
X125540108Y-126999996D01*
X125521717Y-126801531D01*
X125467171Y-126609820D01*
X125378326Y-126431396D01*
X125378325Y-126431395D01*
X125378325Y-126431394D01*
X125378323Y-126431392D01*
X125375035Y-126427038D01*
X125258209Y-126272336D01*
X125110910Y-126138055D01*
X124941446Y-126033127D01*
X124886587Y-126011874D01*
X124755588Y-125961124D01*
X124559665Y-125924500D01*
X124559660Y-125924500D01*
X124360340Y-125924500D01*
X124360334Y-125924500D01*
X124164411Y-125961124D01*
X123978559Y-126033125D01*
X123978554Y-126033127D01*
X123978549Y-126033129D01*
X123978549Y-126033130D01*
X123809092Y-126138053D01*
X123661793Y-126272333D01*
X123541676Y-126431392D01*
X123541674Y-126431394D01*
X123452829Y-126609820D01*
X123452827Y-126609824D01*
X123398283Y-126801529D01*
X123398281Y-126801542D01*
X123379892Y-126999996D01*
X120850500Y-126999996D01*
X120850500Y-124459996D01*
X123379892Y-124459996D01*
X123379892Y-124460003D01*
X123398281Y-124658457D01*
X123398283Y-124658470D01*
X123452827Y-124850175D01*
X123452829Y-124850179D01*
X123541674Y-125028605D01*
X123541676Y-125028607D01*
X123661791Y-125187664D01*
X123809090Y-125321945D01*
X123978554Y-125426873D01*
X124164414Y-125498876D01*
X124317861Y-125527559D01*
X124360334Y-125535499D01*
X124360335Y-125535499D01*
X124360340Y-125535500D01*
X124360342Y-125535500D01*
X124559658Y-125535500D01*
X124559660Y-125535500D01*
X124755586Y-125498876D01*
X124941446Y-125426873D01*
X125110910Y-125321945D01*
X125258209Y-125187664D01*
X125378326Y-125028604D01*
X125467171Y-124850180D01*
X125521717Y-124658469D01*
X125540108Y-124460000D01*
X125540108Y-124459996D01*
X125919892Y-124459996D01*
X125919892Y-124460003D01*
X125938281Y-124658457D01*
X125938283Y-124658470D01*
X125992827Y-124850175D01*
X125992829Y-124850179D01*
X126081674Y-125028605D01*
X126081676Y-125028607D01*
X126201791Y-125187664D01*
X126349090Y-125321945D01*
X126518554Y-125426873D01*
X126704414Y-125498876D01*
X126857861Y-125527559D01*
X126900334Y-125535499D01*
X126900335Y-125535499D01*
X126900340Y-125535500D01*
X126900342Y-125535500D01*
X127099658Y-125535500D01*
X127099660Y-125535500D01*
X127295586Y-125498876D01*
X127481446Y-125426873D01*
X127650910Y-125321945D01*
X127798209Y-125187664D01*
X127918326Y-125028604D01*
X128007171Y-124850180D01*
X128061717Y-124658469D01*
X128080108Y-124460000D01*
X128061717Y-124261531D01*
X128007171Y-124069820D01*
X127918326Y-123891396D01*
X127918325Y-123891395D01*
X127918325Y-123891394D01*
X127918323Y-123891392D01*
X127915035Y-123887038D01*
X127798209Y-123732336D01*
X127650910Y-123598055D01*
X127481446Y-123493127D01*
X127426587Y-123471874D01*
X127295588Y-123421124D01*
X127099665Y-123384500D01*
X127099660Y-123384500D01*
X126900340Y-123384500D01*
X126900334Y-123384500D01*
X126704411Y-123421124D01*
X126518559Y-123493125D01*
X126518554Y-123493127D01*
X126518549Y-123493129D01*
X126518549Y-123493130D01*
X126349092Y-123598053D01*
X126201793Y-123732333D01*
X126081676Y-123891392D01*
X126081674Y-123891394D01*
X125992829Y-124069820D01*
X125992827Y-124069824D01*
X125938283Y-124261529D01*
X125938281Y-124261542D01*
X125919892Y-124459996D01*
X125540108Y-124459996D01*
X125521717Y-124261531D01*
X125467171Y-124069820D01*
X125378326Y-123891396D01*
X125378325Y-123891395D01*
X125378325Y-123891394D01*
X125378323Y-123891392D01*
X125375035Y-123887038D01*
X125258209Y-123732336D01*
X125110910Y-123598055D01*
X124941446Y-123493127D01*
X124886587Y-123471874D01*
X124755588Y-123421124D01*
X124559665Y-123384500D01*
X124559660Y-123384500D01*
X124360340Y-123384500D01*
X124360334Y-123384500D01*
X124164411Y-123421124D01*
X123978559Y-123493125D01*
X123978554Y-123493127D01*
X123978549Y-123493129D01*
X123978549Y-123493130D01*
X123809092Y-123598053D01*
X123661793Y-123732333D01*
X123541676Y-123891392D01*
X123541674Y-123891394D01*
X123452829Y-124069820D01*
X123452827Y-124069824D01*
X123398283Y-124261529D01*
X123398281Y-124261542D01*
X123379892Y-124459996D01*
X120850500Y-124459996D01*
X120850500Y-121919996D01*
X123379892Y-121919996D01*
X123379892Y-121920003D01*
X123398281Y-122118457D01*
X123398283Y-122118470D01*
X123452827Y-122310175D01*
X123452829Y-122310179D01*
X123541674Y-122488605D01*
X123541676Y-122488607D01*
X123661791Y-122647664D01*
X123809090Y-122781945D01*
X123978554Y-122886873D01*
X124164414Y-122958876D01*
X124317861Y-122987559D01*
X124360334Y-122995499D01*
X124360335Y-122995499D01*
X124360340Y-122995500D01*
X124360342Y-122995500D01*
X124559658Y-122995500D01*
X124559660Y-122995500D01*
X124755586Y-122958876D01*
X124941446Y-122886873D01*
X125110910Y-122781945D01*
X125258209Y-122647664D01*
X125378326Y-122488604D01*
X125467171Y-122310180D01*
X125521717Y-122118469D01*
X125528745Y-122042621D01*
X125540108Y-121920003D01*
X125540108Y-121919996D01*
X125919892Y-121919996D01*
X125919892Y-121920003D01*
X125938281Y-122118457D01*
X125938283Y-122118470D01*
X125992827Y-122310175D01*
X125992829Y-122310179D01*
X126081674Y-122488605D01*
X126081676Y-122488607D01*
X126201791Y-122647664D01*
X126349090Y-122781945D01*
X126518554Y-122886873D01*
X126704414Y-122958876D01*
X126857861Y-122987559D01*
X126900334Y-122995499D01*
X126900335Y-122995499D01*
X126900340Y-122995500D01*
X126900342Y-122995500D01*
X127099658Y-122995500D01*
X127099660Y-122995500D01*
X127295586Y-122958876D01*
X127481446Y-122886873D01*
X127650910Y-122781945D01*
X127798209Y-122647664D01*
X127918326Y-122488604D01*
X128007171Y-122310180D01*
X128061717Y-122118469D01*
X128068745Y-122042621D01*
X128080108Y-121920003D01*
X128080108Y-121919996D01*
X128061718Y-121721542D01*
X128061717Y-121721531D01*
X128041365Y-121650000D01*
X164644750Y-121650000D01*
X164663669Y-121793708D01*
X164715982Y-121920003D01*
X164719139Y-121927625D01*
X164807379Y-122042621D01*
X164922375Y-122130861D01*
X165056291Y-122186330D01*
X165200000Y-122205250D01*
X165343709Y-122186330D01*
X165477625Y-122130861D01*
X165592621Y-122042621D01*
X165680861Y-121927625D01*
X165736330Y-121793709D01*
X165755250Y-121650000D01*
X165736330Y-121506291D01*
X165680861Y-121372375D01*
X165592621Y-121257379D01*
X165477625Y-121169139D01*
X165477623Y-121169138D01*
X165343708Y-121113669D01*
X165200000Y-121094750D01*
X165056291Y-121113669D01*
X164922376Y-121169138D01*
X164807379Y-121257379D01*
X164719138Y-121372376D01*
X164663669Y-121506291D01*
X164644750Y-121650000D01*
X128041365Y-121650000D01*
X128007171Y-121529820D01*
X127918326Y-121351396D01*
X127918325Y-121351395D01*
X127918325Y-121351394D01*
X127918323Y-121351392D01*
X127847327Y-121257379D01*
X127798209Y-121192336D01*
X127650910Y-121058055D01*
X127481446Y-120953127D01*
X127426587Y-120931874D01*
X127295588Y-120881124D01*
X127099665Y-120844500D01*
X127099660Y-120844500D01*
X126900340Y-120844500D01*
X126900334Y-120844500D01*
X126704411Y-120881124D01*
X126518559Y-120953125D01*
X126518554Y-120953127D01*
X126518549Y-120953129D01*
X126518549Y-120953130D01*
X126349092Y-121058053D01*
X126201793Y-121192333D01*
X126081676Y-121351392D01*
X126081674Y-121351394D01*
X125992829Y-121529820D01*
X125992827Y-121529824D01*
X125938283Y-121721529D01*
X125938281Y-121721542D01*
X125919892Y-121919996D01*
X125540108Y-121919996D01*
X125521718Y-121721542D01*
X125521717Y-121721531D01*
X125467171Y-121529820D01*
X125378326Y-121351396D01*
X125378325Y-121351395D01*
X125378325Y-121351394D01*
X125378323Y-121351392D01*
X125307327Y-121257379D01*
X125258209Y-121192336D01*
X125110910Y-121058055D01*
X124941446Y-120953127D01*
X124886587Y-120931874D01*
X124755588Y-120881124D01*
X124559665Y-120844500D01*
X124559660Y-120844500D01*
X124360340Y-120844500D01*
X124360334Y-120844500D01*
X124164411Y-120881124D01*
X123978559Y-120953125D01*
X123978554Y-120953127D01*
X123978549Y-120953129D01*
X123978549Y-120953130D01*
X123809092Y-121058053D01*
X123661793Y-121192333D01*
X123541676Y-121351392D01*
X123541674Y-121351394D01*
X123452829Y-121529820D01*
X123452827Y-121529824D01*
X123398283Y-121721529D01*
X123398281Y-121721542D01*
X123379892Y-121919996D01*
X120850500Y-121919996D01*
X120850500Y-119400000D01*
X164244750Y-119400000D01*
X164263669Y-119543708D01*
X164289592Y-119606291D01*
X164319139Y-119677625D01*
X164407379Y-119792621D01*
X164522375Y-119880861D01*
X164656291Y-119936330D01*
X164800000Y-119955250D01*
X164943709Y-119936330D01*
X165077625Y-119880861D01*
X165192621Y-119792621D01*
X165225325Y-119750000D01*
X165594750Y-119750000D01*
X165613669Y-119893708D01*
X165669138Y-120027623D01*
X165669139Y-120027625D01*
X165757379Y-120142621D01*
X165872375Y-120230861D01*
X166006291Y-120286330D01*
X166150000Y-120305250D01*
X166293709Y-120286330D01*
X166427625Y-120230861D01*
X166542621Y-120142621D01*
X166630861Y-120027625D01*
X166686330Y-119893709D01*
X166705250Y-119750000D01*
X166686330Y-119606291D01*
X166630861Y-119472375D01*
X166542621Y-119357379D01*
X166427625Y-119269139D01*
X166396607Y-119256291D01*
X166293708Y-119213669D01*
X166150000Y-119194750D01*
X166006291Y-119213669D01*
X165872376Y-119269138D01*
X165757379Y-119357379D01*
X165669138Y-119472376D01*
X165613669Y-119606291D01*
X165594750Y-119750000D01*
X165225325Y-119750000D01*
X165280861Y-119677625D01*
X165336330Y-119543709D01*
X165355250Y-119400000D01*
X165336330Y-119256291D01*
X165280861Y-119122375D01*
X165192621Y-119007379D01*
X165077625Y-118919139D01*
X165077623Y-118919138D01*
X164943708Y-118863669D01*
X164800000Y-118844750D01*
X164656291Y-118863669D01*
X164522376Y-118919138D01*
X164407379Y-119007379D01*
X164319138Y-119122376D01*
X164263669Y-119256291D01*
X164244750Y-119400000D01*
X120850500Y-119400000D01*
X120850500Y-118300000D01*
X166194750Y-118300000D01*
X166213669Y-118443708D01*
X166269138Y-118577623D01*
X166269139Y-118577625D01*
X166357379Y-118692621D01*
X166472375Y-118780861D01*
X166606291Y-118836330D01*
X166750000Y-118855250D01*
X166893709Y-118836330D01*
X167027625Y-118780861D01*
X167142621Y-118692621D01*
X167230861Y-118577625D01*
X167286330Y-118443709D01*
X167305250Y-118300000D01*
X167286330Y-118156291D01*
X167230861Y-118022375D01*
X167142621Y-117907379D01*
X167027625Y-117819139D01*
X167027623Y-117819138D01*
X166893708Y-117763669D01*
X166750000Y-117744750D01*
X166606291Y-117763669D01*
X166472376Y-117819138D01*
X166357379Y-117907379D01*
X166269138Y-118022376D01*
X166213669Y-118156291D01*
X166194750Y-118300000D01*
X120850500Y-118300000D01*
X120850500Y-115995302D01*
X123435000Y-115995302D01*
X123435000Y-116740000D01*
X123917393Y-116740000D01*
X123910000Y-116767591D01*
X123910000Y-116912409D01*
X123917393Y-116940000D01*
X123435000Y-116940000D01*
X123435000Y-117684697D01*
X123446603Y-117743035D01*
X123490807Y-117809191D01*
X123490808Y-117809192D01*
X123556964Y-117853396D01*
X123615303Y-117865000D01*
X124360000Y-117865000D01*
X124360000Y-117382606D01*
X124387591Y-117390000D01*
X124532409Y-117390000D01*
X124560000Y-117382606D01*
X124560000Y-117865000D01*
X125304697Y-117865000D01*
X125363035Y-117853396D01*
X125429191Y-117809192D01*
X125429192Y-117809191D01*
X125473396Y-117743035D01*
X125485000Y-117684697D01*
X125485000Y-116940000D01*
X125002607Y-116940000D01*
X125010000Y-116912409D01*
X125010000Y-116839996D01*
X125919892Y-116839996D01*
X125919892Y-116840003D01*
X125938281Y-117038457D01*
X125938283Y-117038470D01*
X125992827Y-117230175D01*
X125992828Y-117230177D01*
X125992829Y-117230180D01*
X126037251Y-117319392D01*
X126081674Y-117408605D01*
X126081676Y-117408607D01*
X126201791Y-117567664D01*
X126349090Y-117701945D01*
X126518554Y-117806873D01*
X126704414Y-117878876D01*
X126856895Y-117907379D01*
X126900334Y-117915499D01*
X126900335Y-117915499D01*
X126900340Y-117915500D01*
X126900342Y-117915500D01*
X127099658Y-117915500D01*
X127099660Y-117915500D01*
X127295586Y-117878876D01*
X127481446Y-117806873D01*
X127650910Y-117701945D01*
X127798209Y-117567664D01*
X127918326Y-117408604D01*
X128007171Y-117230180D01*
X128061717Y-117038469D01*
X128080108Y-116840000D01*
X128061717Y-116641531D01*
X128007171Y-116449820D01*
X127918326Y-116271396D01*
X127918325Y-116271395D01*
X127918325Y-116271394D01*
X127918323Y-116271392D01*
X127902168Y-116250000D01*
X163444750Y-116250000D01*
X163463669Y-116393708D01*
X163486913Y-116449824D01*
X163519139Y-116527625D01*
X163607379Y-116642621D01*
X163722375Y-116730861D01*
X163856291Y-116786330D01*
X164000000Y-116805250D01*
X164143709Y-116786330D01*
X164277625Y-116730861D01*
X164392621Y-116642621D01*
X164480861Y-116527625D01*
X164536330Y-116393709D01*
X164555250Y-116250000D01*
X164536330Y-116106291D01*
X164480861Y-115972375D01*
X164392621Y-115857379D01*
X164277625Y-115769139D01*
X164277623Y-115769138D01*
X164143708Y-115713669D01*
X164000000Y-115694750D01*
X163856291Y-115713669D01*
X163722376Y-115769138D01*
X163607379Y-115857379D01*
X163519138Y-115972376D01*
X163463669Y-116106291D01*
X163444750Y-116250000D01*
X127902168Y-116250000D01*
X127798209Y-116112336D01*
X127650910Y-115978055D01*
X127481446Y-115873127D01*
X127426587Y-115851874D01*
X127295588Y-115801124D01*
X127099665Y-115764500D01*
X127099660Y-115764500D01*
X126900340Y-115764500D01*
X126900334Y-115764500D01*
X126704411Y-115801124D01*
X126524540Y-115870808D01*
X126518554Y-115873127D01*
X126518549Y-115873129D01*
X126518549Y-115873130D01*
X126349092Y-115978053D01*
X126201793Y-116112333D01*
X126081676Y-116271392D01*
X126081674Y-116271394D01*
X125992829Y-116449820D01*
X125992827Y-116449824D01*
X125938283Y-116641529D01*
X125938281Y-116641542D01*
X125919892Y-116839996D01*
X125010000Y-116839996D01*
X125010000Y-116767591D01*
X125002607Y-116740000D01*
X125485000Y-116740000D01*
X125485000Y-115995302D01*
X125473396Y-115936964D01*
X125429192Y-115870808D01*
X125429191Y-115870807D01*
X125363035Y-115826603D01*
X125304697Y-115815000D01*
X124560000Y-115815000D01*
X124560000Y-116297393D01*
X124532409Y-116290000D01*
X124387591Y-116290000D01*
X124360000Y-116297393D01*
X124360000Y-115815000D01*
X123615303Y-115815000D01*
X123556964Y-115826603D01*
X123490808Y-115870807D01*
X123490807Y-115870808D01*
X123446603Y-115936964D01*
X123435000Y-115995302D01*
X120850500Y-115995302D01*
X120850500Y-114299996D01*
X123379892Y-114299996D01*
X123379892Y-114300003D01*
X123398281Y-114498457D01*
X123398283Y-114498470D01*
X123452827Y-114690175D01*
X123452829Y-114690179D01*
X123541674Y-114868605D01*
X123541676Y-114868607D01*
X123661791Y-115027664D01*
X123809090Y-115161945D01*
X123978554Y-115266873D01*
X124164414Y-115338876D01*
X124317861Y-115367559D01*
X124360334Y-115375499D01*
X124360335Y-115375499D01*
X124360340Y-115375500D01*
X124360342Y-115375500D01*
X124559658Y-115375500D01*
X124559660Y-115375500D01*
X124755586Y-115338876D01*
X124941446Y-115266873D01*
X125110910Y-115161945D01*
X125258209Y-115027664D01*
X125378326Y-114868604D01*
X125467171Y-114690180D01*
X125521717Y-114498469D01*
X125540108Y-114300000D01*
X125540108Y-114299996D01*
X125919892Y-114299996D01*
X125919892Y-114300003D01*
X125938281Y-114498457D01*
X125938283Y-114498470D01*
X125992827Y-114690175D01*
X125992829Y-114690179D01*
X126081674Y-114868605D01*
X126081676Y-114868607D01*
X126201791Y-115027664D01*
X126349090Y-115161945D01*
X126518554Y-115266873D01*
X126704414Y-115338876D01*
X126857861Y-115367559D01*
X126900334Y-115375499D01*
X126900335Y-115375499D01*
X126900340Y-115375500D01*
X126900342Y-115375500D01*
X127099658Y-115375500D01*
X127099660Y-115375500D01*
X127295586Y-115338876D01*
X127481446Y-115266873D01*
X127650910Y-115161945D01*
X127798209Y-115027664D01*
X127894617Y-114900000D01*
X163644750Y-114900000D01*
X163663669Y-115043708D01*
X163719138Y-115177623D01*
X163719139Y-115177625D01*
X163807379Y-115292621D01*
X163922375Y-115380861D01*
X164056291Y-115436330D01*
X164200000Y-115455250D01*
X164343709Y-115436330D01*
X164477625Y-115380861D01*
X164592621Y-115292621D01*
X164680861Y-115177625D01*
X164736330Y-115043709D01*
X164755250Y-114900000D01*
X164736330Y-114756291D01*
X164680861Y-114622375D01*
X164592621Y-114507379D01*
X164477625Y-114419139D01*
X164477623Y-114419138D01*
X164343708Y-114363669D01*
X164200000Y-114344750D01*
X164056291Y-114363669D01*
X163922376Y-114419138D01*
X163807379Y-114507379D01*
X163719138Y-114622376D01*
X163663669Y-114756291D01*
X163644750Y-114900000D01*
X127894617Y-114900000D01*
X127918326Y-114868604D01*
X128007171Y-114690180D01*
X128061717Y-114498469D01*
X128080108Y-114300000D01*
X128061717Y-114101531D01*
X128007171Y-113909820D01*
X127918326Y-113731396D01*
X127918325Y-113731395D01*
X127918325Y-113731394D01*
X127918323Y-113731392D01*
X127915035Y-113727038D01*
X127798209Y-113572336D01*
X127779465Y-113555249D01*
X127758712Y-113536330D01*
X127650910Y-113438055D01*
X127481446Y-113333127D01*
X127426587Y-113311874D01*
X127295588Y-113261124D01*
X127099665Y-113224500D01*
X127099660Y-113224500D01*
X126900340Y-113224500D01*
X126900334Y-113224500D01*
X126704411Y-113261124D01*
X126518559Y-113333125D01*
X126518554Y-113333127D01*
X126518549Y-113333129D01*
X126518549Y-113333130D01*
X126349092Y-113438053D01*
X126201793Y-113572333D01*
X126081676Y-113731392D01*
X126081674Y-113731394D01*
X125992829Y-113909820D01*
X125992827Y-113909824D01*
X125938283Y-114101529D01*
X125938281Y-114101542D01*
X125919892Y-114299996D01*
X125540108Y-114299996D01*
X125521717Y-114101531D01*
X125467171Y-113909820D01*
X125378326Y-113731396D01*
X125378325Y-113731395D01*
X125378325Y-113731394D01*
X125378323Y-113731392D01*
X125375035Y-113727038D01*
X125258209Y-113572336D01*
X125239465Y-113555249D01*
X125218712Y-113536330D01*
X125110910Y-113438055D01*
X124941446Y-113333127D01*
X124886587Y-113311874D01*
X124755588Y-113261124D01*
X124559665Y-113224500D01*
X124559660Y-113224500D01*
X124360340Y-113224500D01*
X124360334Y-113224500D01*
X124164411Y-113261124D01*
X123978559Y-113333125D01*
X123978554Y-113333127D01*
X123978549Y-113333129D01*
X123978549Y-113333130D01*
X123809092Y-113438053D01*
X123661793Y-113572333D01*
X123541676Y-113731392D01*
X123541674Y-113731394D01*
X123452829Y-113909820D01*
X123452827Y-113909824D01*
X123398283Y-114101529D01*
X123398281Y-114101542D01*
X123379892Y-114299996D01*
X120850500Y-114299996D01*
X120850500Y-113000000D01*
X155444750Y-113000000D01*
X155463669Y-113143708D01*
X155497134Y-113224500D01*
X155519139Y-113277625D01*
X155607379Y-113392621D01*
X155722375Y-113480861D01*
X155856291Y-113536330D01*
X156000000Y-113555250D01*
X156143709Y-113536330D01*
X156277625Y-113480861D01*
X156392621Y-113392621D01*
X156480861Y-113277625D01*
X156536330Y-113143709D01*
X156555250Y-113000000D01*
X156550323Y-112962580D01*
X156564981Y-112907876D01*
X156614030Y-112879556D01*
X156652010Y-112884557D01*
X156656288Y-112886329D01*
X156656289Y-112886329D01*
X156656291Y-112886330D01*
X156800000Y-112905250D01*
X156943709Y-112886330D01*
X157077625Y-112830861D01*
X157192621Y-112742621D01*
X157280861Y-112627625D01*
X157292833Y-112598720D01*
X157332878Y-112558673D01*
X157389515Y-112558671D01*
X157389517Y-112558672D01*
X157456291Y-112586330D01*
X157600000Y-112605250D01*
X157743709Y-112586330D01*
X157877625Y-112530861D01*
X157992621Y-112442621D01*
X158054423Y-112362079D01*
X158103471Y-112333761D01*
X158141447Y-112338760D01*
X158256291Y-112386330D01*
X158400000Y-112405250D01*
X158543709Y-112386330D01*
X158677625Y-112330861D01*
X158792621Y-112242621D01*
X158880861Y-112127625D01*
X158936330Y-111993709D01*
X158955250Y-111850000D01*
X158955249Y-111849999D01*
X158955836Y-111845547D01*
X158984155Y-111796498D01*
X159038862Y-111781839D01*
X159051562Y-111785243D01*
X159051608Y-111785075D01*
X159056289Y-111786329D01*
X159056291Y-111786330D01*
X159200000Y-111805250D01*
X159343709Y-111786330D01*
X159477625Y-111730861D01*
X159592621Y-111642621D01*
X159625791Y-111599392D01*
X159674839Y-111571074D01*
X159717651Y-111579589D01*
X159717894Y-111579005D01*
X159720831Y-111580221D01*
X159721497Y-111580354D01*
X159722371Y-111580858D01*
X159722375Y-111580861D01*
X159856291Y-111636330D01*
X160000000Y-111655250D01*
X160143709Y-111636330D01*
X160277625Y-111580861D01*
X160374897Y-111506220D01*
X160429600Y-111491563D01*
X160478650Y-111519881D01*
X160493309Y-111574588D01*
X160478652Y-111609976D01*
X160469140Y-111622373D01*
X160469138Y-111622376D01*
X160413669Y-111756291D01*
X160394750Y-111900000D01*
X160413669Y-112043708D01*
X160457771Y-112150180D01*
X160469139Y-112177625D01*
X160557379Y-112292621D01*
X160672375Y-112380861D01*
X160806291Y-112436330D01*
X160950000Y-112455250D01*
X161093709Y-112436330D01*
X161227625Y-112380861D01*
X161267844Y-112350000D01*
X164294750Y-112350000D01*
X164313669Y-112493708D01*
X164359871Y-112605250D01*
X164369139Y-112627625D01*
X164457379Y-112742621D01*
X164572375Y-112830861D01*
X164706291Y-112886330D01*
X164850000Y-112905250D01*
X164993709Y-112886330D01*
X165127625Y-112830861D01*
X165242621Y-112742621D01*
X165330861Y-112627625D01*
X165386330Y-112493709D01*
X165405250Y-112350000D01*
X165386330Y-112206291D01*
X165330861Y-112072375D01*
X165242621Y-111957379D01*
X165127625Y-111869139D01*
X165081419Y-111850000D01*
X164993708Y-111813669D01*
X164850000Y-111794750D01*
X164706291Y-111813669D01*
X164572376Y-111869138D01*
X164457379Y-111957379D01*
X164369138Y-112072376D01*
X164313669Y-112206291D01*
X164294750Y-112350000D01*
X161267844Y-112350000D01*
X161342621Y-112292621D01*
X161430861Y-112177625D01*
X161486330Y-112043709D01*
X161505250Y-111900000D01*
X161486330Y-111756291D01*
X161430861Y-111622375D01*
X161342621Y-111507379D01*
X161227625Y-111419139D01*
X161227623Y-111419138D01*
X161093708Y-111363669D01*
X160950000Y-111344750D01*
X160806291Y-111363669D01*
X160672376Y-111419138D01*
X160640499Y-111443598D01*
X160575105Y-111493777D01*
X160520398Y-111508436D01*
X160471349Y-111480118D01*
X160456690Y-111425410D01*
X160471349Y-111390020D01*
X160480861Y-111377625D01*
X160536330Y-111243709D01*
X160555250Y-111100000D01*
X160555249Y-111099999D01*
X160555836Y-111095547D01*
X160584155Y-111046498D01*
X160638862Y-111031839D01*
X160651562Y-111035243D01*
X160651608Y-111035075D01*
X160656289Y-111036329D01*
X160656291Y-111036330D01*
X160800000Y-111055250D01*
X160943709Y-111036330D01*
X161077625Y-110980861D01*
X161192621Y-110892621D01*
X161280861Y-110777625D01*
X161336330Y-110643709D01*
X161355250Y-110500000D01*
X161355249Y-110499999D01*
X161355836Y-110495547D01*
X161384155Y-110446498D01*
X161438862Y-110431839D01*
X161451562Y-110435243D01*
X161451608Y-110435075D01*
X161456289Y-110436329D01*
X161456291Y-110436330D01*
X161600000Y-110455250D01*
X161743709Y-110436330D01*
X161877625Y-110380861D01*
X161992621Y-110292621D01*
X162080861Y-110177625D01*
X162136330Y-110043709D01*
X162155250Y-109900000D01*
X162136330Y-109756291D01*
X162080861Y-109622375D01*
X161992621Y-109507379D01*
X161877625Y-109419139D01*
X161876010Y-109418470D01*
X161743708Y-109363669D01*
X161600000Y-109344750D01*
X161456291Y-109363669D01*
X161322376Y-109419138D01*
X161207379Y-109507379D01*
X161119138Y-109622376D01*
X161063669Y-109756291D01*
X161044163Y-109904452D01*
X161015844Y-109953501D01*
X160961137Y-109968160D01*
X160948433Y-109964756D01*
X160948389Y-109964924D01*
X160943710Y-109963670D01*
X160800000Y-109944750D01*
X160656291Y-109963669D01*
X160522376Y-110019138D01*
X160407379Y-110107379D01*
X160319138Y-110222376D01*
X160263669Y-110356291D01*
X160244163Y-110504452D01*
X160215844Y-110553501D01*
X160161137Y-110568160D01*
X160148433Y-110564756D01*
X160148389Y-110564924D01*
X160143710Y-110563670D01*
X160000000Y-110544750D01*
X159856291Y-110563669D01*
X159722376Y-110619138D01*
X159722372Y-110619140D01*
X159607381Y-110707376D01*
X159607375Y-110707382D01*
X159574207Y-110750607D01*
X159525158Y-110778925D01*
X159482347Y-110770411D01*
X159482106Y-110770995D01*
X159479170Y-110769779D01*
X159478506Y-110769647D01*
X159477627Y-110769140D01*
X159477622Y-110769138D01*
X159432884Y-110750607D01*
X159343708Y-110713669D01*
X159200000Y-110694750D01*
X159056291Y-110713669D01*
X158922376Y-110769138D01*
X158807379Y-110857379D01*
X158719138Y-110972376D01*
X158663669Y-111106291D01*
X158644163Y-111254452D01*
X158615844Y-111303501D01*
X158561137Y-111318160D01*
X158548433Y-111314756D01*
X158548389Y-111314924D01*
X158543710Y-111313670D01*
X158400000Y-111294750D01*
X158256291Y-111313669D01*
X158122376Y-111369138D01*
X158007379Y-111457379D01*
X157945577Y-111537920D01*
X157896527Y-111566238D01*
X157858551Y-111561238D01*
X157743708Y-111513669D01*
X157600000Y-111494750D01*
X157456291Y-111513669D01*
X157322376Y-111569138D01*
X157207379Y-111657379D01*
X157119138Y-111772374D01*
X157107166Y-111801279D01*
X157067117Y-111841327D01*
X157010481Y-111841327D01*
X156943708Y-111813669D01*
X156800000Y-111794750D01*
X156656291Y-111813669D01*
X156522376Y-111869138D01*
X156407379Y-111957379D01*
X156319138Y-112072376D01*
X156263669Y-112206291D01*
X156244750Y-112350000D01*
X156249676Y-112387417D01*
X156235017Y-112442125D01*
X156185968Y-112470443D01*
X156147995Y-112465445D01*
X156143708Y-112463669D01*
X156000000Y-112444750D01*
X155856291Y-112463669D01*
X155722376Y-112519138D01*
X155607379Y-112607379D01*
X155519138Y-112722376D01*
X155463669Y-112856291D01*
X155444750Y-113000000D01*
X120850500Y-113000000D01*
X120850500Y-111759996D01*
X123379892Y-111759996D01*
X123379892Y-111760003D01*
X123398281Y-111958457D01*
X123398283Y-111958470D01*
X123452827Y-112150175D01*
X123452829Y-112150179D01*
X123541674Y-112328605D01*
X123541676Y-112328607D01*
X123566954Y-112362080D01*
X123661791Y-112487664D01*
X123809090Y-112621945D01*
X123978554Y-112726873D01*
X124164414Y-112798876D01*
X124317861Y-112827559D01*
X124360334Y-112835499D01*
X124360335Y-112835499D01*
X124360340Y-112835500D01*
X124360342Y-112835500D01*
X124559658Y-112835500D01*
X124559660Y-112835500D01*
X124755586Y-112798876D01*
X124941446Y-112726873D01*
X125110910Y-112621945D01*
X125258209Y-112487664D01*
X125378326Y-112328604D01*
X125467171Y-112150180D01*
X125521717Y-111958469D01*
X125537769Y-111785243D01*
X125540108Y-111760003D01*
X125540108Y-111759996D01*
X125919892Y-111759996D01*
X125919892Y-111760003D01*
X125938281Y-111958457D01*
X125938283Y-111958470D01*
X125992827Y-112150175D01*
X125992829Y-112150179D01*
X126081674Y-112328605D01*
X126081676Y-112328607D01*
X126106954Y-112362080D01*
X126201791Y-112487664D01*
X126349090Y-112621945D01*
X126518554Y-112726873D01*
X126704414Y-112798876D01*
X126857861Y-112827559D01*
X126900334Y-112835499D01*
X126900335Y-112835499D01*
X126900340Y-112835500D01*
X126900342Y-112835500D01*
X127099658Y-112835500D01*
X127099660Y-112835500D01*
X127295586Y-112798876D01*
X127481446Y-112726873D01*
X127650910Y-112621945D01*
X127798209Y-112487664D01*
X127918326Y-112328604D01*
X128007171Y-112150180D01*
X128061717Y-111958469D01*
X128077769Y-111785243D01*
X128080108Y-111760003D01*
X128080108Y-111759996D01*
X128061718Y-111561542D01*
X128061717Y-111561531D01*
X128007171Y-111369820D01*
X127918326Y-111191396D01*
X127918325Y-111191395D01*
X127918325Y-111191394D01*
X127918323Y-111191392D01*
X127854057Y-111106291D01*
X127798209Y-111032336D01*
X127650910Y-110898055D01*
X127481446Y-110793127D01*
X127419524Y-110769138D01*
X127295588Y-110721124D01*
X127099665Y-110684500D01*
X127099660Y-110684500D01*
X126900340Y-110684500D01*
X126900334Y-110684500D01*
X126704411Y-110721124D01*
X126555213Y-110778925D01*
X126518554Y-110793127D01*
X126518549Y-110793129D01*
X126518549Y-110793130D01*
X126349092Y-110898053D01*
X126201793Y-111032333D01*
X126081676Y-111191392D01*
X126081674Y-111191394D01*
X125992829Y-111369820D01*
X125992827Y-111369824D01*
X125938283Y-111561529D01*
X125938281Y-111561542D01*
X125919892Y-111759996D01*
X125540108Y-111759996D01*
X125521718Y-111561542D01*
X125521717Y-111561531D01*
X125467171Y-111369820D01*
X125378326Y-111191396D01*
X125378325Y-111191395D01*
X125378325Y-111191394D01*
X125378323Y-111191392D01*
X125314057Y-111106291D01*
X125258209Y-111032336D01*
X125110910Y-110898055D01*
X124941446Y-110793127D01*
X124879524Y-110769138D01*
X124755588Y-110721124D01*
X124559665Y-110684500D01*
X124559660Y-110684500D01*
X124360340Y-110684500D01*
X124360334Y-110684500D01*
X124164411Y-110721124D01*
X124015213Y-110778925D01*
X123978554Y-110793127D01*
X123978549Y-110793129D01*
X123978549Y-110793130D01*
X123809092Y-110898053D01*
X123661793Y-111032333D01*
X123541676Y-111191392D01*
X123541674Y-111191394D01*
X123452829Y-111369820D01*
X123452827Y-111369824D01*
X123398283Y-111561529D01*
X123398281Y-111561542D01*
X123379892Y-111759996D01*
X120850500Y-111759996D01*
X120850500Y-109219996D01*
X123379892Y-109219996D01*
X123379892Y-109220003D01*
X123398281Y-109418457D01*
X123398283Y-109418470D01*
X123452827Y-109610175D01*
X123452828Y-109610177D01*
X123452829Y-109610180D01*
X123458902Y-109622376D01*
X123541674Y-109788605D01*
X123541676Y-109788607D01*
X123661791Y-109947664D01*
X123809090Y-110081945D01*
X123978554Y-110186873D01*
X124164414Y-110258876D01*
X124317861Y-110287559D01*
X124360334Y-110295499D01*
X124360335Y-110295499D01*
X124360340Y-110295500D01*
X124360342Y-110295500D01*
X124559658Y-110295500D01*
X124559660Y-110295500D01*
X124755586Y-110258876D01*
X124941446Y-110186873D01*
X125110910Y-110081945D01*
X125258209Y-109947664D01*
X125378326Y-109788604D01*
X125467171Y-109610180D01*
X125521717Y-109418469D01*
X125540108Y-109220000D01*
X125540108Y-109219996D01*
X125919892Y-109219996D01*
X125919892Y-109220003D01*
X125938281Y-109418457D01*
X125938283Y-109418470D01*
X125992827Y-109610175D01*
X125992828Y-109610177D01*
X125992829Y-109610180D01*
X125998902Y-109622376D01*
X126081674Y-109788605D01*
X126081676Y-109788607D01*
X126201791Y-109947664D01*
X126349090Y-110081945D01*
X126518554Y-110186873D01*
X126704414Y-110258876D01*
X126857861Y-110287559D01*
X126900334Y-110295499D01*
X126900335Y-110295499D01*
X126900340Y-110295500D01*
X126900342Y-110295500D01*
X127099658Y-110295500D01*
X127099660Y-110295500D01*
X127295586Y-110258876D01*
X127481446Y-110186873D01*
X127650910Y-110081945D01*
X127798209Y-109947664D01*
X127918326Y-109788604D01*
X128007171Y-109610180D01*
X128061717Y-109418469D01*
X128080108Y-109220000D01*
X128065038Y-109057375D01*
X128061718Y-109021542D01*
X128061717Y-109021531D01*
X128007171Y-108829820D01*
X127918326Y-108651396D01*
X127918325Y-108651395D01*
X127918325Y-108651394D01*
X127918323Y-108651392D01*
X127837003Y-108543708D01*
X127798209Y-108492336D01*
X127650910Y-108358055D01*
X127481446Y-108253127D01*
X127426587Y-108231874D01*
X127295588Y-108181124D01*
X127099665Y-108144500D01*
X127099660Y-108144500D01*
X126900340Y-108144500D01*
X126900334Y-108144500D01*
X126704411Y-108181124D01*
X126518559Y-108253125D01*
X126518554Y-108253127D01*
X126518549Y-108253129D01*
X126518549Y-108253130D01*
X126349092Y-108358053D01*
X126201793Y-108492333D01*
X126081676Y-108651392D01*
X126081674Y-108651394D01*
X125992829Y-108829820D01*
X125992827Y-108829824D01*
X125938283Y-109021529D01*
X125938281Y-109021542D01*
X125919892Y-109219996D01*
X125540108Y-109219996D01*
X125525038Y-109057375D01*
X125521718Y-109021542D01*
X125521717Y-109021531D01*
X125467171Y-108829820D01*
X125378326Y-108651396D01*
X125378325Y-108651395D01*
X125378325Y-108651394D01*
X125378323Y-108651392D01*
X125297003Y-108543708D01*
X125258209Y-108492336D01*
X125110910Y-108358055D01*
X124941446Y-108253127D01*
X124886587Y-108231874D01*
X124755588Y-108181124D01*
X124559665Y-108144500D01*
X124559660Y-108144500D01*
X124360340Y-108144500D01*
X124360334Y-108144500D01*
X124164411Y-108181124D01*
X123978559Y-108253125D01*
X123978554Y-108253127D01*
X123978549Y-108253129D01*
X123978549Y-108253130D01*
X123809092Y-108358053D01*
X123661793Y-108492333D01*
X123541676Y-108651392D01*
X123541674Y-108651394D01*
X123452829Y-108829820D01*
X123452827Y-108829824D01*
X123398283Y-109021529D01*
X123398281Y-109021542D01*
X123379892Y-109219996D01*
X120850500Y-109219996D01*
X120850500Y-108050000D01*
X168194750Y-108050000D01*
X168213669Y-108193708D01*
X168239592Y-108256291D01*
X168269139Y-108327625D01*
X168357379Y-108442621D01*
X168472375Y-108530861D01*
X168606291Y-108586330D01*
X168750000Y-108605250D01*
X168893709Y-108586330D01*
X169027625Y-108530861D01*
X169142621Y-108442621D01*
X169175325Y-108400000D01*
X169494750Y-108400000D01*
X169513669Y-108543708D01*
X169558273Y-108651392D01*
X169569139Y-108677625D01*
X169657379Y-108792621D01*
X169772375Y-108880861D01*
X169772376Y-108880861D01*
X169776224Y-108883814D01*
X169774950Y-108885473D01*
X169805123Y-108924794D01*
X169797731Y-108980947D01*
X169778694Y-109002655D01*
X169707383Y-109057375D01*
X169707380Y-109057378D01*
X169619138Y-109172376D01*
X169563669Y-109306291D01*
X169544750Y-109450000D01*
X169563669Y-109593708D01*
X169575544Y-109622376D01*
X169619139Y-109727625D01*
X169707379Y-109842621D01*
X169822375Y-109930861D01*
X169956291Y-109986330D01*
X170100000Y-110005250D01*
X170243709Y-109986330D01*
X170377625Y-109930861D01*
X170492621Y-109842621D01*
X170580861Y-109727625D01*
X170636330Y-109593709D01*
X170655250Y-109450000D01*
X170636330Y-109306291D01*
X170580861Y-109172375D01*
X170492621Y-109057379D01*
X170407986Y-108992436D01*
X170373777Y-108966186D01*
X170375050Y-108964526D01*
X170344877Y-108925208D01*
X170352266Y-108869055D01*
X170371302Y-108847345D01*
X170442621Y-108792621D01*
X170530861Y-108677625D01*
X170586330Y-108543709D01*
X170605250Y-108400000D01*
X170586330Y-108256291D01*
X170530861Y-108122375D01*
X170442621Y-108007379D01*
X170327625Y-107919139D01*
X170296607Y-107906291D01*
X170193708Y-107863669D01*
X170050000Y-107844750D01*
X169906291Y-107863669D01*
X169772376Y-107919138D01*
X169657379Y-108007379D01*
X169569138Y-108122376D01*
X169513669Y-108256291D01*
X169494750Y-108400000D01*
X169175325Y-108400000D01*
X169230861Y-108327625D01*
X169286330Y-108193709D01*
X169305250Y-108050000D01*
X169286330Y-107906291D01*
X169230861Y-107772375D01*
X169142621Y-107657379D01*
X169027625Y-107569139D01*
X169027623Y-107569138D01*
X168893708Y-107513669D01*
X168750000Y-107494750D01*
X168606291Y-107513669D01*
X168472376Y-107569138D01*
X168357379Y-107657379D01*
X168269138Y-107772376D01*
X168213669Y-107906291D01*
X168194750Y-108050000D01*
X120850500Y-108050000D01*
X120850500Y-106679996D01*
X123379892Y-106679996D01*
X123379892Y-106680003D01*
X123398281Y-106878457D01*
X123398283Y-106878470D01*
X123452827Y-107070175D01*
X123452828Y-107070177D01*
X123452829Y-107070180D01*
X123497251Y-107159392D01*
X123541674Y-107248605D01*
X123541676Y-107248607D01*
X123661791Y-107407664D01*
X123809090Y-107541945D01*
X123978554Y-107646873D01*
X124164414Y-107718876D01*
X124317861Y-107747559D01*
X124360334Y-107755499D01*
X124360335Y-107755499D01*
X124360340Y-107755500D01*
X124360342Y-107755500D01*
X124559658Y-107755500D01*
X124559660Y-107755500D01*
X124755586Y-107718876D01*
X124941446Y-107646873D01*
X125110910Y-107541945D01*
X125258209Y-107407664D01*
X125378326Y-107248604D01*
X125467171Y-107070180D01*
X125521717Y-106878469D01*
X125540108Y-106680000D01*
X125540108Y-106679996D01*
X125919892Y-106679996D01*
X125919892Y-106680003D01*
X125938281Y-106878457D01*
X125938283Y-106878470D01*
X125992827Y-107070175D01*
X125992828Y-107070177D01*
X125992829Y-107070180D01*
X126037251Y-107159392D01*
X126081674Y-107248605D01*
X126081676Y-107248607D01*
X126201791Y-107407664D01*
X126349090Y-107541945D01*
X126518554Y-107646873D01*
X126704414Y-107718876D01*
X126857861Y-107747559D01*
X126900334Y-107755499D01*
X126900335Y-107755499D01*
X126900340Y-107755500D01*
X126900342Y-107755500D01*
X127099658Y-107755500D01*
X127099660Y-107755500D01*
X127295586Y-107718876D01*
X127481446Y-107646873D01*
X127650910Y-107541945D01*
X127798209Y-107407664D01*
X127918326Y-107248604D01*
X128007171Y-107070180D01*
X128061717Y-106878469D01*
X128078255Y-106700000D01*
X168644750Y-106700000D01*
X168663669Y-106843708D01*
X168678068Y-106878470D01*
X168719139Y-106977625D01*
X168807379Y-107092621D01*
X168922375Y-107180861D01*
X169056291Y-107236330D01*
X169200000Y-107255250D01*
X169343709Y-107236330D01*
X169477625Y-107180861D01*
X169592621Y-107092621D01*
X169680861Y-106977625D01*
X169713014Y-106900000D01*
X171244750Y-106900000D01*
X171263669Y-107043708D01*
X171319138Y-107177623D01*
X171319139Y-107177625D01*
X171407379Y-107292621D01*
X171522375Y-107380861D01*
X171656291Y-107436330D01*
X171800000Y-107455250D01*
X171943709Y-107436330D01*
X172077625Y-107380861D01*
X172192621Y-107292621D01*
X172280861Y-107177625D01*
X172336330Y-107043709D01*
X172355250Y-106900000D01*
X172336330Y-106756291D01*
X172280861Y-106622375D01*
X172192621Y-106507379D01*
X172077625Y-106419139D01*
X172077623Y-106419138D01*
X171943708Y-106363669D01*
X171800000Y-106344750D01*
X171656291Y-106363669D01*
X171522376Y-106419138D01*
X171407379Y-106507379D01*
X171319138Y-106622376D01*
X171263669Y-106756291D01*
X171244750Y-106900000D01*
X169713014Y-106900000D01*
X169736330Y-106843709D01*
X169755250Y-106700000D01*
X169736330Y-106556291D01*
X169680861Y-106422375D01*
X169592621Y-106307379D01*
X169477625Y-106219139D01*
X169477623Y-106219138D01*
X169343708Y-106163669D01*
X169200000Y-106144750D01*
X169056291Y-106163669D01*
X168922376Y-106219138D01*
X168807379Y-106307379D01*
X168719138Y-106422376D01*
X168663669Y-106556291D01*
X168644750Y-106700000D01*
X128078255Y-106700000D01*
X128080108Y-106680000D01*
X128074768Y-106622376D01*
X128061718Y-106481542D01*
X128061717Y-106481531D01*
X128007171Y-106289820D01*
X127918326Y-106111396D01*
X127918325Y-106111395D01*
X127918325Y-106111394D01*
X127918323Y-106111392D01*
X127895267Y-106080861D01*
X127798209Y-105952336D01*
X127650910Y-105818055D01*
X127481446Y-105713127D01*
X127426587Y-105691874D01*
X127295588Y-105641124D01*
X127099665Y-105604500D01*
X127099660Y-105604500D01*
X126900340Y-105604500D01*
X126900334Y-105604500D01*
X126704411Y-105641124D01*
X126518559Y-105713125D01*
X126518554Y-105713127D01*
X126518549Y-105713129D01*
X126518549Y-105713130D01*
X126349092Y-105818053D01*
X126201793Y-105952333D01*
X126081676Y-106111392D01*
X126081674Y-106111394D01*
X125992829Y-106289820D01*
X125992827Y-106289824D01*
X125938283Y-106481529D01*
X125938281Y-106481542D01*
X125919892Y-106679996D01*
X125540108Y-106679996D01*
X125534768Y-106622376D01*
X125521718Y-106481542D01*
X125521717Y-106481531D01*
X125467171Y-106289820D01*
X125378326Y-106111396D01*
X125378325Y-106111395D01*
X125378325Y-106111394D01*
X125378323Y-106111392D01*
X125355267Y-106080861D01*
X125258209Y-105952336D01*
X125110910Y-105818055D01*
X124941446Y-105713127D01*
X124886587Y-105691874D01*
X124755588Y-105641124D01*
X124559665Y-105604500D01*
X124559660Y-105604500D01*
X124360340Y-105604500D01*
X124360334Y-105604500D01*
X124164411Y-105641124D01*
X123978559Y-105713125D01*
X123978554Y-105713127D01*
X123978549Y-105713129D01*
X123978549Y-105713130D01*
X123809092Y-105818053D01*
X123661793Y-105952333D01*
X123541676Y-106111392D01*
X123541674Y-106111394D01*
X123452829Y-106289820D01*
X123452827Y-106289824D01*
X123398283Y-106481529D01*
X123398281Y-106481542D01*
X123379892Y-106679996D01*
X120850500Y-106679996D01*
X120850500Y-104140000D01*
X123430040Y-104140000D01*
X123449830Y-104340936D01*
X123508442Y-104534150D01*
X123603620Y-104712215D01*
X123667961Y-104790615D01*
X124005607Y-104452968D01*
X124019890Y-104477708D01*
X124122292Y-104580110D01*
X124147029Y-104594391D01*
X123809383Y-104932038D01*
X123887784Y-104996379D01*
X124065849Y-105091557D01*
X124259063Y-105150169D01*
X124460000Y-105169959D01*
X124660936Y-105150169D01*
X124854150Y-105091557D01*
X125032215Y-104996379D01*
X125110615Y-104932038D01*
X124772970Y-104594392D01*
X124797708Y-104580110D01*
X124900110Y-104477708D01*
X124914392Y-104452969D01*
X125252038Y-104790615D01*
X125316379Y-104712215D01*
X125411557Y-104534150D01*
X125470169Y-104340936D01*
X125489959Y-104140000D01*
X125489959Y-104139996D01*
X125919892Y-104139996D01*
X125919892Y-104140003D01*
X125938281Y-104338457D01*
X125938283Y-104338470D01*
X125992827Y-104530175D01*
X125992828Y-104530177D01*
X125992829Y-104530180D01*
X126037251Y-104619392D01*
X126081674Y-104708605D01*
X126081676Y-104708607D01*
X126201791Y-104867664D01*
X126349090Y-105001945D01*
X126518554Y-105106873D01*
X126704414Y-105178876D01*
X126856895Y-105207379D01*
X126900334Y-105215499D01*
X126900335Y-105215499D01*
X126900340Y-105215500D01*
X126900342Y-105215500D01*
X127099658Y-105215500D01*
X127099660Y-105215500D01*
X127295586Y-105178876D01*
X127481446Y-105106873D01*
X127650910Y-105001945D01*
X127798209Y-104867664D01*
X127849307Y-104800000D01*
X167044750Y-104800000D01*
X167063669Y-104943708D01*
X167113035Y-105062889D01*
X167119139Y-105077625D01*
X167207379Y-105192621D01*
X167322375Y-105280861D01*
X167456291Y-105336330D01*
X167456290Y-105336330D01*
X167462207Y-105337109D01*
X167511257Y-105365426D01*
X167525917Y-105420133D01*
X167520918Y-105438793D01*
X167513669Y-105456293D01*
X167494750Y-105600000D01*
X167513669Y-105743708D01*
X167569138Y-105877623D01*
X167569139Y-105877625D01*
X167657379Y-105992621D01*
X167772375Y-106080861D01*
X167906291Y-106136330D01*
X168050000Y-106155250D01*
X168193709Y-106136330D01*
X168327625Y-106080861D01*
X168442621Y-105992621D01*
X168530861Y-105877625D01*
X168586330Y-105743709D01*
X168605250Y-105600000D01*
X168586330Y-105456291D01*
X168530861Y-105322375D01*
X168442621Y-105207379D01*
X168327625Y-105119139D01*
X168193709Y-105063670D01*
X168193708Y-105063669D01*
X168193706Y-105063669D01*
X168193704Y-105063668D01*
X168187786Y-105062889D01*
X168138738Y-105034568D01*
X168124083Y-104979860D01*
X168129080Y-104961210D01*
X168136330Y-104943709D01*
X168155250Y-104800000D01*
X168136330Y-104656291D01*
X168080861Y-104522375D01*
X167992621Y-104407379D01*
X167877625Y-104319139D01*
X167877623Y-104319138D01*
X167743708Y-104263669D01*
X167600000Y-104244750D01*
X167456291Y-104263669D01*
X167322376Y-104319138D01*
X167207379Y-104407379D01*
X167119138Y-104522376D01*
X167063669Y-104656291D01*
X167044750Y-104800000D01*
X127849307Y-104800000D01*
X127918326Y-104708604D01*
X128007171Y-104530180D01*
X128061717Y-104338469D01*
X128073398Y-104212409D01*
X128080108Y-104140003D01*
X128080108Y-104139996D01*
X128067135Y-104000000D01*
X168294750Y-104000000D01*
X168313669Y-104143708D01*
X168342126Y-104212409D01*
X168369139Y-104277625D01*
X168457379Y-104392621D01*
X168572375Y-104480861D01*
X168706291Y-104536330D01*
X168850000Y-104555250D01*
X168993709Y-104536330D01*
X169127625Y-104480861D01*
X169242621Y-104392621D01*
X169330861Y-104277625D01*
X169386330Y-104143709D01*
X169405250Y-104000000D01*
X169386330Y-103856291D01*
X169330861Y-103722375D01*
X169242621Y-103607379D01*
X169127625Y-103519139D01*
X169127623Y-103519138D01*
X168993708Y-103463669D01*
X168850000Y-103444750D01*
X168706291Y-103463669D01*
X168572376Y-103519138D01*
X168457379Y-103607379D01*
X168369138Y-103722376D01*
X168313669Y-103856291D01*
X168294750Y-104000000D01*
X128067135Y-104000000D01*
X128061718Y-103941542D01*
X128061717Y-103941531D01*
X128007171Y-103749820D01*
X127918326Y-103571396D01*
X127918325Y-103571395D01*
X127918325Y-103571394D01*
X127918323Y-103571392D01*
X127856392Y-103489383D01*
X127798209Y-103412336D01*
X127650910Y-103278055D01*
X127481446Y-103173127D01*
X127426587Y-103151874D01*
X127295588Y-103101124D01*
X127099665Y-103064500D01*
X127099660Y-103064500D01*
X126900340Y-103064500D01*
X126900334Y-103064500D01*
X126704411Y-103101124D01*
X126518559Y-103173125D01*
X126518554Y-103173127D01*
X126518549Y-103173129D01*
X126518549Y-103173130D01*
X126349092Y-103278053D01*
X126201793Y-103412333D01*
X126081676Y-103571392D01*
X126081674Y-103571394D01*
X125992829Y-103749820D01*
X125992827Y-103749824D01*
X125938283Y-103941529D01*
X125938281Y-103941542D01*
X125919892Y-104139996D01*
X125489959Y-104139996D01*
X125470169Y-103939063D01*
X125411557Y-103745849D01*
X125316379Y-103567784D01*
X125252038Y-103489383D01*
X124914391Y-103827028D01*
X124900110Y-103802292D01*
X124797708Y-103699890D01*
X124772968Y-103685607D01*
X125110615Y-103347961D01*
X125032215Y-103283620D01*
X124854150Y-103188442D01*
X124660936Y-103129830D01*
X124460000Y-103110040D01*
X124259063Y-103129830D01*
X124065849Y-103188442D01*
X123887785Y-103283620D01*
X123809383Y-103347961D01*
X124147029Y-103685607D01*
X124122292Y-103699890D01*
X124019890Y-103802292D01*
X124005607Y-103827029D01*
X123667961Y-103489383D01*
X123603620Y-103567785D01*
X123508442Y-103745849D01*
X123449830Y-103939063D01*
X123430040Y-104140000D01*
X120850500Y-104140000D01*
X120850500Y-101599996D01*
X123379892Y-101599996D01*
X123379892Y-101600003D01*
X123398281Y-101798457D01*
X123398283Y-101798470D01*
X123452827Y-101990175D01*
X123452828Y-101990177D01*
X123452829Y-101990180D01*
X123497251Y-102079392D01*
X123541674Y-102168605D01*
X123541676Y-102168607D01*
X123661791Y-102327664D01*
X123809090Y-102461945D01*
X123978554Y-102566873D01*
X124164414Y-102638876D01*
X124317861Y-102667559D01*
X124360334Y-102675499D01*
X124360335Y-102675499D01*
X124360340Y-102675500D01*
X124360342Y-102675500D01*
X124559658Y-102675500D01*
X124559660Y-102675500D01*
X124755586Y-102638876D01*
X124941446Y-102566873D01*
X125110910Y-102461945D01*
X125258209Y-102327664D01*
X125378326Y-102168604D01*
X125467171Y-101990180D01*
X125521717Y-101798469D01*
X125540108Y-101600000D01*
X125540108Y-101599996D01*
X125919892Y-101599996D01*
X125919892Y-101600003D01*
X125938281Y-101798457D01*
X125938283Y-101798470D01*
X125992827Y-101990175D01*
X125992828Y-101990177D01*
X125992829Y-101990180D01*
X126037251Y-102079392D01*
X126081674Y-102168605D01*
X126081676Y-102168607D01*
X126201791Y-102327664D01*
X126349090Y-102461945D01*
X126518554Y-102566873D01*
X126704414Y-102638876D01*
X126857861Y-102667559D01*
X126900334Y-102675499D01*
X126900335Y-102675499D01*
X126900340Y-102675500D01*
X126900342Y-102675500D01*
X127099658Y-102675500D01*
X127099660Y-102675500D01*
X127295586Y-102638876D01*
X127481446Y-102566873D01*
X127650910Y-102461945D01*
X127718860Y-102400000D01*
X167594750Y-102400000D01*
X167613669Y-102543708D01*
X167623265Y-102566874D01*
X167669139Y-102677625D01*
X167757379Y-102792621D01*
X167872375Y-102880861D01*
X168006291Y-102936330D01*
X168150000Y-102955250D01*
X168293709Y-102936330D01*
X168427625Y-102880861D01*
X168542621Y-102792621D01*
X168630861Y-102677625D01*
X168686330Y-102543709D01*
X168705250Y-102400000D01*
X168686330Y-102256291D01*
X168630861Y-102122375D01*
X168542621Y-102007379D01*
X168427625Y-101919139D01*
X168427623Y-101919138D01*
X168293708Y-101863669D01*
X168150000Y-101844750D01*
X168006291Y-101863669D01*
X167872376Y-101919138D01*
X167757379Y-102007379D01*
X167669138Y-102122376D01*
X167613669Y-102256291D01*
X167594750Y-102400000D01*
X127718860Y-102400000D01*
X127798209Y-102327664D01*
X127918326Y-102168604D01*
X128007171Y-101990180D01*
X128061717Y-101798469D01*
X128080108Y-101600000D01*
X128061717Y-101401531D01*
X128007171Y-101209820D01*
X127918326Y-101031396D01*
X127918325Y-101031395D01*
X127918325Y-101031394D01*
X127918323Y-101031392D01*
X127915035Y-101027038D01*
X127798209Y-100872336D01*
X127718860Y-100800000D01*
X167444750Y-100800000D01*
X167463669Y-100943708D01*
X167519138Y-101077623D01*
X167519139Y-101077625D01*
X167607379Y-101192621D01*
X167722375Y-101280861D01*
X167856291Y-101336330D01*
X168000000Y-101355250D01*
X168143709Y-101336330D01*
X168277625Y-101280861D01*
X168392621Y-101192621D01*
X168480861Y-101077625D01*
X168536330Y-100943709D01*
X168555250Y-100800000D01*
X168536330Y-100656291D01*
X168534253Y-100651279D01*
X168534252Y-100594644D01*
X168574299Y-100554594D01*
X168592955Y-100549594D01*
X168693709Y-100536330D01*
X168827625Y-100480861D01*
X168942621Y-100392621D01*
X169030861Y-100277625D01*
X169086330Y-100143709D01*
X169105250Y-100000000D01*
X169086330Y-99856291D01*
X169030861Y-99722375D01*
X168942621Y-99607379D01*
X168827625Y-99519139D01*
X168827623Y-99519138D01*
X168693708Y-99463669D01*
X168640375Y-99456648D01*
X168591327Y-99428329D01*
X168576668Y-99373621D01*
X168581667Y-99354964D01*
X168586330Y-99343709D01*
X168605250Y-99200000D01*
X168586330Y-99056291D01*
X168581667Y-99045035D01*
X168581667Y-98988401D01*
X168621715Y-98948351D01*
X168640373Y-98943351D01*
X168693709Y-98936330D01*
X168827625Y-98880861D01*
X168942621Y-98792621D01*
X169030861Y-98677625D01*
X169086330Y-98543709D01*
X169105250Y-98400000D01*
X169086330Y-98256291D01*
X169030861Y-98122375D01*
X168942621Y-98007379D01*
X168827625Y-97919139D01*
X168827623Y-97919138D01*
X168693708Y-97863669D01*
X168550000Y-97844750D01*
X168406291Y-97863669D01*
X168272376Y-97919138D01*
X168157379Y-98007379D01*
X168069138Y-98122376D01*
X168013669Y-98256291D01*
X167994750Y-98400000D01*
X168013669Y-98543708D01*
X168018332Y-98554965D01*
X168018330Y-98611602D01*
X167978280Y-98651649D01*
X167959624Y-98656648D01*
X167906291Y-98663669D01*
X167772376Y-98719138D01*
X167657379Y-98807379D01*
X167569138Y-98922376D01*
X167513669Y-99056291D01*
X167494750Y-99200000D01*
X167513669Y-99343708D01*
X167557771Y-99450180D01*
X167569139Y-99477625D01*
X167657379Y-99592621D01*
X167772375Y-99680861D01*
X167906291Y-99736330D01*
X167906290Y-99736330D01*
X167922954Y-99738523D01*
X167959622Y-99743351D01*
X168008672Y-99771669D01*
X168023331Y-99826376D01*
X168018333Y-99845033D01*
X168013669Y-99856293D01*
X167994750Y-100000000D01*
X168013669Y-100143708D01*
X168015746Y-100148721D01*
X168015746Y-100205358D01*
X167975697Y-100245406D01*
X167957038Y-100250406D01*
X167856291Y-100263669D01*
X167722376Y-100319138D01*
X167607379Y-100407379D01*
X167519138Y-100522376D01*
X167463669Y-100656291D01*
X167444750Y-100800000D01*
X127718860Y-100800000D01*
X127650910Y-100738055D01*
X127481446Y-100633127D01*
X127382111Y-100594644D01*
X127295588Y-100561124D01*
X127099665Y-100524500D01*
X127099660Y-100524500D01*
X126900340Y-100524500D01*
X126900334Y-100524500D01*
X126704411Y-100561124D01*
X126518559Y-100633125D01*
X126518554Y-100633127D01*
X126518549Y-100633129D01*
X126518549Y-100633130D01*
X126349092Y-100738053D01*
X126201793Y-100872333D01*
X126081676Y-101031392D01*
X126081674Y-101031394D01*
X125992829Y-101209820D01*
X125992827Y-101209824D01*
X125938283Y-101401529D01*
X125938281Y-101401542D01*
X125919892Y-101599996D01*
X125540108Y-101599996D01*
X125521717Y-101401531D01*
X125467171Y-101209820D01*
X125378326Y-101031396D01*
X125378325Y-101031395D01*
X125378325Y-101031394D01*
X125378323Y-101031392D01*
X125375035Y-101027038D01*
X125258209Y-100872336D01*
X125110910Y-100738055D01*
X124941446Y-100633127D01*
X124842111Y-100594644D01*
X124755588Y-100561124D01*
X124559665Y-100524500D01*
X124559660Y-100524500D01*
X124360340Y-100524500D01*
X124360334Y-100524500D01*
X124164411Y-100561124D01*
X123978559Y-100633125D01*
X123978554Y-100633127D01*
X123978549Y-100633129D01*
X123978549Y-100633130D01*
X123809092Y-100738053D01*
X123661793Y-100872333D01*
X123541676Y-101031392D01*
X123541674Y-101031394D01*
X123452829Y-101209820D01*
X123452827Y-101209824D01*
X123398283Y-101401529D01*
X123398281Y-101401542D01*
X123379892Y-101599996D01*
X120850500Y-101599996D01*
X120850500Y-99059996D01*
X123379892Y-99059996D01*
X123379892Y-99060003D01*
X123398281Y-99258457D01*
X123398283Y-99258470D01*
X123452827Y-99450175D01*
X123452828Y-99450177D01*
X123452829Y-99450180D01*
X123466494Y-99477623D01*
X123541674Y-99628605D01*
X123541676Y-99628607D01*
X123661791Y-99787664D01*
X123809090Y-99921945D01*
X123978554Y-100026873D01*
X124164414Y-100098876D01*
X124317861Y-100127559D01*
X124360334Y-100135499D01*
X124360335Y-100135499D01*
X124360340Y-100135500D01*
X124360342Y-100135500D01*
X124559658Y-100135500D01*
X124559660Y-100135500D01*
X124755586Y-100098876D01*
X124941446Y-100026873D01*
X125110910Y-99921945D01*
X125258209Y-99787664D01*
X125378326Y-99628604D01*
X125467171Y-99450180D01*
X125521717Y-99258469D01*
X125540108Y-99060000D01*
X125540108Y-99059996D01*
X125919892Y-99059996D01*
X125919892Y-99060003D01*
X125938281Y-99258457D01*
X125938283Y-99258470D01*
X125992827Y-99450175D01*
X125992828Y-99450177D01*
X125992829Y-99450180D01*
X126006494Y-99477623D01*
X126081674Y-99628605D01*
X126081676Y-99628607D01*
X126201791Y-99787664D01*
X126349090Y-99921945D01*
X126518554Y-100026873D01*
X126704414Y-100098876D01*
X126857861Y-100127559D01*
X126900334Y-100135499D01*
X126900335Y-100135499D01*
X126900340Y-100135500D01*
X126900342Y-100135500D01*
X127099658Y-100135500D01*
X127099660Y-100135500D01*
X127295586Y-100098876D01*
X127481446Y-100026873D01*
X127650910Y-99921945D01*
X127798209Y-99787664D01*
X127918326Y-99628604D01*
X128007171Y-99450180D01*
X128061717Y-99258469D01*
X128080108Y-99060000D01*
X128079764Y-99056293D01*
X128061718Y-98861542D01*
X128061717Y-98861531D01*
X128007171Y-98669820D01*
X127918326Y-98491396D01*
X127918325Y-98491395D01*
X127918325Y-98491394D01*
X127918323Y-98491392D01*
X127915035Y-98487038D01*
X127798209Y-98332336D01*
X127650910Y-98198055D01*
X127481446Y-98093127D01*
X127426587Y-98071874D01*
X127295588Y-98021124D01*
X127099665Y-97984500D01*
X127099660Y-97984500D01*
X126900340Y-97984500D01*
X126900334Y-97984500D01*
X126704411Y-98021124D01*
X126518559Y-98093125D01*
X126518554Y-98093127D01*
X126518549Y-98093129D01*
X126518549Y-98093130D01*
X126349092Y-98198053D01*
X126201793Y-98332333D01*
X126081676Y-98491392D01*
X126081674Y-98491394D01*
X125992829Y-98669820D01*
X125992827Y-98669824D01*
X125938283Y-98861529D01*
X125938281Y-98861542D01*
X125919892Y-99059996D01*
X125540108Y-99059996D01*
X125539764Y-99056293D01*
X125521718Y-98861542D01*
X125521717Y-98861531D01*
X125467171Y-98669820D01*
X125378326Y-98491396D01*
X125378325Y-98491395D01*
X125378325Y-98491394D01*
X125378323Y-98491392D01*
X125375035Y-98487038D01*
X125258209Y-98332336D01*
X125110910Y-98198055D01*
X124941446Y-98093127D01*
X124886587Y-98071874D01*
X124755588Y-98021124D01*
X124559665Y-97984500D01*
X124559660Y-97984500D01*
X124360340Y-97984500D01*
X124360334Y-97984500D01*
X124164411Y-98021124D01*
X123978559Y-98093125D01*
X123978554Y-98093127D01*
X123978549Y-98093129D01*
X123978549Y-98093130D01*
X123809092Y-98198053D01*
X123661793Y-98332333D01*
X123541676Y-98491392D01*
X123541674Y-98491394D01*
X123452829Y-98669820D01*
X123452827Y-98669824D01*
X123398283Y-98861529D01*
X123398281Y-98861542D01*
X123379892Y-99059996D01*
X120850500Y-99059996D01*
X120850500Y-96519996D01*
X123379892Y-96519996D01*
X123379892Y-96520003D01*
X123398281Y-96718457D01*
X123398283Y-96718470D01*
X123452827Y-96910175D01*
X123452829Y-96910179D01*
X123541674Y-97088605D01*
X123541676Y-97088607D01*
X123661791Y-97247664D01*
X123809090Y-97381945D01*
X123978554Y-97486873D01*
X124164414Y-97558876D01*
X124317861Y-97587559D01*
X124360334Y-97595499D01*
X124360335Y-97595499D01*
X124360340Y-97595500D01*
X124360342Y-97595500D01*
X124559658Y-97595500D01*
X124559660Y-97595500D01*
X124755586Y-97558876D01*
X124941446Y-97486873D01*
X125110910Y-97381945D01*
X125258209Y-97247664D01*
X125378326Y-97088604D01*
X125467171Y-96910180D01*
X125521717Y-96718469D01*
X125540108Y-96520000D01*
X125540108Y-96519996D01*
X125919892Y-96519996D01*
X125919892Y-96520003D01*
X125938281Y-96718457D01*
X125938283Y-96718470D01*
X125992827Y-96910175D01*
X125992829Y-96910179D01*
X126081674Y-97088605D01*
X126081676Y-97088607D01*
X126201791Y-97247664D01*
X126349090Y-97381945D01*
X126518554Y-97486873D01*
X126704414Y-97558876D01*
X126857861Y-97587559D01*
X126900334Y-97595499D01*
X126900335Y-97595499D01*
X126900340Y-97595500D01*
X126900342Y-97595500D01*
X127099658Y-97595500D01*
X127099660Y-97595500D01*
X127295586Y-97558876D01*
X127481446Y-97486873D01*
X127650910Y-97381945D01*
X127798209Y-97247664D01*
X127918326Y-97088604D01*
X128007171Y-96910180D01*
X128061717Y-96718469D01*
X128080108Y-96520000D01*
X128061717Y-96321531D01*
X128007171Y-96129820D01*
X127918326Y-95951396D01*
X127918325Y-95951395D01*
X127918325Y-95951394D01*
X127918323Y-95951392D01*
X127915035Y-95947038D01*
X127798209Y-95792336D01*
X127650910Y-95658055D01*
X127481446Y-95553127D01*
X127426587Y-95531874D01*
X127295588Y-95481124D01*
X127099665Y-95444500D01*
X127099660Y-95444500D01*
X126900340Y-95444500D01*
X126900334Y-95444500D01*
X126704411Y-95481124D01*
X126518559Y-95553125D01*
X126518554Y-95553127D01*
X126518549Y-95553129D01*
X126518549Y-95553130D01*
X126349092Y-95658053D01*
X126201793Y-95792333D01*
X126081676Y-95951392D01*
X126081674Y-95951394D01*
X125992829Y-96129820D01*
X125992827Y-96129824D01*
X125938283Y-96321529D01*
X125938281Y-96321542D01*
X125919892Y-96519996D01*
X125540108Y-96519996D01*
X125521717Y-96321531D01*
X125467171Y-96129820D01*
X125378326Y-95951396D01*
X125378325Y-95951395D01*
X125378325Y-95951394D01*
X125378323Y-95951392D01*
X125375035Y-95947038D01*
X125258209Y-95792336D01*
X125110910Y-95658055D01*
X124941446Y-95553127D01*
X124886587Y-95531874D01*
X124755588Y-95481124D01*
X124559665Y-95444500D01*
X124559660Y-95444500D01*
X124360340Y-95444500D01*
X124360334Y-95444500D01*
X124164411Y-95481124D01*
X123978559Y-95553125D01*
X123978554Y-95553127D01*
X123978549Y-95553129D01*
X123978549Y-95553130D01*
X123809092Y-95658053D01*
X123661793Y-95792333D01*
X123541676Y-95951392D01*
X123541674Y-95951394D01*
X123452829Y-96129820D01*
X123452827Y-96129824D01*
X123398283Y-96321529D01*
X123398281Y-96321542D01*
X123379892Y-96519996D01*
X120850500Y-96519996D01*
X120850500Y-93980000D01*
X123430040Y-93980000D01*
X123449830Y-94180936D01*
X123508442Y-94374150D01*
X123603620Y-94552215D01*
X123667961Y-94630615D01*
X124005607Y-94292968D01*
X124019890Y-94317708D01*
X124122292Y-94420110D01*
X124147029Y-94434391D01*
X123809383Y-94772038D01*
X123887784Y-94836379D01*
X124065849Y-94931557D01*
X124259063Y-94990169D01*
X124460000Y-95009959D01*
X124660936Y-94990169D01*
X124854150Y-94931557D01*
X125032215Y-94836379D01*
X125110615Y-94772038D01*
X124772970Y-94434392D01*
X124797708Y-94420110D01*
X124900110Y-94317708D01*
X124914392Y-94292969D01*
X125252038Y-94630615D01*
X125316379Y-94552215D01*
X125411557Y-94374150D01*
X125470169Y-94180936D01*
X125489959Y-93980000D01*
X125489959Y-93979996D01*
X125919892Y-93979996D01*
X125919892Y-93980003D01*
X125938281Y-94178457D01*
X125938283Y-94178470D01*
X125992827Y-94370175D01*
X125992828Y-94370177D01*
X125992829Y-94370180D01*
X126037251Y-94459392D01*
X126081674Y-94548605D01*
X126081676Y-94548607D01*
X126201791Y-94707664D01*
X126349090Y-94841945D01*
X126518554Y-94946873D01*
X126704414Y-95018876D01*
X126857861Y-95047559D01*
X126900334Y-95055499D01*
X126900335Y-95055499D01*
X126900340Y-95055500D01*
X126900342Y-95055500D01*
X127099658Y-95055500D01*
X127099660Y-95055500D01*
X127295586Y-95018876D01*
X127481446Y-94946873D01*
X127650910Y-94841945D01*
X127798209Y-94707664D01*
X127918326Y-94548604D01*
X128007171Y-94370180D01*
X128061717Y-94178469D01*
X128080108Y-93980000D01*
X128061717Y-93781531D01*
X128007171Y-93589820D01*
X127918326Y-93411396D01*
X127918325Y-93411395D01*
X127918325Y-93411394D01*
X127918323Y-93411392D01*
X127866389Y-93342621D01*
X127798209Y-93252336D01*
X127783878Y-93239272D01*
X127727593Y-93187961D01*
X127650910Y-93118055D01*
X127481446Y-93013127D01*
X127426587Y-92991874D01*
X127318499Y-92950000D01*
X162694750Y-92950000D01*
X162713669Y-93093708D01*
X162763806Y-93214750D01*
X162769139Y-93227625D01*
X162857379Y-93342621D01*
X162972375Y-93430861D01*
X163106291Y-93486330D01*
X163250000Y-93505250D01*
X163393709Y-93486330D01*
X163407231Y-93480728D01*
X163463866Y-93480728D01*
X163503915Y-93520776D01*
X163503915Y-93577412D01*
X163503915Y-93577414D01*
X163483669Y-93626291D01*
X163464750Y-93770000D01*
X163483669Y-93913708D01*
X163511128Y-93980000D01*
X163539139Y-94047625D01*
X163627379Y-94162621D01*
X163742375Y-94250861D01*
X163876291Y-94306330D01*
X164020000Y-94325250D01*
X164163709Y-94306330D01*
X164297625Y-94250861D01*
X164412621Y-94162621D01*
X164500861Y-94047625D01*
X164556330Y-93913709D01*
X164575250Y-93770000D01*
X164556330Y-93626291D01*
X164500861Y-93492375D01*
X164412621Y-93377379D01*
X164297625Y-93289139D01*
X164297623Y-93289138D01*
X164163708Y-93233669D01*
X164020000Y-93214750D01*
X163876293Y-93233669D01*
X163862766Y-93239272D01*
X163806129Y-93239269D01*
X163766082Y-93199218D01*
X163766083Y-93142587D01*
X163786330Y-93093709D01*
X163805250Y-92950000D01*
X163786330Y-92806291D01*
X163730861Y-92672375D01*
X163642621Y-92557379D01*
X163527625Y-92469139D01*
X163527623Y-92469138D01*
X163393708Y-92413669D01*
X163250000Y-92394750D01*
X163106291Y-92413669D01*
X162972376Y-92469138D01*
X162857379Y-92557379D01*
X162769138Y-92672376D01*
X162713669Y-92806291D01*
X162694750Y-92950000D01*
X127318499Y-92950000D01*
X127295588Y-92941124D01*
X127099665Y-92904500D01*
X127099660Y-92904500D01*
X126900340Y-92904500D01*
X126900334Y-92904500D01*
X126704411Y-92941124D01*
X126518559Y-93013125D01*
X126518554Y-93013127D01*
X126518549Y-93013129D01*
X126518549Y-93013130D01*
X126349092Y-93118053D01*
X126201793Y-93252333D01*
X126081676Y-93411392D01*
X126081674Y-93411394D01*
X125992829Y-93589820D01*
X125992827Y-93589824D01*
X125938283Y-93781529D01*
X125938281Y-93781542D01*
X125919892Y-93979996D01*
X125489959Y-93979996D01*
X125470169Y-93779063D01*
X125411557Y-93585849D01*
X125316379Y-93407784D01*
X125252038Y-93329383D01*
X124914391Y-93667028D01*
X124900110Y-93642292D01*
X124797708Y-93539890D01*
X124772968Y-93525607D01*
X125110615Y-93187961D01*
X125032215Y-93123620D01*
X124854150Y-93028442D01*
X124660936Y-92969830D01*
X124460000Y-92950040D01*
X124259063Y-92969830D01*
X124065849Y-93028442D01*
X123887785Y-93123620D01*
X123809383Y-93187961D01*
X124147029Y-93525607D01*
X124122292Y-93539890D01*
X124019890Y-93642292D01*
X124005607Y-93667029D01*
X123667961Y-93329383D01*
X123603620Y-93407785D01*
X123508442Y-93585849D01*
X123449830Y-93779063D01*
X123430040Y-93980000D01*
X120850500Y-93980000D01*
X120850500Y-91750000D01*
X159544750Y-91750000D01*
X159563669Y-91893708D01*
X159619138Y-92027623D01*
X159619139Y-92027625D01*
X159707379Y-92142621D01*
X159822375Y-92230861D01*
X159956291Y-92286330D01*
X160100000Y-92305250D01*
X160243709Y-92286330D01*
X160377625Y-92230861D01*
X160492621Y-92142621D01*
X160580861Y-92027625D01*
X160636330Y-91893709D01*
X160655250Y-91750000D01*
X160636330Y-91606291D01*
X160580861Y-91472375D01*
X160492621Y-91357379D01*
X160377625Y-91269139D01*
X160377623Y-91269138D01*
X160243708Y-91213669D01*
X160100000Y-91194750D01*
X159956291Y-91213669D01*
X159822376Y-91269138D01*
X159707379Y-91357379D01*
X159619138Y-91472376D01*
X159563669Y-91606291D01*
X159544750Y-91750000D01*
X120850500Y-91750000D01*
X120850500Y-88050327D01*
X123384500Y-88050327D01*
X123384500Y-89749672D01*
X123399034Y-89822740D01*
X123428519Y-89866869D01*
X123454399Y-89905601D01*
X123537260Y-89960966D01*
X123610326Y-89975500D01*
X123610328Y-89975500D01*
X125309672Y-89975500D01*
X125309674Y-89975500D01*
X125382740Y-89960966D01*
X125465601Y-89905601D01*
X125520966Y-89822740D01*
X125535500Y-89749674D01*
X125535500Y-88899996D01*
X125919892Y-88899996D01*
X125919892Y-88900003D01*
X125938281Y-89098457D01*
X125938283Y-89098470D01*
X125992827Y-89290175D01*
X125992829Y-89290179D01*
X126081674Y-89468605D01*
X126081676Y-89468607D01*
X126201791Y-89627664D01*
X126349090Y-89761945D01*
X126518554Y-89866873D01*
X126704414Y-89938876D01*
X126857861Y-89967559D01*
X126900334Y-89975499D01*
X126900335Y-89975499D01*
X126900340Y-89975500D01*
X126900342Y-89975500D01*
X127099658Y-89975500D01*
X127099660Y-89975500D01*
X127295586Y-89938876D01*
X127481446Y-89866873D01*
X127650910Y-89761945D01*
X127798209Y-89627664D01*
X127918326Y-89468604D01*
X128007171Y-89290180D01*
X128061717Y-89098469D01*
X128080108Y-88900000D01*
X128061717Y-88701531D01*
X128007171Y-88509820D01*
X127918326Y-88331396D01*
X127918325Y-88331395D01*
X127918325Y-88331394D01*
X127918323Y-88331392D01*
X127915035Y-88327038D01*
X127798209Y-88172336D01*
X127650910Y-88038055D01*
X127481446Y-87933127D01*
X127426587Y-87911874D01*
X127295588Y-87861124D01*
X127099665Y-87824500D01*
X127099660Y-87824500D01*
X126900340Y-87824500D01*
X126900334Y-87824500D01*
X126704411Y-87861124D01*
X126518559Y-87933125D01*
X126518554Y-87933127D01*
X126518549Y-87933129D01*
X126518549Y-87933130D01*
X126349092Y-88038053D01*
X126201793Y-88172333D01*
X126081676Y-88331392D01*
X126081674Y-88331394D01*
X125992829Y-88509820D01*
X125992827Y-88509824D01*
X125938283Y-88701529D01*
X125938281Y-88701542D01*
X125919892Y-88899996D01*
X125535500Y-88899996D01*
X125535500Y-88050326D01*
X125520966Y-87977260D01*
X125465601Y-87894399D01*
X125382740Y-87839034D01*
X125309674Y-87824500D01*
X123610326Y-87824500D01*
X123561615Y-87834189D01*
X123537259Y-87839034D01*
X123454399Y-87894398D01*
X123454398Y-87894399D01*
X123399034Y-87977259D01*
X123384500Y-88050327D01*
X120850500Y-88050327D01*
X120850500Y-86359996D01*
X123379892Y-86359996D01*
X123379892Y-86360003D01*
X123398281Y-86558457D01*
X123398283Y-86558470D01*
X123452827Y-86750175D01*
X123452829Y-86750179D01*
X123541674Y-86928605D01*
X123541676Y-86928607D01*
X123661791Y-87087664D01*
X123809090Y-87221945D01*
X123978554Y-87326873D01*
X124164414Y-87398876D01*
X124317861Y-87427559D01*
X124360334Y-87435499D01*
X124360335Y-87435499D01*
X124360340Y-87435500D01*
X124360342Y-87435500D01*
X124559658Y-87435500D01*
X124559660Y-87435500D01*
X124755586Y-87398876D01*
X124941446Y-87326873D01*
X125110910Y-87221945D01*
X125258209Y-87087664D01*
X125378326Y-86928604D01*
X125467171Y-86750180D01*
X125521717Y-86558469D01*
X125540108Y-86360000D01*
X125540108Y-86359996D01*
X125919892Y-86359996D01*
X125919892Y-86360003D01*
X125938281Y-86558457D01*
X125938283Y-86558470D01*
X125992827Y-86750175D01*
X125992829Y-86750179D01*
X126081674Y-86928605D01*
X126081676Y-86928607D01*
X126201791Y-87087664D01*
X126349090Y-87221945D01*
X126518554Y-87326873D01*
X126704414Y-87398876D01*
X126857861Y-87427559D01*
X126900334Y-87435499D01*
X126900335Y-87435499D01*
X126900340Y-87435500D01*
X126900342Y-87435500D01*
X127099658Y-87435500D01*
X127099660Y-87435500D01*
X127295586Y-87398876D01*
X127481446Y-87326873D01*
X127650910Y-87221945D01*
X127798209Y-87087664D01*
X127918326Y-86928604D01*
X128007171Y-86750180D01*
X128061717Y-86558469D01*
X128080108Y-86360000D01*
X128061717Y-86161531D01*
X128007171Y-85969820D01*
X127918326Y-85791396D01*
X127918325Y-85791395D01*
X127918325Y-85791394D01*
X127918323Y-85791392D01*
X127915035Y-85787038D01*
X127798209Y-85632336D01*
X127650910Y-85498055D01*
X127481446Y-85393127D01*
X127426587Y-85371874D01*
X127295588Y-85321124D01*
X127099665Y-85284500D01*
X127099660Y-85284500D01*
X126900340Y-85284500D01*
X126900334Y-85284500D01*
X126704411Y-85321124D01*
X126518559Y-85393125D01*
X126518554Y-85393127D01*
X126518549Y-85393129D01*
X126518549Y-85393130D01*
X126349092Y-85498053D01*
X126201793Y-85632333D01*
X126081676Y-85791392D01*
X126081674Y-85791394D01*
X125992829Y-85969820D01*
X125992827Y-85969824D01*
X125938283Y-86161529D01*
X125938281Y-86161542D01*
X125919892Y-86359996D01*
X125540108Y-86359996D01*
X125521717Y-86161531D01*
X125467171Y-85969820D01*
X125378326Y-85791396D01*
X125378325Y-85791395D01*
X125378325Y-85791394D01*
X125378323Y-85791392D01*
X125375035Y-85787038D01*
X125258209Y-85632336D01*
X125110910Y-85498055D01*
X124941446Y-85393127D01*
X124886587Y-85371874D01*
X124755588Y-85321124D01*
X124559665Y-85284500D01*
X124559660Y-85284500D01*
X124360340Y-85284500D01*
X124360334Y-85284500D01*
X124164411Y-85321124D01*
X123978559Y-85393125D01*
X123978554Y-85393127D01*
X123978549Y-85393129D01*
X123978549Y-85393130D01*
X123809092Y-85498053D01*
X123661793Y-85632333D01*
X123541676Y-85791392D01*
X123541674Y-85791394D01*
X123452829Y-85969820D01*
X123452827Y-85969824D01*
X123398283Y-86161529D01*
X123398281Y-86161542D01*
X123379892Y-86359996D01*
X120850500Y-86359996D01*
X120850500Y-83819996D01*
X123379892Y-83819996D01*
X123379892Y-83820003D01*
X123398281Y-84018457D01*
X123398283Y-84018470D01*
X123452827Y-84210175D01*
X123452829Y-84210179D01*
X123541674Y-84388605D01*
X123541676Y-84388607D01*
X123661791Y-84547664D01*
X123809090Y-84681945D01*
X123978554Y-84786873D01*
X124164414Y-84858876D01*
X124317861Y-84887559D01*
X124360334Y-84895499D01*
X124360335Y-84895499D01*
X124360340Y-84895500D01*
X124360342Y-84895500D01*
X124559658Y-84895500D01*
X124559660Y-84895500D01*
X124755586Y-84858876D01*
X124941446Y-84786873D01*
X125110910Y-84681945D01*
X125258209Y-84547664D01*
X125378326Y-84388604D01*
X125467171Y-84210180D01*
X125521717Y-84018469D01*
X125540108Y-83820000D01*
X125540108Y-83819996D01*
X125919892Y-83819996D01*
X125919892Y-83820003D01*
X125938281Y-84018457D01*
X125938283Y-84018470D01*
X125992827Y-84210175D01*
X125992829Y-84210179D01*
X126081674Y-84388605D01*
X126081676Y-84388607D01*
X126201791Y-84547664D01*
X126349090Y-84681945D01*
X126518554Y-84786873D01*
X126704414Y-84858876D01*
X126857861Y-84887559D01*
X126900334Y-84895499D01*
X126900335Y-84895499D01*
X126900340Y-84895500D01*
X126900342Y-84895500D01*
X127099658Y-84895500D01*
X127099660Y-84895500D01*
X127295586Y-84858876D01*
X127481446Y-84786873D01*
X127650910Y-84681945D01*
X127798209Y-84547664D01*
X127918326Y-84388604D01*
X128007171Y-84210180D01*
X128061717Y-84018469D01*
X128080108Y-83820000D01*
X128061717Y-83621531D01*
X128007171Y-83429820D01*
X127918326Y-83251396D01*
X127918325Y-83251395D01*
X127918325Y-83251394D01*
X127918323Y-83251392D01*
X127915035Y-83247038D01*
X127798209Y-83092336D01*
X127650910Y-82958055D01*
X127481446Y-82853127D01*
X127426587Y-82831874D01*
X127295588Y-82781124D01*
X127099665Y-82744500D01*
X127099660Y-82744500D01*
X126900340Y-82744500D01*
X126900334Y-82744500D01*
X126704411Y-82781124D01*
X126518559Y-82853125D01*
X126518554Y-82853127D01*
X126518549Y-82853129D01*
X126518549Y-82853130D01*
X126349092Y-82958053D01*
X126201793Y-83092333D01*
X126081676Y-83251392D01*
X126081674Y-83251394D01*
X125992829Y-83429820D01*
X125992827Y-83429824D01*
X125938283Y-83621529D01*
X125938281Y-83621542D01*
X125919892Y-83819996D01*
X125540108Y-83819996D01*
X125521717Y-83621531D01*
X125467171Y-83429820D01*
X125378326Y-83251396D01*
X125378325Y-83251395D01*
X125378325Y-83251394D01*
X125378323Y-83251392D01*
X125375035Y-83247038D01*
X125258209Y-83092336D01*
X125110910Y-82958055D01*
X124941446Y-82853127D01*
X124886587Y-82831874D01*
X124755588Y-82781124D01*
X124559665Y-82744500D01*
X124559660Y-82744500D01*
X124360340Y-82744500D01*
X124360334Y-82744500D01*
X124164411Y-82781124D01*
X123978559Y-82853125D01*
X123978554Y-82853127D01*
X123978549Y-82853129D01*
X123978549Y-82853130D01*
X123809092Y-82958053D01*
X123661793Y-83092333D01*
X123541676Y-83251392D01*
X123541674Y-83251394D01*
X123452829Y-83429820D01*
X123452827Y-83429824D01*
X123398283Y-83621529D01*
X123398281Y-83621542D01*
X123379892Y-83819996D01*
X120850500Y-83819996D01*
X120850500Y-81279996D01*
X123379892Y-81279996D01*
X123379892Y-81280003D01*
X123398281Y-81478457D01*
X123398283Y-81478470D01*
X123452827Y-81670175D01*
X123452829Y-81670179D01*
X123541674Y-81848605D01*
X123541676Y-81848607D01*
X123661791Y-82007664D01*
X123809090Y-82141945D01*
X123978554Y-82246873D01*
X124164414Y-82318876D01*
X124317861Y-82347559D01*
X124360334Y-82355499D01*
X124360335Y-82355499D01*
X124360340Y-82355500D01*
X124360342Y-82355500D01*
X124559658Y-82355500D01*
X124559660Y-82355500D01*
X124755586Y-82318876D01*
X124941446Y-82246873D01*
X125110910Y-82141945D01*
X125258209Y-82007664D01*
X125378326Y-81848604D01*
X125467171Y-81670180D01*
X125521717Y-81478469D01*
X125540108Y-81280000D01*
X125540108Y-81279996D01*
X125919892Y-81279996D01*
X125919892Y-81280003D01*
X125938281Y-81478457D01*
X125938283Y-81478470D01*
X125992827Y-81670175D01*
X125992829Y-81670179D01*
X126081674Y-81848605D01*
X126081676Y-81848607D01*
X126201791Y-82007664D01*
X126349090Y-82141945D01*
X126518554Y-82246873D01*
X126704414Y-82318876D01*
X126857861Y-82347559D01*
X126900334Y-82355499D01*
X126900335Y-82355499D01*
X126900340Y-82355500D01*
X126900342Y-82355500D01*
X127099658Y-82355500D01*
X127099660Y-82355500D01*
X127295586Y-82318876D01*
X127481446Y-82246873D01*
X127650910Y-82141945D01*
X127798209Y-82007664D01*
X127918326Y-81848604D01*
X128007171Y-81670180D01*
X128061717Y-81478469D01*
X128080108Y-81280000D01*
X128061717Y-81081531D01*
X128007171Y-80889820D01*
X127918326Y-80711396D01*
X127918325Y-80711395D01*
X127918325Y-80711394D01*
X127918323Y-80711392D01*
X127915035Y-80707038D01*
X127798209Y-80552336D01*
X127650910Y-80418055D01*
X127481446Y-80313127D01*
X127426587Y-80291874D01*
X127295588Y-80241124D01*
X127099665Y-80204500D01*
X127099660Y-80204500D01*
X126900340Y-80204500D01*
X126900334Y-80204500D01*
X126704411Y-80241124D01*
X126518559Y-80313125D01*
X126518554Y-80313127D01*
X126518549Y-80313129D01*
X126518549Y-80313130D01*
X126349092Y-80418053D01*
X126201793Y-80552333D01*
X126081676Y-80711392D01*
X126081674Y-80711394D01*
X125992829Y-80889820D01*
X125992827Y-80889824D01*
X125938283Y-81081529D01*
X125938281Y-81081542D01*
X125919892Y-81279996D01*
X125540108Y-81279996D01*
X125521717Y-81081531D01*
X125467171Y-80889820D01*
X125378326Y-80711396D01*
X125378325Y-80711395D01*
X125378325Y-80711394D01*
X125378323Y-80711392D01*
X125375035Y-80707038D01*
X125258209Y-80552336D01*
X125110910Y-80418055D01*
X124941446Y-80313127D01*
X124886587Y-80291874D01*
X124755588Y-80241124D01*
X124559665Y-80204500D01*
X124559660Y-80204500D01*
X124360340Y-80204500D01*
X124360334Y-80204500D01*
X124164411Y-80241124D01*
X123978559Y-80313125D01*
X123978554Y-80313127D01*
X123978549Y-80313129D01*
X123978549Y-80313130D01*
X123809092Y-80418053D01*
X123661793Y-80552333D01*
X123541676Y-80711392D01*
X123541674Y-80711394D01*
X123452829Y-80889820D01*
X123452827Y-80889824D01*
X123398283Y-81081529D01*
X123398281Y-81081542D01*
X123379892Y-81279996D01*
X120850500Y-81279996D01*
X120850500Y-78739996D01*
X123379892Y-78739996D01*
X123379892Y-78740003D01*
X123398281Y-78938457D01*
X123398283Y-78938470D01*
X123452827Y-79130175D01*
X123452829Y-79130179D01*
X123541674Y-79308605D01*
X123541676Y-79308607D01*
X123661791Y-79467664D01*
X123809090Y-79601945D01*
X123978554Y-79706873D01*
X124164414Y-79778876D01*
X124317861Y-79807559D01*
X124360334Y-79815499D01*
X124360335Y-79815499D01*
X124360340Y-79815500D01*
X124360342Y-79815500D01*
X124559658Y-79815500D01*
X124559660Y-79815500D01*
X124755586Y-79778876D01*
X124941446Y-79706873D01*
X125110910Y-79601945D01*
X125258209Y-79467664D01*
X125378326Y-79308604D01*
X125467171Y-79130180D01*
X125521717Y-78938469D01*
X125540108Y-78740000D01*
X125540108Y-78739996D01*
X125919892Y-78739996D01*
X125919892Y-78740003D01*
X125938281Y-78938457D01*
X125938283Y-78938470D01*
X125992827Y-79130175D01*
X125992829Y-79130179D01*
X126081674Y-79308605D01*
X126081676Y-79308607D01*
X126201791Y-79467664D01*
X126349090Y-79601945D01*
X126518554Y-79706873D01*
X126704414Y-79778876D01*
X126857861Y-79807559D01*
X126900334Y-79815499D01*
X126900335Y-79815499D01*
X126900340Y-79815500D01*
X126900342Y-79815500D01*
X127099658Y-79815500D01*
X127099660Y-79815500D01*
X127295586Y-79778876D01*
X127481446Y-79706873D01*
X127650910Y-79601945D01*
X127798209Y-79467664D01*
X127918326Y-79308604D01*
X128007171Y-79130180D01*
X128061717Y-78938469D01*
X128080108Y-78740000D01*
X128061717Y-78541531D01*
X128007171Y-78349820D01*
X127918326Y-78171396D01*
X127918325Y-78171395D01*
X127918325Y-78171394D01*
X127918323Y-78171392D01*
X127915035Y-78167038D01*
X127798209Y-78012336D01*
X127650910Y-77878055D01*
X127481446Y-77773127D01*
X127426587Y-77751874D01*
X127295588Y-77701124D01*
X127099665Y-77664500D01*
X127099660Y-77664500D01*
X126900340Y-77664500D01*
X126900334Y-77664500D01*
X126704411Y-77701124D01*
X126518559Y-77773125D01*
X126518554Y-77773127D01*
X126518549Y-77773129D01*
X126518549Y-77773130D01*
X126349092Y-77878053D01*
X126201793Y-78012333D01*
X126081676Y-78171392D01*
X126081674Y-78171394D01*
X125992829Y-78349820D01*
X125992827Y-78349824D01*
X125938283Y-78541529D01*
X125938281Y-78541542D01*
X125919892Y-78739996D01*
X125540108Y-78739996D01*
X125521717Y-78541531D01*
X125467171Y-78349820D01*
X125378326Y-78171396D01*
X125378325Y-78171395D01*
X125378325Y-78171394D01*
X125378323Y-78171392D01*
X125375035Y-78167038D01*
X125258209Y-78012336D01*
X125110910Y-77878055D01*
X124941446Y-77773127D01*
X124886587Y-77751874D01*
X124755588Y-77701124D01*
X124559665Y-77664500D01*
X124559660Y-77664500D01*
X124360340Y-77664500D01*
X124360334Y-77664500D01*
X124164411Y-77701124D01*
X123978559Y-77773125D01*
X123978554Y-77773127D01*
X123978549Y-77773129D01*
X123978549Y-77773130D01*
X123809092Y-77878053D01*
X123661793Y-78012333D01*
X123541676Y-78171392D01*
X123541674Y-78171394D01*
X123452829Y-78349820D01*
X123452827Y-78349824D01*
X123398283Y-78541529D01*
X123398281Y-78541542D01*
X123379892Y-78739996D01*
X120850500Y-78739996D01*
X120850500Y-76199996D01*
X123379892Y-76199996D01*
X123379892Y-76200003D01*
X123398281Y-76398457D01*
X123398283Y-76398470D01*
X123452827Y-76590175D01*
X123452829Y-76590179D01*
X123541674Y-76768605D01*
X123541676Y-76768607D01*
X123661791Y-76927664D01*
X123809090Y-77061945D01*
X123978554Y-77166873D01*
X124164414Y-77238876D01*
X124317861Y-77267559D01*
X124360334Y-77275499D01*
X124360335Y-77275499D01*
X124360340Y-77275500D01*
X124360342Y-77275500D01*
X124559658Y-77275500D01*
X124559660Y-77275500D01*
X124755586Y-77238876D01*
X124941446Y-77166873D01*
X125110910Y-77061945D01*
X125258209Y-76927664D01*
X125378326Y-76768604D01*
X125467171Y-76590180D01*
X125521717Y-76398469D01*
X125540108Y-76200000D01*
X125540108Y-76199996D01*
X125919892Y-76199996D01*
X125919892Y-76200003D01*
X125938281Y-76398457D01*
X125938283Y-76398470D01*
X125992827Y-76590175D01*
X125992829Y-76590179D01*
X126081674Y-76768605D01*
X126081676Y-76768607D01*
X126201791Y-76927664D01*
X126349090Y-77061945D01*
X126518554Y-77166873D01*
X126704414Y-77238876D01*
X126857861Y-77267559D01*
X126900334Y-77275499D01*
X126900335Y-77275499D01*
X126900340Y-77275500D01*
X126900342Y-77275500D01*
X127099658Y-77275500D01*
X127099660Y-77275500D01*
X127295586Y-77238876D01*
X127481446Y-77166873D01*
X127650910Y-77061945D01*
X127798209Y-76927664D01*
X127918326Y-76768604D01*
X128007171Y-76590180D01*
X128061717Y-76398469D01*
X128080108Y-76200000D01*
X128061717Y-76001531D01*
X128007171Y-75809820D01*
X127918326Y-75631396D01*
X127918325Y-75631395D01*
X127918325Y-75631394D01*
X127918323Y-75631392D01*
X127915035Y-75627038D01*
X127798209Y-75472336D01*
X127650910Y-75338055D01*
X127481446Y-75233127D01*
X127426587Y-75211874D01*
X127295588Y-75161124D01*
X127099665Y-75124500D01*
X127099660Y-75124500D01*
X126900340Y-75124500D01*
X126900334Y-75124500D01*
X126704411Y-75161124D01*
X126518559Y-75233125D01*
X126518554Y-75233127D01*
X126518549Y-75233129D01*
X126518549Y-75233130D01*
X126349092Y-75338053D01*
X126201793Y-75472333D01*
X126081676Y-75631392D01*
X126081674Y-75631394D01*
X125992829Y-75809820D01*
X125992827Y-75809824D01*
X125938283Y-76001529D01*
X125938281Y-76001542D01*
X125919892Y-76199996D01*
X125540108Y-76199996D01*
X125521717Y-76001531D01*
X125467171Y-75809820D01*
X125378326Y-75631396D01*
X125378325Y-75631395D01*
X125378325Y-75631394D01*
X125378323Y-75631392D01*
X125375035Y-75627038D01*
X125258209Y-75472336D01*
X125110910Y-75338055D01*
X124941446Y-75233127D01*
X124886587Y-75211874D01*
X124755588Y-75161124D01*
X124559665Y-75124500D01*
X124559660Y-75124500D01*
X124360340Y-75124500D01*
X124360334Y-75124500D01*
X124164411Y-75161124D01*
X123978559Y-75233125D01*
X123978554Y-75233127D01*
X123978549Y-75233129D01*
X123978549Y-75233130D01*
X123809092Y-75338053D01*
X123661793Y-75472333D01*
X123541676Y-75631392D01*
X123541674Y-75631394D01*
X123452829Y-75809820D01*
X123452827Y-75809824D01*
X123398283Y-76001529D01*
X123398281Y-76001542D01*
X123379892Y-76199996D01*
X120850500Y-76199996D01*
X120850500Y-73659996D01*
X123379892Y-73659996D01*
X123379892Y-73660003D01*
X123398281Y-73858457D01*
X123398283Y-73858470D01*
X123452827Y-74050175D01*
X123452829Y-74050179D01*
X123541674Y-74228605D01*
X123541676Y-74228607D01*
X123661791Y-74387664D01*
X123809090Y-74521945D01*
X123978554Y-74626873D01*
X124164414Y-74698876D01*
X124317861Y-74727559D01*
X124360334Y-74735499D01*
X124360335Y-74735499D01*
X124360340Y-74735500D01*
X124360342Y-74735500D01*
X124559658Y-74735500D01*
X124559660Y-74735500D01*
X124755586Y-74698876D01*
X124941446Y-74626873D01*
X125110910Y-74521945D01*
X125258209Y-74387664D01*
X125378326Y-74228604D01*
X125467171Y-74050180D01*
X125521717Y-73858469D01*
X125540108Y-73660000D01*
X125540108Y-73659996D01*
X125919892Y-73659996D01*
X125919892Y-73660003D01*
X125938281Y-73858457D01*
X125938283Y-73858470D01*
X125992827Y-74050175D01*
X125992829Y-74050179D01*
X126081674Y-74228605D01*
X126081676Y-74228607D01*
X126201791Y-74387664D01*
X126349090Y-74521945D01*
X126518554Y-74626873D01*
X126704414Y-74698876D01*
X126857861Y-74727559D01*
X126900334Y-74735499D01*
X126900335Y-74735499D01*
X126900340Y-74735500D01*
X126900342Y-74735500D01*
X127099658Y-74735500D01*
X127099660Y-74735500D01*
X127295586Y-74698876D01*
X127481446Y-74626873D01*
X127650910Y-74521945D01*
X127798209Y-74387664D01*
X127918326Y-74228604D01*
X128007171Y-74050180D01*
X128061717Y-73858469D01*
X128080108Y-73660000D01*
X128061717Y-73461531D01*
X128007171Y-73269820D01*
X127918326Y-73091396D01*
X127918325Y-73091395D01*
X127918325Y-73091394D01*
X127918323Y-73091392D01*
X127915035Y-73087038D01*
X127798209Y-72932336D01*
X127650910Y-72798055D01*
X127481446Y-72693127D01*
X127426587Y-72671874D01*
X127295588Y-72621124D01*
X127099665Y-72584500D01*
X127099660Y-72584500D01*
X126900340Y-72584500D01*
X126900334Y-72584500D01*
X126704411Y-72621124D01*
X126518559Y-72693125D01*
X126518554Y-72693127D01*
X126518549Y-72693129D01*
X126518549Y-72693130D01*
X126349092Y-72798053D01*
X126201793Y-72932333D01*
X126081676Y-73091392D01*
X126081674Y-73091394D01*
X125992829Y-73269820D01*
X125992827Y-73269824D01*
X125938283Y-73461529D01*
X125938281Y-73461542D01*
X125919892Y-73659996D01*
X125540108Y-73659996D01*
X125521717Y-73461531D01*
X125467171Y-73269820D01*
X125378326Y-73091396D01*
X125378325Y-73091395D01*
X125378325Y-73091394D01*
X125378323Y-73091392D01*
X125375035Y-73087038D01*
X125258209Y-72932336D01*
X125110910Y-72798055D01*
X124941446Y-72693127D01*
X124886587Y-72671874D01*
X124755588Y-72621124D01*
X124559665Y-72584500D01*
X124559660Y-72584500D01*
X124360340Y-72584500D01*
X124360334Y-72584500D01*
X124164411Y-72621124D01*
X123978559Y-72693125D01*
X123978554Y-72693127D01*
X123978549Y-72693129D01*
X123978549Y-72693130D01*
X123809092Y-72798053D01*
X123661793Y-72932333D01*
X123541676Y-73091392D01*
X123541674Y-73091394D01*
X123452829Y-73269820D01*
X123452827Y-73269824D01*
X123398283Y-73461529D01*
X123398281Y-73461542D01*
X123379892Y-73659996D01*
X120850500Y-73659996D01*
X120850500Y-71119996D01*
X123379892Y-71119996D01*
X123379892Y-71120003D01*
X123398281Y-71318457D01*
X123398283Y-71318470D01*
X123452827Y-71510175D01*
X123452829Y-71510179D01*
X123541674Y-71688605D01*
X123541676Y-71688607D01*
X123661791Y-71847664D01*
X123809090Y-71981945D01*
X123978554Y-72086873D01*
X124164414Y-72158876D01*
X124317861Y-72187559D01*
X124360334Y-72195499D01*
X124360335Y-72195499D01*
X124360340Y-72195500D01*
X124360342Y-72195500D01*
X124559658Y-72195500D01*
X124559660Y-72195500D01*
X124755586Y-72158876D01*
X124941446Y-72086873D01*
X125110910Y-71981945D01*
X125258209Y-71847664D01*
X125378326Y-71688604D01*
X125467171Y-71510180D01*
X125521717Y-71318469D01*
X125540108Y-71120000D01*
X125540108Y-71119996D01*
X125919892Y-71119996D01*
X125919892Y-71120003D01*
X125938281Y-71318457D01*
X125938283Y-71318470D01*
X125992827Y-71510175D01*
X125992829Y-71510179D01*
X126081674Y-71688605D01*
X126081676Y-71688607D01*
X126201791Y-71847664D01*
X126349090Y-71981945D01*
X126518554Y-72086873D01*
X126704414Y-72158876D01*
X126857861Y-72187559D01*
X126900334Y-72195499D01*
X126900335Y-72195499D01*
X126900340Y-72195500D01*
X126900342Y-72195500D01*
X127099658Y-72195500D01*
X127099660Y-72195500D01*
X127295586Y-72158876D01*
X127481446Y-72086873D01*
X127650910Y-71981945D01*
X127798209Y-71847664D01*
X127918326Y-71688604D01*
X128007171Y-71510180D01*
X128061717Y-71318469D01*
X128080108Y-71120000D01*
X128061717Y-70921531D01*
X128007171Y-70729820D01*
X127918326Y-70551396D01*
X127918325Y-70551395D01*
X127918325Y-70551394D01*
X127918323Y-70551392D01*
X127915035Y-70547038D01*
X127798209Y-70392336D01*
X127650910Y-70258055D01*
X127481446Y-70153127D01*
X127426587Y-70131874D01*
X127295588Y-70081124D01*
X127099665Y-70044500D01*
X127099660Y-70044500D01*
X126900340Y-70044500D01*
X126900334Y-70044500D01*
X126704411Y-70081124D01*
X126518559Y-70153125D01*
X126518554Y-70153127D01*
X126518549Y-70153129D01*
X126518549Y-70153130D01*
X126349092Y-70258053D01*
X126201793Y-70392333D01*
X126081676Y-70551392D01*
X126081674Y-70551394D01*
X125992829Y-70729820D01*
X125992827Y-70729824D01*
X125938283Y-70921529D01*
X125938281Y-70921542D01*
X125919892Y-71119996D01*
X125540108Y-71119996D01*
X125521717Y-70921531D01*
X125467171Y-70729820D01*
X125378326Y-70551396D01*
X125378325Y-70551395D01*
X125378325Y-70551394D01*
X125378323Y-70551392D01*
X125375035Y-70547038D01*
X125258209Y-70392336D01*
X125110910Y-70258055D01*
X124941446Y-70153127D01*
X124886587Y-70131874D01*
X124755588Y-70081124D01*
X124559665Y-70044500D01*
X124559660Y-70044500D01*
X124360340Y-70044500D01*
X124360334Y-70044500D01*
X124164411Y-70081124D01*
X123978559Y-70153125D01*
X123978554Y-70153127D01*
X123978549Y-70153129D01*
X123978549Y-70153130D01*
X123809092Y-70258053D01*
X123661793Y-70392333D01*
X123541676Y-70551392D01*
X123541674Y-70551394D01*
X123452829Y-70729820D01*
X123452827Y-70729824D01*
X123398283Y-70921529D01*
X123398281Y-70921542D01*
X123379892Y-71119996D01*
X120850500Y-71119996D01*
X120850500Y-68580000D01*
X123430040Y-68580000D01*
X123449830Y-68780936D01*
X123508442Y-68974150D01*
X123603620Y-69152215D01*
X123667961Y-69230615D01*
X124005607Y-68892968D01*
X124019890Y-68917708D01*
X124122292Y-69020110D01*
X124147029Y-69034391D01*
X123809383Y-69372038D01*
X123887784Y-69436379D01*
X124065849Y-69531557D01*
X124259063Y-69590169D01*
X124460000Y-69609959D01*
X124660936Y-69590169D01*
X124854150Y-69531557D01*
X125032215Y-69436379D01*
X125110615Y-69372038D01*
X124772970Y-69034392D01*
X124797708Y-69020110D01*
X124900110Y-68917708D01*
X124914392Y-68892969D01*
X125252038Y-69230615D01*
X125316379Y-69152215D01*
X125411557Y-68974150D01*
X125470169Y-68780936D01*
X125489959Y-68580000D01*
X125489959Y-68579996D01*
X125919892Y-68579996D01*
X125919892Y-68580003D01*
X125938281Y-68778457D01*
X125938283Y-68778470D01*
X125992827Y-68970175D01*
X125992828Y-68970177D01*
X125992829Y-68970180D01*
X126037251Y-69059392D01*
X126081674Y-69148605D01*
X126081676Y-69148607D01*
X126201791Y-69307664D01*
X126349090Y-69441945D01*
X126518554Y-69546873D01*
X126704414Y-69618876D01*
X126857861Y-69647559D01*
X126900334Y-69655499D01*
X126900335Y-69655499D01*
X126900340Y-69655500D01*
X126900342Y-69655500D01*
X127099658Y-69655500D01*
X127099660Y-69655500D01*
X127295586Y-69618876D01*
X127481446Y-69546873D01*
X127650910Y-69441945D01*
X127798209Y-69307664D01*
X127918326Y-69148604D01*
X128007171Y-68970180D01*
X128061717Y-68778469D01*
X128080108Y-68580000D01*
X128061717Y-68381531D01*
X128007171Y-68189820D01*
X127918326Y-68011396D01*
X127918325Y-68011395D01*
X127918325Y-68011394D01*
X127918323Y-68011392D01*
X127856392Y-67929383D01*
X127798209Y-67852336D01*
X127650910Y-67718055D01*
X127481446Y-67613127D01*
X127426587Y-67591874D01*
X127295588Y-67541124D01*
X127099665Y-67504500D01*
X127099660Y-67504500D01*
X126900340Y-67504500D01*
X126900334Y-67504500D01*
X126704411Y-67541124D01*
X126518559Y-67613125D01*
X126518554Y-67613127D01*
X126518549Y-67613129D01*
X126518549Y-67613130D01*
X126349092Y-67718053D01*
X126201793Y-67852333D01*
X126081676Y-68011392D01*
X126081674Y-68011394D01*
X125992829Y-68189820D01*
X125992827Y-68189824D01*
X125938283Y-68381529D01*
X125938281Y-68381542D01*
X125919892Y-68579996D01*
X125489959Y-68579996D01*
X125470169Y-68379063D01*
X125411557Y-68185849D01*
X125316379Y-68007784D01*
X125252038Y-67929383D01*
X124914391Y-68267028D01*
X124900110Y-68242292D01*
X124797708Y-68139890D01*
X124772968Y-68125607D01*
X125110615Y-67787961D01*
X125032215Y-67723620D01*
X124854150Y-67628442D01*
X124660936Y-67569830D01*
X124460000Y-67550040D01*
X124259063Y-67569830D01*
X124065849Y-67628442D01*
X123887785Y-67723620D01*
X123809383Y-67787961D01*
X124147029Y-68125607D01*
X124122292Y-68139890D01*
X124019890Y-68242292D01*
X124005607Y-68267029D01*
X123667961Y-67929383D01*
X123603620Y-68007785D01*
X123508442Y-68185849D01*
X123449830Y-68379063D01*
X123430040Y-68580000D01*
X120850500Y-68580000D01*
X120850500Y-66039996D01*
X123379892Y-66039996D01*
X123379892Y-66040003D01*
X123398281Y-66238457D01*
X123398283Y-66238470D01*
X123452827Y-66430175D01*
X123452829Y-66430179D01*
X123541674Y-66608605D01*
X123541676Y-66608607D01*
X123661791Y-66767664D01*
X123809090Y-66901945D01*
X123978554Y-67006873D01*
X124164414Y-67078876D01*
X124317861Y-67107559D01*
X124360334Y-67115499D01*
X124360335Y-67115499D01*
X124360340Y-67115500D01*
X124360342Y-67115500D01*
X124559658Y-67115500D01*
X124559660Y-67115500D01*
X124755586Y-67078876D01*
X124941446Y-67006873D01*
X125110910Y-66901945D01*
X125258209Y-66767664D01*
X125378326Y-66608604D01*
X125467171Y-66430180D01*
X125521717Y-66238469D01*
X125540108Y-66040000D01*
X125540108Y-66039996D01*
X125919892Y-66039996D01*
X125919892Y-66040003D01*
X125938281Y-66238457D01*
X125938283Y-66238470D01*
X125992827Y-66430175D01*
X125992829Y-66430179D01*
X126081674Y-66608605D01*
X126081676Y-66608607D01*
X126201791Y-66767664D01*
X126349090Y-66901945D01*
X126518554Y-67006873D01*
X126704414Y-67078876D01*
X126857861Y-67107559D01*
X126900334Y-67115499D01*
X126900335Y-67115499D01*
X126900340Y-67115500D01*
X126900342Y-67115500D01*
X127099658Y-67115500D01*
X127099660Y-67115500D01*
X127295586Y-67078876D01*
X127481446Y-67006873D01*
X127650910Y-66901945D01*
X127798209Y-66767664D01*
X127918326Y-66608604D01*
X128007171Y-66430180D01*
X128061717Y-66238469D01*
X128080108Y-66040000D01*
X128061717Y-65841531D01*
X128007171Y-65649820D01*
X127918326Y-65471396D01*
X127918325Y-65471395D01*
X127918325Y-65471394D01*
X127918323Y-65471392D01*
X127915035Y-65467038D01*
X127798209Y-65312336D01*
X127650910Y-65178055D01*
X127481446Y-65073127D01*
X127426587Y-65051874D01*
X127295588Y-65001124D01*
X127099665Y-64964500D01*
X127099660Y-64964500D01*
X126900340Y-64964500D01*
X126900334Y-64964500D01*
X126704411Y-65001124D01*
X126518559Y-65073125D01*
X126518554Y-65073127D01*
X126518549Y-65073129D01*
X126518549Y-65073130D01*
X126349092Y-65178053D01*
X126201793Y-65312333D01*
X126081676Y-65471392D01*
X126081674Y-65471394D01*
X125992829Y-65649820D01*
X125992827Y-65649824D01*
X125938283Y-65841529D01*
X125938281Y-65841542D01*
X125919892Y-66039996D01*
X125540108Y-66039996D01*
X125521717Y-65841531D01*
X125467171Y-65649820D01*
X125378326Y-65471396D01*
X125378325Y-65471395D01*
X125378325Y-65471394D01*
X125378323Y-65471392D01*
X125375035Y-65467038D01*
X125258209Y-65312336D01*
X125110910Y-65178055D01*
X124941446Y-65073127D01*
X124886587Y-65051874D01*
X124755588Y-65001124D01*
X124559665Y-64964500D01*
X124559660Y-64964500D01*
X124360340Y-64964500D01*
X124360334Y-64964500D01*
X124164411Y-65001124D01*
X123978559Y-65073125D01*
X123978554Y-65073127D01*
X123978549Y-65073129D01*
X123978549Y-65073130D01*
X123809092Y-65178053D01*
X123661793Y-65312333D01*
X123541676Y-65471392D01*
X123541674Y-65471394D01*
X123452829Y-65649820D01*
X123452827Y-65649824D01*
X123398283Y-65841529D01*
X123398281Y-65841542D01*
X123379892Y-66039996D01*
X120850500Y-66039996D01*
X120850500Y-63324500D01*
X120872174Y-63272174D01*
X120924500Y-63250500D01*
X176275500Y-63250500D01*
X176327826Y-63272174D01*
G37*
%TD.AperFunction*%
%TD*%
M02*
