M48
; DRILL file {KiCad 8.0.3-8.0.3-0~ubuntu22.04.1} date 2024-06-07T23:15:41+0100
; FORMAT={3:3/ absolute / metric / keep zeros}
; #@! TF.CreationDate,2024-06-07T23:15:41+01:00
; #@! TF.GenerationSoftware,Kicad,Pcbnew,8.0.3-8.0.3-0~ubuntu22.04.1
; #@! TF.FileFunction,Plated,1,4,PTH
FMAT,2
METRIC
; #@! TA.AperFunction,Plated,PTH,ViaDrill
T1C0.300
; #@! TA.AperFunction,Plated,PTH,ViaDrill
T2C0.900
; #@! TA.AperFunction,Plated,PTH,ComponentDrill
T3C1.100
%
G90
G05
T1
X129050Y-091350
X129100Y-130400
X129150Y-099900
X129350Y-097100
X129700Y-123350
X129900Y-077800
X129900Y-111450
X130600Y-118400
X130800Y-114900
X131450Y-106100
X131450Y-124650
X131750Y-084350
X132950Y-138350
X133050Y-135050
X138950Y-131100
X140100Y-090950
X142700Y-085350
X144150Y-096850
X147050Y-118500
X147350Y-111600
X147350Y-115050
X147750Y-123800
X148300Y-090700
X148500Y-106050
X149500Y-095000
X152350Y-101550
X152350Y-102400
X154000Y-113150
X154350Y-130950
X154500Y-108850
X155000Y-133050
X155250Y-096850
X155400Y-106200
X156000Y-113000
X156800Y-112350
X157600Y-112050
X158400Y-111850
X159200Y-111250
X159250Y-115700
X160000Y-090050
X160000Y-111100
X160020Y-101600
X160100Y-091750
X160750Y-112800
X160800Y-110500
X160950Y-111900
X161200Y-088750
X161600Y-109900
X161750Y-093200
X162350Y-125950
X162450Y-109900
X162600Y-113800
X162750Y-088700
X163250Y-092950
X163900Y-090000
X164000Y-116250
X164020Y-093770
X164200Y-114900
X164550Y-121050
X164650Y-106250
X164700Y-096900
X164700Y-101600
X164800Y-119400
X164850Y-112350
X165200Y-121650
X165900Y-121050
X166150Y-119750
X166350Y-095650
X166750Y-118300
X167400Y-117400
X167550Y-101600
X167600Y-104800
X168000Y-100800
X168050Y-099200
X168050Y-105600
X168150Y-102400
X168300Y-113050
X168550Y-098400
X168550Y-100000
X168750Y-108050
X168850Y-104000
X169150Y-102450
X169200Y-106700
X170050Y-108400
X170100Y-109450
X170750Y-099300
X171750Y-107850
X171800Y-106900
T2
X135600Y-136000
X138140Y-136000
X140680Y-136000
T3
X124460Y-066040
X124460Y-068580
X124460Y-071120
X124460Y-073660
X124460Y-076200
X124460Y-078740
X124460Y-081280
X124460Y-083820
X124460Y-086360
X124460Y-088900
X124460Y-093980
X124460Y-096520
X124460Y-099060
X124460Y-101600
X124460Y-104140
X124460Y-106680
X124460Y-109220
X124460Y-111760
X124460Y-114300
X124460Y-116840
X124460Y-121920
X124460Y-124460
X124460Y-127000
X124460Y-129540
X124460Y-132080
X124460Y-134620
X124460Y-137160
X124460Y-139700
X124460Y-142240
X124460Y-144780
X127000Y-066040
X127000Y-068580
X127000Y-071120
X127000Y-073660
X127000Y-076200
X127000Y-078740
X127000Y-081280
X127000Y-083820
X127000Y-086360
X127000Y-088900
X127000Y-093980
X127000Y-096520
X127000Y-099060
X127000Y-101600
X127000Y-104140
X127000Y-106680
X127000Y-109220
X127000Y-111760
X127000Y-114300
X127000Y-116840
X127000Y-121920
X127000Y-124460
X127000Y-127000
X127000Y-129540
X127000Y-132080
X127000Y-134620
X127000Y-137160
X127000Y-139700
X127000Y-142240
X127000Y-144780
M30
