%TF.GenerationSoftware,KiCad,Pcbnew,8.0.3-8.0.3-0~ubuntu22.04.1*%
%TF.CreationDate,2024-06-07T23:15:48+01:00*%
%TF.ProjectId,0002-65C816S-minimal,30303032-2d36-4354-9338-3136532d6d69,A*%
%TF.SameCoordinates,Original*%
%TF.FileFunction,Legend,Top*%
%TF.FilePolarity,Positive*%
%FSLAX46Y46*%
G04 Gerber Fmt 4.6, Leading zero omitted, Abs format (unit mm)*
G04 Created by KiCad (PCBNEW 8.0.3-8.0.3-0~ubuntu22.04.1) date 2024-06-07 23:15:48*
%MOMM*%
%LPD*%
G01*
G04 APERTURE LIST*
%ADD10C,0.200000*%
%ADD11C,0.175000*%
%ADD12C,0.150000*%
%ADD13C,0.254000*%
%ADD14C,0.120000*%
G04 APERTURE END LIST*
D10*
X135650000Y-141800000D02*
X135150000Y-140850000D01*
X135650000Y-141800000D02*
X136150000Y-140850000D01*
X135650000Y-137600000D02*
X135650000Y-141800000D01*
X138150000Y-137575000D02*
X138650000Y-138525000D01*
X138150000Y-137575000D02*
X137650000Y-138525000D01*
X138150000Y-141775000D02*
X138150000Y-137575000D01*
D11*
X146343702Y-135696138D02*
X146438940Y-135696138D01*
X146438940Y-135696138D02*
X146534178Y-135791376D01*
X146534178Y-135791376D02*
X146581797Y-135886614D01*
X146581797Y-135886614D02*
X146629416Y-136077090D01*
X146629416Y-136077090D02*
X146677035Y-136458042D01*
X146677035Y-136458042D02*
X146677035Y-136934233D01*
X146677035Y-136934233D02*
X146629416Y-137315185D01*
X146629416Y-137315185D02*
X146581797Y-137505661D01*
X146581797Y-137505661D02*
X146534178Y-137600900D01*
X146534178Y-137600900D02*
X146438940Y-137696138D01*
X146438940Y-137696138D02*
X146343702Y-137696138D01*
X146343702Y-137696138D02*
X146248464Y-137600900D01*
X146248464Y-137600900D02*
X146200845Y-137505661D01*
X146200845Y-137505661D02*
X146153226Y-137315185D01*
X146153226Y-137315185D02*
X146105607Y-136934233D01*
X146105607Y-136934233D02*
X146105607Y-136458042D01*
X146105607Y-136458042D02*
X146153226Y-136077090D01*
X146153226Y-136077090D02*
X146200845Y-135886614D01*
X146200845Y-135886614D02*
X146248464Y-135791376D01*
X146248464Y-135791376D02*
X146343702Y-135696138D01*
X147296083Y-135696138D02*
X147391321Y-135696138D01*
X147391321Y-135696138D02*
X147486559Y-135791376D01*
X147486559Y-135791376D02*
X147534178Y-135886614D01*
X147534178Y-135886614D02*
X147581797Y-136077090D01*
X147581797Y-136077090D02*
X147629416Y-136458042D01*
X147629416Y-136458042D02*
X147629416Y-136934233D01*
X147629416Y-136934233D02*
X147581797Y-137315185D01*
X147581797Y-137315185D02*
X147534178Y-137505661D01*
X147534178Y-137505661D02*
X147486559Y-137600900D01*
X147486559Y-137600900D02*
X147391321Y-137696138D01*
X147391321Y-137696138D02*
X147296083Y-137696138D01*
X147296083Y-137696138D02*
X147200845Y-137600900D01*
X147200845Y-137600900D02*
X147153226Y-137505661D01*
X147153226Y-137505661D02*
X147105607Y-137315185D01*
X147105607Y-137315185D02*
X147057988Y-136934233D01*
X147057988Y-136934233D02*
X147057988Y-136458042D01*
X147057988Y-136458042D02*
X147105607Y-136077090D01*
X147105607Y-136077090D02*
X147153226Y-135886614D01*
X147153226Y-135886614D02*
X147200845Y-135791376D01*
X147200845Y-135791376D02*
X147296083Y-135696138D01*
X148248464Y-135696138D02*
X148343702Y-135696138D01*
X148343702Y-135696138D02*
X148438940Y-135791376D01*
X148438940Y-135791376D02*
X148486559Y-135886614D01*
X148486559Y-135886614D02*
X148534178Y-136077090D01*
X148534178Y-136077090D02*
X148581797Y-136458042D01*
X148581797Y-136458042D02*
X148581797Y-136934233D01*
X148581797Y-136934233D02*
X148534178Y-137315185D01*
X148534178Y-137315185D02*
X148486559Y-137505661D01*
X148486559Y-137505661D02*
X148438940Y-137600900D01*
X148438940Y-137600900D02*
X148343702Y-137696138D01*
X148343702Y-137696138D02*
X148248464Y-137696138D01*
X148248464Y-137696138D02*
X148153226Y-137600900D01*
X148153226Y-137600900D02*
X148105607Y-137505661D01*
X148105607Y-137505661D02*
X148057988Y-137315185D01*
X148057988Y-137315185D02*
X148010369Y-136934233D01*
X148010369Y-136934233D02*
X148010369Y-136458042D01*
X148010369Y-136458042D02*
X148057988Y-136077090D01*
X148057988Y-136077090D02*
X148105607Y-135886614D01*
X148105607Y-135886614D02*
X148153226Y-135791376D01*
X148153226Y-135791376D02*
X148248464Y-135696138D01*
X148962750Y-135886614D02*
X149010369Y-135791376D01*
X149010369Y-135791376D02*
X149105607Y-135696138D01*
X149105607Y-135696138D02*
X149343702Y-135696138D01*
X149343702Y-135696138D02*
X149438940Y-135791376D01*
X149438940Y-135791376D02*
X149486559Y-135886614D01*
X149486559Y-135886614D02*
X149534178Y-136077090D01*
X149534178Y-136077090D02*
X149534178Y-136267566D01*
X149534178Y-136267566D02*
X149486559Y-136553280D01*
X149486559Y-136553280D02*
X148915131Y-137696138D01*
X148915131Y-137696138D02*
X149534178Y-137696138D01*
X149962750Y-136934233D02*
X150724655Y-136934233D01*
X151105607Y-135696138D02*
X151343702Y-137696138D01*
X151343702Y-137696138D02*
X151534178Y-136267566D01*
X151534178Y-136267566D02*
X151724654Y-137696138D01*
X151724654Y-137696138D02*
X151962750Y-135696138D01*
X152343702Y-137696138D02*
X152343702Y-135696138D01*
X152343702Y-135696138D02*
X152581797Y-135696138D01*
X152581797Y-135696138D02*
X152724654Y-135791376D01*
X152724654Y-135791376D02*
X152819892Y-135981852D01*
X152819892Y-135981852D02*
X152867511Y-136172328D01*
X152867511Y-136172328D02*
X152915130Y-136553280D01*
X152915130Y-136553280D02*
X152915130Y-136838995D01*
X152915130Y-136838995D02*
X152867511Y-137219947D01*
X152867511Y-137219947D02*
X152819892Y-137410423D01*
X152819892Y-137410423D02*
X152724654Y-137600900D01*
X152724654Y-137600900D02*
X152581797Y-137696138D01*
X152581797Y-137696138D02*
X152343702Y-137696138D01*
X153915130Y-137505661D02*
X153867511Y-137600900D01*
X153867511Y-137600900D02*
X153724654Y-137696138D01*
X153724654Y-137696138D02*
X153629416Y-137696138D01*
X153629416Y-137696138D02*
X153486559Y-137600900D01*
X153486559Y-137600900D02*
X153391321Y-137410423D01*
X153391321Y-137410423D02*
X153343702Y-137219947D01*
X153343702Y-137219947D02*
X153296083Y-136838995D01*
X153296083Y-136838995D02*
X153296083Y-136553280D01*
X153296083Y-136553280D02*
X153343702Y-136172328D01*
X153343702Y-136172328D02*
X153391321Y-135981852D01*
X153391321Y-135981852D02*
X153486559Y-135791376D01*
X153486559Y-135791376D02*
X153629416Y-135696138D01*
X153629416Y-135696138D02*
X153724654Y-135696138D01*
X153724654Y-135696138D02*
X153867511Y-135791376D01*
X153867511Y-135791376D02*
X153915130Y-135886614D01*
X155534178Y-135696138D02*
X155343702Y-135696138D01*
X155343702Y-135696138D02*
X155248464Y-135791376D01*
X155248464Y-135791376D02*
X155200845Y-135886614D01*
X155200845Y-135886614D02*
X155105607Y-136172328D01*
X155105607Y-136172328D02*
X155057988Y-136553280D01*
X155057988Y-136553280D02*
X155057988Y-137315185D01*
X155057988Y-137315185D02*
X155105607Y-137505661D01*
X155105607Y-137505661D02*
X155153226Y-137600900D01*
X155153226Y-137600900D02*
X155248464Y-137696138D01*
X155248464Y-137696138D02*
X155438940Y-137696138D01*
X155438940Y-137696138D02*
X155534178Y-137600900D01*
X155534178Y-137600900D02*
X155581797Y-137505661D01*
X155581797Y-137505661D02*
X155629416Y-137315185D01*
X155629416Y-137315185D02*
X155629416Y-136838995D01*
X155629416Y-136838995D02*
X155581797Y-136648519D01*
X155581797Y-136648519D02*
X155534178Y-136553280D01*
X155534178Y-136553280D02*
X155438940Y-136458042D01*
X155438940Y-136458042D02*
X155248464Y-136458042D01*
X155248464Y-136458042D02*
X155153226Y-136553280D01*
X155153226Y-136553280D02*
X155105607Y-136648519D01*
X155105607Y-136648519D02*
X155057988Y-136838995D01*
X156534178Y-135696138D02*
X156057988Y-135696138D01*
X156057988Y-135696138D02*
X156010369Y-136648519D01*
X156010369Y-136648519D02*
X156057988Y-136553280D01*
X156057988Y-136553280D02*
X156153226Y-136458042D01*
X156153226Y-136458042D02*
X156391321Y-136458042D01*
X156391321Y-136458042D02*
X156486559Y-136553280D01*
X156486559Y-136553280D02*
X156534178Y-136648519D01*
X156534178Y-136648519D02*
X156581797Y-136838995D01*
X156581797Y-136838995D02*
X156581797Y-137315185D01*
X156581797Y-137315185D02*
X156534178Y-137505661D01*
X156534178Y-137505661D02*
X156486559Y-137600900D01*
X156486559Y-137600900D02*
X156391321Y-137696138D01*
X156391321Y-137696138D02*
X156153226Y-137696138D01*
X156153226Y-137696138D02*
X156057988Y-137600900D01*
X156057988Y-137600900D02*
X156010369Y-137505661D01*
X157581797Y-137505661D02*
X157534178Y-137600900D01*
X157534178Y-137600900D02*
X157391321Y-137696138D01*
X157391321Y-137696138D02*
X157296083Y-137696138D01*
X157296083Y-137696138D02*
X157153226Y-137600900D01*
X157153226Y-137600900D02*
X157057988Y-137410423D01*
X157057988Y-137410423D02*
X157010369Y-137219947D01*
X157010369Y-137219947D02*
X156962750Y-136838995D01*
X156962750Y-136838995D02*
X156962750Y-136553280D01*
X156962750Y-136553280D02*
X157010369Y-136172328D01*
X157010369Y-136172328D02*
X157057988Y-135981852D01*
X157057988Y-135981852D02*
X157153226Y-135791376D01*
X157153226Y-135791376D02*
X157296083Y-135696138D01*
X157296083Y-135696138D02*
X157391321Y-135696138D01*
X157391321Y-135696138D02*
X157534178Y-135791376D01*
X157534178Y-135791376D02*
X157581797Y-135886614D01*
X158153226Y-136553280D02*
X158057988Y-136458042D01*
X158057988Y-136458042D02*
X158010369Y-136362804D01*
X158010369Y-136362804D02*
X157962750Y-136172328D01*
X157962750Y-136172328D02*
X157962750Y-136077090D01*
X157962750Y-136077090D02*
X158010369Y-135886614D01*
X158010369Y-135886614D02*
X158057988Y-135791376D01*
X158057988Y-135791376D02*
X158153226Y-135696138D01*
X158153226Y-135696138D02*
X158343702Y-135696138D01*
X158343702Y-135696138D02*
X158438940Y-135791376D01*
X158438940Y-135791376D02*
X158486559Y-135886614D01*
X158486559Y-135886614D02*
X158534178Y-136077090D01*
X158534178Y-136077090D02*
X158534178Y-136172328D01*
X158534178Y-136172328D02*
X158486559Y-136362804D01*
X158486559Y-136362804D02*
X158438940Y-136458042D01*
X158438940Y-136458042D02*
X158343702Y-136553280D01*
X158343702Y-136553280D02*
X158153226Y-136553280D01*
X158153226Y-136553280D02*
X158057988Y-136648519D01*
X158057988Y-136648519D02*
X158010369Y-136743757D01*
X158010369Y-136743757D02*
X157962750Y-136934233D01*
X157962750Y-136934233D02*
X157962750Y-137315185D01*
X157962750Y-137315185D02*
X158010369Y-137505661D01*
X158010369Y-137505661D02*
X158057988Y-137600900D01*
X158057988Y-137600900D02*
X158153226Y-137696138D01*
X158153226Y-137696138D02*
X158343702Y-137696138D01*
X158343702Y-137696138D02*
X158438940Y-137600900D01*
X158438940Y-137600900D02*
X158486559Y-137505661D01*
X158486559Y-137505661D02*
X158534178Y-137315185D01*
X158534178Y-137315185D02*
X158534178Y-136934233D01*
X158534178Y-136934233D02*
X158486559Y-136743757D01*
X158486559Y-136743757D02*
X158438940Y-136648519D01*
X158438940Y-136648519D02*
X158343702Y-136553280D01*
X159486559Y-137696138D02*
X158915131Y-137696138D01*
X159200845Y-137696138D02*
X159200845Y-135696138D01*
X159200845Y-135696138D02*
X159105607Y-135981852D01*
X159105607Y-135981852D02*
X159010369Y-136172328D01*
X159010369Y-136172328D02*
X158915131Y-136267566D01*
X160343702Y-135696138D02*
X160153226Y-135696138D01*
X160153226Y-135696138D02*
X160057988Y-135791376D01*
X160057988Y-135791376D02*
X160010369Y-135886614D01*
X160010369Y-135886614D02*
X159915131Y-136172328D01*
X159915131Y-136172328D02*
X159867512Y-136553280D01*
X159867512Y-136553280D02*
X159867512Y-137315185D01*
X159867512Y-137315185D02*
X159915131Y-137505661D01*
X159915131Y-137505661D02*
X159962750Y-137600900D01*
X159962750Y-137600900D02*
X160057988Y-137696138D01*
X160057988Y-137696138D02*
X160248464Y-137696138D01*
X160248464Y-137696138D02*
X160343702Y-137600900D01*
X160343702Y-137600900D02*
X160391321Y-137505661D01*
X160391321Y-137505661D02*
X160438940Y-137315185D01*
X160438940Y-137315185D02*
X160438940Y-136838995D01*
X160438940Y-136838995D02*
X160391321Y-136648519D01*
X160391321Y-136648519D02*
X160343702Y-136553280D01*
X160343702Y-136553280D02*
X160248464Y-136458042D01*
X160248464Y-136458042D02*
X160057988Y-136458042D01*
X160057988Y-136458042D02*
X159962750Y-136553280D01*
X159962750Y-136553280D02*
X159915131Y-136648519D01*
X159915131Y-136648519D02*
X159867512Y-136838995D01*
X160819893Y-137600900D02*
X160962750Y-137696138D01*
X160962750Y-137696138D02*
X161200845Y-137696138D01*
X161200845Y-137696138D02*
X161296083Y-137600900D01*
X161296083Y-137600900D02*
X161343702Y-137505661D01*
X161343702Y-137505661D02*
X161391321Y-137315185D01*
X161391321Y-137315185D02*
X161391321Y-137124709D01*
X161391321Y-137124709D02*
X161343702Y-136934233D01*
X161343702Y-136934233D02*
X161296083Y-136838995D01*
X161296083Y-136838995D02*
X161200845Y-136743757D01*
X161200845Y-136743757D02*
X161010369Y-136648519D01*
X161010369Y-136648519D02*
X160915131Y-136553280D01*
X160915131Y-136553280D02*
X160867512Y-136458042D01*
X160867512Y-136458042D02*
X160819893Y-136267566D01*
X160819893Y-136267566D02*
X160819893Y-136077090D01*
X160819893Y-136077090D02*
X160867512Y-135886614D01*
X160867512Y-135886614D02*
X160915131Y-135791376D01*
X160915131Y-135791376D02*
X161010369Y-135696138D01*
X161010369Y-135696138D02*
X161248464Y-135696138D01*
X161248464Y-135696138D02*
X161391321Y-135791376D01*
X162581798Y-137696138D02*
X162581798Y-136362804D01*
X162581798Y-136553280D02*
X162629417Y-136458042D01*
X162629417Y-136458042D02*
X162724655Y-136362804D01*
X162724655Y-136362804D02*
X162867512Y-136362804D01*
X162867512Y-136362804D02*
X162962750Y-136458042D01*
X162962750Y-136458042D02*
X163010369Y-136648519D01*
X163010369Y-136648519D02*
X163010369Y-137696138D01*
X163010369Y-136648519D02*
X163057988Y-136458042D01*
X163057988Y-136458042D02*
X163153226Y-136362804D01*
X163153226Y-136362804D02*
X163296083Y-136362804D01*
X163296083Y-136362804D02*
X163391322Y-136458042D01*
X163391322Y-136458042D02*
X163438941Y-136648519D01*
X163438941Y-136648519D02*
X163438941Y-137696138D01*
X163915131Y-137696138D02*
X163915131Y-136362804D01*
X163915131Y-135696138D02*
X163867512Y-135791376D01*
X163867512Y-135791376D02*
X163915131Y-135886614D01*
X163915131Y-135886614D02*
X163962750Y-135791376D01*
X163962750Y-135791376D02*
X163915131Y-135696138D01*
X163915131Y-135696138D02*
X163915131Y-135886614D01*
X164391321Y-136362804D02*
X164391321Y-137696138D01*
X164391321Y-136553280D02*
X164438940Y-136458042D01*
X164438940Y-136458042D02*
X164534178Y-136362804D01*
X164534178Y-136362804D02*
X164677035Y-136362804D01*
X164677035Y-136362804D02*
X164772273Y-136458042D01*
X164772273Y-136458042D02*
X164819892Y-136648519D01*
X164819892Y-136648519D02*
X164819892Y-137696138D01*
X165296083Y-137696138D02*
X165296083Y-136362804D01*
X165296083Y-135696138D02*
X165248464Y-135791376D01*
X165248464Y-135791376D02*
X165296083Y-135886614D01*
X165296083Y-135886614D02*
X165343702Y-135791376D01*
X165343702Y-135791376D02*
X165296083Y-135696138D01*
X165296083Y-135696138D02*
X165296083Y-135886614D01*
X165772273Y-137696138D02*
X165772273Y-136362804D01*
X165772273Y-136553280D02*
X165819892Y-136458042D01*
X165819892Y-136458042D02*
X165915130Y-136362804D01*
X165915130Y-136362804D02*
X166057987Y-136362804D01*
X166057987Y-136362804D02*
X166153225Y-136458042D01*
X166153225Y-136458042D02*
X166200844Y-136648519D01*
X166200844Y-136648519D02*
X166200844Y-137696138D01*
X166200844Y-136648519D02*
X166248463Y-136458042D01*
X166248463Y-136458042D02*
X166343701Y-136362804D01*
X166343701Y-136362804D02*
X166486558Y-136362804D01*
X166486558Y-136362804D02*
X166581797Y-136458042D01*
X166581797Y-136458042D02*
X166629416Y-136648519D01*
X166629416Y-136648519D02*
X166629416Y-137696138D01*
X167534177Y-137696138D02*
X167534177Y-136648519D01*
X167534177Y-136648519D02*
X167486558Y-136458042D01*
X167486558Y-136458042D02*
X167391320Y-136362804D01*
X167391320Y-136362804D02*
X167200844Y-136362804D01*
X167200844Y-136362804D02*
X167105606Y-136458042D01*
X167534177Y-137600900D02*
X167438939Y-137696138D01*
X167438939Y-137696138D02*
X167200844Y-137696138D01*
X167200844Y-137696138D02*
X167105606Y-137600900D01*
X167105606Y-137600900D02*
X167057987Y-137410423D01*
X167057987Y-137410423D02*
X167057987Y-137219947D01*
X167057987Y-137219947D02*
X167105606Y-137029471D01*
X167105606Y-137029471D02*
X167200844Y-136934233D01*
X167200844Y-136934233D02*
X167438939Y-136934233D01*
X167438939Y-136934233D02*
X167534177Y-136838995D01*
X168153225Y-137696138D02*
X168057987Y-137600900D01*
X168057987Y-137600900D02*
X168010368Y-137410423D01*
X168010368Y-137410423D02*
X168010368Y-135696138D01*
X169248464Y-137600900D02*
X169343702Y-137696138D01*
X169343702Y-137696138D02*
X169534178Y-137696138D01*
X169534178Y-137696138D02*
X169629416Y-137600900D01*
X169629416Y-137600900D02*
X169677035Y-137410423D01*
X169677035Y-137410423D02*
X169677035Y-137315185D01*
X169677035Y-137315185D02*
X169629416Y-137124709D01*
X169629416Y-137124709D02*
X169534178Y-137029471D01*
X169534178Y-137029471D02*
X169391321Y-137029471D01*
X169391321Y-137029471D02*
X169296083Y-136934233D01*
X169296083Y-136934233D02*
X169248464Y-136743757D01*
X169248464Y-136743757D02*
X169248464Y-136648519D01*
X169248464Y-136648519D02*
X169296083Y-136458042D01*
X169296083Y-136458042D02*
X169391321Y-136362804D01*
X169391321Y-136362804D02*
X169534178Y-136362804D01*
X169534178Y-136362804D02*
X169629416Y-136458042D01*
X170010369Y-136362804D02*
X170248464Y-137696138D01*
X170486559Y-136362804D02*
X170248464Y-137696138D01*
X170248464Y-137696138D02*
X170153226Y-138172328D01*
X170153226Y-138172328D02*
X170105607Y-138267566D01*
X170105607Y-138267566D02*
X170010369Y-138362804D01*
X170819893Y-137600900D02*
X170915131Y-137696138D01*
X170915131Y-137696138D02*
X171105607Y-137696138D01*
X171105607Y-137696138D02*
X171200845Y-137600900D01*
X171200845Y-137600900D02*
X171248464Y-137410423D01*
X171248464Y-137410423D02*
X171248464Y-137315185D01*
X171248464Y-137315185D02*
X171200845Y-137124709D01*
X171200845Y-137124709D02*
X171105607Y-137029471D01*
X171105607Y-137029471D02*
X170962750Y-137029471D01*
X170962750Y-137029471D02*
X170867512Y-136934233D01*
X170867512Y-136934233D02*
X170819893Y-136743757D01*
X170819893Y-136743757D02*
X170819893Y-136648519D01*
X170819893Y-136648519D02*
X170867512Y-136458042D01*
X170867512Y-136458042D02*
X170962750Y-136362804D01*
X170962750Y-136362804D02*
X171105607Y-136362804D01*
X171105607Y-136362804D02*
X171200845Y-136458042D01*
X171534179Y-136362804D02*
X171915131Y-136362804D01*
X171677036Y-135696138D02*
X171677036Y-137410423D01*
X171677036Y-137410423D02*
X171724655Y-137600900D01*
X171724655Y-137600900D02*
X171819893Y-137696138D01*
X171819893Y-137696138D02*
X171915131Y-137696138D01*
X172629417Y-137600900D02*
X172534179Y-137696138D01*
X172534179Y-137696138D02*
X172343703Y-137696138D01*
X172343703Y-137696138D02*
X172248465Y-137600900D01*
X172248465Y-137600900D02*
X172200846Y-137410423D01*
X172200846Y-137410423D02*
X172200846Y-136648519D01*
X172200846Y-136648519D02*
X172248465Y-136458042D01*
X172248465Y-136458042D02*
X172343703Y-136362804D01*
X172343703Y-136362804D02*
X172534179Y-136362804D01*
X172534179Y-136362804D02*
X172629417Y-136458042D01*
X172629417Y-136458042D02*
X172677036Y-136648519D01*
X172677036Y-136648519D02*
X172677036Y-136838995D01*
X172677036Y-136838995D02*
X172200846Y-137029471D01*
X173105608Y-137696138D02*
X173105608Y-136362804D01*
X173105608Y-136553280D02*
X173153227Y-136458042D01*
X173153227Y-136458042D02*
X173248465Y-136362804D01*
X173248465Y-136362804D02*
X173391322Y-136362804D01*
X173391322Y-136362804D02*
X173486560Y-136458042D01*
X173486560Y-136458042D02*
X173534179Y-136648519D01*
X173534179Y-136648519D02*
X173534179Y-137696138D01*
X173534179Y-136648519D02*
X173581798Y-136458042D01*
X173581798Y-136458042D02*
X173677036Y-136362804D01*
X173677036Y-136362804D02*
X173819893Y-136362804D01*
X173819893Y-136362804D02*
X173915132Y-136458042D01*
X173915132Y-136458042D02*
X173962751Y-136648519D01*
X173962751Y-136648519D02*
X173962751Y-137696138D01*
X136020900Y-134194392D02*
X136068519Y-134051535D01*
X136068519Y-134051535D02*
X136068519Y-133813440D01*
X136068519Y-133813440D02*
X136020900Y-133718202D01*
X136020900Y-133718202D02*
X135973280Y-133670583D01*
X135973280Y-133670583D02*
X135878042Y-133622964D01*
X135878042Y-133622964D02*
X135782804Y-133622964D01*
X135782804Y-133622964D02*
X135687566Y-133670583D01*
X135687566Y-133670583D02*
X135639947Y-133718202D01*
X135639947Y-133718202D02*
X135592328Y-133813440D01*
X135592328Y-133813440D02*
X135544709Y-134003916D01*
X135544709Y-134003916D02*
X135497090Y-134099154D01*
X135497090Y-134099154D02*
X135449471Y-134146773D01*
X135449471Y-134146773D02*
X135354233Y-134194392D01*
X135354233Y-134194392D02*
X135258995Y-134194392D01*
X135258995Y-134194392D02*
X135163757Y-134146773D01*
X135163757Y-134146773D02*
X135116138Y-134099154D01*
X135116138Y-134099154D02*
X135068519Y-134003916D01*
X135068519Y-134003916D02*
X135068519Y-133765821D01*
X135068519Y-133765821D02*
X135116138Y-133622964D01*
X135068519Y-133289630D02*
X135068519Y-132670583D01*
X135068519Y-132670583D02*
X135449471Y-133003916D01*
X135449471Y-133003916D02*
X135449471Y-132861059D01*
X135449471Y-132861059D02*
X135497090Y-132765821D01*
X135497090Y-132765821D02*
X135544709Y-132718202D01*
X135544709Y-132718202D02*
X135639947Y-132670583D01*
X135639947Y-132670583D02*
X135878042Y-132670583D01*
X135878042Y-132670583D02*
X135973280Y-132718202D01*
X135973280Y-132718202D02*
X136020900Y-132765821D01*
X136020900Y-132765821D02*
X136068519Y-132861059D01*
X136068519Y-132861059D02*
X136068519Y-133146773D01*
X136068519Y-133146773D02*
X136020900Y-133242011D01*
X136020900Y-133242011D02*
X135973280Y-133289630D01*
X135782804Y-132289630D02*
X135782804Y-131813440D01*
X136068519Y-132384868D02*
X135068519Y-132051535D01*
X135068519Y-132051535D02*
X136068519Y-131718202D01*
X135687566Y-131384868D02*
X135687566Y-130622964D01*
X135068519Y-130146773D02*
X135878042Y-130146773D01*
X135878042Y-130146773D02*
X135973280Y-130099154D01*
X135973280Y-130099154D02*
X136020900Y-130051535D01*
X136020900Y-130051535D02*
X136068519Y-129956297D01*
X136068519Y-129956297D02*
X136068519Y-129765821D01*
X136068519Y-129765821D02*
X136020900Y-129670583D01*
X136020900Y-129670583D02*
X135973280Y-129622964D01*
X135973280Y-129622964D02*
X135878042Y-129575345D01*
X135878042Y-129575345D02*
X135068519Y-129575345D01*
X135782804Y-129146773D02*
X135782804Y-128670583D01*
X136068519Y-129242011D02*
X135068519Y-128908678D01*
X135068519Y-128908678D02*
X136068519Y-128575345D01*
X136068519Y-127670583D02*
X135592328Y-128003916D01*
X136068519Y-128242011D02*
X135068519Y-128242011D01*
X135068519Y-128242011D02*
X135068519Y-127861059D01*
X135068519Y-127861059D02*
X135116138Y-127765821D01*
X135116138Y-127765821D02*
X135163757Y-127718202D01*
X135163757Y-127718202D02*
X135258995Y-127670583D01*
X135258995Y-127670583D02*
X135401852Y-127670583D01*
X135401852Y-127670583D02*
X135497090Y-127718202D01*
X135497090Y-127718202D02*
X135544709Y-127765821D01*
X135544709Y-127765821D02*
X135592328Y-127861059D01*
X135592328Y-127861059D02*
X135592328Y-128242011D01*
X135068519Y-127384868D02*
X135068519Y-126813440D01*
X136068519Y-127099154D02*
X135068519Y-127099154D01*
X135687566Y-126480106D02*
X135687566Y-125718202D01*
X135068519Y-125384868D02*
X135068519Y-124813440D01*
X136068519Y-125099154D02*
X135068519Y-125099154D01*
X135068519Y-124575344D02*
X136068519Y-123908678D01*
X135068519Y-123908678D02*
X136068519Y-124575344D01*
X159436559Y-141694709D02*
X159579416Y-141742328D01*
X159579416Y-141742328D02*
X159627035Y-141789947D01*
X159627035Y-141789947D02*
X159674654Y-141885185D01*
X159674654Y-141885185D02*
X159674654Y-142028042D01*
X159674654Y-142028042D02*
X159627035Y-142123280D01*
X159627035Y-142123280D02*
X159579416Y-142170900D01*
X159579416Y-142170900D02*
X159484178Y-142218519D01*
X159484178Y-142218519D02*
X159103226Y-142218519D01*
X159103226Y-142218519D02*
X159103226Y-141218519D01*
X159103226Y-141218519D02*
X159436559Y-141218519D01*
X159436559Y-141218519D02*
X159531797Y-141266138D01*
X159531797Y-141266138D02*
X159579416Y-141313757D01*
X159579416Y-141313757D02*
X159627035Y-141408995D01*
X159627035Y-141408995D02*
X159627035Y-141504233D01*
X159627035Y-141504233D02*
X159579416Y-141599471D01*
X159579416Y-141599471D02*
X159531797Y-141647090D01*
X159531797Y-141647090D02*
X159436559Y-141694709D01*
X159436559Y-141694709D02*
X159103226Y-141694709D01*
X160103226Y-142123280D02*
X160150845Y-142170900D01*
X160150845Y-142170900D02*
X160103226Y-142218519D01*
X160103226Y-142218519D02*
X160055607Y-142170900D01*
X160055607Y-142170900D02*
X160103226Y-142123280D01*
X160103226Y-142123280D02*
X160103226Y-142218519D01*
X160912749Y-141694709D02*
X161055606Y-141742328D01*
X161055606Y-141742328D02*
X161103225Y-141789947D01*
X161103225Y-141789947D02*
X161150844Y-141885185D01*
X161150844Y-141885185D02*
X161150844Y-142028042D01*
X161150844Y-142028042D02*
X161103225Y-142123280D01*
X161103225Y-142123280D02*
X161055606Y-142170900D01*
X161055606Y-142170900D02*
X160960368Y-142218519D01*
X160960368Y-142218519D02*
X160579416Y-142218519D01*
X160579416Y-142218519D02*
X160579416Y-141218519D01*
X160579416Y-141218519D02*
X160912749Y-141218519D01*
X160912749Y-141218519D02*
X161007987Y-141266138D01*
X161007987Y-141266138D02*
X161055606Y-141313757D01*
X161055606Y-141313757D02*
X161103225Y-141408995D01*
X161103225Y-141408995D02*
X161103225Y-141504233D01*
X161103225Y-141504233D02*
X161055606Y-141599471D01*
X161055606Y-141599471D02*
X161007987Y-141647090D01*
X161007987Y-141647090D02*
X160912749Y-141694709D01*
X160912749Y-141694709D02*
X160579416Y-141694709D01*
X161960368Y-142170900D02*
X161865130Y-142218519D01*
X161865130Y-142218519D02*
X161674654Y-142218519D01*
X161674654Y-142218519D02*
X161579416Y-142170900D01*
X161579416Y-142170900D02*
X161531797Y-142075661D01*
X161531797Y-142075661D02*
X161531797Y-141694709D01*
X161531797Y-141694709D02*
X161579416Y-141599471D01*
X161579416Y-141599471D02*
X161674654Y-141551852D01*
X161674654Y-141551852D02*
X161865130Y-141551852D01*
X161865130Y-141551852D02*
X161960368Y-141599471D01*
X161960368Y-141599471D02*
X162007987Y-141694709D01*
X162007987Y-141694709D02*
X162007987Y-141789947D01*
X162007987Y-141789947D02*
X161531797Y-141885185D01*
X162865130Y-142218519D02*
X162865130Y-141694709D01*
X162865130Y-141694709D02*
X162817511Y-141599471D01*
X162817511Y-141599471D02*
X162722273Y-141551852D01*
X162722273Y-141551852D02*
X162531797Y-141551852D01*
X162531797Y-141551852D02*
X162436559Y-141599471D01*
X162865130Y-142170900D02*
X162769892Y-142218519D01*
X162769892Y-142218519D02*
X162531797Y-142218519D01*
X162531797Y-142218519D02*
X162436559Y-142170900D01*
X162436559Y-142170900D02*
X162388940Y-142075661D01*
X162388940Y-142075661D02*
X162388940Y-141980423D01*
X162388940Y-141980423D02*
X162436559Y-141885185D01*
X162436559Y-141885185D02*
X162531797Y-141837566D01*
X162531797Y-141837566D02*
X162769892Y-141837566D01*
X162769892Y-141837566D02*
X162865130Y-141789947D01*
X163198464Y-141551852D02*
X163579416Y-141551852D01*
X163341321Y-141218519D02*
X163341321Y-142075661D01*
X163341321Y-142075661D02*
X163388940Y-142170900D01*
X163388940Y-142170900D02*
X163484178Y-142218519D01*
X163484178Y-142218519D02*
X163579416Y-142218519D01*
X163769893Y-141551852D02*
X164150845Y-141551852D01*
X163912750Y-141218519D02*
X163912750Y-142075661D01*
X163912750Y-142075661D02*
X163960369Y-142170900D01*
X163960369Y-142170900D02*
X164055607Y-142218519D01*
X164055607Y-142218519D02*
X164150845Y-142218519D01*
X164484179Y-142218519D02*
X164484179Y-141551852D01*
X164484179Y-141218519D02*
X164436560Y-141266138D01*
X164436560Y-141266138D02*
X164484179Y-141313757D01*
X164484179Y-141313757D02*
X164531798Y-141266138D01*
X164531798Y-141266138D02*
X164484179Y-141218519D01*
X164484179Y-141218519D02*
X164484179Y-141313757D01*
X165341321Y-142170900D02*
X165246083Y-142218519D01*
X165246083Y-142218519D02*
X165055607Y-142218519D01*
X165055607Y-142218519D02*
X164960369Y-142170900D01*
X164960369Y-142170900D02*
X164912750Y-142075661D01*
X164912750Y-142075661D02*
X164912750Y-141694709D01*
X164912750Y-141694709D02*
X164960369Y-141599471D01*
X164960369Y-141599471D02*
X165055607Y-141551852D01*
X165055607Y-141551852D02*
X165246083Y-141551852D01*
X165246083Y-141551852D02*
X165341321Y-141599471D01*
X165341321Y-141599471D02*
X165388940Y-141694709D01*
X165388940Y-141694709D02*
X165388940Y-141789947D01*
X165388940Y-141789947D02*
X164912750Y-141885185D01*
X166865131Y-141218519D02*
X166865131Y-141932804D01*
X166865131Y-141932804D02*
X166817512Y-142075661D01*
X166817512Y-142075661D02*
X166722274Y-142170900D01*
X166722274Y-142170900D02*
X166579417Y-142218519D01*
X166579417Y-142218519D02*
X166484179Y-142218519D01*
X167769893Y-141551852D02*
X167769893Y-142218519D01*
X167341322Y-141551852D02*
X167341322Y-142075661D01*
X167341322Y-142075661D02*
X167388941Y-142170900D01*
X167388941Y-142170900D02*
X167484179Y-142218519D01*
X167484179Y-142218519D02*
X167627036Y-142218519D01*
X167627036Y-142218519D02*
X167722274Y-142170900D01*
X167722274Y-142170900D02*
X167769893Y-142123280D01*
X168246084Y-141551852D02*
X168246084Y-142218519D01*
X168246084Y-141647090D02*
X168293703Y-141599471D01*
X168293703Y-141599471D02*
X168388941Y-141551852D01*
X168388941Y-141551852D02*
X168531798Y-141551852D01*
X168531798Y-141551852D02*
X168627036Y-141599471D01*
X168627036Y-141599471D02*
X168674655Y-141694709D01*
X168674655Y-141694709D02*
X168674655Y-142218519D01*
X169531798Y-142170900D02*
X169436560Y-142218519D01*
X169436560Y-142218519D02*
X169246084Y-142218519D01*
X169246084Y-142218519D02*
X169150846Y-142170900D01*
X169150846Y-142170900D02*
X169103227Y-142075661D01*
X169103227Y-142075661D02*
X169103227Y-141694709D01*
X169103227Y-141694709D02*
X169150846Y-141599471D01*
X169150846Y-141599471D02*
X169246084Y-141551852D01*
X169246084Y-141551852D02*
X169436560Y-141551852D01*
X169436560Y-141551852D02*
X169531798Y-141599471D01*
X169531798Y-141599471D02*
X169579417Y-141694709D01*
X169579417Y-141694709D02*
X169579417Y-141789947D01*
X169579417Y-141789947D02*
X169103227Y-141885185D01*
X170722275Y-141313757D02*
X170769894Y-141266138D01*
X170769894Y-141266138D02*
X170865132Y-141218519D01*
X170865132Y-141218519D02*
X171103227Y-141218519D01*
X171103227Y-141218519D02*
X171198465Y-141266138D01*
X171198465Y-141266138D02*
X171246084Y-141313757D01*
X171246084Y-141313757D02*
X171293703Y-141408995D01*
X171293703Y-141408995D02*
X171293703Y-141504233D01*
X171293703Y-141504233D02*
X171246084Y-141647090D01*
X171246084Y-141647090D02*
X170674656Y-142218519D01*
X170674656Y-142218519D02*
X171293703Y-142218519D01*
X171912751Y-141218519D02*
X172007989Y-141218519D01*
X172007989Y-141218519D02*
X172103227Y-141266138D01*
X172103227Y-141266138D02*
X172150846Y-141313757D01*
X172150846Y-141313757D02*
X172198465Y-141408995D01*
X172198465Y-141408995D02*
X172246084Y-141599471D01*
X172246084Y-141599471D02*
X172246084Y-141837566D01*
X172246084Y-141837566D02*
X172198465Y-142028042D01*
X172198465Y-142028042D02*
X172150846Y-142123280D01*
X172150846Y-142123280D02*
X172103227Y-142170900D01*
X172103227Y-142170900D02*
X172007989Y-142218519D01*
X172007989Y-142218519D02*
X171912751Y-142218519D01*
X171912751Y-142218519D02*
X171817513Y-142170900D01*
X171817513Y-142170900D02*
X171769894Y-142123280D01*
X171769894Y-142123280D02*
X171722275Y-142028042D01*
X171722275Y-142028042D02*
X171674656Y-141837566D01*
X171674656Y-141837566D02*
X171674656Y-141599471D01*
X171674656Y-141599471D02*
X171722275Y-141408995D01*
X171722275Y-141408995D02*
X171769894Y-141313757D01*
X171769894Y-141313757D02*
X171817513Y-141266138D01*
X171817513Y-141266138D02*
X171912751Y-141218519D01*
X172627037Y-141313757D02*
X172674656Y-141266138D01*
X172674656Y-141266138D02*
X172769894Y-141218519D01*
X172769894Y-141218519D02*
X173007989Y-141218519D01*
X173007989Y-141218519D02*
X173103227Y-141266138D01*
X173103227Y-141266138D02*
X173150846Y-141313757D01*
X173150846Y-141313757D02*
X173198465Y-141408995D01*
X173198465Y-141408995D02*
X173198465Y-141504233D01*
X173198465Y-141504233D02*
X173150846Y-141647090D01*
X173150846Y-141647090D02*
X172579418Y-142218519D01*
X172579418Y-142218519D02*
X173198465Y-142218519D01*
X174055608Y-141551852D02*
X174055608Y-142218519D01*
X173817513Y-141170900D02*
X173579418Y-141885185D01*
X173579418Y-141885185D02*
X174198465Y-141885185D01*
X140216138Y-133622964D02*
X140168519Y-133718202D01*
X140168519Y-133718202D02*
X140168519Y-133861059D01*
X140168519Y-133861059D02*
X140216138Y-134003916D01*
X140216138Y-134003916D02*
X140311376Y-134099154D01*
X140311376Y-134099154D02*
X140406614Y-134146773D01*
X140406614Y-134146773D02*
X140597090Y-134194392D01*
X140597090Y-134194392D02*
X140739947Y-134194392D01*
X140739947Y-134194392D02*
X140930423Y-134146773D01*
X140930423Y-134146773D02*
X141025661Y-134099154D01*
X141025661Y-134099154D02*
X141120900Y-134003916D01*
X141120900Y-134003916D02*
X141168519Y-133861059D01*
X141168519Y-133861059D02*
X141168519Y-133765821D01*
X141168519Y-133765821D02*
X141120900Y-133622964D01*
X141120900Y-133622964D02*
X141073280Y-133575345D01*
X141073280Y-133575345D02*
X140739947Y-133575345D01*
X140739947Y-133575345D02*
X140739947Y-133765821D01*
X141168519Y-133146773D02*
X140168519Y-133146773D01*
X140168519Y-133146773D02*
X141168519Y-132575345D01*
X141168519Y-132575345D02*
X140168519Y-132575345D01*
X141168519Y-132099154D02*
X140168519Y-132099154D01*
X140168519Y-132099154D02*
X140168519Y-131861059D01*
X140168519Y-131861059D02*
X140216138Y-131718202D01*
X140216138Y-131718202D02*
X140311376Y-131622964D01*
X140311376Y-131622964D02*
X140406614Y-131575345D01*
X140406614Y-131575345D02*
X140597090Y-131527726D01*
X140597090Y-131527726D02*
X140739947Y-131527726D01*
X140739947Y-131527726D02*
X140930423Y-131575345D01*
X140930423Y-131575345D02*
X141025661Y-131622964D01*
X141025661Y-131622964D02*
X141120900Y-131718202D01*
X141120900Y-131718202D02*
X141168519Y-131861059D01*
X141168519Y-131861059D02*
X141168519Y-132099154D01*
X159774654Y-139973280D02*
X159727035Y-140020900D01*
X159727035Y-140020900D02*
X159584178Y-140068519D01*
X159584178Y-140068519D02*
X159488940Y-140068519D01*
X159488940Y-140068519D02*
X159346083Y-140020900D01*
X159346083Y-140020900D02*
X159250845Y-139925661D01*
X159250845Y-139925661D02*
X159203226Y-139830423D01*
X159203226Y-139830423D02*
X159155607Y-139639947D01*
X159155607Y-139639947D02*
X159155607Y-139497090D01*
X159155607Y-139497090D02*
X159203226Y-139306614D01*
X159203226Y-139306614D02*
X159250845Y-139211376D01*
X159250845Y-139211376D02*
X159346083Y-139116138D01*
X159346083Y-139116138D02*
X159488940Y-139068519D01*
X159488940Y-139068519D02*
X159584178Y-139068519D01*
X159584178Y-139068519D02*
X159727035Y-139116138D01*
X159727035Y-139116138D02*
X159774654Y-139163757D01*
X160203226Y-139544709D02*
X160536559Y-139544709D01*
X160679416Y-140068519D02*
X160203226Y-140068519D01*
X160203226Y-140068519D02*
X160203226Y-139068519D01*
X160203226Y-139068519D02*
X160679416Y-139068519D01*
X161679416Y-140068519D02*
X161346083Y-139592328D01*
X161107988Y-140068519D02*
X161107988Y-139068519D01*
X161107988Y-139068519D02*
X161488940Y-139068519D01*
X161488940Y-139068519D02*
X161584178Y-139116138D01*
X161584178Y-139116138D02*
X161631797Y-139163757D01*
X161631797Y-139163757D02*
X161679416Y-139258995D01*
X161679416Y-139258995D02*
X161679416Y-139401852D01*
X161679416Y-139401852D02*
X161631797Y-139497090D01*
X161631797Y-139497090D02*
X161584178Y-139544709D01*
X161584178Y-139544709D02*
X161488940Y-139592328D01*
X161488940Y-139592328D02*
X161107988Y-139592328D01*
X162107988Y-140068519D02*
X162107988Y-139068519D01*
X162107988Y-139068519D02*
X162679416Y-140068519D01*
X162679416Y-140068519D02*
X162679416Y-139068519D01*
X163155607Y-139687566D02*
X163917512Y-139687566D01*
X164584178Y-139068519D02*
X164774654Y-139068519D01*
X164774654Y-139068519D02*
X164869892Y-139116138D01*
X164869892Y-139116138D02*
X164965130Y-139211376D01*
X164965130Y-139211376D02*
X165012749Y-139401852D01*
X165012749Y-139401852D02*
X165012749Y-139735185D01*
X165012749Y-139735185D02*
X164965130Y-139925661D01*
X164965130Y-139925661D02*
X164869892Y-140020900D01*
X164869892Y-140020900D02*
X164774654Y-140068519D01*
X164774654Y-140068519D02*
X164584178Y-140068519D01*
X164584178Y-140068519D02*
X164488940Y-140020900D01*
X164488940Y-140020900D02*
X164393702Y-139925661D01*
X164393702Y-139925661D02*
X164346083Y-139735185D01*
X164346083Y-139735185D02*
X164346083Y-139401852D01*
X164346083Y-139401852D02*
X164393702Y-139211376D01*
X164393702Y-139211376D02*
X164488940Y-139116138D01*
X164488940Y-139116138D02*
X164584178Y-139068519D01*
X165441321Y-140068519D02*
X165441321Y-139068519D01*
X165441321Y-139544709D02*
X166012749Y-139544709D01*
X166012749Y-140068519D02*
X166012749Y-139068519D01*
X166965130Y-140068519D02*
X166488940Y-140068519D01*
X166488940Y-140068519D02*
X166488940Y-139068519D01*
X167298464Y-139687566D02*
X168060369Y-139687566D01*
X168441321Y-139068519D02*
X168679416Y-140068519D01*
X168679416Y-140068519D02*
X168869892Y-139354233D01*
X168869892Y-139354233D02*
X169060368Y-140068519D01*
X169060368Y-140068519D02*
X169298464Y-139068519D01*
X170441321Y-140068519D02*
X170441321Y-139401852D01*
X170441321Y-139592328D02*
X170488940Y-139497090D01*
X170488940Y-139497090D02*
X170536559Y-139449471D01*
X170536559Y-139449471D02*
X170631797Y-139401852D01*
X170631797Y-139401852D02*
X170727035Y-139401852D01*
X171441321Y-140020900D02*
X171346083Y-140068519D01*
X171346083Y-140068519D02*
X171155607Y-140068519D01*
X171155607Y-140068519D02*
X171060369Y-140020900D01*
X171060369Y-140020900D02*
X171012750Y-139925661D01*
X171012750Y-139925661D02*
X171012750Y-139544709D01*
X171012750Y-139544709D02*
X171060369Y-139449471D01*
X171060369Y-139449471D02*
X171155607Y-139401852D01*
X171155607Y-139401852D02*
X171346083Y-139401852D01*
X171346083Y-139401852D02*
X171441321Y-139449471D01*
X171441321Y-139449471D02*
X171488940Y-139544709D01*
X171488940Y-139544709D02*
X171488940Y-139639947D01*
X171488940Y-139639947D02*
X171012750Y-139735185D01*
X171822274Y-139401852D02*
X172060369Y-140068519D01*
X172060369Y-140068519D02*
X172298464Y-139401852D01*
X173393703Y-139163757D02*
X173441322Y-139116138D01*
X173441322Y-139116138D02*
X173536560Y-139068519D01*
X173536560Y-139068519D02*
X173774655Y-139068519D01*
X173774655Y-139068519D02*
X173869893Y-139116138D01*
X173869893Y-139116138D02*
X173917512Y-139163757D01*
X173917512Y-139163757D02*
X173965131Y-139258995D01*
X173965131Y-139258995D02*
X173965131Y-139354233D01*
X173965131Y-139354233D02*
X173917512Y-139497090D01*
X173917512Y-139497090D02*
X173346084Y-140068519D01*
X173346084Y-140068519D02*
X173965131Y-140068519D01*
X138620900Y-134144392D02*
X138668519Y-134001535D01*
X138668519Y-134001535D02*
X138668519Y-133763440D01*
X138668519Y-133763440D02*
X138620900Y-133668202D01*
X138620900Y-133668202D02*
X138573280Y-133620583D01*
X138573280Y-133620583D02*
X138478042Y-133572964D01*
X138478042Y-133572964D02*
X138382804Y-133572964D01*
X138382804Y-133572964D02*
X138287566Y-133620583D01*
X138287566Y-133620583D02*
X138239947Y-133668202D01*
X138239947Y-133668202D02*
X138192328Y-133763440D01*
X138192328Y-133763440D02*
X138144709Y-133953916D01*
X138144709Y-133953916D02*
X138097090Y-134049154D01*
X138097090Y-134049154D02*
X138049471Y-134096773D01*
X138049471Y-134096773D02*
X137954233Y-134144392D01*
X137954233Y-134144392D02*
X137858995Y-134144392D01*
X137858995Y-134144392D02*
X137763757Y-134096773D01*
X137763757Y-134096773D02*
X137716138Y-134049154D01*
X137716138Y-134049154D02*
X137668519Y-133953916D01*
X137668519Y-133953916D02*
X137668519Y-133715821D01*
X137668519Y-133715821D02*
X137716138Y-133572964D01*
X137668519Y-133239630D02*
X137668519Y-132620583D01*
X137668519Y-132620583D02*
X138049471Y-132953916D01*
X138049471Y-132953916D02*
X138049471Y-132811059D01*
X138049471Y-132811059D02*
X138097090Y-132715821D01*
X138097090Y-132715821D02*
X138144709Y-132668202D01*
X138144709Y-132668202D02*
X138239947Y-132620583D01*
X138239947Y-132620583D02*
X138478042Y-132620583D01*
X138478042Y-132620583D02*
X138573280Y-132668202D01*
X138573280Y-132668202D02*
X138620900Y-132715821D01*
X138620900Y-132715821D02*
X138668519Y-132811059D01*
X138668519Y-132811059D02*
X138668519Y-133096773D01*
X138668519Y-133096773D02*
X138620900Y-133192011D01*
X138620900Y-133192011D02*
X138573280Y-133239630D01*
X138382804Y-132239630D02*
X138382804Y-131763440D01*
X138668519Y-132334868D02*
X137668519Y-132001535D01*
X137668519Y-132001535D02*
X138668519Y-131668202D01*
X138287566Y-131334868D02*
X138287566Y-130572964D01*
X137668519Y-130096773D02*
X138478042Y-130096773D01*
X138478042Y-130096773D02*
X138573280Y-130049154D01*
X138573280Y-130049154D02*
X138620900Y-130001535D01*
X138620900Y-130001535D02*
X138668519Y-129906297D01*
X138668519Y-129906297D02*
X138668519Y-129715821D01*
X138668519Y-129715821D02*
X138620900Y-129620583D01*
X138620900Y-129620583D02*
X138573280Y-129572964D01*
X138573280Y-129572964D02*
X138478042Y-129525345D01*
X138478042Y-129525345D02*
X137668519Y-129525345D01*
X138382804Y-129096773D02*
X138382804Y-128620583D01*
X138668519Y-129192011D02*
X137668519Y-128858678D01*
X137668519Y-128858678D02*
X138668519Y-128525345D01*
X138668519Y-127620583D02*
X138192328Y-127953916D01*
X138668519Y-128192011D02*
X137668519Y-128192011D01*
X137668519Y-128192011D02*
X137668519Y-127811059D01*
X137668519Y-127811059D02*
X137716138Y-127715821D01*
X137716138Y-127715821D02*
X137763757Y-127668202D01*
X137763757Y-127668202D02*
X137858995Y-127620583D01*
X137858995Y-127620583D02*
X138001852Y-127620583D01*
X138001852Y-127620583D02*
X138097090Y-127668202D01*
X138097090Y-127668202D02*
X138144709Y-127715821D01*
X138144709Y-127715821D02*
X138192328Y-127811059D01*
X138192328Y-127811059D02*
X138192328Y-128192011D01*
X137668519Y-127334868D02*
X137668519Y-126763440D01*
X138668519Y-127049154D02*
X137668519Y-127049154D01*
X138287566Y-126430106D02*
X138287566Y-125668202D01*
X138668519Y-124620583D02*
X138192328Y-124953916D01*
X138668519Y-125192011D02*
X137668519Y-125192011D01*
X137668519Y-125192011D02*
X137668519Y-124811059D01*
X137668519Y-124811059D02*
X137716138Y-124715821D01*
X137716138Y-124715821D02*
X137763757Y-124668202D01*
X137763757Y-124668202D02*
X137858995Y-124620583D01*
X137858995Y-124620583D02*
X138001852Y-124620583D01*
X138001852Y-124620583D02*
X138097090Y-124668202D01*
X138097090Y-124668202D02*
X138144709Y-124715821D01*
X138144709Y-124715821D02*
X138192328Y-124811059D01*
X138192328Y-124811059D02*
X138192328Y-125192011D01*
X137668519Y-124287249D02*
X138668519Y-123620583D01*
X137668519Y-123620583D02*
X138668519Y-124287249D01*
D12*
X163789580Y-114929166D02*
X163837200Y-114976785D01*
X163837200Y-114976785D02*
X163884819Y-115119642D01*
X163884819Y-115119642D02*
X163884819Y-115214880D01*
X163884819Y-115214880D02*
X163837200Y-115357737D01*
X163837200Y-115357737D02*
X163741961Y-115452975D01*
X163741961Y-115452975D02*
X163646723Y-115500594D01*
X163646723Y-115500594D02*
X163456247Y-115548213D01*
X163456247Y-115548213D02*
X163313390Y-115548213D01*
X163313390Y-115548213D02*
X163122914Y-115500594D01*
X163122914Y-115500594D02*
X163027676Y-115452975D01*
X163027676Y-115452975D02*
X162932438Y-115357737D01*
X162932438Y-115357737D02*
X162884819Y-115214880D01*
X162884819Y-115214880D02*
X162884819Y-115119642D01*
X162884819Y-115119642D02*
X162932438Y-114976785D01*
X162932438Y-114976785D02*
X162980057Y-114929166D01*
X162980057Y-114548213D02*
X162932438Y-114500594D01*
X162932438Y-114500594D02*
X162884819Y-114405356D01*
X162884819Y-114405356D02*
X162884819Y-114167261D01*
X162884819Y-114167261D02*
X162932438Y-114072023D01*
X162932438Y-114072023D02*
X162980057Y-114024404D01*
X162980057Y-114024404D02*
X163075295Y-113976785D01*
X163075295Y-113976785D02*
X163170533Y-113976785D01*
X163170533Y-113976785D02*
X163313390Y-114024404D01*
X163313390Y-114024404D02*
X163884819Y-114595832D01*
X163884819Y-114595832D02*
X163884819Y-113976785D01*
X162209580Y-114879166D02*
X162257200Y-114926785D01*
X162257200Y-114926785D02*
X162304819Y-115069642D01*
X162304819Y-115069642D02*
X162304819Y-115164880D01*
X162304819Y-115164880D02*
X162257200Y-115307737D01*
X162257200Y-115307737D02*
X162161961Y-115402975D01*
X162161961Y-115402975D02*
X162066723Y-115450594D01*
X162066723Y-115450594D02*
X161876247Y-115498213D01*
X161876247Y-115498213D02*
X161733390Y-115498213D01*
X161733390Y-115498213D02*
X161542914Y-115450594D01*
X161542914Y-115450594D02*
X161447676Y-115402975D01*
X161447676Y-115402975D02*
X161352438Y-115307737D01*
X161352438Y-115307737D02*
X161304819Y-115164880D01*
X161304819Y-115164880D02*
X161304819Y-115069642D01*
X161304819Y-115069642D02*
X161352438Y-114926785D01*
X161352438Y-114926785D02*
X161400057Y-114879166D01*
X161638152Y-114022023D02*
X162304819Y-114022023D01*
X161257200Y-114260118D02*
X161971485Y-114498213D01*
X161971485Y-114498213D02*
X161971485Y-113879166D01*
X161559580Y-88066666D02*
X161607200Y-88114285D01*
X161607200Y-88114285D02*
X161654819Y-88257142D01*
X161654819Y-88257142D02*
X161654819Y-88352380D01*
X161654819Y-88352380D02*
X161607200Y-88495237D01*
X161607200Y-88495237D02*
X161511961Y-88590475D01*
X161511961Y-88590475D02*
X161416723Y-88638094D01*
X161416723Y-88638094D02*
X161226247Y-88685713D01*
X161226247Y-88685713D02*
X161083390Y-88685713D01*
X161083390Y-88685713D02*
X160892914Y-88638094D01*
X160892914Y-88638094D02*
X160797676Y-88590475D01*
X160797676Y-88590475D02*
X160702438Y-88495237D01*
X160702438Y-88495237D02*
X160654819Y-88352380D01*
X160654819Y-88352380D02*
X160654819Y-88257142D01*
X160654819Y-88257142D02*
X160702438Y-88114285D01*
X160702438Y-88114285D02*
X160750057Y-88066666D01*
X161654819Y-87114285D02*
X161654819Y-87685713D01*
X161654819Y-87399999D02*
X160654819Y-87399999D01*
X160654819Y-87399999D02*
X160797676Y-87495237D01*
X160797676Y-87495237D02*
X160892914Y-87590475D01*
X160892914Y-87590475D02*
X160940533Y-87685713D01*
X166754819Y-96561904D02*
X167564342Y-96561904D01*
X167564342Y-96561904D02*
X167659580Y-96514285D01*
X167659580Y-96514285D02*
X167707200Y-96466666D01*
X167707200Y-96466666D02*
X167754819Y-96371428D01*
X167754819Y-96371428D02*
X167754819Y-96180952D01*
X167754819Y-96180952D02*
X167707200Y-96085714D01*
X167707200Y-96085714D02*
X167659580Y-96038095D01*
X167659580Y-96038095D02*
X167564342Y-95990476D01*
X167564342Y-95990476D02*
X166754819Y-95990476D01*
X167754819Y-94990476D02*
X167754819Y-95561904D01*
X167754819Y-95276190D02*
X166754819Y-95276190D01*
X166754819Y-95276190D02*
X166897676Y-95371428D01*
X166897676Y-95371428D02*
X166992914Y-95466666D01*
X166992914Y-95466666D02*
X167040533Y-95561904D01*
D13*
X130114318Y-117021428D02*
X128844318Y-117021428D01*
X128844318Y-117021428D02*
X128844318Y-116537618D01*
X128844318Y-116537618D02*
X128904794Y-116416666D01*
X128904794Y-116416666D02*
X128965270Y-116356189D01*
X128965270Y-116356189D02*
X129086222Y-116295713D01*
X129086222Y-116295713D02*
X129267651Y-116295713D01*
X129267651Y-116295713D02*
X129388603Y-116356189D01*
X129388603Y-116356189D02*
X129449080Y-116416666D01*
X129449080Y-116416666D02*
X129509556Y-116537618D01*
X129509556Y-116537618D02*
X129509556Y-117021428D01*
X130114318Y-115146666D02*
X130114318Y-115751428D01*
X130114318Y-115751428D02*
X128844318Y-115751428D01*
X128965270Y-114783809D02*
X128904794Y-114723333D01*
X128904794Y-114723333D02*
X128844318Y-114602380D01*
X128844318Y-114602380D02*
X128844318Y-114299999D01*
X128844318Y-114299999D02*
X128904794Y-114179047D01*
X128904794Y-114179047D02*
X128965270Y-114118571D01*
X128965270Y-114118571D02*
X129086222Y-114058094D01*
X129086222Y-114058094D02*
X129207175Y-114058094D01*
X129207175Y-114058094D02*
X129388603Y-114118571D01*
X129388603Y-114118571D02*
X130114318Y-114844285D01*
X130114318Y-114844285D02*
X130114318Y-114058094D01*
X130114318Y-89081428D02*
X128844318Y-89081428D01*
X128844318Y-89081428D02*
X128844318Y-88597618D01*
X128844318Y-88597618D02*
X128904794Y-88476666D01*
X128904794Y-88476666D02*
X128965270Y-88416189D01*
X128965270Y-88416189D02*
X129086222Y-88355713D01*
X129086222Y-88355713D02*
X129267651Y-88355713D01*
X129267651Y-88355713D02*
X129388603Y-88416189D01*
X129388603Y-88416189D02*
X129449080Y-88476666D01*
X129449080Y-88476666D02*
X129509556Y-88597618D01*
X129509556Y-88597618D02*
X129509556Y-89081428D01*
X130114318Y-87206666D02*
X130114318Y-87811428D01*
X130114318Y-87811428D02*
X128844318Y-87811428D01*
X130114318Y-86118094D02*
X130114318Y-86843809D01*
X130114318Y-86480952D02*
X128844318Y-86480952D01*
X128844318Y-86480952D02*
X129025746Y-86601904D01*
X129025746Y-86601904D02*
X129146699Y-86722856D01*
X129146699Y-86722856D02*
X129207175Y-86843809D01*
D12*
X163109580Y-88216666D02*
X163157200Y-88264285D01*
X163157200Y-88264285D02*
X163204819Y-88407142D01*
X163204819Y-88407142D02*
X163204819Y-88502380D01*
X163204819Y-88502380D02*
X163157200Y-88645237D01*
X163157200Y-88645237D02*
X163061961Y-88740475D01*
X163061961Y-88740475D02*
X162966723Y-88788094D01*
X162966723Y-88788094D02*
X162776247Y-88835713D01*
X162776247Y-88835713D02*
X162633390Y-88835713D01*
X162633390Y-88835713D02*
X162442914Y-88788094D01*
X162442914Y-88788094D02*
X162347676Y-88740475D01*
X162347676Y-88740475D02*
X162252438Y-88645237D01*
X162252438Y-88645237D02*
X162204819Y-88502380D01*
X162204819Y-88502380D02*
X162204819Y-88407142D01*
X162204819Y-88407142D02*
X162252438Y-88264285D01*
X162252438Y-88264285D02*
X162300057Y-88216666D01*
X162204819Y-87883332D02*
X162204819Y-87264285D01*
X162204819Y-87264285D02*
X162585771Y-87597618D01*
X162585771Y-87597618D02*
X162585771Y-87454761D01*
X162585771Y-87454761D02*
X162633390Y-87359523D01*
X162633390Y-87359523D02*
X162681009Y-87311904D01*
X162681009Y-87311904D02*
X162776247Y-87264285D01*
X162776247Y-87264285D02*
X163014342Y-87264285D01*
X163014342Y-87264285D02*
X163109580Y-87311904D01*
X163109580Y-87311904D02*
X163157200Y-87359523D01*
X163157200Y-87359523D02*
X163204819Y-87454761D01*
X163204819Y-87454761D02*
X163204819Y-87740475D01*
X163204819Y-87740475D02*
X163157200Y-87835713D01*
X163157200Y-87835713D02*
X163109580Y-87883332D01*
D13*
X130114318Y-144961428D02*
X128844318Y-144961428D01*
X128844318Y-144961428D02*
X128844318Y-144477618D01*
X128844318Y-144477618D02*
X128904794Y-144356666D01*
X128904794Y-144356666D02*
X128965270Y-144296189D01*
X128965270Y-144296189D02*
X129086222Y-144235713D01*
X129086222Y-144235713D02*
X129267651Y-144235713D01*
X129267651Y-144235713D02*
X129388603Y-144296189D01*
X129388603Y-144296189D02*
X129449080Y-144356666D01*
X129449080Y-144356666D02*
X129509556Y-144477618D01*
X129509556Y-144477618D02*
X129509556Y-144961428D01*
X130114318Y-143086666D02*
X130114318Y-143691428D01*
X130114318Y-143691428D02*
X128844318Y-143691428D01*
X128844318Y-142784285D02*
X128844318Y-141998094D01*
X128844318Y-141998094D02*
X129328127Y-142421428D01*
X129328127Y-142421428D02*
X129328127Y-142239999D01*
X129328127Y-142239999D02*
X129388603Y-142119047D01*
X129388603Y-142119047D02*
X129449080Y-142058571D01*
X129449080Y-142058571D02*
X129570032Y-141998094D01*
X129570032Y-141998094D02*
X129872413Y-141998094D01*
X129872413Y-141998094D02*
X129993365Y-142058571D01*
X129993365Y-142058571D02*
X130053842Y-142119047D01*
X130053842Y-142119047D02*
X130114318Y-142239999D01*
X130114318Y-142239999D02*
X130114318Y-142602856D01*
X130114318Y-142602856D02*
X130053842Y-142723809D01*
X130053842Y-142723809D02*
X129993365Y-142784285D01*
D14*
%TO.C,C2*%
X162890000Y-111803733D02*
X162890000Y-112096267D01*
X163910000Y-111803733D02*
X163910000Y-112096267D01*
%TO.C,C4*%
X161340000Y-111803733D02*
X161340000Y-112096267D01*
X162360000Y-111803733D02*
X162360000Y-112096267D01*
%TO.C,C1*%
X160690000Y-90996267D02*
X160690000Y-90703733D01*
X161710000Y-90996267D02*
X161710000Y-90703733D01*
D12*
%TO.C,U1*%
X154845000Y-96425000D02*
X154845000Y-97100000D01*
X154845000Y-96425000D02*
X155520000Y-96425000D01*
X154845000Y-106775000D02*
X154845000Y-106100000D01*
X154845000Y-106775000D02*
X155520000Y-106775000D01*
X165195000Y-96425000D02*
X164620000Y-96425000D01*
X165195000Y-96425000D02*
X165195000Y-97100000D01*
X165195000Y-106775000D02*
X164520000Y-106775000D01*
X165195000Y-106775000D02*
X165195000Y-106100000D01*
D14*
X165020000Y-95900000D02*
X164550000Y-95560000D01*
X165020000Y-95220000D01*
X165020000Y-95900000D01*
G36*
X165020000Y-95900000D02*
G01*
X164550000Y-95560000D01*
X165020000Y-95220000D01*
X165020000Y-95900000D01*
G37*
D10*
%TO.C,PL2*%
X120560000Y-92710000D02*
X123060000Y-92710000D01*
X120560000Y-93980000D02*
X114560000Y-93980000D01*
X120560000Y-96520000D02*
X114560000Y-96520000D01*
X120560000Y-99060000D02*
X114560000Y-99060000D01*
X120560000Y-101600000D02*
X114560000Y-101600000D01*
X120560000Y-104140000D02*
X114560000Y-104140000D01*
X120560000Y-106680000D02*
X114560000Y-106680000D01*
X120560000Y-109220000D02*
X114560000Y-109220000D01*
X120560000Y-111760000D02*
X114560000Y-111760000D01*
X120560000Y-114300000D02*
X114560000Y-114300000D01*
X120560000Y-116840000D02*
X114560000Y-116840000D01*
X120560000Y-118110000D02*
X120560000Y-92710000D01*
X127000000Y-118110000D02*
X120560000Y-118110000D01*
%TO.C,PL1*%
X120560000Y-64770000D02*
X123060000Y-64770000D01*
X120560000Y-66040000D02*
X114560000Y-66040000D01*
X120560000Y-68580000D02*
X114560000Y-68580000D01*
X120560000Y-71120000D02*
X114560000Y-71120000D01*
X120560000Y-73660000D02*
X114560000Y-73660000D01*
X120560000Y-76200000D02*
X114560000Y-76200000D01*
X120560000Y-78740000D02*
X114560000Y-78740000D01*
X120560000Y-81280000D02*
X114560000Y-81280000D01*
X120560000Y-83820000D02*
X114560000Y-83820000D01*
X120560000Y-86360000D02*
X114560000Y-86360000D01*
X120560000Y-88900000D02*
X114560000Y-88900000D01*
X120560000Y-90170000D02*
X120560000Y-64770000D01*
X127000000Y-90170000D02*
X120560000Y-90170000D01*
D14*
%TO.C,C3*%
X162240000Y-90996267D02*
X162240000Y-90703733D01*
X163260000Y-90996267D02*
X163260000Y-90703733D01*
D10*
%TO.C,PL3*%
X120560000Y-120650000D02*
X123060000Y-120650000D01*
X120560000Y-121920000D02*
X114560000Y-121920000D01*
X120560000Y-124460000D02*
X114560000Y-124460000D01*
X120560000Y-127000000D02*
X114560000Y-127000000D01*
X120560000Y-129540000D02*
X114560000Y-129540000D01*
X120560000Y-132080000D02*
X114560000Y-132080000D01*
X120560000Y-134620000D02*
X114560000Y-134620000D01*
X120560000Y-137160000D02*
X114560000Y-137160000D01*
X120560000Y-139700000D02*
X114560000Y-139700000D01*
X120560000Y-142240000D02*
X114560000Y-142240000D01*
X120560000Y-144780000D02*
X114560000Y-144780000D01*
X120560000Y-146050000D02*
X120560000Y-120650000D01*
X127000000Y-146050000D02*
X120560000Y-146050000D01*
%TD*%
M02*
