%TF.GenerationSoftware,KiCad,Pcbnew,8.0.3-8.0.3-0~ubuntu22.04.1*%
%TF.CreationDate,2024-06-07T23:15:47+01:00*%
%TF.ProjectId,0002-65C816S-minimal,30303032-2d36-4354-9338-3136532d6d69,A*%
%TF.SameCoordinates,Original*%
%TF.FileFunction,Copper,L1,Top*%
%TF.FilePolarity,Positive*%
%FSLAX46Y46*%
G04 Gerber Fmt 4.6, Leading zero omitted, Abs format (unit mm)*
G04 Created by KiCad (PCBNEW 8.0.3-8.0.3-0~ubuntu22.04.1) date 2024-06-07 23:15:47*
%MOMM*%
%LPD*%
G01*
G04 APERTURE LIST*
G04 Aperture macros list*
%AMRoundRect*
0 Rectangle with rounded corners*
0 $1 Rounding radius*
0 $2 $3 $4 $5 $6 $7 $8 $9 X,Y pos of 4 corners*
0 Add a 4 corners polygon primitive as box body*
4,1,4,$2,$3,$4,$5,$6,$7,$8,$9,$2,$3,0*
0 Add four circle primitives for the rounded corners*
1,1,$1+$1,$2,$3*
1,1,$1+$1,$4,$5*
1,1,$1+$1,$6,$7*
1,1,$1+$1,$8,$9*
0 Add four rect primitives between the rounded corners*
20,1,$1+$1,$2,$3,$4,$5,0*
20,1,$1+$1,$4,$5,$6,$7,0*
20,1,$1+$1,$6,$7,$8,$9,0*
20,1,$1+$1,$8,$9,$2,$3,0*%
G04 Aperture macros list end*
%TA.AperFunction,SMDPad,CuDef*%
%ADD10RoundRect,0.237500X-0.237500X0.300000X-0.237500X-0.300000X0.237500X-0.300000X0.237500X0.300000X0*%
%TD*%
%TA.AperFunction,SMDPad,CuDef*%
%ADD11RoundRect,0.237500X0.237500X-0.300000X0.237500X0.300000X-0.237500X0.300000X-0.237500X-0.300000X0*%
%TD*%
%TA.AperFunction,SMDPad,CuDef*%
%ADD12R,0.520000X1.500000*%
%TD*%
%TA.AperFunction,SMDPad,CuDef*%
%ADD13R,1.500000X0.520000*%
%TD*%
%TA.AperFunction,ComponentPad*%
%ADD14R,1.650000X1.650000*%
%TD*%
%TA.AperFunction,ComponentPad*%
%ADD15C,1.650000*%
%TD*%
%TA.AperFunction,ViaPad*%
%ADD16C,0.600000*%
%TD*%
%TA.AperFunction,ViaPad*%
%ADD17C,1.400000*%
%TD*%
%TA.AperFunction,Conductor*%
%ADD18C,0.150000*%
%TD*%
%TA.AperFunction,Conductor*%
%ADD19C,0.500000*%
%TD*%
G04 APERTURE END LIST*
D10*
%TO.P,C2,1*%
%TO.N,/VDD*%
X163400000Y-111087500D03*
%TO.P,C2,2*%
%TO.N,/GND*%
X163400000Y-112812500D03*
%TD*%
%TO.P,C4,1*%
%TO.N,/VDD*%
X161850000Y-111087500D03*
%TO.P,C4,2*%
%TO.N,/GND*%
X161850000Y-112812500D03*
%TD*%
D11*
%TO.P,C1,1*%
%TO.N,/VDD*%
X161200000Y-91712500D03*
%TO.P,C1,2*%
%TO.N,/GND*%
X161200000Y-89987500D03*
%TD*%
D12*
%TO.P,U1,1,nNMI*%
%TO.N,/nNMI*%
X164020000Y-95550000D03*
%TO.P,U1,2,VPA*%
%TO.N,/VPA*%
X163220000Y-95550000D03*
%TO.P,U1,3,VDD*%
%TO.N,/VDD*%
X162420000Y-95550000D03*
%TO.P,U1,4,A0*%
%TO.N,/A0*%
X161620000Y-95550000D03*
%TO.P,U1,5,A1*%
%TO.N,/A1*%
X160820000Y-95550000D03*
%TO.P,U1,6,nc*%
%TO.N,unconnected-(U1-nc-Pad6)*%
X160020000Y-95550000D03*
%TO.P,U1,7,A2*%
%TO.N,/A2*%
X159220000Y-95550000D03*
%TO.P,U1,8,A3*%
%TO.N,/A3*%
X158420000Y-95550000D03*
%TO.P,U1,9,A4*%
%TO.N,/A4*%
X157620000Y-95550000D03*
%TO.P,U1,10,A5*%
%TO.N,/A5*%
X156820000Y-95550000D03*
%TO.P,U1,11,A6*%
%TO.N,/A6*%
X156020000Y-95550000D03*
D13*
%TO.P,U1,12,A7*%
%TO.N,/A7*%
X153970000Y-97600000D03*
%TO.P,U1,13,A8*%
%TO.N,/A8*%
X153970000Y-98400000D03*
%TO.P,U1,14,A9*%
%TO.N,/A9*%
X153970000Y-99200000D03*
%TO.P,U1,15,A10*%
%TO.N,/A10*%
X153970000Y-100000000D03*
%TO.P,U1,16,A11*%
%TO.N,/A11*%
X153970000Y-100800000D03*
%TO.P,U1,17,VSS*%
%TO.N,/GND*%
X153970000Y-101600000D03*
%TO.P,U1,18,VSS*%
X153970000Y-102400000D03*
%TO.P,U1,19,A12*%
%TO.N,/A12*%
X153970000Y-103200000D03*
%TO.P,U1,20,A13*%
%TO.N,/A13*%
X153970000Y-104000000D03*
%TO.P,U1,21,A14*%
%TO.N,/A14*%
X153970000Y-104800000D03*
%TO.P,U1,22,A15*%
%TO.N,/A15*%
X153970000Y-105600000D03*
D12*
%TO.P,U1,23,D7*%
%TO.N,/D7*%
X156020000Y-107650000D03*
%TO.P,U1,24,D6*%
%TO.N,/D6*%
X156820000Y-107650000D03*
%TO.P,U1,25,D5*%
%TO.N,/D5*%
X157620000Y-107650000D03*
%TO.P,U1,26,D4*%
%TO.N,/D4*%
X158420000Y-107650000D03*
%TO.P,U1,27,D3*%
%TO.N,/D3*%
X159220000Y-107650000D03*
%TO.P,U1,28,D2*%
%TO.N,/D2*%
X160020000Y-107650000D03*
%TO.P,U1,29,D1*%
%TO.N,/D1*%
X160820000Y-107650000D03*
%TO.P,U1,30,D0*%
%TO.N,/D0*%
X161620000Y-107650000D03*
%TO.P,U1,31,VDD*%
%TO.N,/VDD*%
X162420000Y-107650000D03*
%TO.P,U1,32,RnW*%
%TO.N,/RnW*%
X163220000Y-107650000D03*
%TO.P,U1,33,E*%
%TO.N,/E*%
X164020000Y-107650000D03*
D13*
%TO.P,U1,34,BE*%
%TO.N,/BE*%
X166070000Y-105600000D03*
%TO.P,U1,35,PHI2*%
%TO.N,/SYSCLK*%
X166070000Y-104800000D03*
%TO.P,U1,36,MX*%
%TO.N,/MX*%
X166070000Y-104000000D03*
%TO.P,U1,37,VDA*%
%TO.N,/VDA*%
X166070000Y-103200000D03*
%TO.P,U1,38,nRESET*%
%TO.N,/nRESET*%
X166070000Y-102400000D03*
%TO.P,U1,39,VSS*%
%TO.N,/GND*%
X166070000Y-101600000D03*
%TO.P,U1,40,nVP*%
%TO.N,/nVP*%
X166070000Y-100800000D03*
%TO.P,U1,41,RDY*%
%TO.N,/RDY*%
X166070000Y-100000000D03*
%TO.P,U1,42,nABORT*%
%TO.N,/nABORT*%
X166070000Y-99200000D03*
%TO.P,U1,43,nIRQ*%
%TO.N,/nIRQ*%
X166070000Y-98400000D03*
%TO.P,U1,44,nML*%
%TO.N,/nML*%
X166070000Y-97600000D03*
%TD*%
D14*
%TO.P,PL2,1,1*%
%TO.N,/GND*%
X124460000Y-116840000D03*
D15*
%TO.P,PL2,2,2*%
%TO.N,/MX*%
X127000000Y-116840000D03*
%TO.P,PL2,3,3*%
%TO.N,/E*%
X124460000Y-114300000D03*
%TO.P,PL2,4,4*%
%TO.N,/VDA*%
X127000000Y-114300000D03*
%TO.P,PL2,5,5*%
%TO.N,/VPA*%
X124460000Y-111760000D03*
%TO.P,PL2,6,6*%
%TO.N,/RnW*%
X127000000Y-111760000D03*
%TO.P,PL2,7,7*%
%TO.N,/D7*%
X124460000Y-109220000D03*
%TO.P,PL2,8,8*%
%TO.N,/D6*%
X127000000Y-109220000D03*
%TO.P,PL2,9,9*%
%TO.N,/D5*%
X124460000Y-106680000D03*
%TO.P,PL2,10,10*%
%TO.N,/D4*%
X127000000Y-106680000D03*
%TO.P,PL2,11,11*%
%TO.N,/GND*%
X124460000Y-104140000D03*
%TO.P,PL2,12,12*%
%TO.N,/D3*%
X127000000Y-104140000D03*
%TO.P,PL2,13,13*%
%TO.N,/D2*%
X124460000Y-101600000D03*
%TO.P,PL2,14,14*%
%TO.N,/D1*%
X127000000Y-101600000D03*
%TO.P,PL2,15,15*%
%TO.N,/D0*%
X124460000Y-99060000D03*
%TO.P,PL2,16,16*%
%TO.N,/A15*%
X127000000Y-99060000D03*
%TO.P,PL2,17,17*%
%TO.N,/A14*%
X124460000Y-96520000D03*
%TO.P,PL2,18,18*%
%TO.N,/A13*%
X127000000Y-96520000D03*
%TO.P,PL2,19,19*%
%TO.N,/GND*%
X124460000Y-93980000D03*
%TO.P,PL2,20,20*%
%TO.N,/A12*%
X127000000Y-93980000D03*
%TD*%
D14*
%TO.P,PL1,1,1*%
%TO.N,/A11*%
X124460000Y-88900000D03*
D15*
%TO.P,PL1,2,2*%
%TO.N,/A10*%
X127000000Y-88900000D03*
%TO.P,PL1,3,3*%
%TO.N,/A9*%
X124460000Y-86360000D03*
%TO.P,PL1,4,4*%
%TO.N,/A8*%
X127000000Y-86360000D03*
%TO.P,PL1,5,5*%
%TO.N,/A7*%
X124460000Y-83820000D03*
%TO.P,PL1,6,6*%
%TO.N,/A6*%
X127000000Y-83820000D03*
%TO.P,PL1,7,7*%
%TO.N,/A5*%
X124460000Y-81280000D03*
%TO.P,PL1,8,8*%
%TO.N,/A4*%
X127000000Y-81280000D03*
%TO.P,PL1,9,9*%
%TO.N,/A3*%
X124460000Y-78740000D03*
%TO.P,PL1,10,10*%
%TO.N,/A2*%
X127000000Y-78740000D03*
%TO.P,PL1,11,11*%
%TO.N,/A1*%
X124460000Y-76200000D03*
%TO.P,PL1,12,12*%
%TO.N,/A0*%
X127000000Y-76200000D03*
%TO.P,PL1,13,13*%
%TO.N,unconnected-(PL1-Pad13)*%
X124460000Y-73660000D03*
%TO.P,PL1,14,14*%
%TO.N,unconnected-(PL1-Pad14)*%
X127000000Y-73660000D03*
%TO.P,PL1,15,15*%
%TO.N,unconnected-(PL1-Pad15)*%
X124460000Y-71120000D03*
%TO.P,PL1,16,16*%
%TO.N,unconnected-(PL1-Pad16)*%
X127000000Y-71120000D03*
%TO.P,PL1,17,17*%
%TO.N,/GND*%
X124460000Y-68580000D03*
%TO.P,PL1,18,18*%
%TO.N,unconnected-(PL1-Pad18)*%
X127000000Y-68580000D03*
%TO.P,PL1,19,19*%
%TO.N,/VDD*%
X124460000Y-66040000D03*
%TO.P,PL1,20,20*%
X127000000Y-66040000D03*
%TD*%
D11*
%TO.P,C3,1*%
%TO.N,/VDD*%
X162750000Y-91712500D03*
%TO.P,C3,2*%
%TO.N,/GND*%
X162750000Y-89987500D03*
%TD*%
D14*
%TO.P,PL3,1,1*%
%TO.N,/GND*%
X124460000Y-144780000D03*
D15*
%TO.P,PL3,2,2*%
%TO.N,/5V0*%
X127000000Y-144780000D03*
%TO.P,PL3,3,3*%
%TO.N,/GND*%
X124460000Y-142240000D03*
%TO.P,PL3,4,4*%
%TO.N,/5V0*%
X127000000Y-142240000D03*
%TO.P,PL3,5,5*%
%TO.N,/GND*%
X124460000Y-139700000D03*
%TO.P,PL3,6,6*%
%TO.N,/5V0*%
X127000000Y-139700000D03*
%TO.P,PL3,7,7*%
%TO.N,unconnected-(PL3-Pad7)*%
X124460000Y-137160000D03*
%TO.P,PL3,8,8*%
%TO.N,unconnected-(PL3-Pad8)*%
X127000000Y-137160000D03*
%TO.P,PL3,9,9*%
%TO.N,unconnected-(PL3-Pad9)*%
X124460000Y-134620000D03*
%TO.P,PL3,10,10*%
%TO.N,/S3A-UART-RX*%
X127000000Y-134620000D03*
%TO.P,PL3,11,11*%
%TO.N,/S3A-UART-TX*%
X124460000Y-132080000D03*
%TO.P,PL3,12,12*%
%TO.N,/SYSCLK*%
X127000000Y-132080000D03*
%TO.P,PL3,13,13*%
%TO.N,/BE*%
X124460000Y-129540000D03*
%TO.P,PL3,14,14*%
%TO.N,/nRESET*%
X127000000Y-129540000D03*
%TO.P,PL3,15,15*%
%TO.N,/nABORT*%
X124460000Y-127000000D03*
%TO.P,PL3,16,16*%
%TO.N,/nNMI*%
X127000000Y-127000000D03*
%TO.P,PL3,17,17*%
%TO.N,/nIRQ*%
X124460000Y-124460000D03*
%TO.P,PL3,18,18*%
%TO.N,/RDY*%
X127000000Y-124460000D03*
%TO.P,PL3,19,19*%
%TO.N,/nML*%
X124460000Y-121920000D03*
%TO.P,PL3,20,20*%
%TO.N,/nVP*%
X127000000Y-121920000D03*
%TD*%
D16*
%TO.N,/VDD*%
X160100000Y-91750000D03*
X160950000Y-111900000D03*
%TO.N,/GND*%
X138950000Y-131100000D03*
X167400000Y-117400000D03*
X142700000Y-85350000D03*
X168300000Y-113050000D03*
X129700000Y-123350000D03*
X129100000Y-130400000D03*
X162600000Y-113800000D03*
X147350000Y-111600000D03*
X170750000Y-99300000D03*
X164650000Y-106250000D03*
X164700000Y-101600000D03*
X163900000Y-90000000D03*
X149500000Y-95000000D03*
X129150000Y-99900000D03*
D17*
X140680000Y-136000000D03*
D16*
X148300000Y-90700000D03*
X154350000Y-130950000D03*
X165900000Y-121050000D03*
X162450000Y-109900000D03*
X131750000Y-84350000D03*
X148500000Y-106050000D03*
X130600000Y-118400000D03*
X147750000Y-123800000D03*
X161750000Y-93200000D03*
X154000000Y-113150000D03*
X155400000Y-106200000D03*
X169150000Y-102450000D03*
X154500000Y-108850000D03*
X129900000Y-77800000D03*
X155250000Y-96850000D03*
X147350000Y-115050000D03*
X133050000Y-135050000D03*
X152350000Y-101550000D03*
X162350000Y-125950000D03*
X162750000Y-88700000D03*
X159250000Y-115700000D03*
X160020000Y-101600000D03*
X166350000Y-95650000D03*
X147050000Y-118500000D03*
X160000000Y-90050000D03*
X131450000Y-124650000D03*
X164550000Y-121050000D03*
X130800000Y-114900000D03*
X129050000Y-91350000D03*
X167550000Y-101600000D03*
X171750000Y-107850000D03*
X144150000Y-96850000D03*
X160750000Y-112800000D03*
X164700000Y-96900000D03*
X152350000Y-102400000D03*
X131450000Y-106100000D03*
X129900000Y-111450000D03*
X132950000Y-138350000D03*
X129350000Y-97100000D03*
X155000000Y-133050000D03*
X140100000Y-90950000D03*
X161200000Y-88750000D03*
%TO.N,/D2*%
X160000000Y-111100000D03*
%TO.N,/D1*%
X160800000Y-110500000D03*
%TO.N,/D5*%
X157600000Y-112050000D03*
%TO.N,/VPA*%
X164200000Y-114900000D03*
X163250000Y-92950000D03*
%TO.N,/D7*%
X156000000Y-113000000D03*
%TO.N,/D0*%
X161600000Y-109900000D03*
%TO.N,/E*%
X164850000Y-112350000D03*
X164000000Y-116250000D03*
%TO.N,/D6*%
X156800000Y-112350000D03*
%TO.N,/D4*%
X158400000Y-111850000D03*
%TO.N,/D3*%
X159200000Y-111250000D03*
%TO.N,/MX*%
X168850000Y-104000000D03*
X169200000Y-106700000D03*
%TO.N,/nABORT*%
X168050000Y-99200000D03*
X170100000Y-109450000D03*
D17*
%TO.N,/S3A-UART-RX*%
X138140000Y-136000000D03*
D16*
%TO.N,/nVP*%
X168000000Y-100800000D03*
X168750000Y-108050000D03*
%TO.N,/RDY*%
X168550000Y-100000000D03*
X170050000Y-108400000D03*
%TO.N,/BE*%
X166150000Y-119750000D03*
X168050000Y-105600000D03*
%TO.N,/nRESET*%
X168150000Y-102400000D03*
X166750000Y-118300000D03*
%TO.N,/nNMI*%
X164800000Y-119400000D03*
X164020000Y-93770000D03*
%TO.N,/SYSCLK*%
X165200000Y-121650000D03*
X167600000Y-104800000D03*
%TO.N,/nIRQ*%
X168550000Y-98400000D03*
X171800000Y-106900000D03*
D17*
%TO.N,/S3A-UART-TX*%
X135600000Y-136000000D03*
%TD*%
D18*
%TO.N,/VDD*%
X161162500Y-91750000D02*
X161200000Y-91712500D01*
X162550000Y-91912500D02*
X162550000Y-93800000D01*
X161850000Y-111087500D02*
X163400000Y-111087500D01*
X162420000Y-93930000D02*
X162420000Y-95550000D01*
X163400000Y-111087500D02*
X163400000Y-109950000D01*
X160100000Y-91750000D02*
X161162500Y-91750000D01*
X161200000Y-91712500D02*
X162750000Y-91712500D01*
X161112500Y-111087500D02*
X161850000Y-111087500D01*
X163400000Y-109950000D02*
X162420000Y-108970000D01*
X160950000Y-111900000D02*
X160950000Y-111250000D01*
X162420000Y-108970000D02*
X162420000Y-107650000D01*
X160950000Y-111250000D02*
X161112500Y-111087500D01*
X162750000Y-91712500D02*
X162550000Y-91912500D01*
X162550000Y-93800000D02*
X162420000Y-93930000D01*
%TO.N,/A10*%
X152600000Y-100000000D02*
X153970000Y-100000000D01*
X149650000Y-98650000D02*
X151250000Y-98650000D01*
X129050000Y-88900000D02*
X129950000Y-89800000D01*
X127000000Y-88900000D02*
X129050000Y-88900000D01*
X140800000Y-89800000D02*
X149650000Y-98650000D01*
X129950000Y-89800000D02*
X140800000Y-89800000D01*
X151250000Y-98650000D02*
X152600000Y-100000000D01*
%TO.N,/A0*%
X129250000Y-76850000D02*
X129250000Y-78100000D01*
X128600000Y-76200000D02*
X129250000Y-76850000D01*
X148000000Y-91750000D02*
X157600000Y-91750000D01*
X129250000Y-78100000D02*
X130350000Y-79200000D01*
X160720000Y-93400000D02*
X161620000Y-94300000D01*
X159250000Y-93400000D02*
X160720000Y-93400000D01*
X130350000Y-79200000D02*
X130350000Y-84050000D01*
X130350000Y-84050000D02*
X132500000Y-86200000D01*
X157600000Y-91750000D02*
X159250000Y-93400000D01*
X132500000Y-86200000D02*
X142450000Y-86200000D01*
X142450000Y-86200000D02*
X148000000Y-91750000D01*
X127000000Y-76200000D02*
X128600000Y-76200000D01*
X161620000Y-94300000D02*
X161620000Y-95550000D01*
%TO.N,/A9*%
X141000000Y-89400000D02*
X149900000Y-98300000D01*
X128450000Y-87600000D02*
X130250000Y-89400000D01*
X149900000Y-98300000D02*
X151750000Y-98300000D01*
X151750000Y-98300000D02*
X152650000Y-99200000D01*
X130250000Y-89400000D02*
X141000000Y-89400000D01*
X125700000Y-87600000D02*
X128450000Y-87600000D01*
X124460000Y-86360000D02*
X125700000Y-87600000D01*
X152650000Y-99200000D02*
X153970000Y-99200000D01*
%TO.N,/A11*%
X125710000Y-90150000D02*
X140550000Y-90150000D01*
X140550000Y-90150000D02*
X149400000Y-99000000D01*
X124460000Y-88900000D02*
X125710000Y-90150000D01*
X152650000Y-100800000D02*
X153970000Y-100800000D01*
X149400000Y-99000000D02*
X150850000Y-99000000D01*
X150850000Y-99000000D02*
X152650000Y-100800000D01*
%TO.N,/A3*%
X129300000Y-84500000D02*
X132050000Y-87250000D01*
X128000000Y-80000000D02*
X129300000Y-81300000D01*
X124460000Y-78740000D02*
X125720000Y-80000000D01*
X125720000Y-80000000D02*
X128000000Y-80000000D01*
X156870000Y-92800000D02*
X158420000Y-94350000D01*
X129300000Y-81300000D02*
X129300000Y-84500000D01*
X132050000Y-87250000D02*
X142050000Y-87250000D01*
X142050000Y-87250000D02*
X147600000Y-92800000D01*
X158420000Y-94350000D02*
X158420000Y-95550000D01*
X147600000Y-92800000D02*
X156870000Y-92800000D01*
%TO.N,/A4*%
X127000000Y-81280000D02*
X128950000Y-83230000D01*
X156370000Y-93150000D02*
X157620000Y-94400000D01*
X128950000Y-83230000D02*
X128950000Y-84700000D01*
X157620000Y-94400000D02*
X157620000Y-95550000D01*
X147450000Y-93150000D02*
X156370000Y-93150000D01*
X128950000Y-84700000D02*
X131850000Y-87600000D01*
X141900000Y-87600000D02*
X147450000Y-93150000D01*
X131850000Y-87600000D02*
X141900000Y-87600000D01*
%TO.N,/A2*%
X157320000Y-92450000D02*
X159220000Y-94350000D01*
X129650000Y-79550000D02*
X129650000Y-84350000D01*
X127000000Y-78740000D02*
X128840000Y-78740000D01*
X129650000Y-84350000D02*
X132200000Y-86900000D01*
X142200000Y-86900000D02*
X147750000Y-92450000D01*
X159220000Y-94350000D02*
X159220000Y-95550000D01*
X132200000Y-86900000D02*
X142200000Y-86900000D01*
X147750000Y-92450000D02*
X157320000Y-92450000D01*
X128840000Y-78740000D02*
X129650000Y-79550000D01*
%TO.N,/GND*%
X153970000Y-102400000D02*
X155300000Y-102400000D01*
X167550000Y-101600000D02*
X169000000Y-101600000D01*
X166070000Y-101600000D02*
X164700000Y-101600000D01*
X169000000Y-101600000D02*
X169500000Y-102100000D01*
X166070000Y-101600000D02*
X167550000Y-101600000D01*
X153970000Y-101600000D02*
X155250000Y-101600000D01*
%TO.N,/A8*%
X152200000Y-97950000D02*
X152650000Y-98400000D01*
X150100000Y-97950000D02*
X152200000Y-97950000D01*
X130450000Y-89050000D02*
X141200000Y-89050000D01*
X141200000Y-89050000D02*
X150100000Y-97950000D01*
X152650000Y-98400000D02*
X153970000Y-98400000D01*
X128400000Y-86360000D02*
X128750000Y-86710000D01*
X127000000Y-86360000D02*
X128400000Y-86360000D01*
X128750000Y-86710000D02*
X128750000Y-87350000D01*
X128750000Y-87350000D02*
X130450000Y-89050000D01*
%TO.N,/A5*%
X129800000Y-86700000D02*
X131050000Y-87950000D01*
X128600000Y-83500000D02*
X128600000Y-84850000D01*
X141750000Y-87950000D02*
X147300000Y-93500000D01*
X128600000Y-84850000D02*
X129800000Y-86050000D01*
X129800000Y-86050000D02*
X129800000Y-86700000D01*
X127650000Y-82550000D02*
X128600000Y-83500000D01*
X156820000Y-94450000D02*
X156820000Y-95550000D01*
X155870000Y-93500000D02*
X156820000Y-94450000D01*
X124460000Y-81280000D02*
X125730000Y-82550000D01*
X131050000Y-87950000D02*
X141750000Y-87950000D01*
X147300000Y-93500000D02*
X155870000Y-93500000D01*
X125730000Y-82550000D02*
X127650000Y-82550000D01*
%TO.N,/A1*%
X142350000Y-86550000D02*
X147900000Y-92100000D01*
X160210000Y-93740000D02*
X160820000Y-94350000D01*
X130000000Y-84200000D02*
X132350000Y-86550000D01*
X160820000Y-94350000D02*
X160820000Y-95550000D01*
X157500000Y-92100000D02*
X159140000Y-93740000D01*
X159140000Y-93740000D02*
X160210000Y-93740000D01*
X128100000Y-77450000D02*
X130000000Y-79350000D01*
X132350000Y-86550000D02*
X142350000Y-86550000D01*
X124460000Y-76200000D02*
X125710000Y-77450000D01*
X147900000Y-92100000D02*
X157500000Y-92100000D01*
X130000000Y-79350000D02*
X130000000Y-84200000D01*
X125710000Y-77450000D02*
X128100000Y-77450000D01*
%TO.N,/A7*%
X129100000Y-87200000D02*
X129100000Y-86500000D01*
X129100000Y-86500000D02*
X127700000Y-85100000D01*
X141450000Y-88700000D02*
X130600000Y-88700000D01*
X141450000Y-88700000D02*
X150350000Y-97600000D01*
X130600000Y-88700000D02*
X129100000Y-87200000D01*
X150350000Y-97600000D02*
X153970000Y-97600000D01*
X127700000Y-85100000D02*
X125740000Y-85100000D01*
X125740000Y-85100000D02*
X124460000Y-83820000D01*
%TO.N,/A6*%
X129450000Y-86900000D02*
X130850000Y-88300000D01*
X127000000Y-83820000D02*
X129450000Y-86270000D01*
X141600000Y-88300000D02*
X147150000Y-93850000D01*
X155420000Y-93850000D02*
X156020000Y-94450000D01*
X147150000Y-93850000D02*
X155420000Y-93850000D01*
X129450000Y-86270000D02*
X129450000Y-86900000D01*
X156020000Y-94450000D02*
X156020000Y-95550000D01*
X130850000Y-88300000D02*
X141600000Y-88300000D01*
%TO.N,/D2*%
X160020000Y-107650000D02*
X160020000Y-108880000D01*
X160020000Y-108880000D02*
X160000000Y-108900000D01*
X160000000Y-111100000D02*
X160000000Y-108900000D01*
%TO.N,/D1*%
X160800000Y-107670000D02*
X160820000Y-107650000D01*
X160800000Y-110500000D02*
X160800000Y-107670000D01*
%TO.N,/D5*%
X157600000Y-112050000D02*
X157600000Y-107670000D01*
X157600000Y-107670000D02*
X157620000Y-107650000D01*
%TO.N,/VPA*%
X149100000Y-114400000D02*
X159850000Y-114400000D01*
X124460000Y-111760000D02*
X125750000Y-113050000D01*
X125750000Y-113050000D02*
X147750000Y-113050000D01*
X159850000Y-114400000D02*
X160350000Y-114900000D01*
X147750000Y-113050000D02*
X149100000Y-114400000D01*
X160350000Y-114900000D02*
X164200000Y-114900000D01*
X163220000Y-92980000D02*
X163250000Y-92950000D01*
X163220000Y-95550000D02*
X163220000Y-92980000D01*
%TO.N,/VDA*%
X163950000Y-115550000D02*
X164500000Y-115550000D01*
X127000000Y-114300000D02*
X128750000Y-114300000D01*
X147600000Y-113400000D02*
X149000000Y-114800000D01*
X169575000Y-105175000D02*
X169575000Y-103725000D01*
X169050000Y-103200000D02*
X166070000Y-103200000D01*
X159750000Y-114800000D02*
X160250000Y-115300000D01*
X165550000Y-112550000D02*
X165550000Y-109200000D01*
X169575000Y-103725000D02*
X169050000Y-103200000D01*
X164500000Y-115550000D02*
X164850000Y-115200000D01*
X165550000Y-109200000D02*
X169575000Y-105175000D01*
X149000000Y-114800000D02*
X159750000Y-114800000D01*
X164850000Y-115200000D02*
X164850000Y-113250000D01*
X128750000Y-114300000D02*
X129650000Y-113400000D01*
X129650000Y-113400000D02*
X147600000Y-113400000D01*
X164850000Y-113250000D02*
X165550000Y-112550000D01*
X160250000Y-115300000D02*
X163700000Y-115300000D01*
X163700000Y-115300000D02*
X163950000Y-115550000D01*
%TO.N,/A13*%
X152250000Y-104000000D02*
X153970000Y-104000000D01*
X128830000Y-98350000D02*
X142400000Y-98350000D01*
X127000000Y-96520000D02*
X128830000Y-98350000D01*
X147600000Y-103550000D02*
X151800000Y-103550000D01*
X142400000Y-98350000D02*
X147600000Y-103550000D01*
X151800000Y-103550000D02*
X152250000Y-104000000D01*
%TO.N,/D7*%
X156000000Y-113000000D02*
X156000000Y-107670000D01*
X156000000Y-107670000D02*
X156020000Y-107650000D01*
%TO.N,/D0*%
X161600000Y-109900000D02*
X161600000Y-107670000D01*
X161600000Y-107670000D02*
X161620000Y-107650000D01*
%TO.N,/A15*%
X147350000Y-104250000D02*
X151050000Y-104250000D01*
X127000000Y-99060000D02*
X142160000Y-99060000D01*
X142160000Y-99060000D02*
X147350000Y-104250000D01*
X152400000Y-105600000D02*
X153970000Y-105600000D01*
X151050000Y-104250000D02*
X152400000Y-105600000D01*
%TO.N,/E*%
X164020000Y-109220000D02*
X164020000Y-107650000D01*
X164850000Y-110050000D02*
X164020000Y-109220000D01*
X129600000Y-116500000D02*
X162850000Y-116500000D01*
X164850000Y-112350000D02*
X164850000Y-110050000D01*
X128650000Y-115550000D02*
X129600000Y-116500000D01*
X162850000Y-116500000D02*
X163100000Y-116250000D01*
X163100000Y-116250000D02*
X164000000Y-116250000D01*
X124460000Y-114300000D02*
X125710000Y-115550000D01*
X125710000Y-115550000D02*
X128650000Y-115550000D01*
%TO.N,/D6*%
X156800000Y-112350000D02*
X156800000Y-107670000D01*
X156800000Y-107670000D02*
X156820000Y-107650000D01*
%TO.N,/A14*%
X151400000Y-103900000D02*
X147450000Y-103900000D01*
X152300000Y-104800000D02*
X151400000Y-103900000D01*
X142250000Y-98700000D02*
X128650000Y-98700000D01*
X127750000Y-97800000D02*
X125740000Y-97800000D01*
X147450000Y-103900000D02*
X142250000Y-98700000D01*
X128650000Y-98700000D02*
X127750000Y-97800000D01*
X153970000Y-104800000D02*
X152300000Y-104800000D01*
X125740000Y-97800000D02*
X124460000Y-96520000D01*
%TO.N,/RnW*%
X127000000Y-111760000D02*
X128950000Y-111760000D01*
X128950000Y-111760000D02*
X129890000Y-112700000D01*
X129890000Y-112700000D02*
X147950000Y-112700000D01*
X149300000Y-114050000D02*
X160000000Y-114050000D01*
X160400000Y-114450000D02*
X163800000Y-114450000D01*
X160000000Y-114050000D02*
X160400000Y-114450000D01*
X164250000Y-114000000D02*
X164250000Y-110250000D01*
X163800000Y-114450000D02*
X164250000Y-114000000D01*
X147950000Y-112700000D02*
X149300000Y-114050000D01*
X164250000Y-110250000D02*
X163220000Y-109220000D01*
X163220000Y-109220000D02*
X163220000Y-107650000D01*
%TO.N,/D4*%
X158400000Y-107670000D02*
X158420000Y-107650000D01*
X158400000Y-111850000D02*
X158400000Y-107670000D01*
%TO.N,/D3*%
X159200000Y-107670000D02*
X159220000Y-107650000D01*
X159200000Y-111250000D02*
X159200000Y-107670000D01*
%TO.N,/A12*%
X129000000Y-98000000D02*
X128450000Y-97450000D01*
X128450000Y-97450000D02*
X128450000Y-95430000D01*
X142550000Y-98000000D02*
X129000000Y-98000000D01*
X153970000Y-103200000D02*
X147750000Y-103200000D01*
X128450000Y-95430000D02*
X127000000Y-93980000D01*
X147750000Y-103200000D02*
X142550000Y-98000000D01*
%TO.N,/MX*%
X166070000Y-104000000D02*
X168850000Y-104000000D01*
X165200000Y-115900000D02*
X165200000Y-113400000D01*
X165900000Y-109350000D02*
X168550000Y-106700000D01*
X165200000Y-113400000D02*
X165900000Y-112700000D01*
X168550000Y-106700000D02*
X169200000Y-106700000D01*
X127000000Y-116840000D02*
X164260000Y-116840000D01*
X165900000Y-112700000D02*
X165900000Y-109350000D01*
X164260000Y-116840000D02*
X165200000Y-115900000D01*
%TO.N,/nABORT*%
X167250000Y-114200000D02*
X167750000Y-113700000D01*
X128550000Y-123400000D02*
X130100000Y-121850000D01*
X167750000Y-113700000D02*
X167750000Y-110650000D01*
X168950000Y-109450000D02*
X170100000Y-109450000D01*
X130100000Y-121850000D02*
X158700000Y-121850000D01*
X158700000Y-121850000D02*
X161750000Y-118800000D01*
X161750000Y-118800000D02*
X165000000Y-118800000D01*
X127950000Y-125700000D02*
X128550000Y-125100000D01*
X167250000Y-116550000D02*
X167250000Y-114200000D01*
X167750000Y-110650000D02*
X168950000Y-109450000D01*
X124460000Y-127000000D02*
X125760000Y-125700000D01*
X125760000Y-125700000D02*
X127950000Y-125700000D01*
X166070000Y-99200000D02*
X168050000Y-99200000D01*
X128550000Y-125100000D02*
X128550000Y-123400000D01*
X165000000Y-118800000D02*
X167250000Y-116550000D01*
D19*
%TO.N,/5V0*%
X127000000Y-142240000D02*
X127000000Y-144780000D01*
X127000000Y-139700000D02*
X127000000Y-142240000D01*
D18*
%TO.N,/S3A-UART-RX*%
X130870000Y-134620000D02*
X134250000Y-138000000D01*
X136140000Y-138000000D02*
X138140000Y-136000000D01*
X127000000Y-134620000D02*
X130870000Y-134620000D01*
X134250000Y-138000000D02*
X136140000Y-138000000D01*
%TO.N,/nVP*%
X166700000Y-113200000D02*
X166700000Y-110100000D01*
X166100000Y-113800000D02*
X166700000Y-113200000D01*
X166700000Y-110100000D02*
X168750000Y-108050000D01*
X164550000Y-117750000D02*
X166100000Y-116200000D01*
X166100000Y-116200000D02*
X166100000Y-113800000D01*
X161350000Y-117750000D02*
X164550000Y-117750000D01*
X129620000Y-120800000D02*
X158300000Y-120800000D01*
X166070000Y-100800000D02*
X168000000Y-100800000D01*
X158300000Y-120800000D02*
X161350000Y-117750000D01*
X127000000Y-121920000D02*
X128500000Y-121920000D01*
X128500000Y-121920000D02*
X129620000Y-120800000D01*
%TO.N,/RDY*%
X161600000Y-118450000D02*
X164850000Y-118450000D01*
X167400000Y-110500000D02*
X168850000Y-109050000D01*
X166070000Y-100000000D02*
X168550000Y-100000000D01*
X129960000Y-121500000D02*
X158550000Y-121500000D01*
X166900000Y-116400000D02*
X166900000Y-114050000D01*
X164850000Y-118450000D02*
X166900000Y-116400000D01*
X168850000Y-109050000D02*
X169400000Y-109050000D01*
X169400000Y-109050000D02*
X170050000Y-108400000D01*
X166900000Y-114050000D02*
X167400000Y-113550000D01*
X158550000Y-121500000D02*
X161600000Y-118450000D01*
X127000000Y-124460000D02*
X129960000Y-121500000D01*
X167400000Y-113550000D02*
X167400000Y-110500000D01*
%TO.N,/BE*%
X129400000Y-125050000D02*
X129400000Y-126600000D01*
X161650000Y-119900000D02*
X159000000Y-122550000D01*
X164350000Y-120100000D02*
X164150000Y-119900000D01*
X166150000Y-119750000D02*
X165500000Y-119750000D01*
X125750000Y-128250000D02*
X124460000Y-129540000D01*
X159000000Y-122550000D02*
X131900000Y-122550000D01*
X129400000Y-126600000D02*
X127750000Y-128250000D01*
X164150000Y-119900000D02*
X161650000Y-119900000D01*
X165500000Y-119750000D02*
X165150000Y-120100000D01*
X165150000Y-120100000D02*
X164350000Y-120100000D01*
X131900000Y-122550000D02*
X129400000Y-125050000D01*
X127750000Y-128250000D02*
X125750000Y-128250000D01*
X166070000Y-105600000D02*
X168050000Y-105600000D01*
%TO.N,/nRESET*%
X166750000Y-120150000D02*
X166450000Y-120450000D01*
X129750000Y-126790000D02*
X127000000Y-129540000D01*
X159150000Y-122900000D02*
X132050000Y-122900000D01*
X166450000Y-120450000D02*
X161600000Y-120450000D01*
X161600000Y-120450000D02*
X159150000Y-122900000D01*
X166750000Y-118300000D02*
X166750000Y-120150000D01*
X129750000Y-125200000D02*
X129750000Y-126790000D01*
X132050000Y-122900000D02*
X129750000Y-125200000D01*
X166070000Y-102400000D02*
X168150000Y-102400000D01*
%TO.N,/nML*%
X125980000Y-120400000D02*
X158200000Y-120400000D01*
X166350000Y-112950000D02*
X166350000Y-109600000D01*
X124460000Y-121920000D02*
X125980000Y-120400000D01*
X161200000Y-117400000D02*
X164425000Y-117400000D01*
X166350000Y-109600000D02*
X168500000Y-107450000D01*
X168500000Y-107450000D02*
X169500000Y-107450000D01*
X168800000Y-97600000D02*
X166070000Y-97600000D01*
X170100000Y-98900000D02*
X168800000Y-97600000D01*
X169500000Y-107450000D02*
X170100000Y-106850000D01*
X165725000Y-116100000D02*
X165725000Y-113575000D01*
X158200000Y-120400000D02*
X161200000Y-117400000D01*
X164425000Y-117400000D02*
X165725000Y-116100000D01*
X165725000Y-113575000D02*
X166350000Y-112950000D01*
X170100000Y-106850000D02*
X170100000Y-98900000D01*
%TO.N,/nNMI*%
X128450000Y-127000000D02*
X129050000Y-126400000D01*
X131750000Y-122200000D02*
X158850000Y-122200000D01*
X158850000Y-122200000D02*
X161650000Y-119400000D01*
X129050000Y-126400000D02*
X129050000Y-124900000D01*
X161650000Y-119400000D02*
X164800000Y-119400000D01*
X129050000Y-124900000D02*
X131750000Y-122200000D01*
X127000000Y-127000000D02*
X128450000Y-127000000D01*
X164020000Y-95550000D02*
X164020000Y-93770000D01*
%TO.N,/SYSCLK*%
X165200000Y-121650000D02*
X154770000Y-132080000D01*
X154770000Y-132080000D02*
X127000000Y-132080000D01*
X167600000Y-104800000D02*
X166070000Y-104800000D01*
%TO.N,/nIRQ*%
X164700000Y-118100000D02*
X166500000Y-116300000D01*
X161450000Y-118100000D02*
X164700000Y-118100000D01*
X168700000Y-108700000D02*
X168950000Y-108700000D01*
X170750000Y-106900000D02*
X171800000Y-106900000D01*
X167050000Y-113350000D02*
X167050000Y-110350000D01*
X166070000Y-98400000D02*
X168550000Y-98400000D01*
X125720000Y-123200000D02*
X127700000Y-123200000D01*
X127700000Y-123200000D02*
X129750000Y-121150000D01*
X168950000Y-108700000D02*
X170750000Y-106900000D01*
X124460000Y-124460000D02*
X125720000Y-123200000D01*
X167050000Y-110350000D02*
X168700000Y-108700000D01*
X129750000Y-121150000D02*
X158400000Y-121150000D01*
X166500000Y-116300000D02*
X166500000Y-113900000D01*
X166500000Y-113900000D02*
X167050000Y-113350000D01*
X158400000Y-121150000D02*
X161450000Y-118100000D01*
%TO.N,/S3A-UART-TX*%
X124460000Y-132080000D02*
X125730000Y-133350000D01*
X125730000Y-133350000D02*
X132950000Y-133350000D01*
X132950000Y-133350000D02*
X135600000Y-136000000D01*
%TD*%
%TA.AperFunction,Conductor*%
%TO.N,/GND*%
G36*
X131429269Y-122097174D02*
G01*
X131450943Y-122149500D01*
X131429269Y-122201825D01*
X130159363Y-123471731D01*
X128922265Y-124708829D01*
X128901826Y-124729268D01*
X128849500Y-124750942D01*
X128797174Y-124729268D01*
X128775500Y-124676942D01*
X128775500Y-123524057D01*
X128797174Y-123471731D01*
X130171731Y-122097174D01*
X130224057Y-122075500D01*
X131376943Y-122075500D01*
X131429269Y-122097174D01*
G37*
%TD.AperFunction*%
%TA.AperFunction,Conductor*%
G36*
X147528269Y-113647174D02*
G01*
X148804609Y-114923514D01*
X148804612Y-114923518D01*
X148808830Y-114927736D01*
X148872264Y-114991170D01*
X148896539Y-115001225D01*
X148955145Y-115025501D01*
X148955146Y-115025501D01*
X149053467Y-115025501D01*
X149053475Y-115025500D01*
X159625943Y-115025500D01*
X159678269Y-115047174D01*
X160054609Y-115423514D01*
X160054612Y-115423518D01*
X160058830Y-115427736D01*
X160122264Y-115491170D01*
X160156003Y-115505145D01*
X160205146Y-115525501D01*
X160303467Y-115525501D01*
X160303475Y-115525500D01*
X163575943Y-115525500D01*
X163628269Y-115547174D01*
X163810624Y-115729530D01*
X163832298Y-115781856D01*
X163810624Y-115834182D01*
X163798306Y-115844108D01*
X163701956Y-115906029D01*
X163701947Y-115906036D01*
X163621431Y-115998959D01*
X163570784Y-116024311D01*
X163565505Y-116024500D01*
X163055145Y-116024500D01*
X162972266Y-116058828D01*
X162972263Y-116058830D01*
X162778269Y-116252826D01*
X162725943Y-116274500D01*
X129724057Y-116274500D01*
X129671731Y-116252826D01*
X128851578Y-115432673D01*
X128851578Y-115432672D01*
X128777737Y-115358831D01*
X128777733Y-115358828D01*
X128743997Y-115344855D01*
X128694855Y-115324499D01*
X128605145Y-115324499D01*
X128596533Y-115324499D01*
X128596525Y-115324500D01*
X127448101Y-115324500D01*
X127395775Y-115302826D01*
X127374101Y-115250500D01*
X127395775Y-115198174D01*
X127413218Y-115185238D01*
X127414163Y-115184732D01*
X127544581Y-115115023D01*
X127693120Y-114993120D01*
X127815023Y-114844581D01*
X127905605Y-114675114D01*
X127935058Y-114578018D01*
X127970989Y-114534238D01*
X128005872Y-114525500D01*
X128696525Y-114525500D01*
X128696533Y-114525501D01*
X128705145Y-114525501D01*
X128794854Y-114525501D01*
X128794855Y-114525501D01*
X128853460Y-114501225D01*
X128877736Y-114491170D01*
X128941170Y-114427736D01*
X128941170Y-114427735D01*
X128951575Y-114417330D01*
X128951576Y-114417327D01*
X129721731Y-113647174D01*
X129774057Y-113625500D01*
X147475943Y-113625500D01*
X147528269Y-113647174D01*
G37*
%TD.AperFunction*%
%TA.AperFunction,Conductor*%
G36*
X162061111Y-108514928D02*
G01*
X162101278Y-108541767D01*
X162134937Y-108548462D01*
X162182029Y-108579928D01*
X162194500Y-108621040D01*
X162194500Y-108919173D01*
X162194499Y-108919187D01*
X162194499Y-109014855D01*
X162215003Y-109064355D01*
X162228828Y-109097733D01*
X162228831Y-109097737D01*
X162302671Y-109171577D01*
X162302673Y-109171578D01*
X163152826Y-110021731D01*
X163174500Y-110074057D01*
X163174500Y-110329562D01*
X163152826Y-110381888D01*
X163112076Y-110402651D01*
X163041106Y-110413891D01*
X163041102Y-110413892D01*
X162931598Y-110469687D01*
X162844689Y-110556596D01*
X162788890Y-110666109D01*
X162774500Y-110756965D01*
X162774500Y-110788000D01*
X162752826Y-110840326D01*
X162700500Y-110862000D01*
X162549499Y-110862000D01*
X162497173Y-110840326D01*
X162475499Y-110788000D01*
X162475499Y-110756967D01*
X162469854Y-110721326D01*
X162461109Y-110666107D01*
X162461108Y-110666105D01*
X162461107Y-110666102D01*
X162405312Y-110556598D01*
X162318403Y-110469689D01*
X162274136Y-110447134D01*
X162208893Y-110413891D01*
X162208891Y-110413890D01*
X162208890Y-110413890D01*
X162118035Y-110399500D01*
X161908054Y-110399500D01*
X161855728Y-110377826D01*
X161834054Y-110325500D01*
X161855728Y-110273174D01*
X161868045Y-110263249D01*
X161898049Y-110243967D01*
X161982882Y-110146063D01*
X162036697Y-110028226D01*
X162055133Y-109900000D01*
X162036697Y-109771774D01*
X161982882Y-109653937D01*
X161898049Y-109556033D01*
X161898046Y-109556031D01*
X161859491Y-109531252D01*
X161827191Y-109484728D01*
X161825500Y-109469000D01*
X161825500Y-108624397D01*
X161847174Y-108572071D01*
X161891257Y-108551220D01*
X161891255Y-108551209D01*
X161891299Y-108551200D01*
X161892245Y-108550753D01*
X161894805Y-108550500D01*
X161894820Y-108550500D01*
X161938722Y-108541767D01*
X161978888Y-108514928D01*
X162034437Y-108503880D01*
X162061111Y-108514928D01*
G37*
%TD.AperFunction*%
%TA.AperFunction,Conductor*%
G36*
X176327826Y-63272174D02*
G01*
X176349500Y-63324500D01*
X176349500Y-147215500D01*
X176327826Y-147267826D01*
X176275500Y-147289500D01*
X120924500Y-147289500D01*
X120872174Y-147267826D01*
X120850500Y-147215500D01*
X120850500Y-143935302D01*
X123435000Y-143935302D01*
X123435000Y-144680000D01*
X123917393Y-144680000D01*
X123910000Y-144707591D01*
X123910000Y-144852409D01*
X123917393Y-144880000D01*
X123435000Y-144880000D01*
X123435000Y-145624697D01*
X123446603Y-145683035D01*
X123490807Y-145749191D01*
X123490808Y-145749192D01*
X123556964Y-145793396D01*
X123615303Y-145805000D01*
X124360000Y-145805000D01*
X124360000Y-145322606D01*
X124387591Y-145330000D01*
X124532409Y-145330000D01*
X124560000Y-145322606D01*
X124560000Y-145805000D01*
X125304697Y-145805000D01*
X125363035Y-145793396D01*
X125429191Y-145749192D01*
X125429192Y-145749191D01*
X125473396Y-145683035D01*
X125485000Y-145624697D01*
X125485000Y-144880000D01*
X125002607Y-144880000D01*
X125010000Y-144852409D01*
X125010000Y-144707591D01*
X125002607Y-144680000D01*
X125485000Y-144680000D01*
X125485000Y-143935302D01*
X125473396Y-143876964D01*
X125429192Y-143810808D01*
X125429191Y-143810807D01*
X125363035Y-143766603D01*
X125304697Y-143755000D01*
X124560000Y-143755000D01*
X124560000Y-144237393D01*
X124532409Y-144230000D01*
X124387591Y-144230000D01*
X124360000Y-144237393D01*
X124360000Y-143755000D01*
X123615303Y-143755000D01*
X123556964Y-143766603D01*
X123490808Y-143810807D01*
X123490807Y-143810808D01*
X123446603Y-143876964D01*
X123435000Y-143935302D01*
X120850500Y-143935302D01*
X120850500Y-142240000D01*
X123430040Y-142240000D01*
X123449830Y-142440936D01*
X123508442Y-142634150D01*
X123603620Y-142812215D01*
X123667961Y-142890615D01*
X124005607Y-142552968D01*
X124019890Y-142577708D01*
X124122292Y-142680110D01*
X124147029Y-142694391D01*
X123809383Y-143032038D01*
X123887784Y-143096379D01*
X124065849Y-143191557D01*
X124259063Y-143250169D01*
X124460000Y-143269959D01*
X124660936Y-143250169D01*
X124854150Y-143191557D01*
X125032215Y-143096379D01*
X125110615Y-143032038D01*
X124772970Y-142694392D01*
X124797708Y-142680110D01*
X124900110Y-142577708D01*
X124914392Y-142552969D01*
X125252038Y-142890615D01*
X125316379Y-142812215D01*
X125411557Y-142634150D01*
X125470169Y-142440936D01*
X125489959Y-142240000D01*
X125470169Y-142039063D01*
X125411557Y-141845849D01*
X125316379Y-141667784D01*
X125252038Y-141589383D01*
X124914391Y-141927028D01*
X124900110Y-141902292D01*
X124797708Y-141799890D01*
X124772968Y-141785607D01*
X125110615Y-141447961D01*
X125032215Y-141383620D01*
X124854150Y-141288442D01*
X124660936Y-141229830D01*
X124460000Y-141210040D01*
X124259063Y-141229830D01*
X124065849Y-141288442D01*
X123887785Y-141383620D01*
X123809383Y-141447961D01*
X124147029Y-141785607D01*
X124122292Y-141799890D01*
X124019890Y-141902292D01*
X124005607Y-141927029D01*
X123667961Y-141589383D01*
X123603620Y-141667785D01*
X123508442Y-141845849D01*
X123449830Y-142039063D01*
X123430040Y-142240000D01*
X120850500Y-142240000D01*
X120850500Y-139700000D01*
X123430040Y-139700000D01*
X123449830Y-139900936D01*
X123508442Y-140094150D01*
X123603620Y-140272215D01*
X123667961Y-140350615D01*
X124005607Y-140012968D01*
X124019890Y-140037708D01*
X124122292Y-140140110D01*
X124147029Y-140154391D01*
X123809383Y-140492038D01*
X123887784Y-140556379D01*
X124065849Y-140651557D01*
X124259063Y-140710169D01*
X124460000Y-140729959D01*
X124660936Y-140710169D01*
X124854150Y-140651557D01*
X125032215Y-140556379D01*
X125110615Y-140492038D01*
X124772970Y-140154392D01*
X124797708Y-140140110D01*
X124900110Y-140037708D01*
X124914392Y-140012969D01*
X125252038Y-140350615D01*
X125316379Y-140272215D01*
X125411557Y-140094150D01*
X125470169Y-139900936D01*
X125489959Y-139700000D01*
X126019780Y-139700000D01*
X126038615Y-139891231D01*
X126094395Y-140075114D01*
X126184977Y-140244581D01*
X126306880Y-140393120D01*
X126455419Y-140515023D01*
X126560383Y-140571127D01*
X126596313Y-140614906D01*
X126599500Y-140636388D01*
X126599500Y-141303610D01*
X126577826Y-141355936D01*
X126560384Y-141368872D01*
X126455418Y-141424977D01*
X126306880Y-141546880D01*
X126184982Y-141695412D01*
X126184976Y-141695421D01*
X126094396Y-141864883D01*
X126038615Y-142048767D01*
X126038615Y-142048769D01*
X126019780Y-142240000D01*
X126038615Y-142431231D01*
X126094395Y-142615114D01*
X126184977Y-142784581D01*
X126306880Y-142933120D01*
X126455419Y-143055023D01*
X126560383Y-143111127D01*
X126596313Y-143154906D01*
X126599500Y-143176388D01*
X126599500Y-143843610D01*
X126577826Y-143895936D01*
X126560384Y-143908872D01*
X126455418Y-143964977D01*
X126306880Y-144086880D01*
X126184982Y-144235412D01*
X126184976Y-144235421D01*
X126094396Y-144404883D01*
X126038615Y-144588767D01*
X126038615Y-144588769D01*
X126019780Y-144780000D01*
X126038615Y-144971231D01*
X126094395Y-145155114D01*
X126184977Y-145324581D01*
X126306880Y-145473120D01*
X126455419Y-145595023D01*
X126624886Y-145685605D01*
X126808769Y-145741385D01*
X127000000Y-145760220D01*
X127191231Y-145741385D01*
X127375114Y-145685605D01*
X127544581Y-145595023D01*
X127693120Y-145473120D01*
X127815023Y-145324581D01*
X127905605Y-145155114D01*
X127961385Y-144971231D01*
X127980220Y-144780000D01*
X127961385Y-144588769D01*
X127905605Y-144404886D01*
X127815023Y-144235419D01*
X127693120Y-144086880D01*
X127544581Y-143964977D01*
X127439615Y-143908871D01*
X127403686Y-143865091D01*
X127400500Y-143843610D01*
X127400500Y-143176388D01*
X127422174Y-143124062D01*
X127439612Y-143111129D01*
X127544581Y-143055023D01*
X127693120Y-142933120D01*
X127815023Y-142784581D01*
X127905605Y-142615114D01*
X127961385Y-142431231D01*
X127980220Y-142240000D01*
X127961385Y-142048769D01*
X127905605Y-141864886D01*
X127815023Y-141695419D01*
X127693120Y-141546880D01*
X127544581Y-141424977D01*
X127439615Y-141368871D01*
X127403686Y-141325091D01*
X127400500Y-141303610D01*
X127400500Y-140636388D01*
X127422174Y-140584062D01*
X127439612Y-140571129D01*
X127544581Y-140515023D01*
X127693120Y-140393120D01*
X127815023Y-140244581D01*
X127905605Y-140075114D01*
X127961385Y-139891231D01*
X127980220Y-139700000D01*
X127961385Y-139508769D01*
X127905605Y-139324886D01*
X127815023Y-139155419D01*
X127693120Y-139006880D01*
X127544581Y-138884977D01*
X127375114Y-138794395D01*
X127271300Y-138762903D01*
X127191232Y-138738615D01*
X127000000Y-138719780D01*
X126808767Y-138738615D01*
X126624883Y-138794396D01*
X126472812Y-138875680D01*
X126455419Y-138884977D01*
X126455416Y-138884978D01*
X126455412Y-138884982D01*
X126306880Y-139006880D01*
X126184982Y-139155412D01*
X126184976Y-139155421D01*
X126094396Y-139324883D01*
X126038615Y-139508767D01*
X126038615Y-139508769D01*
X126019780Y-139700000D01*
X125489959Y-139700000D01*
X125470169Y-139499063D01*
X125411557Y-139305849D01*
X125316379Y-139127784D01*
X125252038Y-139049383D01*
X124914391Y-139387028D01*
X124900110Y-139362292D01*
X124797708Y-139259890D01*
X124772968Y-139245607D01*
X125110615Y-138907961D01*
X125032215Y-138843620D01*
X124854150Y-138748442D01*
X124660936Y-138689830D01*
X124460000Y-138670040D01*
X124259063Y-138689830D01*
X124065849Y-138748442D01*
X123887785Y-138843620D01*
X123809383Y-138907961D01*
X124147029Y-139245607D01*
X124122292Y-139259890D01*
X124019890Y-139362292D01*
X124005607Y-139387029D01*
X123667961Y-139049383D01*
X123603620Y-139127785D01*
X123508442Y-139305849D01*
X123449830Y-139499063D01*
X123430040Y-139700000D01*
X120850500Y-139700000D01*
X120850500Y-137160000D01*
X123479780Y-137160000D01*
X123498615Y-137351231D01*
X123554395Y-137535114D01*
X123644977Y-137704581D01*
X123766880Y-137853120D01*
X123915419Y-137975023D01*
X124084886Y-138065605D01*
X124268769Y-138121385D01*
X124460000Y-138140220D01*
X124651231Y-138121385D01*
X124835114Y-138065605D01*
X125004581Y-137975023D01*
X125153120Y-137853120D01*
X125275023Y-137704581D01*
X125365605Y-137535114D01*
X125421385Y-137351231D01*
X125440220Y-137160000D01*
X126019780Y-137160000D01*
X126038615Y-137351231D01*
X126094395Y-137535114D01*
X126184977Y-137704581D01*
X126306880Y-137853120D01*
X126455419Y-137975023D01*
X126624886Y-138065605D01*
X126808769Y-138121385D01*
X127000000Y-138140220D01*
X127191231Y-138121385D01*
X127375114Y-138065605D01*
X127544581Y-137975023D01*
X127693120Y-137853120D01*
X127815023Y-137704581D01*
X127905605Y-137535114D01*
X127961385Y-137351231D01*
X127980220Y-137160000D01*
X127961385Y-136968769D01*
X127905605Y-136784886D01*
X127815023Y-136615419D01*
X127693120Y-136466880D01*
X127544581Y-136344977D01*
X127375114Y-136254395D01*
X127271300Y-136222903D01*
X127191232Y-136198615D01*
X127000000Y-136179780D01*
X126808767Y-136198615D01*
X126624883Y-136254396D01*
X126472812Y-136335680D01*
X126455419Y-136344977D01*
X126455416Y-136344978D01*
X126455412Y-136344982D01*
X126306880Y-136466880D01*
X126184982Y-136615412D01*
X126184976Y-136615421D01*
X126094396Y-136784883D01*
X126038615Y-136968767D01*
X126038615Y-136968769D01*
X126019780Y-137160000D01*
X125440220Y-137160000D01*
X125421385Y-136968769D01*
X125365605Y-136784886D01*
X125275023Y-136615419D01*
X125153120Y-136466880D01*
X125004581Y-136344977D01*
X124835114Y-136254395D01*
X124731300Y-136222903D01*
X124651232Y-136198615D01*
X124460000Y-136179780D01*
X124268767Y-136198615D01*
X124084883Y-136254396D01*
X123932812Y-136335680D01*
X123915419Y-136344977D01*
X123915416Y-136344978D01*
X123915412Y-136344982D01*
X123766880Y-136466880D01*
X123644982Y-136615412D01*
X123644976Y-136615421D01*
X123554396Y-136784883D01*
X123498615Y-136968767D01*
X123498615Y-136968769D01*
X123479780Y-137160000D01*
X120850500Y-137160000D01*
X120850500Y-134620000D01*
X123479780Y-134620000D01*
X123498615Y-134811231D01*
X123554395Y-134995114D01*
X123644977Y-135164581D01*
X123766880Y-135313120D01*
X123915419Y-135435023D01*
X124084886Y-135525605D01*
X124268769Y-135581385D01*
X124460000Y-135600220D01*
X124651231Y-135581385D01*
X124835114Y-135525605D01*
X125004581Y-135435023D01*
X125153120Y-135313120D01*
X125275023Y-135164581D01*
X125365605Y-134995114D01*
X125421385Y-134811231D01*
X125440220Y-134620000D01*
X125421385Y-134428769D01*
X125365605Y-134244886D01*
X125275023Y-134075419D01*
X125153120Y-133926880D01*
X125004581Y-133804977D01*
X124835114Y-133714395D01*
X124731300Y-133682903D01*
X124651232Y-133658615D01*
X124460000Y-133639780D01*
X124268767Y-133658615D01*
X124084883Y-133714396D01*
X123932812Y-133795680D01*
X123915419Y-133804977D01*
X123915416Y-133804978D01*
X123915412Y-133804982D01*
X123766880Y-133926880D01*
X123644982Y-134075412D01*
X123644976Y-134075421D01*
X123554396Y-134244883D01*
X123498615Y-134428767D01*
X123498615Y-134428769D01*
X123479780Y-134620000D01*
X120850500Y-134620000D01*
X120850500Y-132080000D01*
X123479780Y-132080000D01*
X123498615Y-132271232D01*
X123511661Y-132314238D01*
X123554395Y-132455114D01*
X123644977Y-132624581D01*
X123766880Y-132773120D01*
X123915419Y-132895023D01*
X124084886Y-132985605D01*
X124268769Y-133041385D01*
X124460000Y-133060220D01*
X124651231Y-133041385D01*
X124835114Y-132985605D01*
X124924596Y-132937775D01*
X124980960Y-132932223D01*
X125011806Y-132950711D01*
X125534609Y-133473514D01*
X125534612Y-133473518D01*
X125538830Y-133477736D01*
X125602264Y-133541170D01*
X125685145Y-133575500D01*
X126589316Y-133575500D01*
X126641642Y-133597174D01*
X126663316Y-133649500D01*
X126641642Y-133701826D01*
X126624201Y-133714760D01*
X126455419Y-133804977D01*
X126455416Y-133804978D01*
X126455412Y-133804982D01*
X126306880Y-133926880D01*
X126184982Y-134075412D01*
X126184976Y-134075421D01*
X126094396Y-134244883D01*
X126038615Y-134428767D01*
X126038615Y-134428769D01*
X126019780Y-134620000D01*
X126038615Y-134811231D01*
X126094395Y-134995114D01*
X126184977Y-135164581D01*
X126306880Y-135313120D01*
X126455419Y-135435023D01*
X126624886Y-135525605D01*
X126808769Y-135581385D01*
X127000000Y-135600220D01*
X127191231Y-135581385D01*
X127375114Y-135525605D01*
X127544581Y-135435023D01*
X127693120Y-135313120D01*
X127815023Y-135164581D01*
X127905605Y-134995114D01*
X127935058Y-134898018D01*
X127970989Y-134854238D01*
X128005872Y-134845500D01*
X130745943Y-134845500D01*
X130798269Y-134867174D01*
X134054609Y-138123514D01*
X134054612Y-138123518D01*
X134058830Y-138127736D01*
X134122264Y-138191170D01*
X134156595Y-138205390D01*
X134205146Y-138225501D01*
X134205147Y-138225501D01*
X134303467Y-138225501D01*
X134303475Y-138225500D01*
X136086525Y-138225500D01*
X136086533Y-138225501D01*
X136095145Y-138225501D01*
X136184854Y-138225501D01*
X136184855Y-138225501D01*
X136243460Y-138201225D01*
X136267736Y-138191170D01*
X136331170Y-138127736D01*
X136331170Y-138127735D01*
X136341575Y-138117330D01*
X136341577Y-138117327D01*
X137680517Y-136778386D01*
X137732842Y-136756713D01*
X137762940Y-136763111D01*
X137875730Y-136813328D01*
X137875731Y-136813328D01*
X137875733Y-136813329D01*
X138050609Y-136850500D01*
X138050610Y-136850500D01*
X138229390Y-136850500D01*
X138229391Y-136850500D01*
X138404267Y-136813329D01*
X138567593Y-136740612D01*
X138712230Y-136635526D01*
X138831859Y-136502665D01*
X138921250Y-136347835D01*
X138976497Y-136177803D01*
X138995185Y-136000000D01*
X138976497Y-135822197D01*
X138921250Y-135652165D01*
X138848180Y-135525603D01*
X138831861Y-135497337D01*
X138831858Y-135497334D01*
X138712227Y-135364471D01*
X138567599Y-135259391D01*
X138567592Y-135259387D01*
X138404268Y-135186671D01*
X138404266Y-135186670D01*
X138266561Y-135157400D01*
X138229391Y-135149500D01*
X138050609Y-135149500D01*
X138019954Y-135156015D01*
X137875733Y-135186670D01*
X137875731Y-135186671D01*
X137712408Y-135259387D01*
X137712401Y-135259391D01*
X137567772Y-135364471D01*
X137448141Y-135497334D01*
X137448138Y-135497337D01*
X137358748Y-135652168D01*
X137303504Y-135822191D01*
X137284815Y-136000000D01*
X137303504Y-136177808D01*
X137358748Y-136347831D01*
X137358749Y-136347833D01*
X137358750Y-136347835D01*
X137372272Y-136371256D01*
X137379665Y-136427407D01*
X137360512Y-136460581D01*
X136068269Y-137752826D01*
X136015943Y-137774500D01*
X134374057Y-137774500D01*
X134321731Y-137752826D01*
X131071578Y-134502673D01*
X131071578Y-134502672D01*
X130997738Y-134428832D01*
X130997736Y-134428830D01*
X130973460Y-134418774D01*
X130973458Y-134418773D01*
X130973458Y-134418772D01*
X130914855Y-134394499D01*
X130825145Y-134394499D01*
X130816533Y-134394499D01*
X130816525Y-134394500D01*
X128005872Y-134394500D01*
X127953546Y-134372826D01*
X127935059Y-134341982D01*
X127905605Y-134244886D01*
X127815023Y-134075419D01*
X127693120Y-133926880D01*
X127544581Y-133804977D01*
X127375799Y-133714761D01*
X127339870Y-133670981D01*
X127345422Y-133614616D01*
X127389203Y-133578686D01*
X127410684Y-133575500D01*
X132825943Y-133575500D01*
X132878269Y-133597174D01*
X134820512Y-135539417D01*
X134842186Y-135591743D01*
X134832273Y-135628741D01*
X134818748Y-135652167D01*
X134763504Y-135822191D01*
X134744815Y-136000000D01*
X134763504Y-136177808D01*
X134818748Y-136347831D01*
X134908138Y-136502662D01*
X134908141Y-136502665D01*
X135027772Y-136635528D01*
X135172400Y-136740608D01*
X135172407Y-136740612D01*
X135335733Y-136813329D01*
X135510609Y-136850500D01*
X135510610Y-136850500D01*
X135689390Y-136850500D01*
X135689391Y-136850500D01*
X135864267Y-136813329D01*
X136027593Y-136740612D01*
X136172230Y-136635526D01*
X136291859Y-136502665D01*
X136381250Y-136347835D01*
X136436497Y-136177803D01*
X136455185Y-136000000D01*
X136436497Y-135822197D01*
X136381250Y-135652165D01*
X136308180Y-135525603D01*
X136291861Y-135497337D01*
X136291858Y-135497334D01*
X136172227Y-135364471D01*
X136027599Y-135259391D01*
X136027592Y-135259387D01*
X135864268Y-135186671D01*
X135864266Y-135186670D01*
X135726561Y-135157400D01*
X135689391Y-135149500D01*
X135510609Y-135149500D01*
X135479954Y-135156015D01*
X135335733Y-135186670D01*
X135335727Y-135186672D01*
X135222941Y-135236888D01*
X135166324Y-135238371D01*
X135140517Y-135221612D01*
X133151578Y-133232673D01*
X133151578Y-133232672D01*
X133077738Y-133158832D01*
X133077736Y-133158830D01*
X133053460Y-133148774D01*
X133053458Y-133148773D01*
X133053458Y-133148772D01*
X132994855Y-133124499D01*
X132905145Y-133124499D01*
X132896533Y-133124499D01*
X132896525Y-133124500D01*
X127410684Y-133124500D01*
X127358358Y-133102826D01*
X127336684Y-133050500D01*
X127358358Y-132998174D01*
X127375798Y-132985239D01*
X127544581Y-132895023D01*
X127693120Y-132773120D01*
X127815023Y-132624581D01*
X127905605Y-132455114D01*
X127935058Y-132358018D01*
X127970989Y-132314238D01*
X128005872Y-132305500D01*
X154716525Y-132305500D01*
X154716533Y-132305501D01*
X154725145Y-132305501D01*
X154814854Y-132305501D01*
X154814855Y-132305501D01*
X154873460Y-132281225D01*
X154897736Y-132271170D01*
X154961170Y-132207736D01*
X154961170Y-132207735D01*
X154971575Y-132197330D01*
X154971576Y-132197327D01*
X165052526Y-122116378D01*
X165104851Y-122094705D01*
X165125698Y-122097702D01*
X165135228Y-122100500D01*
X165264772Y-122100500D01*
X165389069Y-122064004D01*
X165498049Y-121993967D01*
X165582882Y-121896063D01*
X165636697Y-121778226D01*
X165655133Y-121650000D01*
X165636697Y-121521774D01*
X165582882Y-121403937D01*
X165498049Y-121306033D01*
X165431032Y-121262964D01*
X165389068Y-121235995D01*
X165264772Y-121199500D01*
X165135228Y-121199500D01*
X165010931Y-121235995D01*
X164901954Y-121306031D01*
X164901950Y-121306034D01*
X164817119Y-121403935D01*
X164763302Y-121521776D01*
X164744867Y-121649999D01*
X164756719Y-121732437D01*
X164742712Y-121787315D01*
X164735798Y-121795294D01*
X154698269Y-131832826D01*
X154645943Y-131854500D01*
X128005872Y-131854500D01*
X127953546Y-131832826D01*
X127935059Y-131801982D01*
X127905605Y-131704886D01*
X127815023Y-131535419D01*
X127693120Y-131386880D01*
X127544581Y-131264977D01*
X127375114Y-131174395D01*
X127271300Y-131142903D01*
X127191232Y-131118615D01*
X127000000Y-131099780D01*
X126808767Y-131118615D01*
X126624883Y-131174396D01*
X126472812Y-131255680D01*
X126455419Y-131264977D01*
X126455416Y-131264978D01*
X126455412Y-131264982D01*
X126306880Y-131386880D01*
X126184982Y-131535412D01*
X126184976Y-131535421D01*
X126094396Y-131704883D01*
X126038615Y-131888767D01*
X126019780Y-132080000D01*
X126038615Y-132271232D01*
X126051661Y-132314238D01*
X126094395Y-132455114D01*
X126184977Y-132624581D01*
X126306880Y-132773120D01*
X126455419Y-132895023D01*
X126624200Y-132985238D01*
X126660130Y-133029019D01*
X126654578Y-133085384D01*
X126610797Y-133121314D01*
X126589316Y-133124500D01*
X125854057Y-133124500D01*
X125801731Y-133102826D01*
X125330711Y-132631806D01*
X125309037Y-132579480D01*
X125317775Y-132544596D01*
X125322018Y-132536657D01*
X125365605Y-132455114D01*
X125421385Y-132271231D01*
X125440220Y-132080000D01*
X125421385Y-131888769D01*
X125365605Y-131704886D01*
X125275023Y-131535419D01*
X125153120Y-131386880D01*
X125004581Y-131264977D01*
X124835114Y-131174395D01*
X124731300Y-131142903D01*
X124651232Y-131118615D01*
X124460000Y-131099780D01*
X124268767Y-131118615D01*
X124084883Y-131174396D01*
X123932812Y-131255680D01*
X123915419Y-131264977D01*
X123915416Y-131264978D01*
X123915412Y-131264982D01*
X123766880Y-131386880D01*
X123644982Y-131535412D01*
X123644976Y-131535421D01*
X123554396Y-131704883D01*
X123498615Y-131888767D01*
X123479780Y-132080000D01*
X120850500Y-132080000D01*
X120850500Y-115995302D01*
X123435000Y-115995302D01*
X123435000Y-116740000D01*
X123917393Y-116740000D01*
X123910000Y-116767591D01*
X123910000Y-116912409D01*
X123917393Y-116940000D01*
X123435000Y-116940000D01*
X123435000Y-117684697D01*
X123446603Y-117743035D01*
X123490807Y-117809191D01*
X123490808Y-117809192D01*
X123556964Y-117853396D01*
X123615303Y-117865000D01*
X124360000Y-117865000D01*
X124360000Y-117382606D01*
X124387591Y-117390000D01*
X124532409Y-117390000D01*
X124560000Y-117382606D01*
X124560000Y-117865000D01*
X125304697Y-117865000D01*
X125363035Y-117853396D01*
X125429191Y-117809192D01*
X125429192Y-117809191D01*
X125473396Y-117743035D01*
X125485000Y-117684697D01*
X125485000Y-116940000D01*
X125002607Y-116940000D01*
X125010000Y-116912409D01*
X125010000Y-116767591D01*
X125002607Y-116740000D01*
X125485000Y-116740000D01*
X125485000Y-115995302D01*
X125473396Y-115936964D01*
X125429192Y-115870808D01*
X125429191Y-115870807D01*
X125363035Y-115826603D01*
X125304697Y-115815000D01*
X124560000Y-115815000D01*
X124560000Y-116297393D01*
X124532409Y-116290000D01*
X124387591Y-116290000D01*
X124360000Y-116297393D01*
X124360000Y-115815000D01*
X123615303Y-115815000D01*
X123556964Y-115826603D01*
X123490808Y-115870807D01*
X123490807Y-115870808D01*
X123446603Y-115936964D01*
X123435000Y-115995302D01*
X120850500Y-115995302D01*
X120850500Y-111760000D01*
X123479780Y-111760000D01*
X123498615Y-111951232D01*
X123506803Y-111978223D01*
X123554395Y-112135114D01*
X123644977Y-112304581D01*
X123766880Y-112453120D01*
X123915419Y-112575023D01*
X124084886Y-112665605D01*
X124268769Y-112721385D01*
X124460000Y-112740220D01*
X124651231Y-112721385D01*
X124835114Y-112665605D01*
X124924597Y-112617774D01*
X124980959Y-112612223D01*
X125011805Y-112630711D01*
X125558829Y-113177735D01*
X125558830Y-113177736D01*
X125622264Y-113241170D01*
X125705145Y-113275500D01*
X126551899Y-113275500D01*
X126604225Y-113297174D01*
X126625899Y-113349500D01*
X126604225Y-113401826D01*
X126586781Y-113414762D01*
X126455419Y-113484977D01*
X126455415Y-113484979D01*
X126455412Y-113484982D01*
X126306880Y-113606880D01*
X126184982Y-113755412D01*
X126184976Y-113755421D01*
X126094396Y-113924883D01*
X126038615Y-114108767D01*
X126019780Y-114300000D01*
X126038615Y-114491232D01*
X126051661Y-114534238D01*
X126094395Y-114675114D01*
X126184977Y-114844581D01*
X126306880Y-114993120D01*
X126455419Y-115115023D01*
X126559604Y-115170711D01*
X126586782Y-115185238D01*
X126622713Y-115229019D01*
X126617161Y-115285383D01*
X126573380Y-115321314D01*
X126551899Y-115324500D01*
X125834057Y-115324500D01*
X125781731Y-115302826D01*
X125330711Y-114851806D01*
X125309037Y-114799480D01*
X125317775Y-114764596D01*
X125328214Y-114745066D01*
X125365605Y-114675114D01*
X125421385Y-114491231D01*
X125440220Y-114300000D01*
X125421385Y-114108769D01*
X125365605Y-113924886D01*
X125275023Y-113755419D01*
X125153120Y-113606880D01*
X125004581Y-113484977D01*
X124835114Y-113394395D01*
X124731300Y-113362903D01*
X124651232Y-113338615D01*
X124460000Y-113319780D01*
X124268767Y-113338615D01*
X124084883Y-113394396D01*
X123937314Y-113473274D01*
X123915419Y-113484977D01*
X123915416Y-113484978D01*
X123915412Y-113484982D01*
X123766880Y-113606880D01*
X123644982Y-113755412D01*
X123644976Y-113755421D01*
X123554396Y-113924883D01*
X123498615Y-114108767D01*
X123479780Y-114300000D01*
X123498615Y-114491232D01*
X123511661Y-114534238D01*
X123554395Y-114675114D01*
X123644977Y-114844581D01*
X123766880Y-114993120D01*
X123915419Y-115115023D01*
X124084886Y-115205605D01*
X124268769Y-115261385D01*
X124460000Y-115280220D01*
X124651231Y-115261385D01*
X124835114Y-115205605D01*
X124924596Y-115157775D01*
X124980960Y-115152223D01*
X125011806Y-115170711D01*
X125514609Y-115673514D01*
X125514612Y-115673518D01*
X125518830Y-115677736D01*
X125582264Y-115741170D01*
X125606539Y-115751225D01*
X125665145Y-115775501D01*
X125665146Y-115775501D01*
X125763467Y-115775501D01*
X125763475Y-115775500D01*
X126649826Y-115775500D01*
X126702152Y-115797174D01*
X126723826Y-115849500D01*
X126702152Y-115901826D01*
X126671308Y-115920312D01*
X126624886Y-115934395D01*
X126624883Y-115934396D01*
X126510937Y-115995302D01*
X126455419Y-116024977D01*
X126455416Y-116024978D01*
X126455412Y-116024982D01*
X126306880Y-116146880D01*
X126184982Y-116295412D01*
X126184976Y-116295421D01*
X126094396Y-116464883D01*
X126038615Y-116648767D01*
X126019780Y-116840000D01*
X126038615Y-117031232D01*
X126051661Y-117074238D01*
X126094395Y-117215114D01*
X126184977Y-117384581D01*
X126306880Y-117533120D01*
X126455419Y-117655023D01*
X126624886Y-117745605D01*
X126808769Y-117801385D01*
X127000000Y-117820220D01*
X127191231Y-117801385D01*
X127375114Y-117745605D01*
X127544581Y-117655023D01*
X127693120Y-117533120D01*
X127815023Y-117384581D01*
X127905605Y-117215114D01*
X127935058Y-117118018D01*
X127970989Y-117074238D01*
X128005872Y-117065500D01*
X161046269Y-117065500D01*
X161098595Y-117087174D01*
X161120269Y-117139500D01*
X161098595Y-117191826D01*
X161074588Y-117207867D01*
X161072267Y-117208828D01*
X161072265Y-117208829D01*
X161072264Y-117208830D01*
X161008830Y-117272264D01*
X161008829Y-117272265D01*
X159565827Y-118715268D01*
X158128269Y-120152826D01*
X158075943Y-120174500D01*
X126033475Y-120174500D01*
X126033467Y-120174499D01*
X126024855Y-120174499D01*
X125935146Y-120174499D01*
X125886594Y-120194608D01*
X125886595Y-120194609D01*
X125852267Y-120208828D01*
X125852265Y-120208829D01*
X125788829Y-120272265D01*
X125011805Y-121049288D01*
X124959479Y-121070962D01*
X124924596Y-121062224D01*
X124835118Y-121014396D01*
X124651232Y-120958615D01*
X124460000Y-120939780D01*
X124268767Y-120958615D01*
X124084883Y-121014396D01*
X123947001Y-121088096D01*
X123915419Y-121104977D01*
X123915416Y-121104978D01*
X123915412Y-121104982D01*
X123766880Y-121226880D01*
X123644982Y-121375412D01*
X123644976Y-121375421D01*
X123554396Y-121544883D01*
X123498615Y-121728767D01*
X123479780Y-121920000D01*
X123498615Y-122111232D01*
X123509010Y-122145500D01*
X123554395Y-122295114D01*
X123644977Y-122464581D01*
X123766880Y-122613120D01*
X123915419Y-122735023D01*
X124084886Y-122825605D01*
X124268769Y-122881385D01*
X124460000Y-122900220D01*
X124651231Y-122881385D01*
X124835114Y-122825605D01*
X125004581Y-122735023D01*
X125153120Y-122613120D01*
X125275023Y-122464581D01*
X125365605Y-122295114D01*
X125421385Y-122111231D01*
X125440220Y-121920000D01*
X125421385Y-121728769D01*
X125365605Y-121544886D01*
X125317773Y-121455401D01*
X125312222Y-121399039D01*
X125330708Y-121368195D01*
X126051731Y-120647174D01*
X126104057Y-120625500D01*
X129296942Y-120625500D01*
X129349268Y-120647174D01*
X129370942Y-120699500D01*
X129349268Y-120751826D01*
X128428269Y-121672826D01*
X128375943Y-121694500D01*
X128005872Y-121694500D01*
X127953546Y-121672826D01*
X127935059Y-121641982D01*
X127905605Y-121544886D01*
X127815023Y-121375419D01*
X127693120Y-121226880D01*
X127544581Y-121104977D01*
X127375114Y-121014395D01*
X127271300Y-120982903D01*
X127191232Y-120958615D01*
X127000000Y-120939780D01*
X126808767Y-120958615D01*
X126624883Y-121014396D01*
X126487001Y-121088096D01*
X126455419Y-121104977D01*
X126455416Y-121104978D01*
X126455412Y-121104982D01*
X126306880Y-121226880D01*
X126184982Y-121375412D01*
X126184976Y-121375421D01*
X126094396Y-121544883D01*
X126038615Y-121728767D01*
X126019780Y-121920000D01*
X126038615Y-122111232D01*
X126049010Y-122145500D01*
X126094395Y-122295114D01*
X126184977Y-122464581D01*
X126306880Y-122613120D01*
X126455419Y-122735023D01*
X126624886Y-122825605D01*
X126638342Y-122829687D01*
X126682122Y-122865617D01*
X126687673Y-122921982D01*
X126651743Y-122965762D01*
X126616860Y-122974500D01*
X125773475Y-122974500D01*
X125773467Y-122974499D01*
X125764855Y-122974499D01*
X125675145Y-122974499D01*
X125616539Y-122998774D01*
X125616537Y-122998775D01*
X125616536Y-122998774D01*
X125592263Y-123008830D01*
X125528829Y-123072265D01*
X125011805Y-123589288D01*
X124959479Y-123610962D01*
X124924596Y-123602224D01*
X124835118Y-123554396D01*
X124651232Y-123498615D01*
X124460000Y-123479780D01*
X124268767Y-123498615D01*
X124084883Y-123554396D01*
X123947001Y-123628096D01*
X123915419Y-123644977D01*
X123915416Y-123644978D01*
X123915412Y-123644982D01*
X123766880Y-123766880D01*
X123644982Y-123915412D01*
X123644976Y-123915421D01*
X123554396Y-124084883D01*
X123498615Y-124268767D01*
X123498615Y-124268769D01*
X123479780Y-124460000D01*
X123498615Y-124651231D01*
X123554395Y-124835114D01*
X123644977Y-125004581D01*
X123766880Y-125153120D01*
X123915419Y-125275023D01*
X124084886Y-125365605D01*
X124268769Y-125421385D01*
X124460000Y-125440220D01*
X124651231Y-125421385D01*
X124835114Y-125365605D01*
X125004581Y-125275023D01*
X125153120Y-125153120D01*
X125275023Y-125004581D01*
X125365605Y-124835114D01*
X125421385Y-124651231D01*
X125440220Y-124460000D01*
X125421385Y-124268769D01*
X125365605Y-124084886D01*
X125317773Y-123995401D01*
X125312222Y-123939039D01*
X125330708Y-123908195D01*
X125791731Y-123447174D01*
X125844057Y-123425500D01*
X126570607Y-123425500D01*
X126622933Y-123447174D01*
X126644607Y-123499500D01*
X126622933Y-123551826D01*
X126605491Y-123564761D01*
X126455419Y-123644977D01*
X126455416Y-123644978D01*
X126455412Y-123644982D01*
X126306880Y-123766880D01*
X126184982Y-123915412D01*
X126184976Y-123915421D01*
X126094396Y-124084883D01*
X126038615Y-124268767D01*
X126038615Y-124268769D01*
X126019780Y-124460000D01*
X126038615Y-124651231D01*
X126094395Y-124835114D01*
X126184977Y-125004581D01*
X126306880Y-125153120D01*
X126455419Y-125275023D01*
X126568074Y-125335238D01*
X126604004Y-125379019D01*
X126598452Y-125435384D01*
X126554671Y-125471314D01*
X126533190Y-125474500D01*
X125813475Y-125474500D01*
X125813467Y-125474499D01*
X125804855Y-125474499D01*
X125715146Y-125474499D01*
X125666594Y-125494608D01*
X125666595Y-125494609D01*
X125632267Y-125508828D01*
X125632265Y-125508829D01*
X125568829Y-125572265D01*
X125011805Y-126129288D01*
X124959479Y-126150962D01*
X124924596Y-126142224D01*
X124835118Y-126094396D01*
X124651232Y-126038615D01*
X124460000Y-126019780D01*
X124268767Y-126038615D01*
X124084883Y-126094396D01*
X123947001Y-126168096D01*
X123915419Y-126184977D01*
X123915416Y-126184978D01*
X123915412Y-126184982D01*
X123766880Y-126306880D01*
X123644982Y-126455412D01*
X123644976Y-126455421D01*
X123554396Y-126624883D01*
X123498615Y-126808767D01*
X123479780Y-127000000D01*
X123498615Y-127191232D01*
X123511661Y-127234238D01*
X123554395Y-127375114D01*
X123644977Y-127544581D01*
X123766880Y-127693120D01*
X123915419Y-127815023D01*
X124084886Y-127905605D01*
X124268769Y-127961385D01*
X124460000Y-127980220D01*
X124651231Y-127961385D01*
X124835114Y-127905605D01*
X125004581Y-127815023D01*
X125153120Y-127693120D01*
X125275023Y-127544581D01*
X125365605Y-127375114D01*
X125421385Y-127191231D01*
X125440220Y-127000000D01*
X125421385Y-126808769D01*
X125365605Y-126624886D01*
X125317773Y-126535401D01*
X125312222Y-126479039D01*
X125330708Y-126448195D01*
X125831731Y-125947174D01*
X125884057Y-125925500D01*
X126682792Y-125925500D01*
X126735118Y-125947174D01*
X126756792Y-125999500D01*
X126735118Y-126051826D01*
X126704275Y-126070312D01*
X126624886Y-126094395D01*
X126624883Y-126094396D01*
X126487001Y-126168096D01*
X126455419Y-126184977D01*
X126455416Y-126184978D01*
X126455412Y-126184982D01*
X126306880Y-126306880D01*
X126184982Y-126455412D01*
X126184976Y-126455421D01*
X126094396Y-126624883D01*
X126038615Y-126808767D01*
X126019780Y-127000000D01*
X126038615Y-127191232D01*
X126051661Y-127234238D01*
X126094395Y-127375114D01*
X126184977Y-127544581D01*
X126306880Y-127693120D01*
X126455419Y-127815023D01*
X126585422Y-127884511D01*
X126586782Y-127885238D01*
X126622713Y-127929019D01*
X126617161Y-127985383D01*
X126573380Y-128021314D01*
X126551899Y-128024500D01*
X125705145Y-128024500D01*
X125622266Y-128058828D01*
X125622262Y-128058831D01*
X125011805Y-128669287D01*
X124959479Y-128690961D01*
X124924596Y-128682223D01*
X124835118Y-128634397D01*
X124835117Y-128634396D01*
X124835114Y-128634395D01*
X124670246Y-128584383D01*
X124651232Y-128578615D01*
X124460000Y-128559780D01*
X124268767Y-128578615D01*
X124084883Y-128634396D01*
X123995406Y-128682223D01*
X123915419Y-128724977D01*
X123915416Y-128724978D01*
X123915412Y-128724982D01*
X123766880Y-128846880D01*
X123644982Y-128995412D01*
X123644976Y-128995421D01*
X123554396Y-129164883D01*
X123498615Y-129348767D01*
X123498615Y-129348769D01*
X123479780Y-129540000D01*
X123498615Y-129731231D01*
X123554395Y-129915114D01*
X123644977Y-130084581D01*
X123766880Y-130233120D01*
X123915419Y-130355023D01*
X124084886Y-130445605D01*
X124268769Y-130501385D01*
X124460000Y-130520220D01*
X124651231Y-130501385D01*
X124835114Y-130445605D01*
X125004581Y-130355023D01*
X125153120Y-130233120D01*
X125275023Y-130084581D01*
X125365605Y-129915114D01*
X125421385Y-129731231D01*
X125440220Y-129540000D01*
X125421385Y-129348769D01*
X125365605Y-129164886D01*
X125365603Y-129164883D01*
X125365603Y-129164881D01*
X125317775Y-129075402D01*
X125312223Y-129019038D01*
X125330709Y-128988195D01*
X125821732Y-128497174D01*
X125874058Y-128475500D01*
X126649826Y-128475500D01*
X126702152Y-128497174D01*
X126723826Y-128549500D01*
X126702152Y-128601826D01*
X126671308Y-128620312D01*
X126624886Y-128634395D01*
X126624883Y-128634396D01*
X126535406Y-128682223D01*
X126455419Y-128724977D01*
X126455416Y-128724978D01*
X126455412Y-128724982D01*
X126306880Y-128846880D01*
X126184982Y-128995412D01*
X126184976Y-128995421D01*
X126094396Y-129164883D01*
X126038615Y-129348767D01*
X126038615Y-129348769D01*
X126019780Y-129540000D01*
X126038615Y-129731231D01*
X126094395Y-129915114D01*
X126184977Y-130084581D01*
X126306880Y-130233120D01*
X126455419Y-130355023D01*
X126624886Y-130445605D01*
X126808769Y-130501385D01*
X127000000Y-130520220D01*
X127191231Y-130501385D01*
X127375114Y-130445605D01*
X127544581Y-130355023D01*
X127693120Y-130233120D01*
X127815023Y-130084581D01*
X127905605Y-129915114D01*
X127961385Y-129731231D01*
X127980220Y-129540000D01*
X127961385Y-129348769D01*
X127905605Y-129164886D01*
X127905603Y-129164883D01*
X127905603Y-129164881D01*
X127857775Y-129075402D01*
X127852223Y-129019038D01*
X127870709Y-128988195D01*
X129941170Y-126917736D01*
X129975500Y-126834855D01*
X129975500Y-126745146D01*
X129975500Y-125324057D01*
X129997174Y-125271731D01*
X132121731Y-123147174D01*
X132174057Y-123125500D01*
X159096525Y-123125500D01*
X159096533Y-123125501D01*
X159105145Y-123125501D01*
X159194854Y-123125501D01*
X159194855Y-123125501D01*
X159253460Y-123101225D01*
X159277736Y-123091170D01*
X159341170Y-123027736D01*
X159341170Y-123027735D01*
X159351575Y-123017330D01*
X159351576Y-123017327D01*
X161671731Y-120697174D01*
X161724057Y-120675500D01*
X166396525Y-120675500D01*
X166396533Y-120675501D01*
X166405145Y-120675501D01*
X166494854Y-120675501D01*
X166494855Y-120675501D01*
X166553460Y-120651225D01*
X166577736Y-120641170D01*
X166641170Y-120577736D01*
X166641170Y-120577735D01*
X166651575Y-120567330D01*
X166651577Y-120567327D01*
X166867327Y-120351577D01*
X166867330Y-120351575D01*
X166877735Y-120341170D01*
X166877736Y-120341170D01*
X166941170Y-120277736D01*
X166951225Y-120253460D01*
X166963300Y-120224311D01*
X166975501Y-120194855D01*
X166975501Y-120099187D01*
X166975500Y-120099173D01*
X166975500Y-118730998D01*
X166997174Y-118678672D01*
X167009493Y-118668745D01*
X167048049Y-118643967D01*
X167132882Y-118546063D01*
X167186697Y-118428226D01*
X167205133Y-118300000D01*
X167186697Y-118171774D01*
X167132882Y-118053937D01*
X167048049Y-117956033D01*
X166981032Y-117912964D01*
X166939068Y-117885995D01*
X166814772Y-117849500D01*
X166685228Y-117849500D01*
X166560931Y-117885995D01*
X166451954Y-117956031D01*
X166451950Y-117956034D01*
X166367119Y-118053935D01*
X166313302Y-118171776D01*
X166294867Y-118300000D01*
X166313302Y-118428223D01*
X166313302Y-118428224D01*
X166313303Y-118428226D01*
X166367118Y-118546063D01*
X166451951Y-118643967D01*
X166490507Y-118668745D01*
X166522809Y-118715268D01*
X166524500Y-118730998D01*
X166524500Y-119319644D01*
X166502826Y-119371970D01*
X166450500Y-119393644D01*
X166410493Y-119381897D01*
X166339068Y-119335995D01*
X166214772Y-119299500D01*
X166085228Y-119299500D01*
X165960931Y-119335995D01*
X165851954Y-119406031D01*
X165851947Y-119406036D01*
X165771431Y-119498959D01*
X165720784Y-119524311D01*
X165715505Y-119524500D01*
X165553475Y-119524500D01*
X165553467Y-119524499D01*
X165544855Y-119524499D01*
X165455146Y-119524499D01*
X165406594Y-119544608D01*
X165406595Y-119544609D01*
X165372267Y-119558828D01*
X165372264Y-119558830D01*
X165366005Y-119565089D01*
X165313678Y-119586761D01*
X165261353Y-119565085D01*
X165239681Y-119512758D01*
X165240433Y-119502239D01*
X165255133Y-119400000D01*
X165236697Y-119271774D01*
X165182882Y-119153937D01*
X165182880Y-119153935D01*
X165182880Y-119153934D01*
X165182878Y-119153932D01*
X165136579Y-119100500D01*
X165126835Y-119089255D01*
X165108950Y-119035517D01*
X165130434Y-118988471D01*
X165191170Y-118927736D01*
X165191170Y-118927735D01*
X165201575Y-118917330D01*
X165201577Y-118917327D01*
X167367327Y-116751577D01*
X167367330Y-116751575D01*
X167377735Y-116741170D01*
X167377736Y-116741170D01*
X167441170Y-116677736D01*
X167447610Y-116662187D01*
X167458604Y-116635647D01*
X167458604Y-116635646D01*
X167461892Y-116627708D01*
X167475501Y-116594854D01*
X167475501Y-116505145D01*
X167475501Y-116499187D01*
X167475500Y-116499173D01*
X167475500Y-114324056D01*
X167497173Y-114271731D01*
X167867327Y-113901576D01*
X167867330Y-113901575D01*
X167877735Y-113891170D01*
X167877736Y-113891170D01*
X167941170Y-113827736D01*
X167966671Y-113766170D01*
X167975501Y-113744854D01*
X167975501Y-113655145D01*
X167975501Y-113649187D01*
X167975500Y-113649173D01*
X167975500Y-110774057D01*
X167997174Y-110721731D01*
X169021731Y-109697174D01*
X169074057Y-109675500D01*
X169665505Y-109675500D01*
X169717831Y-109697174D01*
X169721431Y-109701041D01*
X169801947Y-109793963D01*
X169801948Y-109793964D01*
X169801951Y-109793967D01*
X169910931Y-109864004D01*
X170035228Y-109900500D01*
X170164772Y-109900500D01*
X170289069Y-109864004D01*
X170398049Y-109793967D01*
X170482882Y-109696063D01*
X170536697Y-109578226D01*
X170555133Y-109450000D01*
X170536697Y-109321774D01*
X170482882Y-109203937D01*
X170398049Y-109106033D01*
X170331032Y-109062964D01*
X170289068Y-109035995D01*
X170164772Y-108999500D01*
X170035228Y-108999500D01*
X170035227Y-108999500D01*
X169937091Y-109028314D01*
X169880779Y-109022259D01*
X169845241Y-108978158D01*
X169851296Y-108921846D01*
X169863915Y-108904988D01*
X169902526Y-108866377D01*
X169954851Y-108844704D01*
X169975699Y-108847702D01*
X169985228Y-108850500D01*
X169985229Y-108850500D01*
X170114772Y-108850500D01*
X170239069Y-108814004D01*
X170348049Y-108743967D01*
X170432882Y-108646063D01*
X170486697Y-108528226D01*
X170505133Y-108400000D01*
X170486697Y-108271774D01*
X170432882Y-108153937D01*
X170348049Y-108056033D01*
X170239069Y-107985996D01*
X170239066Y-107985994D01*
X170239065Y-107985993D01*
X170160721Y-107962990D01*
X170116621Y-107927452D01*
X170110567Y-107871140D01*
X170129241Y-107839664D01*
X170821732Y-107147174D01*
X170874058Y-107125500D01*
X171365505Y-107125500D01*
X171417831Y-107147174D01*
X171421431Y-107151041D01*
X171501947Y-107243963D01*
X171501948Y-107243964D01*
X171501951Y-107243967D01*
X171610931Y-107314004D01*
X171735228Y-107350500D01*
X171864772Y-107350500D01*
X171989069Y-107314004D01*
X172098049Y-107243967D01*
X172182882Y-107146063D01*
X172236697Y-107028226D01*
X172255133Y-106900000D01*
X172236697Y-106771774D01*
X172182882Y-106653937D01*
X172098049Y-106556033D01*
X171993381Y-106488767D01*
X171989068Y-106485995D01*
X171864772Y-106449500D01*
X171735228Y-106449500D01*
X171610931Y-106485995D01*
X171501954Y-106556031D01*
X171501947Y-106556036D01*
X171421431Y-106648959D01*
X171370784Y-106674311D01*
X171365505Y-106674500D01*
X170705145Y-106674500D01*
X170622266Y-106708828D01*
X170451826Y-106879268D01*
X170399500Y-106900942D01*
X170347174Y-106879268D01*
X170325500Y-106826942D01*
X170325500Y-98953475D01*
X170325501Y-98953466D01*
X170325501Y-98855147D01*
X170325501Y-98855146D01*
X170303390Y-98801767D01*
X170291170Y-98772264D01*
X170227736Y-98708830D01*
X170223521Y-98704615D01*
X170223514Y-98704609D01*
X169001578Y-97482673D01*
X169001578Y-97482672D01*
X168927738Y-97408832D01*
X168927736Y-97408830D01*
X168918841Y-97405145D01*
X168903458Y-97398773D01*
X168903458Y-97398772D01*
X168844855Y-97374499D01*
X168755145Y-97374499D01*
X168746533Y-97374499D01*
X168746525Y-97374500D01*
X167041040Y-97374500D01*
X166988714Y-97352826D01*
X166968462Y-97314937D01*
X166961767Y-97281278D01*
X166928504Y-97231496D01*
X166878722Y-97198233D01*
X166834820Y-97189500D01*
X165305180Y-97189500D01*
X165283229Y-97193866D01*
X165261277Y-97198233D01*
X165211496Y-97231495D01*
X165211495Y-97231496D01*
X165178233Y-97281277D01*
X165170343Y-97320943D01*
X165169500Y-97325180D01*
X165169500Y-97874820D01*
X165178233Y-97918722D01*
X165193397Y-97941417D01*
X165205071Y-97958889D01*
X165216119Y-98014438D01*
X165205071Y-98041111D01*
X165201020Y-98047174D01*
X165178233Y-98081278D01*
X165169500Y-98125180D01*
X165169500Y-98674820D01*
X165178233Y-98718722D01*
X165192146Y-98739545D01*
X165205071Y-98758889D01*
X165216119Y-98814438D01*
X165205071Y-98841111D01*
X165186591Y-98868769D01*
X165178233Y-98881278D01*
X165169500Y-98925180D01*
X165169500Y-99474820D01*
X165178233Y-99518722D01*
X165184316Y-99527826D01*
X165205071Y-99558889D01*
X165216119Y-99614438D01*
X165205071Y-99641111D01*
X165198798Y-99650500D01*
X165178233Y-99681278D01*
X165169500Y-99725180D01*
X165169500Y-100274820D01*
X165178233Y-100318722D01*
X165193397Y-100341417D01*
X165205071Y-100358889D01*
X165216119Y-100414438D01*
X165205071Y-100441111D01*
X165178233Y-100481278D01*
X165169500Y-100525180D01*
X165169500Y-101074819D01*
X165178233Y-101118723D01*
X165181022Y-101125456D01*
X165177786Y-101126796D01*
X165186347Y-101169913D01*
X165175303Y-101196561D01*
X165131604Y-101261962D01*
X165131604Y-101261963D01*
X165120000Y-101320302D01*
X165120000Y-101500000D01*
X167020000Y-101500000D01*
X167020000Y-101320302D01*
X167008396Y-101261964D01*
X166964696Y-101196562D01*
X166953647Y-101141013D01*
X166959928Y-101125849D01*
X166958978Y-101125456D01*
X166961766Y-101118723D01*
X166961765Y-101118723D01*
X166961767Y-101118722D01*
X166968462Y-101085062D01*
X166999928Y-101037971D01*
X167041040Y-101025500D01*
X167565505Y-101025500D01*
X167617831Y-101047174D01*
X167621431Y-101051041D01*
X167701947Y-101143963D01*
X167701948Y-101143964D01*
X167701951Y-101143967D01*
X167810931Y-101214004D01*
X167935228Y-101250500D01*
X168064772Y-101250500D01*
X168189069Y-101214004D01*
X168298049Y-101143967D01*
X168382882Y-101046063D01*
X168436697Y-100928226D01*
X168455133Y-100800000D01*
X168436697Y-100671774D01*
X168382882Y-100553937D01*
X168382880Y-100553935D01*
X168380683Y-100549123D01*
X168382925Y-100548098D01*
X168374346Y-100500577D01*
X168406642Y-100454051D01*
X168462379Y-100443988D01*
X168467505Y-100445297D01*
X168485224Y-100450499D01*
X168485225Y-100450500D01*
X168485228Y-100450500D01*
X168614772Y-100450500D01*
X168739069Y-100414004D01*
X168848049Y-100343967D01*
X168932882Y-100246063D01*
X168986697Y-100128226D01*
X169005133Y-100000000D01*
X168986697Y-99871774D01*
X168932882Y-99753937D01*
X168848049Y-99656033D01*
X168760860Y-99600000D01*
X168739068Y-99585995D01*
X168614772Y-99549500D01*
X168500790Y-99549500D01*
X168448464Y-99527826D01*
X168426790Y-99475500D01*
X168433476Y-99444761D01*
X168486697Y-99328226D01*
X168505133Y-99200000D01*
X168503863Y-99191170D01*
X168486697Y-99071776D01*
X168486697Y-99071774D01*
X168433476Y-98955239D01*
X168431456Y-98898640D01*
X168470049Y-98857187D01*
X168500790Y-98850500D01*
X168614772Y-98850500D01*
X168739069Y-98814004D01*
X168848049Y-98743967D01*
X168932882Y-98646063D01*
X168986697Y-98528226D01*
X169005133Y-98400000D01*
X168990434Y-98297767D01*
X169004441Y-98242892D01*
X169053150Y-98213991D01*
X169108027Y-98227998D01*
X169116007Y-98234912D01*
X169852826Y-98971731D01*
X169874500Y-99024057D01*
X169874500Y-103526942D01*
X169852826Y-103579268D01*
X169800500Y-103600942D01*
X169748174Y-103579268D01*
X169698521Y-103529615D01*
X169698514Y-103529609D01*
X169251578Y-103082673D01*
X169251578Y-103082672D01*
X169177738Y-103008832D01*
X169177736Y-103008830D01*
X169153460Y-102998774D01*
X169153458Y-102998773D01*
X169153458Y-102998772D01*
X169094855Y-102974499D01*
X169005145Y-102974499D01*
X168996533Y-102974499D01*
X168996525Y-102974500D01*
X168307151Y-102974500D01*
X168254825Y-102952826D01*
X168233151Y-102900500D01*
X168254825Y-102848174D01*
X168286303Y-102829497D01*
X168339069Y-102814004D01*
X168448049Y-102743967D01*
X168532882Y-102646063D01*
X168586697Y-102528226D01*
X168605133Y-102400000D01*
X168586697Y-102271774D01*
X168532882Y-102153937D01*
X168448049Y-102056033D01*
X168358110Y-101998233D01*
X168339068Y-101985995D01*
X168214772Y-101949500D01*
X168085228Y-101949500D01*
X167960931Y-101985995D01*
X167851954Y-102056031D01*
X167851947Y-102056036D01*
X167771431Y-102148959D01*
X167720784Y-102174311D01*
X167715505Y-102174500D01*
X167041040Y-102174500D01*
X166988714Y-102152826D01*
X166968462Y-102114937D01*
X166961767Y-102081278D01*
X166961766Y-102081276D01*
X166958978Y-102074544D01*
X166962219Y-102073201D01*
X166953643Y-102030126D01*
X166964696Y-102003436D01*
X167008395Y-101938036D01*
X167020000Y-101879697D01*
X167020000Y-101700000D01*
X165120000Y-101700000D01*
X165120000Y-101879697D01*
X165131603Y-101938035D01*
X165175304Y-102003437D01*
X165186353Y-102058985D01*
X165180073Y-102074151D01*
X165181022Y-102074544D01*
X165178233Y-102081276D01*
X165170470Y-102120302D01*
X165169500Y-102125180D01*
X165169500Y-102674820D01*
X165178233Y-102718722D01*
X165191138Y-102738036D01*
X165205071Y-102758889D01*
X165216119Y-102814438D01*
X165205071Y-102841111D01*
X165189086Y-102865035D01*
X165178233Y-102881278D01*
X165169500Y-102925180D01*
X165169500Y-103474820D01*
X165178233Y-103518722D01*
X165188327Y-103533829D01*
X165205071Y-103558889D01*
X165216119Y-103614438D01*
X165205071Y-103641111D01*
X165195102Y-103656031D01*
X165178233Y-103681278D01*
X165169500Y-103725180D01*
X165169500Y-104274820D01*
X165178233Y-104318722D01*
X165186591Y-104331231D01*
X165205071Y-104358889D01*
X165216119Y-104414438D01*
X165205071Y-104441111D01*
X165205032Y-104441170D01*
X165178233Y-104481278D01*
X165169500Y-104525180D01*
X165169500Y-105074820D01*
X165178233Y-105118722D01*
X165184316Y-105127826D01*
X165205071Y-105158889D01*
X165216119Y-105214438D01*
X165205071Y-105241111D01*
X165198798Y-105250500D01*
X165178233Y-105281278D01*
X165169500Y-105325180D01*
X165169500Y-105874820D01*
X165178233Y-105918722D01*
X165211496Y-105968504D01*
X165261278Y-106001767D01*
X165305180Y-106010500D01*
X165305181Y-106010500D01*
X166834819Y-106010500D01*
X166834820Y-106010500D01*
X166878722Y-106001767D01*
X166928504Y-105968504D01*
X166961767Y-105918722D01*
X166968462Y-105885062D01*
X166999928Y-105837971D01*
X167041040Y-105825500D01*
X167615505Y-105825500D01*
X167667831Y-105847174D01*
X167671431Y-105851041D01*
X167751947Y-105943963D01*
X167751948Y-105943964D01*
X167751951Y-105943967D01*
X167860931Y-106014004D01*
X167985228Y-106050500D01*
X168114772Y-106050500D01*
X168212905Y-106021686D01*
X168269218Y-106027741D01*
X168304756Y-106071841D01*
X168298701Y-106128154D01*
X168286079Y-106145015D01*
X165358830Y-109072264D01*
X165353197Y-109085863D01*
X165324499Y-109155144D01*
X165324499Y-109253466D01*
X165324500Y-109253475D01*
X165324500Y-112011266D01*
X165302826Y-112063592D01*
X165250500Y-112085266D01*
X165198174Y-112063592D01*
X165194575Y-112059726D01*
X165148053Y-112006037D01*
X165148050Y-112006035D01*
X165148049Y-112006033D01*
X165148046Y-112006031D01*
X165109491Y-111981252D01*
X165077191Y-111934728D01*
X165075500Y-111919000D01*
X165075500Y-110005145D01*
X165075499Y-110005143D01*
X165041171Y-109922266D01*
X165041169Y-109922263D01*
X164973521Y-109854615D01*
X164973514Y-109854609D01*
X164267174Y-109148269D01*
X164245500Y-109095943D01*
X164245500Y-108621040D01*
X164267174Y-108568714D01*
X164305061Y-108548462D01*
X164338722Y-108541767D01*
X164388504Y-108508504D01*
X164421767Y-108458722D01*
X164430500Y-108414820D01*
X164430500Y-106885180D01*
X164421767Y-106841278D01*
X164388504Y-106791496D01*
X164378888Y-106785071D01*
X164338722Y-106758233D01*
X164294820Y-106749500D01*
X163745180Y-106749500D01*
X163701278Y-106758233D01*
X163661111Y-106785071D01*
X163605562Y-106796119D01*
X163578889Y-106785071D01*
X163558988Y-106771774D01*
X163538722Y-106758233D01*
X163494820Y-106749500D01*
X162945180Y-106749500D01*
X162901278Y-106758233D01*
X162861111Y-106785071D01*
X162805562Y-106796119D01*
X162778889Y-106785071D01*
X162758988Y-106771774D01*
X162738722Y-106758233D01*
X162694820Y-106749500D01*
X162145180Y-106749500D01*
X162101278Y-106758233D01*
X162061111Y-106785071D01*
X162005562Y-106796119D01*
X161978889Y-106785071D01*
X161958988Y-106771774D01*
X161938722Y-106758233D01*
X161894820Y-106749500D01*
X161345180Y-106749500D01*
X161301278Y-106758233D01*
X161261111Y-106785071D01*
X161205562Y-106796119D01*
X161178889Y-106785071D01*
X161158988Y-106771774D01*
X161138722Y-106758233D01*
X161094820Y-106749500D01*
X160545180Y-106749500D01*
X160501278Y-106758233D01*
X160461111Y-106785071D01*
X160405562Y-106796119D01*
X160378889Y-106785071D01*
X160358988Y-106771774D01*
X160338722Y-106758233D01*
X160294820Y-106749500D01*
X159745180Y-106749500D01*
X159701278Y-106758233D01*
X159661111Y-106785071D01*
X159605562Y-106796119D01*
X159578889Y-106785071D01*
X159558988Y-106771774D01*
X159538722Y-106758233D01*
X159494820Y-106749500D01*
X158945180Y-106749500D01*
X158901278Y-106758233D01*
X158861111Y-106785071D01*
X158805562Y-106796119D01*
X158778889Y-106785071D01*
X158758988Y-106771774D01*
X158738722Y-106758233D01*
X158694820Y-106749500D01*
X158145180Y-106749500D01*
X158101278Y-106758233D01*
X158061111Y-106785071D01*
X158005562Y-106796119D01*
X157978889Y-106785071D01*
X157958988Y-106771774D01*
X157938722Y-106758233D01*
X157894820Y-106749500D01*
X157345180Y-106749500D01*
X157301278Y-106758233D01*
X157261111Y-106785071D01*
X157205562Y-106796119D01*
X157178889Y-106785071D01*
X157158988Y-106771774D01*
X157138722Y-106758233D01*
X157094820Y-106749500D01*
X156545180Y-106749500D01*
X156501278Y-106758233D01*
X156461111Y-106785071D01*
X156405562Y-106796119D01*
X156378889Y-106785071D01*
X156358988Y-106771774D01*
X156338722Y-106758233D01*
X156294820Y-106749500D01*
X155745180Y-106749500D01*
X155723229Y-106753866D01*
X155701277Y-106758233D01*
X155651496Y-106791495D01*
X155651495Y-106791496D01*
X155618233Y-106841277D01*
X155610676Y-106879268D01*
X155609500Y-106885180D01*
X155609500Y-108414820D01*
X155618233Y-108458722D01*
X155651496Y-108508504D01*
X155701278Y-108541767D01*
X155714937Y-108544484D01*
X155762027Y-108575947D01*
X155774500Y-108617061D01*
X155774500Y-112569000D01*
X155752826Y-112621326D01*
X155740509Y-112631252D01*
X155701953Y-112656031D01*
X155701950Y-112656034D01*
X155617119Y-112753935D01*
X155617118Y-112753936D01*
X155617118Y-112753937D01*
X155595853Y-112800500D01*
X155563302Y-112871776D01*
X155544867Y-113000000D01*
X155563302Y-113128223D01*
X155563302Y-113128224D01*
X155563303Y-113128226D01*
X155617118Y-113246063D01*
X155701951Y-113343967D01*
X155810931Y-113414004D01*
X155935228Y-113450500D01*
X156064772Y-113450500D01*
X156189069Y-113414004D01*
X156298049Y-113343967D01*
X156382882Y-113246063D01*
X156419812Y-113165198D01*
X161175000Y-113165198D01*
X161177771Y-113194756D01*
X161177772Y-113194761D01*
X161221329Y-113319238D01*
X161221330Y-113319240D01*
X161299642Y-113425350D01*
X161299649Y-113425357D01*
X161405759Y-113503669D01*
X161405761Y-113503670D01*
X161530238Y-113547227D01*
X161530243Y-113547228D01*
X161559801Y-113549999D01*
X161559803Y-113550000D01*
X161750000Y-113550000D01*
X161950000Y-113550000D01*
X162140197Y-113550000D01*
X162140198Y-113549999D01*
X162169756Y-113547228D01*
X162169761Y-113547227D01*
X162294238Y-113503670D01*
X162294240Y-113503669D01*
X162400350Y-113425357D01*
X162400357Y-113425350D01*
X162478669Y-113319240D01*
X162478670Y-113319238D01*
X162522227Y-113194761D01*
X162522228Y-113194756D01*
X162524999Y-113165198D01*
X162725000Y-113165198D01*
X162727771Y-113194756D01*
X162727772Y-113194761D01*
X162771329Y-113319238D01*
X162771330Y-113319240D01*
X162849642Y-113425350D01*
X162849649Y-113425357D01*
X162955759Y-113503669D01*
X162955761Y-113503670D01*
X163080238Y-113547227D01*
X163080243Y-113547228D01*
X163109801Y-113549999D01*
X163109803Y-113550000D01*
X163300000Y-113550000D01*
X163300000Y-112912500D01*
X162725000Y-112912500D01*
X162725000Y-113165198D01*
X162524999Y-113165198D01*
X162525000Y-113165197D01*
X162525000Y-112912500D01*
X161950000Y-112912500D01*
X161950000Y-113550000D01*
X161750000Y-113550000D01*
X161750000Y-112912500D01*
X161175000Y-112912500D01*
X161175000Y-113165198D01*
X156419812Y-113165198D01*
X156436697Y-113128226D01*
X156455133Y-113000000D01*
X156436697Y-112871774D01*
X156399346Y-112789989D01*
X156397326Y-112733390D01*
X156435919Y-112691937D01*
X156492520Y-112689916D01*
X156506657Y-112696991D01*
X156610931Y-112764004D01*
X156735228Y-112800500D01*
X156864772Y-112800500D01*
X156989069Y-112764004D01*
X157098049Y-112693967D01*
X157182882Y-112596063D01*
X157236697Y-112478226D01*
X157236918Y-112476685D01*
X157237377Y-112475912D01*
X157238190Y-112473144D01*
X157238896Y-112473351D01*
X157265814Y-112427974D01*
X157320690Y-112413962D01*
X157350171Y-112424956D01*
X157410931Y-112464004D01*
X157535228Y-112500500D01*
X157664772Y-112500500D01*
X157789069Y-112464004D01*
X157898049Y-112393967D01*
X157982882Y-112296063D01*
X158010469Y-112235655D01*
X158051920Y-112197063D01*
X158108521Y-112199084D01*
X158117774Y-112204135D01*
X158210931Y-112264004D01*
X158335228Y-112300500D01*
X158464772Y-112300500D01*
X158589069Y-112264004D01*
X158698049Y-112193967D01*
X158782882Y-112096063D01*
X158836697Y-111978226D01*
X158855133Y-111850000D01*
X158836697Y-111721774D01*
X158831667Y-111710762D01*
X158829645Y-111654162D01*
X158868238Y-111612709D01*
X158924839Y-111610686D01*
X158938979Y-111617763D01*
X159010931Y-111664004D01*
X159135228Y-111700500D01*
X159264772Y-111700500D01*
X159389069Y-111664004D01*
X159498049Y-111593967D01*
X159582882Y-111496063D01*
X159592815Y-111474311D01*
X159634267Y-111435718D01*
X159690868Y-111437739D01*
X159700136Y-111442799D01*
X159701947Y-111443963D01*
X159701951Y-111443967D01*
X159810931Y-111514004D01*
X159935228Y-111550500D01*
X160064772Y-111550500D01*
X160189069Y-111514004D01*
X160298049Y-111443967D01*
X160382882Y-111346063D01*
X160436697Y-111228226D01*
X160455133Y-111100000D01*
X160436697Y-110971774D01*
X160431667Y-110960762D01*
X160429645Y-110904162D01*
X160468238Y-110862709D01*
X160524839Y-110860686D01*
X160538979Y-110867763D01*
X160610931Y-110914004D01*
X160735228Y-110950500D01*
X160751942Y-110950500D01*
X160804268Y-110972174D01*
X160825942Y-111024500D01*
X160804268Y-111076826D01*
X160758830Y-111122263D01*
X160753835Y-111134323D01*
X160724499Y-111205144D01*
X160724499Y-111303466D01*
X160724500Y-111303475D01*
X160724500Y-111469000D01*
X160702826Y-111521326D01*
X160690509Y-111531252D01*
X160651953Y-111556031D01*
X160651952Y-111556032D01*
X160651951Y-111556033D01*
X160610443Y-111603937D01*
X160567119Y-111653935D01*
X160567118Y-111653936D01*
X160567118Y-111653937D01*
X160562521Y-111664004D01*
X160513302Y-111771776D01*
X160494867Y-111900000D01*
X160513302Y-112028223D01*
X160513302Y-112028224D01*
X160513303Y-112028226D01*
X160567118Y-112146063D01*
X160651951Y-112243967D01*
X160760931Y-112314004D01*
X160885228Y-112350500D01*
X161014774Y-112350500D01*
X161059089Y-112337487D01*
X161089231Y-112328637D01*
X161145544Y-112334691D01*
X161181082Y-112378790D01*
X161179929Y-112424075D01*
X161177773Y-112430237D01*
X161177771Y-112430243D01*
X161175000Y-112459801D01*
X161175000Y-112712500D01*
X161750000Y-112712500D01*
X161950000Y-112712500D01*
X162525000Y-112712500D01*
X162525000Y-112459803D01*
X162524999Y-112459801D01*
X162725000Y-112459801D01*
X162725000Y-112712500D01*
X163300000Y-112712500D01*
X163300000Y-112075000D01*
X163109801Y-112075000D01*
X163080243Y-112077771D01*
X163080238Y-112077772D01*
X162955761Y-112121329D01*
X162955759Y-112121330D01*
X162849649Y-112199642D01*
X162849642Y-112199649D01*
X162771330Y-112305759D01*
X162771329Y-112305761D01*
X162727772Y-112430238D01*
X162727771Y-112430243D01*
X162725000Y-112459801D01*
X162524999Y-112459801D01*
X162522228Y-112430243D01*
X162522227Y-112430238D01*
X162478670Y-112305761D01*
X162478669Y-112305759D01*
X162400357Y-112199649D01*
X162400350Y-112199642D01*
X162294240Y-112121330D01*
X162294238Y-112121329D01*
X162169761Y-112077772D01*
X162169756Y-112077771D01*
X162140198Y-112075000D01*
X161950000Y-112075000D01*
X161950000Y-112712500D01*
X161750000Y-112712500D01*
X161750000Y-112075000D01*
X161559801Y-112075000D01*
X161530243Y-112077771D01*
X161530242Y-112077771D01*
X161486622Y-112093035D01*
X161430074Y-112089858D01*
X161392334Y-112047627D01*
X161388935Y-112012658D01*
X161405133Y-111900000D01*
X161396884Y-111842630D01*
X161410891Y-111787755D01*
X161459599Y-111758854D01*
X161485218Y-111761057D01*
X161485355Y-111760198D01*
X161491106Y-111761108D01*
X161491107Y-111761109D01*
X161581967Y-111775500D01*
X162118032Y-111775499D01*
X162208893Y-111761109D01*
X162318403Y-111705311D01*
X162405311Y-111618403D01*
X162461109Y-111508893D01*
X162475500Y-111418033D01*
X162475500Y-111387000D01*
X162497174Y-111334674D01*
X162549500Y-111313000D01*
X162700501Y-111313000D01*
X162752827Y-111334674D01*
X162774501Y-111387000D01*
X162774501Y-111418032D01*
X162788891Y-111508894D01*
X162788892Y-111508897D01*
X162844687Y-111618401D01*
X162844689Y-111618403D01*
X162931597Y-111705311D01*
X163041107Y-111761109D01*
X163131967Y-111775500D01*
X163668032Y-111775499D01*
X163758893Y-111761109D01*
X163868403Y-111705311D01*
X163898174Y-111675540D01*
X163950500Y-111653866D01*
X164002826Y-111675540D01*
X164024500Y-111727866D01*
X164024500Y-112107782D01*
X164002826Y-112160108D01*
X163950500Y-112181782D01*
X163906558Y-112167323D01*
X163844237Y-112121328D01*
X163719761Y-112077772D01*
X163719756Y-112077771D01*
X163690198Y-112075000D01*
X163500000Y-112075000D01*
X163500000Y-113550000D01*
X163690197Y-113550000D01*
X163690198Y-113549999D01*
X163719756Y-113547228D01*
X163719761Y-113547227D01*
X163844237Y-113503670D01*
X163906557Y-113457677D01*
X163961529Y-113444044D01*
X164010040Y-113473274D01*
X164024500Y-113517217D01*
X164024500Y-113875943D01*
X164002826Y-113928269D01*
X163728269Y-114202826D01*
X163675943Y-114224500D01*
X160524058Y-114224500D01*
X160471732Y-114202826D01*
X160201578Y-113932673D01*
X160201578Y-113932672D01*
X160127737Y-113858831D01*
X160127733Y-113858828D01*
X160093997Y-113844855D01*
X160044855Y-113824499D01*
X159955145Y-113824499D01*
X159946533Y-113824499D01*
X159946525Y-113824500D01*
X149424058Y-113824500D01*
X149371732Y-113802826D01*
X148151578Y-112582673D01*
X148151578Y-112582672D01*
X148077738Y-112508832D01*
X148077736Y-112508830D01*
X148075709Y-112507990D01*
X148053458Y-112498773D01*
X148053458Y-112498772D01*
X147994855Y-112474499D01*
X147905145Y-112474499D01*
X147896533Y-112474499D01*
X147896525Y-112474500D01*
X130014057Y-112474500D01*
X129961731Y-112452826D01*
X129151578Y-111642673D01*
X129151578Y-111642672D01*
X129077737Y-111568831D01*
X129077733Y-111568828D01*
X129046841Y-111556033D01*
X128994855Y-111534499D01*
X128905145Y-111534499D01*
X128896533Y-111534499D01*
X128896525Y-111534500D01*
X128005872Y-111534500D01*
X127953546Y-111512826D01*
X127935059Y-111481982D01*
X127905605Y-111384886D01*
X127815023Y-111215419D01*
X127693120Y-111066880D01*
X127544581Y-110944977D01*
X127375114Y-110854395D01*
X127258432Y-110819000D01*
X127191232Y-110798615D01*
X127000000Y-110779780D01*
X126808767Y-110798615D01*
X126624883Y-110854396D01*
X126516630Y-110912259D01*
X126455419Y-110944977D01*
X126455416Y-110944978D01*
X126455412Y-110944982D01*
X126306880Y-111066880D01*
X126184982Y-111215412D01*
X126184976Y-111215421D01*
X126094396Y-111384883D01*
X126038615Y-111568767D01*
X126019780Y-111760000D01*
X126038615Y-111951232D01*
X126046803Y-111978223D01*
X126094395Y-112135114D01*
X126184977Y-112304581D01*
X126306880Y-112453120D01*
X126455419Y-112575023D01*
X126624886Y-112665605D01*
X126671308Y-112679686D01*
X126715088Y-112715617D01*
X126720640Y-112771981D01*
X126684709Y-112815762D01*
X126649826Y-112824500D01*
X125874058Y-112824500D01*
X125821732Y-112802826D01*
X125330711Y-112311805D01*
X125309037Y-112259479D01*
X125317774Y-112224598D01*
X125365605Y-112135114D01*
X125421385Y-111951231D01*
X125440220Y-111760000D01*
X125421385Y-111568769D01*
X125365605Y-111384886D01*
X125275023Y-111215419D01*
X125153120Y-111066880D01*
X125004581Y-110944977D01*
X124835114Y-110854395D01*
X124718432Y-110819000D01*
X124651232Y-110798615D01*
X124460000Y-110779780D01*
X124268767Y-110798615D01*
X124084883Y-110854396D01*
X123976630Y-110912259D01*
X123915419Y-110944977D01*
X123915416Y-110944978D01*
X123915412Y-110944982D01*
X123766880Y-111066880D01*
X123644982Y-111215412D01*
X123644976Y-111215421D01*
X123554396Y-111384883D01*
X123498615Y-111568767D01*
X123479780Y-111760000D01*
X120850500Y-111760000D01*
X120850500Y-109220000D01*
X123479780Y-109220000D01*
X123498378Y-109408830D01*
X123498615Y-109411231D01*
X123554395Y-109595114D01*
X123644977Y-109764581D01*
X123766880Y-109913120D01*
X123915419Y-110035023D01*
X124084886Y-110125605D01*
X124268769Y-110181385D01*
X124460000Y-110200220D01*
X124651231Y-110181385D01*
X124835114Y-110125605D01*
X125004581Y-110035023D01*
X125153120Y-109913120D01*
X125275023Y-109764581D01*
X125365605Y-109595114D01*
X125421385Y-109411231D01*
X125440220Y-109220000D01*
X126019780Y-109220000D01*
X126038378Y-109408830D01*
X126038615Y-109411231D01*
X126094395Y-109595114D01*
X126184977Y-109764581D01*
X126306880Y-109913120D01*
X126455419Y-110035023D01*
X126624886Y-110125605D01*
X126808769Y-110181385D01*
X127000000Y-110200220D01*
X127191231Y-110181385D01*
X127375114Y-110125605D01*
X127544581Y-110035023D01*
X127693120Y-109913120D01*
X127815023Y-109764581D01*
X127905605Y-109595114D01*
X127961385Y-109411231D01*
X127980220Y-109220000D01*
X127961385Y-109028769D01*
X127905605Y-108844886D01*
X127815023Y-108675419D01*
X127693120Y-108526880D01*
X127544581Y-108404977D01*
X127375114Y-108314395D01*
X127271300Y-108282903D01*
X127191232Y-108258615D01*
X127000000Y-108239780D01*
X126808767Y-108258615D01*
X126624883Y-108314396D01*
X126472812Y-108395680D01*
X126455419Y-108404977D01*
X126455416Y-108404978D01*
X126455412Y-108404982D01*
X126306880Y-108526880D01*
X126184982Y-108675412D01*
X126184976Y-108675421D01*
X126094396Y-108844883D01*
X126038615Y-109028767D01*
X126019780Y-109220000D01*
X125440220Y-109220000D01*
X125421385Y-109028769D01*
X125365605Y-108844886D01*
X125275023Y-108675419D01*
X125153120Y-108526880D01*
X125004581Y-108404977D01*
X124835114Y-108314395D01*
X124731300Y-108282903D01*
X124651232Y-108258615D01*
X124460000Y-108239780D01*
X124268767Y-108258615D01*
X124084883Y-108314396D01*
X123932812Y-108395680D01*
X123915419Y-108404977D01*
X123915416Y-108404978D01*
X123915412Y-108404982D01*
X123766880Y-108526880D01*
X123644982Y-108675412D01*
X123644976Y-108675421D01*
X123554396Y-108844883D01*
X123498615Y-109028767D01*
X123479780Y-109220000D01*
X120850500Y-109220000D01*
X120850500Y-106680000D01*
X123479780Y-106680000D01*
X123498615Y-106871232D01*
X123515077Y-106925500D01*
X123554395Y-107055114D01*
X123644977Y-107224581D01*
X123766880Y-107373120D01*
X123915419Y-107495023D01*
X124084886Y-107585605D01*
X124268769Y-107641385D01*
X124460000Y-107660220D01*
X124651231Y-107641385D01*
X124835114Y-107585605D01*
X125004581Y-107495023D01*
X125153120Y-107373120D01*
X125275023Y-107224581D01*
X125365605Y-107055114D01*
X125421385Y-106871231D01*
X125440220Y-106680000D01*
X126019780Y-106680000D01*
X126038615Y-106871232D01*
X126055077Y-106925500D01*
X126094395Y-107055114D01*
X126184977Y-107224581D01*
X126306880Y-107373120D01*
X126455419Y-107495023D01*
X126624886Y-107585605D01*
X126808769Y-107641385D01*
X127000000Y-107660220D01*
X127191231Y-107641385D01*
X127375114Y-107585605D01*
X127544581Y-107495023D01*
X127693120Y-107373120D01*
X127815023Y-107224581D01*
X127905605Y-107055114D01*
X127961385Y-106871231D01*
X127980220Y-106680000D01*
X127961385Y-106488769D01*
X127905605Y-106304886D01*
X127815023Y-106135419D01*
X127693120Y-105986880D01*
X127544581Y-105864977D01*
X127375114Y-105774395D01*
X127271300Y-105742903D01*
X127191232Y-105718615D01*
X127000000Y-105699780D01*
X126808767Y-105718615D01*
X126624883Y-105774396D01*
X126488726Y-105847174D01*
X126455419Y-105864977D01*
X126455416Y-105864978D01*
X126455412Y-105864982D01*
X126306880Y-105986880D01*
X126184982Y-106135412D01*
X126184976Y-106135421D01*
X126094396Y-106304883D01*
X126038615Y-106488767D01*
X126019780Y-106680000D01*
X125440220Y-106680000D01*
X125421385Y-106488769D01*
X125365605Y-106304886D01*
X125275023Y-106135419D01*
X125153120Y-105986880D01*
X125004581Y-105864977D01*
X124835114Y-105774395D01*
X124731300Y-105742903D01*
X124651232Y-105718615D01*
X124460000Y-105699780D01*
X124268767Y-105718615D01*
X124084883Y-105774396D01*
X123948726Y-105847174D01*
X123915419Y-105864977D01*
X123915416Y-105864978D01*
X123915412Y-105864982D01*
X123766880Y-105986880D01*
X123644982Y-106135412D01*
X123644976Y-106135421D01*
X123554396Y-106304883D01*
X123498615Y-106488767D01*
X123479780Y-106680000D01*
X120850500Y-106680000D01*
X120850500Y-104140000D01*
X123430040Y-104140000D01*
X123449830Y-104340936D01*
X123508442Y-104534150D01*
X123603620Y-104712215D01*
X123667961Y-104790615D01*
X124005607Y-104452968D01*
X124019890Y-104477708D01*
X124122292Y-104580110D01*
X124147029Y-104594391D01*
X123809383Y-104932038D01*
X123887784Y-104996379D01*
X124065849Y-105091557D01*
X124259063Y-105150169D01*
X124460000Y-105169959D01*
X124660936Y-105150169D01*
X124854150Y-105091557D01*
X125032215Y-104996379D01*
X125110615Y-104932038D01*
X124772970Y-104594392D01*
X124797708Y-104580110D01*
X124900110Y-104477708D01*
X124914392Y-104452969D01*
X125252038Y-104790615D01*
X125316379Y-104712215D01*
X125411557Y-104534150D01*
X125470169Y-104340936D01*
X125489959Y-104140000D01*
X126019780Y-104140000D01*
X126038615Y-104331232D01*
X126050528Y-104370503D01*
X126094395Y-104515114D01*
X126184977Y-104684581D01*
X126306880Y-104833120D01*
X126455419Y-104955023D01*
X126624886Y-105045605D01*
X126808769Y-105101385D01*
X127000000Y-105120220D01*
X127191231Y-105101385D01*
X127375114Y-105045605D01*
X127544581Y-104955023D01*
X127693120Y-104833120D01*
X127815023Y-104684581D01*
X127905605Y-104515114D01*
X127961385Y-104331231D01*
X127980220Y-104140000D01*
X127961385Y-103948769D01*
X127905605Y-103764886D01*
X127815023Y-103595419D01*
X127693120Y-103446880D01*
X127544581Y-103324977D01*
X127375114Y-103234395D01*
X127271300Y-103202903D01*
X127191232Y-103178615D01*
X127000000Y-103159780D01*
X126808767Y-103178615D01*
X126624883Y-103234396D01*
X126472812Y-103315680D01*
X126455419Y-103324977D01*
X126455416Y-103324978D01*
X126455412Y-103324982D01*
X126306880Y-103446880D01*
X126184982Y-103595412D01*
X126184976Y-103595421D01*
X126094396Y-103764883D01*
X126038615Y-103948767D01*
X126019780Y-104140000D01*
X125489959Y-104140000D01*
X125470169Y-103939063D01*
X125411557Y-103745849D01*
X125316379Y-103567784D01*
X125252038Y-103489383D01*
X124914391Y-103827028D01*
X124900110Y-103802292D01*
X124797708Y-103699890D01*
X124772968Y-103685607D01*
X125110615Y-103347961D01*
X125032215Y-103283620D01*
X124854150Y-103188442D01*
X124660936Y-103129830D01*
X124460000Y-103110040D01*
X124259063Y-103129830D01*
X124065849Y-103188442D01*
X123887785Y-103283620D01*
X123809383Y-103347961D01*
X124147029Y-103685607D01*
X124122292Y-103699890D01*
X124019890Y-103802292D01*
X124005607Y-103827029D01*
X123667961Y-103489383D01*
X123603620Y-103567785D01*
X123508442Y-103745849D01*
X123449830Y-103939063D01*
X123430040Y-104140000D01*
X120850500Y-104140000D01*
X120850500Y-101600000D01*
X123479780Y-101600000D01*
X123498615Y-101791231D01*
X123554395Y-101975114D01*
X123644977Y-102144581D01*
X123766880Y-102293120D01*
X123915419Y-102415023D01*
X124084886Y-102505605D01*
X124268769Y-102561385D01*
X124460000Y-102580220D01*
X124651231Y-102561385D01*
X124835114Y-102505605D01*
X125004581Y-102415023D01*
X125153120Y-102293120D01*
X125275023Y-102144581D01*
X125365605Y-101975114D01*
X125421385Y-101791231D01*
X125440220Y-101600000D01*
X126019780Y-101600000D01*
X126038615Y-101791231D01*
X126094395Y-101975114D01*
X126184977Y-102144581D01*
X126306880Y-102293120D01*
X126455419Y-102415023D01*
X126624886Y-102505605D01*
X126808769Y-102561385D01*
X127000000Y-102580220D01*
X127191231Y-102561385D01*
X127375114Y-102505605D01*
X127544581Y-102415023D01*
X127693120Y-102293120D01*
X127815023Y-102144581D01*
X127905605Y-101975114D01*
X127961385Y-101791231D01*
X127980220Y-101600000D01*
X127961385Y-101408769D01*
X127905605Y-101224886D01*
X127815023Y-101055419D01*
X127693120Y-100906880D01*
X127544581Y-100784977D01*
X127375114Y-100694395D01*
X127271300Y-100662903D01*
X127191232Y-100638615D01*
X127000000Y-100619780D01*
X126808767Y-100638615D01*
X126624883Y-100694396D01*
X126472812Y-100775680D01*
X126455419Y-100784977D01*
X126455416Y-100784978D01*
X126455412Y-100784982D01*
X126306880Y-100906880D01*
X126184982Y-101055412D01*
X126184976Y-101055421D01*
X126094396Y-101224883D01*
X126038615Y-101408767D01*
X126038615Y-101408769D01*
X126019780Y-101600000D01*
X125440220Y-101600000D01*
X125421385Y-101408769D01*
X125365605Y-101224886D01*
X125275023Y-101055419D01*
X125153120Y-100906880D01*
X125004581Y-100784977D01*
X124835114Y-100694395D01*
X124731300Y-100662903D01*
X124651232Y-100638615D01*
X124460000Y-100619780D01*
X124268767Y-100638615D01*
X124084883Y-100694396D01*
X123932812Y-100775680D01*
X123915419Y-100784977D01*
X123915416Y-100784978D01*
X123915412Y-100784982D01*
X123766880Y-100906880D01*
X123644982Y-101055412D01*
X123644976Y-101055421D01*
X123554396Y-101224883D01*
X123498615Y-101408767D01*
X123498615Y-101408769D01*
X123479780Y-101600000D01*
X120850500Y-101600000D01*
X120850500Y-99060000D01*
X123479780Y-99060000D01*
X123498615Y-99251231D01*
X123554395Y-99435114D01*
X123644977Y-99604581D01*
X123766880Y-99753120D01*
X123915419Y-99875023D01*
X124084886Y-99965605D01*
X124268769Y-100021385D01*
X124460000Y-100040220D01*
X124651231Y-100021385D01*
X124835114Y-99965605D01*
X125004581Y-99875023D01*
X125153120Y-99753120D01*
X125275023Y-99604581D01*
X125365605Y-99435114D01*
X125421385Y-99251231D01*
X125440220Y-99060000D01*
X125421385Y-98868769D01*
X125365605Y-98684886D01*
X125275023Y-98515419D01*
X125153120Y-98366880D01*
X125004581Y-98244977D01*
X124835114Y-98154395D01*
X124705038Y-98114937D01*
X124651232Y-98098615D01*
X124460000Y-98079780D01*
X124268767Y-98098615D01*
X124181195Y-98125180D01*
X124090059Y-98152826D01*
X124084883Y-98154396D01*
X123947184Y-98227998D01*
X123915419Y-98244977D01*
X123915416Y-98244978D01*
X123915412Y-98244982D01*
X123766880Y-98366880D01*
X123644982Y-98515412D01*
X123644978Y-98515416D01*
X123644977Y-98515419D01*
X123638393Y-98527736D01*
X123554396Y-98684883D01*
X123498615Y-98868767D01*
X123488474Y-98971731D01*
X123479780Y-99060000D01*
X120850500Y-99060000D01*
X120850500Y-93980000D01*
X123430040Y-93980000D01*
X123449830Y-94180936D01*
X123508442Y-94374150D01*
X123603620Y-94552215D01*
X123667961Y-94630615D01*
X124005607Y-94292968D01*
X124019890Y-94317708D01*
X124122292Y-94420110D01*
X124147029Y-94434391D01*
X123809383Y-94772038D01*
X123887784Y-94836379D01*
X124065849Y-94931557D01*
X124259063Y-94990169D01*
X124460000Y-95009959D01*
X124660936Y-94990169D01*
X124854150Y-94931557D01*
X125032215Y-94836379D01*
X125110615Y-94772038D01*
X124772970Y-94434392D01*
X124797708Y-94420110D01*
X124900110Y-94317708D01*
X124914392Y-94292969D01*
X125252038Y-94630615D01*
X125316379Y-94552215D01*
X125411557Y-94374150D01*
X125470169Y-94180936D01*
X125489959Y-93980000D01*
X125470169Y-93779063D01*
X125411557Y-93585849D01*
X125316379Y-93407784D01*
X125252038Y-93329383D01*
X124914391Y-93667028D01*
X124900110Y-93642292D01*
X124797708Y-93539890D01*
X124772968Y-93525607D01*
X125110615Y-93187961D01*
X125032215Y-93123620D01*
X124854150Y-93028442D01*
X124660936Y-92969830D01*
X124460000Y-92950040D01*
X124259063Y-92969830D01*
X124065849Y-93028442D01*
X123887785Y-93123620D01*
X123809383Y-93187961D01*
X124147029Y-93525607D01*
X124122292Y-93539890D01*
X124019890Y-93642292D01*
X124005607Y-93667029D01*
X123667961Y-93329383D01*
X123603620Y-93407785D01*
X123508442Y-93585849D01*
X123449830Y-93779063D01*
X123430040Y-93980000D01*
X120850500Y-93980000D01*
X120850500Y-76200000D01*
X123479780Y-76200000D01*
X123498615Y-76391231D01*
X123554395Y-76575114D01*
X123644977Y-76744581D01*
X123766880Y-76893120D01*
X123915419Y-77015023D01*
X124084886Y-77105605D01*
X124268769Y-77161385D01*
X124460000Y-77180220D01*
X124651231Y-77161385D01*
X124835114Y-77105605D01*
X124924596Y-77057775D01*
X124980960Y-77052223D01*
X125011806Y-77070711D01*
X125514609Y-77573514D01*
X125514612Y-77573518D01*
X125518830Y-77577736D01*
X125582264Y-77641170D01*
X125606539Y-77651225D01*
X125665145Y-77675501D01*
X125665146Y-77675501D01*
X125763467Y-77675501D01*
X125763475Y-77675500D01*
X126649826Y-77675500D01*
X126702152Y-77697174D01*
X126723826Y-77749500D01*
X126702152Y-77801826D01*
X126671308Y-77820312D01*
X126624886Y-77834395D01*
X126624883Y-77834396D01*
X126545284Y-77876943D01*
X126455419Y-77924977D01*
X126455416Y-77924978D01*
X126455412Y-77924982D01*
X126306880Y-78046880D01*
X126184982Y-78195412D01*
X126184976Y-78195421D01*
X126094396Y-78364883D01*
X126038615Y-78548767D01*
X126038615Y-78548769D01*
X126019780Y-78740000D01*
X126038615Y-78931231D01*
X126094395Y-79115114D01*
X126184977Y-79284581D01*
X126306880Y-79433120D01*
X126455419Y-79555023D01*
X126580221Y-79621731D01*
X126605491Y-79635238D01*
X126641421Y-79679019D01*
X126635869Y-79735384D01*
X126592088Y-79771314D01*
X126570607Y-79774500D01*
X125844057Y-79774500D01*
X125791731Y-79752826D01*
X125330711Y-79291806D01*
X125309037Y-79239480D01*
X125317775Y-79204596D01*
X125322018Y-79196657D01*
X125365605Y-79115114D01*
X125421385Y-78931231D01*
X125440220Y-78740000D01*
X125421385Y-78548769D01*
X125365605Y-78364886D01*
X125275023Y-78195419D01*
X125153120Y-78046880D01*
X125004581Y-77924977D01*
X124835114Y-77834395D01*
X124670246Y-77784383D01*
X124651232Y-77778615D01*
X124460000Y-77759780D01*
X124268767Y-77778615D01*
X124084883Y-77834396D01*
X124005284Y-77876943D01*
X123915419Y-77924977D01*
X123915416Y-77924978D01*
X123915412Y-77924982D01*
X123766880Y-78046880D01*
X123644982Y-78195412D01*
X123644976Y-78195421D01*
X123554396Y-78364883D01*
X123498615Y-78548767D01*
X123498615Y-78548769D01*
X123479780Y-78740000D01*
X123498615Y-78931231D01*
X123554395Y-79115114D01*
X123644977Y-79284581D01*
X123766880Y-79433120D01*
X123915419Y-79555023D01*
X124084886Y-79645605D01*
X124268769Y-79701385D01*
X124460000Y-79720220D01*
X124651231Y-79701385D01*
X124835114Y-79645605D01*
X124924596Y-79597775D01*
X124980960Y-79592223D01*
X125011806Y-79610711D01*
X125524609Y-80123514D01*
X125524612Y-80123518D01*
X125528830Y-80127736D01*
X125592264Y-80191170D01*
X125616539Y-80201225D01*
X125675145Y-80225501D01*
X125675146Y-80225501D01*
X125773467Y-80225501D01*
X125773475Y-80225500D01*
X126616860Y-80225500D01*
X126669186Y-80247174D01*
X126690860Y-80299500D01*
X126669186Y-80351826D01*
X126638342Y-80370313D01*
X126624887Y-80374394D01*
X126477304Y-80453279D01*
X126455419Y-80464977D01*
X126455416Y-80464978D01*
X126455412Y-80464982D01*
X126306880Y-80586880D01*
X126184982Y-80735412D01*
X126184976Y-80735421D01*
X126094396Y-80904883D01*
X126038615Y-81088767D01*
X126038615Y-81088769D01*
X126019780Y-81280000D01*
X126038615Y-81471231D01*
X126094395Y-81655114D01*
X126184977Y-81824581D01*
X126306880Y-81973120D01*
X126455419Y-82095023D01*
X126624200Y-82185238D01*
X126660130Y-82229019D01*
X126654578Y-82285384D01*
X126610797Y-82321314D01*
X126589316Y-82324500D01*
X125854057Y-82324500D01*
X125801731Y-82302826D01*
X125330711Y-81831806D01*
X125309037Y-81779480D01*
X125317775Y-81744596D01*
X125322018Y-81736657D01*
X125365605Y-81655114D01*
X125421385Y-81471231D01*
X125440220Y-81280000D01*
X125421385Y-81088769D01*
X125365605Y-80904886D01*
X125275023Y-80735419D01*
X125153120Y-80586880D01*
X125004581Y-80464977D01*
X124835114Y-80374395D01*
X124731300Y-80342903D01*
X124651232Y-80318615D01*
X124460000Y-80299780D01*
X124268767Y-80318615D01*
X124159286Y-80351826D01*
X124084890Y-80374394D01*
X124084883Y-80374396D01*
X123932812Y-80455680D01*
X123915419Y-80464977D01*
X123915416Y-80464978D01*
X123915412Y-80464982D01*
X123766880Y-80586880D01*
X123644982Y-80735412D01*
X123644976Y-80735421D01*
X123554396Y-80904883D01*
X123498615Y-81088767D01*
X123498615Y-81088769D01*
X123479780Y-81280000D01*
X123498615Y-81471231D01*
X123554395Y-81655114D01*
X123644977Y-81824581D01*
X123766880Y-81973120D01*
X123915419Y-82095023D01*
X124084886Y-82185605D01*
X124268769Y-82241385D01*
X124460000Y-82260220D01*
X124651231Y-82241385D01*
X124835114Y-82185605D01*
X124924596Y-82137775D01*
X124980960Y-82132223D01*
X125011806Y-82150711D01*
X125534609Y-82673514D01*
X125534612Y-82673518D01*
X125538830Y-82677736D01*
X125602264Y-82741170D01*
X125685145Y-82775500D01*
X126589316Y-82775500D01*
X126641642Y-82797174D01*
X126663316Y-82849500D01*
X126641642Y-82901826D01*
X126624201Y-82914760D01*
X126455419Y-83004977D01*
X126455416Y-83004978D01*
X126455412Y-83004982D01*
X126306880Y-83126880D01*
X126184982Y-83275412D01*
X126184976Y-83275421D01*
X126094396Y-83444883D01*
X126038615Y-83628767D01*
X126038615Y-83628769D01*
X126019780Y-83820000D01*
X126038615Y-84011231D01*
X126094395Y-84195114D01*
X126184977Y-84364581D01*
X126306880Y-84513120D01*
X126455419Y-84635023D01*
X126624886Y-84725605D01*
X126638342Y-84729687D01*
X126682122Y-84765617D01*
X126687673Y-84821982D01*
X126651743Y-84865762D01*
X126616860Y-84874500D01*
X125864058Y-84874500D01*
X125811732Y-84852826D01*
X125330711Y-84371805D01*
X125309037Y-84319479D01*
X125317774Y-84284598D01*
X125365605Y-84195114D01*
X125421385Y-84011231D01*
X125440220Y-83820000D01*
X125421385Y-83628769D01*
X125365605Y-83444886D01*
X125275023Y-83275419D01*
X125153120Y-83126880D01*
X125004581Y-83004977D01*
X124835114Y-82914395D01*
X124731300Y-82882903D01*
X124651232Y-82858615D01*
X124460000Y-82839780D01*
X124268767Y-82858615D01*
X124084883Y-82914396D01*
X123932812Y-82995680D01*
X123915419Y-83004977D01*
X123915416Y-83004978D01*
X123915412Y-83004982D01*
X123766880Y-83126880D01*
X123644982Y-83275412D01*
X123644976Y-83275421D01*
X123554396Y-83444883D01*
X123498615Y-83628767D01*
X123498615Y-83628769D01*
X123479780Y-83820000D01*
X123498615Y-84011231D01*
X123554395Y-84195114D01*
X123644977Y-84364581D01*
X123766880Y-84513120D01*
X123915419Y-84635023D01*
X124084886Y-84725605D01*
X124268769Y-84781385D01*
X124460000Y-84800220D01*
X124651231Y-84781385D01*
X124835114Y-84725605D01*
X124924597Y-84677774D01*
X124980959Y-84672223D01*
X125011805Y-84690711D01*
X125612264Y-85291170D01*
X125695145Y-85325500D01*
X125784854Y-85325500D01*
X126570607Y-85325500D01*
X126622933Y-85347174D01*
X126644607Y-85399500D01*
X126622933Y-85451826D01*
X126605491Y-85464761D01*
X126455419Y-85544977D01*
X126455416Y-85544978D01*
X126455412Y-85544982D01*
X126306880Y-85666880D01*
X126184982Y-85815412D01*
X126184976Y-85815421D01*
X126094396Y-85984883D01*
X126038615Y-86168767D01*
X126038615Y-86168769D01*
X126019780Y-86360000D01*
X126038615Y-86551231D01*
X126094395Y-86735114D01*
X126184977Y-86904581D01*
X126306880Y-87053120D01*
X126455419Y-87175023D01*
X126568074Y-87235238D01*
X126604004Y-87279019D01*
X126598452Y-87335384D01*
X126554671Y-87371314D01*
X126533190Y-87374500D01*
X125824057Y-87374500D01*
X125771731Y-87352826D01*
X125330711Y-86911806D01*
X125309037Y-86859480D01*
X125317775Y-86824596D01*
X125340687Y-86781731D01*
X125365605Y-86735114D01*
X125421385Y-86551231D01*
X125440220Y-86360000D01*
X125421385Y-86168769D01*
X125365605Y-85984886D01*
X125275023Y-85815419D01*
X125153120Y-85666880D01*
X125004581Y-85544977D01*
X124835114Y-85454395D01*
X124724962Y-85420981D01*
X124651232Y-85398615D01*
X124460000Y-85379780D01*
X124268767Y-85398615D01*
X124084883Y-85454396D01*
X123932812Y-85535680D01*
X123915419Y-85544977D01*
X123915416Y-85544978D01*
X123915412Y-85544982D01*
X123766880Y-85666880D01*
X123644982Y-85815412D01*
X123644976Y-85815421D01*
X123554396Y-85984883D01*
X123498615Y-86168767D01*
X123498615Y-86168769D01*
X123479780Y-86360000D01*
X123498615Y-86551231D01*
X123554395Y-86735114D01*
X123644977Y-86904581D01*
X123766880Y-87053120D01*
X123915419Y-87175023D01*
X124084886Y-87265605D01*
X124268769Y-87321385D01*
X124460000Y-87340220D01*
X124651231Y-87321385D01*
X124835114Y-87265605D01*
X124924596Y-87217775D01*
X124980960Y-87212223D01*
X125011806Y-87230711D01*
X125504609Y-87723514D01*
X125504612Y-87723518D01*
X125508830Y-87727736D01*
X125572264Y-87791170D01*
X125606595Y-87805390D01*
X125655146Y-87825501D01*
X125655147Y-87825501D01*
X125753467Y-87825501D01*
X125753475Y-87825500D01*
X126682792Y-87825500D01*
X126735118Y-87847174D01*
X126756792Y-87899500D01*
X126735118Y-87951826D01*
X126704275Y-87970312D01*
X126624886Y-87994395D01*
X126624883Y-87994396D01*
X126501811Y-88060180D01*
X126455419Y-88084977D01*
X126455416Y-88084978D01*
X126455412Y-88084982D01*
X126306880Y-88206880D01*
X126184982Y-88355412D01*
X126184976Y-88355421D01*
X126094396Y-88524883D01*
X126038615Y-88708767D01*
X126038615Y-88708769D01*
X126019780Y-88900000D01*
X126038615Y-89091231D01*
X126094395Y-89275114D01*
X126184977Y-89444581D01*
X126306880Y-89593120D01*
X126455419Y-89715023D01*
X126583946Y-89783722D01*
X126586782Y-89785238D01*
X126622713Y-89829019D01*
X126617161Y-89885383D01*
X126573380Y-89921314D01*
X126551899Y-89924500D01*
X125834057Y-89924500D01*
X125781731Y-89902826D01*
X125457174Y-89578269D01*
X125435500Y-89525943D01*
X125435500Y-88060180D01*
X125426767Y-88016278D01*
X125393504Y-87966496D01*
X125343722Y-87933233D01*
X125299820Y-87924500D01*
X123620180Y-87924500D01*
X123598229Y-87928866D01*
X123576277Y-87933233D01*
X123526496Y-87966495D01*
X123526495Y-87966496D01*
X123493233Y-88016277D01*
X123484500Y-88060180D01*
X123484500Y-89739819D01*
X123493233Y-89783722D01*
X123507854Y-89805605D01*
X123526496Y-89833504D01*
X123576278Y-89866767D01*
X123620180Y-89875500D01*
X125085943Y-89875500D01*
X125138269Y-89897174D01*
X125514609Y-90273514D01*
X125514612Y-90273518D01*
X125518830Y-90277736D01*
X125582264Y-90341170D01*
X125606539Y-90351225D01*
X125665145Y-90375501D01*
X125665146Y-90375501D01*
X125763467Y-90375501D01*
X125763475Y-90375500D01*
X140425943Y-90375500D01*
X140478269Y-90397174D01*
X149204609Y-99123514D01*
X149204612Y-99123518D01*
X149208830Y-99127736D01*
X149272264Y-99191170D01*
X149293580Y-99199999D01*
X149293581Y-99200000D01*
X149293582Y-99200000D01*
X149355145Y-99225501D01*
X149453467Y-99225501D01*
X149453475Y-99225500D01*
X150725943Y-99225500D01*
X150778268Y-99247173D01*
X152522264Y-100991170D01*
X152605145Y-101025500D01*
X152694854Y-101025500D01*
X152998960Y-101025500D01*
X153051286Y-101047174D01*
X153071538Y-101085063D01*
X153078233Y-101118723D01*
X153081022Y-101125456D01*
X153077786Y-101126796D01*
X153086347Y-101169913D01*
X153075303Y-101196561D01*
X153031604Y-101261962D01*
X153031604Y-101261963D01*
X153020000Y-101320302D01*
X153020000Y-101500000D01*
X153276000Y-101500000D01*
X153328326Y-101521674D01*
X153350000Y-101574000D01*
X153350000Y-101626000D01*
X153328326Y-101678326D01*
X153276000Y-101700000D01*
X153020000Y-101700000D01*
X153020000Y-101879697D01*
X153031603Y-101938035D01*
X153045537Y-101958889D01*
X153056585Y-102014439D01*
X153045537Y-102041111D01*
X153031603Y-102061964D01*
X153020000Y-102120302D01*
X153020000Y-102300000D01*
X153276000Y-102300000D01*
X153328326Y-102321674D01*
X153350000Y-102374000D01*
X153350000Y-102426000D01*
X153328326Y-102478326D01*
X153276000Y-102500000D01*
X153020000Y-102500000D01*
X153020000Y-102679697D01*
X153031603Y-102738035D01*
X153075304Y-102803437D01*
X153086353Y-102858985D01*
X153080073Y-102874151D01*
X153081022Y-102874544D01*
X153078233Y-102881276D01*
X153071538Y-102914937D01*
X153040072Y-102962029D01*
X152998960Y-102974500D01*
X147874057Y-102974500D01*
X147821731Y-102952826D01*
X142751578Y-97882673D01*
X142751578Y-97882672D01*
X142677738Y-97808832D01*
X142677736Y-97808830D01*
X142653460Y-97798774D01*
X142653458Y-97798773D01*
X142653458Y-97798772D01*
X142594855Y-97774499D01*
X142505145Y-97774499D01*
X142496533Y-97774499D01*
X142496525Y-97774500D01*
X129124058Y-97774500D01*
X129071732Y-97752826D01*
X128697174Y-97378268D01*
X128675500Y-97325942D01*
X128675500Y-95483475D01*
X128675501Y-95483466D01*
X128675501Y-95385146D01*
X128641170Y-95302265D01*
X128641169Y-95302263D01*
X128573521Y-95234615D01*
X128573514Y-95234609D01*
X127870711Y-94531806D01*
X127849037Y-94479480D01*
X127857775Y-94444596D01*
X127879755Y-94403475D01*
X127905605Y-94355114D01*
X127961385Y-94171231D01*
X127980220Y-93980000D01*
X127961385Y-93788769D01*
X127905605Y-93604886D01*
X127815023Y-93435419D01*
X127693120Y-93286880D01*
X127544581Y-93164977D01*
X127375114Y-93074395D01*
X127271300Y-93042903D01*
X127191232Y-93018615D01*
X127000000Y-92999780D01*
X126808767Y-93018615D01*
X126624883Y-93074396D01*
X126480023Y-93151826D01*
X126455419Y-93164977D01*
X126455416Y-93164978D01*
X126455412Y-93164982D01*
X126306880Y-93286880D01*
X126184982Y-93435412D01*
X126184976Y-93435421D01*
X126094396Y-93604883D01*
X126038615Y-93788767D01*
X126019780Y-93980000D01*
X126038615Y-94171232D01*
X126054096Y-94222265D01*
X126094395Y-94355114D01*
X126184977Y-94524581D01*
X126306880Y-94673120D01*
X126455419Y-94795023D01*
X126624886Y-94885605D01*
X126808769Y-94941385D01*
X127000000Y-94960220D01*
X127191231Y-94941385D01*
X127375114Y-94885605D01*
X127464596Y-94837775D01*
X127520960Y-94832223D01*
X127551806Y-94850711D01*
X128202826Y-95501731D01*
X128224500Y-95554057D01*
X128224500Y-97246943D01*
X128202826Y-97299269D01*
X128150500Y-97320943D01*
X128098174Y-97299269D01*
X127870711Y-97071806D01*
X127849037Y-97019480D01*
X127857775Y-96984596D01*
X127862018Y-96976657D01*
X127905605Y-96895114D01*
X127961385Y-96711231D01*
X127980220Y-96520000D01*
X127961385Y-96328769D01*
X127905605Y-96144886D01*
X127815023Y-95975419D01*
X127693120Y-95826880D01*
X127544581Y-95704977D01*
X127375114Y-95614395D01*
X127271300Y-95582903D01*
X127191232Y-95558615D01*
X127000000Y-95539780D01*
X126808767Y-95558615D01*
X126624883Y-95614396D01*
X126472812Y-95695680D01*
X126455419Y-95704977D01*
X126455416Y-95704978D01*
X126455412Y-95704982D01*
X126306880Y-95826880D01*
X126184982Y-95975412D01*
X126184976Y-95975421D01*
X126094396Y-96144883D01*
X126038615Y-96328767D01*
X126027485Y-96441767D01*
X126019780Y-96520000D01*
X126038615Y-96711231D01*
X126094395Y-96895114D01*
X126184977Y-97064581D01*
X126306880Y-97213120D01*
X126455419Y-97335023D01*
X126624886Y-97425605D01*
X126638342Y-97429687D01*
X126682122Y-97465617D01*
X126687673Y-97521982D01*
X126651743Y-97565762D01*
X126616860Y-97574500D01*
X125864058Y-97574500D01*
X125811732Y-97552826D01*
X125330711Y-97071805D01*
X125309037Y-97019479D01*
X125317774Y-96984598D01*
X125365605Y-96895114D01*
X125421385Y-96711231D01*
X125440220Y-96520000D01*
X125421385Y-96328769D01*
X125365605Y-96144886D01*
X125275023Y-95975419D01*
X125153120Y-95826880D01*
X125004581Y-95704977D01*
X124835114Y-95614395D01*
X124731300Y-95582903D01*
X124651232Y-95558615D01*
X124460000Y-95539780D01*
X124268767Y-95558615D01*
X124084883Y-95614396D01*
X123932812Y-95695680D01*
X123915419Y-95704977D01*
X123915416Y-95704978D01*
X123915412Y-95704982D01*
X123766880Y-95826880D01*
X123644982Y-95975412D01*
X123644976Y-95975421D01*
X123554396Y-96144883D01*
X123498615Y-96328767D01*
X123487485Y-96441767D01*
X123479780Y-96520000D01*
X123498615Y-96711231D01*
X123554395Y-96895114D01*
X123644977Y-97064581D01*
X123766880Y-97213120D01*
X123915419Y-97335023D01*
X124084886Y-97425605D01*
X124268769Y-97481385D01*
X124460000Y-97500220D01*
X124651231Y-97481385D01*
X124835114Y-97425605D01*
X124924597Y-97377774D01*
X124980959Y-97372223D01*
X125011805Y-97390711D01*
X125612264Y-97991170D01*
X125695145Y-98025500D01*
X125784854Y-98025500D01*
X126570607Y-98025500D01*
X126622933Y-98047174D01*
X126644607Y-98099500D01*
X126622933Y-98151826D01*
X126605491Y-98164761D01*
X126455419Y-98244977D01*
X126455416Y-98244978D01*
X126455412Y-98244982D01*
X126306880Y-98366880D01*
X126184982Y-98515412D01*
X126184978Y-98515416D01*
X126184977Y-98515419D01*
X126178393Y-98527736D01*
X126094396Y-98684883D01*
X126038615Y-98868767D01*
X126028474Y-98971731D01*
X126019780Y-99060000D01*
X126038615Y-99251231D01*
X126094395Y-99435114D01*
X126184977Y-99604581D01*
X126306880Y-99753120D01*
X126455419Y-99875023D01*
X126624886Y-99965605D01*
X126808769Y-100021385D01*
X127000000Y-100040220D01*
X127191231Y-100021385D01*
X127375114Y-99965605D01*
X127544581Y-99875023D01*
X127693120Y-99753120D01*
X127815023Y-99604581D01*
X127905605Y-99435114D01*
X127935058Y-99338018D01*
X127970989Y-99294238D01*
X128005872Y-99285500D01*
X142035943Y-99285500D01*
X142088268Y-99307173D01*
X147222264Y-104441170D01*
X147305145Y-104475500D01*
X147394854Y-104475500D01*
X150925943Y-104475500D01*
X150978268Y-104497173D01*
X152272264Y-105791170D01*
X152355145Y-105825500D01*
X152444854Y-105825500D01*
X152998960Y-105825500D01*
X153051286Y-105847174D01*
X153071537Y-105885061D01*
X153078233Y-105918722D01*
X153111496Y-105968504D01*
X153161278Y-106001767D01*
X153205180Y-106010500D01*
X153205181Y-106010500D01*
X154734819Y-106010500D01*
X154734820Y-106010500D01*
X154778722Y-106001767D01*
X154828504Y-105968504D01*
X154861767Y-105918722D01*
X154870500Y-105874820D01*
X154870500Y-105325180D01*
X154861767Y-105281278D01*
X154834928Y-105241111D01*
X154823880Y-105185563D01*
X154834929Y-105158888D01*
X154861767Y-105118722D01*
X154870500Y-105074820D01*
X154870500Y-104525180D01*
X154861767Y-104481278D01*
X154834928Y-104441111D01*
X154823880Y-104385563D01*
X154834929Y-104358888D01*
X154839647Y-104351827D01*
X154861767Y-104318722D01*
X154870500Y-104274820D01*
X154870500Y-103725180D01*
X154861767Y-103681278D01*
X154834928Y-103641111D01*
X154823880Y-103585563D01*
X154834929Y-103558888D01*
X154861767Y-103518722D01*
X154870500Y-103474820D01*
X154870500Y-102925180D01*
X154861767Y-102881278D01*
X154861766Y-102881276D01*
X154858978Y-102874544D01*
X154862219Y-102873201D01*
X154853643Y-102830126D01*
X154864696Y-102803436D01*
X154908395Y-102738036D01*
X154920000Y-102679697D01*
X154920000Y-102473165D01*
X154917301Y-102466649D01*
X154917301Y-102333351D01*
X154920000Y-102326834D01*
X154920000Y-102120302D01*
X154918723Y-102113882D01*
X154917301Y-102099446D01*
X154917301Y-101900554D01*
X154918723Y-101886117D01*
X154920000Y-101879697D01*
X154920000Y-101673165D01*
X154917301Y-101666649D01*
X154917301Y-101533351D01*
X154920000Y-101526834D01*
X154920000Y-101320302D01*
X154918723Y-101313882D01*
X154917301Y-101299446D01*
X154917301Y-101287939D01*
X154911345Y-101276791D01*
X154908395Y-101261964D01*
X154864696Y-101196562D01*
X154853647Y-101141013D01*
X154859928Y-101125849D01*
X154858978Y-101125456D01*
X154861766Y-101118723D01*
X154861765Y-101118723D01*
X154861767Y-101118722D01*
X154870500Y-101074820D01*
X154870500Y-100525180D01*
X154861767Y-100481278D01*
X154834928Y-100441111D01*
X154823880Y-100385563D01*
X154834929Y-100358888D01*
X154861767Y-100318722D01*
X154870500Y-100274820D01*
X154870500Y-99725180D01*
X154861767Y-99681278D01*
X154834928Y-99641111D01*
X154823880Y-99585563D01*
X154834929Y-99558888D01*
X154861767Y-99518722D01*
X154870500Y-99474820D01*
X154870500Y-98925180D01*
X154861767Y-98881278D01*
X154834928Y-98841111D01*
X154823880Y-98785563D01*
X154834929Y-98758888D01*
X154861767Y-98718722D01*
X154870500Y-98674820D01*
X154870500Y-98125180D01*
X154861767Y-98081278D01*
X154834928Y-98041111D01*
X154823880Y-97985563D01*
X154834929Y-97958888D01*
X154861767Y-97918722D01*
X154870500Y-97874820D01*
X154870500Y-97325180D01*
X154861767Y-97281278D01*
X154828504Y-97231496D01*
X154778722Y-97198233D01*
X154734820Y-97189500D01*
X153205180Y-97189500D01*
X153183229Y-97193866D01*
X153161277Y-97198233D01*
X153111496Y-97231495D01*
X153111495Y-97231496D01*
X153078233Y-97281277D01*
X153071538Y-97314937D01*
X153040072Y-97362029D01*
X152998960Y-97374500D01*
X150474057Y-97374500D01*
X150421731Y-97352826D01*
X147270731Y-94201826D01*
X147249057Y-94149500D01*
X147270731Y-94097174D01*
X147323057Y-94075500D01*
X155295943Y-94075500D01*
X155348269Y-94097174D01*
X155772826Y-94521731D01*
X155794500Y-94574057D01*
X155794500Y-94578959D01*
X155772826Y-94631285D01*
X155734938Y-94651537D01*
X155701277Y-94658233D01*
X155651496Y-94691495D01*
X155651495Y-94691496D01*
X155618233Y-94741277D01*
X155618233Y-94741278D01*
X155609500Y-94785180D01*
X155609500Y-96314820D01*
X155618233Y-96358722D01*
X155651496Y-96408504D01*
X155701278Y-96441767D01*
X155745180Y-96450500D01*
X155745181Y-96450500D01*
X156294819Y-96450500D01*
X156294820Y-96450500D01*
X156338722Y-96441767D01*
X156378888Y-96414928D01*
X156434437Y-96403880D01*
X156461111Y-96414928D01*
X156501278Y-96441767D01*
X156545180Y-96450500D01*
X156545181Y-96450500D01*
X157094819Y-96450500D01*
X157094820Y-96450500D01*
X157138722Y-96441767D01*
X157178888Y-96414928D01*
X157234437Y-96403880D01*
X157261111Y-96414928D01*
X157301278Y-96441767D01*
X157345180Y-96450500D01*
X157345181Y-96450500D01*
X157894819Y-96450500D01*
X157894820Y-96450500D01*
X157938722Y-96441767D01*
X157978888Y-96414928D01*
X158034437Y-96403880D01*
X158061111Y-96414928D01*
X158101278Y-96441767D01*
X158145180Y-96450500D01*
X158145181Y-96450500D01*
X158694819Y-96450500D01*
X158694820Y-96450500D01*
X158738722Y-96441767D01*
X158778888Y-96414928D01*
X158834437Y-96403880D01*
X158861111Y-96414928D01*
X158901278Y-96441767D01*
X158945180Y-96450500D01*
X158945181Y-96450500D01*
X159494819Y-96450500D01*
X159494820Y-96450500D01*
X159538722Y-96441767D01*
X159578888Y-96414928D01*
X159634437Y-96403880D01*
X159661111Y-96414928D01*
X159701278Y-96441767D01*
X159745180Y-96450500D01*
X159745181Y-96450500D01*
X160294819Y-96450500D01*
X160294820Y-96450500D01*
X160338722Y-96441767D01*
X160378888Y-96414928D01*
X160434437Y-96403880D01*
X160461111Y-96414928D01*
X160501278Y-96441767D01*
X160545180Y-96450500D01*
X160545181Y-96450500D01*
X161094819Y-96450500D01*
X161094820Y-96450500D01*
X161138722Y-96441767D01*
X161178888Y-96414928D01*
X161234437Y-96403880D01*
X161261111Y-96414928D01*
X161301278Y-96441767D01*
X161345180Y-96450500D01*
X161345181Y-96450500D01*
X161894819Y-96450500D01*
X161894820Y-96450500D01*
X161938722Y-96441767D01*
X161978888Y-96414928D01*
X162034437Y-96403880D01*
X162061111Y-96414928D01*
X162101278Y-96441767D01*
X162145180Y-96450500D01*
X162145181Y-96450500D01*
X162694819Y-96450500D01*
X162694820Y-96450500D01*
X162738722Y-96441767D01*
X162778888Y-96414928D01*
X162834437Y-96403880D01*
X162861111Y-96414928D01*
X162901278Y-96441767D01*
X162945180Y-96450500D01*
X162945181Y-96450500D01*
X163494819Y-96450500D01*
X163494820Y-96450500D01*
X163538722Y-96441767D01*
X163578888Y-96414928D01*
X163634437Y-96403880D01*
X163661111Y-96414928D01*
X163701278Y-96441767D01*
X163745180Y-96450500D01*
X163745181Y-96450500D01*
X164294819Y-96450500D01*
X164294820Y-96450500D01*
X164338722Y-96441767D01*
X164388504Y-96408504D01*
X164421767Y-96358722D01*
X164430500Y-96314820D01*
X164430500Y-94785180D01*
X164421767Y-94741278D01*
X164388504Y-94691496D01*
X164378888Y-94685071D01*
X164338722Y-94658233D01*
X164305062Y-94651537D01*
X164257970Y-94620070D01*
X164245500Y-94578959D01*
X164245500Y-94200998D01*
X164267174Y-94148672D01*
X164279493Y-94138745D01*
X164318049Y-94113967D01*
X164402882Y-94016063D01*
X164456697Y-93898226D01*
X164475133Y-93770000D01*
X164456697Y-93641774D01*
X164402882Y-93523937D01*
X164318049Y-93426033D01*
X164239418Y-93375500D01*
X164209068Y-93355995D01*
X164084772Y-93319500D01*
X163955228Y-93319500D01*
X163830931Y-93355995D01*
X163721954Y-93426031D01*
X163721950Y-93426034D01*
X163637119Y-93523935D01*
X163637118Y-93523936D01*
X163637118Y-93523937D01*
X163600150Y-93604886D01*
X163586813Y-93634089D01*
X163545360Y-93672682D01*
X163488759Y-93670661D01*
X163450166Y-93629208D01*
X163445500Y-93603348D01*
X163445500Y-93400278D01*
X163467174Y-93347952D01*
X163479493Y-93338025D01*
X163492940Y-93329383D01*
X163548049Y-93293967D01*
X163632882Y-93196063D01*
X163686697Y-93078226D01*
X163705133Y-92950000D01*
X163686697Y-92821774D01*
X163632882Y-92703937D01*
X163548049Y-92606033D01*
X163481032Y-92562964D01*
X163439068Y-92535995D01*
X163314772Y-92499500D01*
X163194584Y-92499500D01*
X163142258Y-92477826D01*
X163120584Y-92425500D01*
X163142258Y-92373174D01*
X163160989Y-92359566D01*
X163200587Y-92339388D01*
X163218403Y-92330311D01*
X163305311Y-92243403D01*
X163361109Y-92133893D01*
X163375500Y-92043033D01*
X163375499Y-91381968D01*
X163361109Y-91291107D01*
X163361108Y-91291105D01*
X163361107Y-91291102D01*
X163305312Y-91181598D01*
X163218403Y-91094689D01*
X163218399Y-91094687D01*
X163108893Y-91038891D01*
X163108891Y-91038890D01*
X163108890Y-91038890D01*
X163018034Y-91024500D01*
X162481967Y-91024500D01*
X162391105Y-91038891D01*
X162391102Y-91038892D01*
X162281598Y-91094687D01*
X162194689Y-91181596D01*
X162138890Y-91291109D01*
X162124500Y-91381965D01*
X162124500Y-91413000D01*
X162102826Y-91465326D01*
X162050500Y-91487000D01*
X161899499Y-91487000D01*
X161847173Y-91465326D01*
X161825499Y-91413000D01*
X161825499Y-91381967D01*
X161811109Y-91291109D01*
X161811109Y-91291107D01*
X161811108Y-91291105D01*
X161811107Y-91291102D01*
X161755312Y-91181598D01*
X161668403Y-91094689D01*
X161668399Y-91094687D01*
X161558893Y-91038891D01*
X161558891Y-91038890D01*
X161558890Y-91038890D01*
X161468034Y-91024500D01*
X160931967Y-91024500D01*
X160841105Y-91038891D01*
X160841102Y-91038892D01*
X160731598Y-91094687D01*
X160644689Y-91181596D01*
X160588890Y-91291109D01*
X160574500Y-91381965D01*
X160574500Y-91411266D01*
X160552826Y-91463592D01*
X160500500Y-91485266D01*
X160448174Y-91463592D01*
X160444575Y-91459726D01*
X160398053Y-91406037D01*
X160398051Y-91406035D01*
X160398049Y-91406033D01*
X160331032Y-91362964D01*
X160289068Y-91335995D01*
X160164772Y-91299500D01*
X160035228Y-91299500D01*
X159910931Y-91335995D01*
X159801954Y-91406031D01*
X159801950Y-91406034D01*
X159717119Y-91503935D01*
X159663302Y-91621776D01*
X159644867Y-91750000D01*
X159663302Y-91878223D01*
X159663302Y-91878224D01*
X159663303Y-91878226D01*
X159717118Y-91996063D01*
X159801951Y-92093967D01*
X159910931Y-92164004D01*
X160035228Y-92200500D01*
X160164772Y-92200500D01*
X160289069Y-92164004D01*
X160398049Y-92093967D01*
X160449915Y-92034109D01*
X160500560Y-92008758D01*
X160554299Y-92026643D01*
X160578929Y-92070993D01*
X160588891Y-92133893D01*
X160588892Y-92133897D01*
X160644687Y-92243401D01*
X160644689Y-92243403D01*
X160731597Y-92330311D01*
X160841107Y-92386109D01*
X160931967Y-92400500D01*
X161468032Y-92400499D01*
X161558893Y-92386109D01*
X161668403Y-92330311D01*
X161755311Y-92243403D01*
X161811109Y-92133893D01*
X161825500Y-92043033D01*
X161825500Y-92012000D01*
X161847174Y-91959674D01*
X161899500Y-91938000D01*
X162050501Y-91938000D01*
X162102827Y-91959674D01*
X162124501Y-92012000D01*
X162124501Y-92043032D01*
X162138891Y-92133894D01*
X162138892Y-92133897D01*
X162194687Y-92243401D01*
X162194689Y-92243403D01*
X162281597Y-92330311D01*
X162284090Y-92331581D01*
X162285309Y-92333009D01*
X162286309Y-92333735D01*
X162286134Y-92333974D01*
X162320876Y-92374645D01*
X162324500Y-92397518D01*
X162324500Y-93675943D01*
X162302826Y-93728267D01*
X162292265Y-93738829D01*
X162292264Y-93738830D01*
X162292262Y-93738831D01*
X162228829Y-93802264D01*
X162227193Y-93806216D01*
X162227193Y-93806217D01*
X162194499Y-93885144D01*
X162194499Y-93983466D01*
X162194500Y-93983475D01*
X162194500Y-94578959D01*
X162172826Y-94631285D01*
X162134938Y-94651537D01*
X162101278Y-94658233D01*
X162061111Y-94685071D01*
X162005562Y-94696119D01*
X161978889Y-94685071D01*
X161961001Y-94673119D01*
X161938722Y-94658233D01*
X161926341Y-94655770D01*
X161905062Y-94651537D01*
X161857970Y-94620070D01*
X161845500Y-94578959D01*
X161845500Y-94255145D01*
X161845499Y-94255143D01*
X161811171Y-94172266D01*
X161811169Y-94172263D01*
X161743521Y-94104615D01*
X161743514Y-94104609D01*
X160921578Y-93282673D01*
X160921578Y-93282672D01*
X160847738Y-93208832D01*
X160847736Y-93208830D01*
X160823460Y-93198774D01*
X160823458Y-93198773D01*
X160823458Y-93198772D01*
X160764855Y-93174499D01*
X160675145Y-93174499D01*
X160666533Y-93174499D01*
X160666525Y-93174500D01*
X159374058Y-93174500D01*
X159321732Y-93152826D01*
X157801578Y-91632673D01*
X157801578Y-91632672D01*
X157727738Y-91558832D01*
X157727736Y-91558830D01*
X157703460Y-91548774D01*
X157703458Y-91548773D01*
X157703458Y-91548772D01*
X157644855Y-91524499D01*
X157555145Y-91524499D01*
X157546533Y-91524499D01*
X157546525Y-91524500D01*
X148124057Y-91524500D01*
X148071731Y-91502826D01*
X146909103Y-90340198D01*
X160525000Y-90340198D01*
X160527771Y-90369756D01*
X160527772Y-90369761D01*
X160571329Y-90494238D01*
X160571330Y-90494240D01*
X160649642Y-90600350D01*
X160649649Y-90600357D01*
X160755759Y-90678669D01*
X160755761Y-90678670D01*
X160880238Y-90722227D01*
X160880243Y-90722228D01*
X160909801Y-90724999D01*
X160909803Y-90725000D01*
X161100000Y-90725000D01*
X161300000Y-90725000D01*
X161490197Y-90725000D01*
X161490198Y-90724999D01*
X161519756Y-90722228D01*
X161519761Y-90722227D01*
X161644238Y-90678670D01*
X161644240Y-90678669D01*
X161750350Y-90600357D01*
X161750357Y-90600350D01*
X161828669Y-90494240D01*
X161828670Y-90494238D01*
X161872227Y-90369761D01*
X161872228Y-90369756D01*
X161874999Y-90340198D01*
X162075000Y-90340198D01*
X162077771Y-90369756D01*
X162077772Y-90369761D01*
X162121329Y-90494238D01*
X162121330Y-90494240D01*
X162199642Y-90600350D01*
X162199649Y-90600357D01*
X162305759Y-90678669D01*
X162305761Y-90678670D01*
X162430238Y-90722227D01*
X162430243Y-90722228D01*
X162459801Y-90724999D01*
X162459803Y-90725000D01*
X162650000Y-90725000D01*
X162850000Y-90725000D01*
X163040197Y-90725000D01*
X163040198Y-90724999D01*
X163069756Y-90722228D01*
X163069761Y-90722227D01*
X163194238Y-90678670D01*
X163194240Y-90678669D01*
X163300350Y-90600357D01*
X163300357Y-90600350D01*
X163378669Y-90494240D01*
X163378670Y-90494238D01*
X163422227Y-90369761D01*
X163422228Y-90369756D01*
X163424999Y-90340198D01*
X163425000Y-90340197D01*
X163425000Y-90087500D01*
X162850000Y-90087500D01*
X162850000Y-90725000D01*
X162650000Y-90725000D01*
X162650000Y-90087500D01*
X162075000Y-90087500D01*
X162075000Y-90340198D01*
X161874999Y-90340198D01*
X161875000Y-90340197D01*
X161875000Y-90087500D01*
X161300000Y-90087500D01*
X161300000Y-90725000D01*
X161100000Y-90725000D01*
X161100000Y-90087500D01*
X160525000Y-90087500D01*
X160525000Y-90340198D01*
X146909103Y-90340198D01*
X146203706Y-89634801D01*
X160525000Y-89634801D01*
X160525000Y-89887500D01*
X161100000Y-89887500D01*
X161300000Y-89887500D01*
X161875000Y-89887500D01*
X161875000Y-89634803D01*
X161874999Y-89634801D01*
X162075000Y-89634801D01*
X162075000Y-89887500D01*
X162650000Y-89887500D01*
X162850000Y-89887500D01*
X163425000Y-89887500D01*
X163425000Y-89634803D01*
X163424999Y-89634801D01*
X163422228Y-89605243D01*
X163422227Y-89605238D01*
X163378670Y-89480761D01*
X163378669Y-89480759D01*
X163300357Y-89374649D01*
X163300350Y-89374642D01*
X163194240Y-89296330D01*
X163194238Y-89296329D01*
X163069761Y-89252772D01*
X163069756Y-89252771D01*
X163040198Y-89250000D01*
X162850000Y-89250000D01*
X162850000Y-89887500D01*
X162650000Y-89887500D01*
X162650000Y-89250000D01*
X162459801Y-89250000D01*
X162430243Y-89252771D01*
X162430238Y-89252772D01*
X162305761Y-89296329D01*
X162305759Y-89296330D01*
X162199649Y-89374642D01*
X162199642Y-89374649D01*
X162121330Y-89480759D01*
X162121329Y-89480761D01*
X162077772Y-89605238D01*
X162077771Y-89605243D01*
X162075000Y-89634801D01*
X161874999Y-89634801D01*
X161872228Y-89605243D01*
X161872227Y-89605238D01*
X161828670Y-89480761D01*
X161828669Y-89480759D01*
X161750357Y-89374649D01*
X161750350Y-89374642D01*
X161644240Y-89296330D01*
X161644238Y-89296329D01*
X161519761Y-89252772D01*
X161519756Y-89252771D01*
X161490198Y-89250000D01*
X161300000Y-89250000D01*
X161300000Y-89887500D01*
X161100000Y-89887500D01*
X161100000Y-89250000D01*
X160909801Y-89250000D01*
X160880243Y-89252771D01*
X160880238Y-89252772D01*
X160755761Y-89296329D01*
X160755759Y-89296330D01*
X160649649Y-89374642D01*
X160649642Y-89374649D01*
X160571330Y-89480759D01*
X160571329Y-89480761D01*
X160527772Y-89605238D01*
X160527771Y-89605243D01*
X160525000Y-89634801D01*
X146203706Y-89634801D01*
X142651578Y-86082673D01*
X142651578Y-86082672D01*
X142577738Y-86008832D01*
X142577736Y-86008830D01*
X142576153Y-86008174D01*
X142553458Y-85998773D01*
X142553458Y-85998772D01*
X142494855Y-85974499D01*
X142405145Y-85974499D01*
X142396533Y-85974499D01*
X142396525Y-85974500D01*
X132624057Y-85974500D01*
X132571731Y-85952826D01*
X130597174Y-83978269D01*
X130575500Y-83925943D01*
X130575500Y-79253475D01*
X130575501Y-79253466D01*
X130575501Y-79155144D01*
X130541170Y-79072265D01*
X130541169Y-79072263D01*
X130473521Y-79004615D01*
X130473514Y-79004609D01*
X129497174Y-78028269D01*
X129475500Y-77975943D01*
X129475500Y-76903475D01*
X129475501Y-76903466D01*
X129475501Y-76805146D01*
X129441170Y-76722265D01*
X129441169Y-76722263D01*
X129373521Y-76654615D01*
X129373514Y-76654609D01*
X128801578Y-76082673D01*
X128801578Y-76082672D01*
X128727738Y-76008832D01*
X128727736Y-76008830D01*
X128703460Y-75998774D01*
X128703458Y-75998773D01*
X128703458Y-75998772D01*
X128644855Y-75974499D01*
X128555145Y-75974499D01*
X128546533Y-75974499D01*
X128546525Y-75974500D01*
X128005872Y-75974500D01*
X127953546Y-75952826D01*
X127935059Y-75921982D01*
X127905605Y-75824886D01*
X127815023Y-75655419D01*
X127693120Y-75506880D01*
X127544581Y-75384977D01*
X127375114Y-75294395D01*
X127271300Y-75262903D01*
X127191232Y-75238615D01*
X127000000Y-75219780D01*
X126808767Y-75238615D01*
X126624883Y-75294396D01*
X126472812Y-75375680D01*
X126455419Y-75384977D01*
X126455416Y-75384978D01*
X126455412Y-75384982D01*
X126306880Y-75506880D01*
X126184982Y-75655412D01*
X126184976Y-75655421D01*
X126094396Y-75824883D01*
X126038615Y-76008767D01*
X126038615Y-76008769D01*
X126019780Y-76200000D01*
X126038615Y-76391231D01*
X126094395Y-76575114D01*
X126184977Y-76744581D01*
X126306880Y-76893120D01*
X126455419Y-77015023D01*
X126559604Y-77070711D01*
X126586782Y-77085238D01*
X126622713Y-77129019D01*
X126617161Y-77185383D01*
X126573380Y-77221314D01*
X126551899Y-77224500D01*
X125834057Y-77224500D01*
X125781731Y-77202826D01*
X125330711Y-76751806D01*
X125309037Y-76699480D01*
X125317775Y-76664596D01*
X125323113Y-76654609D01*
X125365605Y-76575114D01*
X125421385Y-76391231D01*
X125440220Y-76200000D01*
X125421385Y-76008769D01*
X125365605Y-75824886D01*
X125275023Y-75655419D01*
X125153120Y-75506880D01*
X125004581Y-75384977D01*
X124835114Y-75294395D01*
X124731300Y-75262903D01*
X124651232Y-75238615D01*
X124460000Y-75219780D01*
X124268767Y-75238615D01*
X124084883Y-75294396D01*
X123932812Y-75375680D01*
X123915419Y-75384977D01*
X123915416Y-75384978D01*
X123915412Y-75384982D01*
X123766880Y-75506880D01*
X123644982Y-75655412D01*
X123644976Y-75655421D01*
X123554396Y-75824883D01*
X123498615Y-76008767D01*
X123498615Y-76008769D01*
X123479780Y-76200000D01*
X120850500Y-76200000D01*
X120850500Y-73660000D01*
X123479780Y-73660000D01*
X123498615Y-73851231D01*
X123554395Y-74035114D01*
X123644977Y-74204581D01*
X123766880Y-74353120D01*
X123915419Y-74475023D01*
X124084886Y-74565605D01*
X124268769Y-74621385D01*
X124460000Y-74640220D01*
X124651231Y-74621385D01*
X124835114Y-74565605D01*
X125004581Y-74475023D01*
X125153120Y-74353120D01*
X125275023Y-74204581D01*
X125365605Y-74035114D01*
X125421385Y-73851231D01*
X125440220Y-73660000D01*
X126019780Y-73660000D01*
X126038615Y-73851231D01*
X126094395Y-74035114D01*
X126184977Y-74204581D01*
X126306880Y-74353120D01*
X126455419Y-74475023D01*
X126624886Y-74565605D01*
X126808769Y-74621385D01*
X127000000Y-74640220D01*
X127191231Y-74621385D01*
X127375114Y-74565605D01*
X127544581Y-74475023D01*
X127693120Y-74353120D01*
X127815023Y-74204581D01*
X127905605Y-74035114D01*
X127961385Y-73851231D01*
X127980220Y-73660000D01*
X127961385Y-73468769D01*
X127905605Y-73284886D01*
X127815023Y-73115419D01*
X127693120Y-72966880D01*
X127544581Y-72844977D01*
X127375114Y-72754395D01*
X127271300Y-72722903D01*
X127191232Y-72698615D01*
X127000000Y-72679780D01*
X126808767Y-72698615D01*
X126624883Y-72754396D01*
X126472812Y-72835680D01*
X126455419Y-72844977D01*
X126455416Y-72844978D01*
X126455412Y-72844982D01*
X126306880Y-72966880D01*
X126184982Y-73115412D01*
X126184976Y-73115421D01*
X126094396Y-73284883D01*
X126038615Y-73468767D01*
X126038615Y-73468769D01*
X126019780Y-73660000D01*
X125440220Y-73660000D01*
X125421385Y-73468769D01*
X125365605Y-73284886D01*
X125275023Y-73115419D01*
X125153120Y-72966880D01*
X125004581Y-72844977D01*
X124835114Y-72754395D01*
X124731300Y-72722903D01*
X124651232Y-72698615D01*
X124460000Y-72679780D01*
X124268767Y-72698615D01*
X124084883Y-72754396D01*
X123932812Y-72835680D01*
X123915419Y-72844977D01*
X123915416Y-72844978D01*
X123915412Y-72844982D01*
X123766880Y-72966880D01*
X123644982Y-73115412D01*
X123644976Y-73115421D01*
X123554396Y-73284883D01*
X123498615Y-73468767D01*
X123498615Y-73468769D01*
X123479780Y-73660000D01*
X120850500Y-73660000D01*
X120850500Y-71120000D01*
X123479780Y-71120000D01*
X123498615Y-71311231D01*
X123554395Y-71495114D01*
X123644977Y-71664581D01*
X123766880Y-71813120D01*
X123915419Y-71935023D01*
X124084886Y-72025605D01*
X124268769Y-72081385D01*
X124460000Y-72100220D01*
X124651231Y-72081385D01*
X124835114Y-72025605D01*
X125004581Y-71935023D01*
X125153120Y-71813120D01*
X125275023Y-71664581D01*
X125365605Y-71495114D01*
X125421385Y-71311231D01*
X125440220Y-71120000D01*
X126019780Y-71120000D01*
X126038615Y-71311231D01*
X126094395Y-71495114D01*
X126184977Y-71664581D01*
X126306880Y-71813120D01*
X126455419Y-71935023D01*
X126624886Y-72025605D01*
X126808769Y-72081385D01*
X127000000Y-72100220D01*
X127191231Y-72081385D01*
X127375114Y-72025605D01*
X127544581Y-71935023D01*
X127693120Y-71813120D01*
X127815023Y-71664581D01*
X127905605Y-71495114D01*
X127961385Y-71311231D01*
X127980220Y-71120000D01*
X127961385Y-70928769D01*
X127905605Y-70744886D01*
X127815023Y-70575419D01*
X127693120Y-70426880D01*
X127544581Y-70304977D01*
X127375114Y-70214395D01*
X127271300Y-70182903D01*
X127191232Y-70158615D01*
X127000000Y-70139780D01*
X126808767Y-70158615D01*
X126624883Y-70214396D01*
X126472812Y-70295680D01*
X126455419Y-70304977D01*
X126455416Y-70304978D01*
X126455412Y-70304982D01*
X126306880Y-70426880D01*
X126184982Y-70575412D01*
X126184976Y-70575421D01*
X126094396Y-70744883D01*
X126038615Y-70928767D01*
X126038615Y-70928769D01*
X126019780Y-71120000D01*
X125440220Y-71120000D01*
X125421385Y-70928769D01*
X125365605Y-70744886D01*
X125275023Y-70575419D01*
X125153120Y-70426880D01*
X125004581Y-70304977D01*
X124835114Y-70214395D01*
X124731300Y-70182903D01*
X124651232Y-70158615D01*
X124460000Y-70139780D01*
X124268767Y-70158615D01*
X124084883Y-70214396D01*
X123932812Y-70295680D01*
X123915419Y-70304977D01*
X123915416Y-70304978D01*
X123915412Y-70304982D01*
X123766880Y-70426880D01*
X123644982Y-70575412D01*
X123644976Y-70575421D01*
X123554396Y-70744883D01*
X123498615Y-70928767D01*
X123498615Y-70928769D01*
X123479780Y-71120000D01*
X120850500Y-71120000D01*
X120850500Y-68580000D01*
X123430040Y-68580000D01*
X123449830Y-68780936D01*
X123508442Y-68974150D01*
X123603620Y-69152215D01*
X123667961Y-69230615D01*
X124005607Y-68892968D01*
X124019890Y-68917708D01*
X124122292Y-69020110D01*
X124147029Y-69034391D01*
X123809383Y-69372038D01*
X123887784Y-69436379D01*
X124065849Y-69531557D01*
X124259063Y-69590169D01*
X124460000Y-69609959D01*
X124660936Y-69590169D01*
X124854150Y-69531557D01*
X125032215Y-69436379D01*
X125110615Y-69372038D01*
X124772970Y-69034392D01*
X124797708Y-69020110D01*
X124900110Y-68917708D01*
X124914392Y-68892969D01*
X125252038Y-69230615D01*
X125316379Y-69152215D01*
X125411557Y-68974150D01*
X125470169Y-68780936D01*
X125489959Y-68580000D01*
X126019780Y-68580000D01*
X126038615Y-68771231D01*
X126094395Y-68955114D01*
X126184977Y-69124581D01*
X126306880Y-69273120D01*
X126455419Y-69395023D01*
X126624886Y-69485605D01*
X126808769Y-69541385D01*
X127000000Y-69560220D01*
X127191231Y-69541385D01*
X127375114Y-69485605D01*
X127544581Y-69395023D01*
X127693120Y-69273120D01*
X127815023Y-69124581D01*
X127905605Y-68955114D01*
X127961385Y-68771231D01*
X127980220Y-68580000D01*
X127961385Y-68388769D01*
X127905605Y-68204886D01*
X127815023Y-68035419D01*
X127693120Y-67886880D01*
X127544581Y-67764977D01*
X127375114Y-67674395D01*
X127271300Y-67642903D01*
X127191232Y-67618615D01*
X127000000Y-67599780D01*
X126808767Y-67618615D01*
X126624883Y-67674396D01*
X126472812Y-67755680D01*
X126455419Y-67764977D01*
X126455416Y-67764978D01*
X126455412Y-67764982D01*
X126306880Y-67886880D01*
X126184982Y-68035412D01*
X126184976Y-68035421D01*
X126094396Y-68204883D01*
X126038615Y-68388767D01*
X126038615Y-68388769D01*
X126019780Y-68580000D01*
X125489959Y-68580000D01*
X125470169Y-68379063D01*
X125411557Y-68185849D01*
X125316379Y-68007784D01*
X125252038Y-67929383D01*
X124914391Y-68267028D01*
X124900110Y-68242292D01*
X124797708Y-68139890D01*
X124772968Y-68125607D01*
X125110615Y-67787961D01*
X125032215Y-67723620D01*
X124854150Y-67628442D01*
X124660936Y-67569830D01*
X124460000Y-67550040D01*
X124259063Y-67569830D01*
X124065849Y-67628442D01*
X123887785Y-67723620D01*
X123809383Y-67787961D01*
X124147029Y-68125607D01*
X124122292Y-68139890D01*
X124019890Y-68242292D01*
X124005607Y-68267029D01*
X123667961Y-67929383D01*
X123603620Y-68007785D01*
X123508442Y-68185849D01*
X123449830Y-68379063D01*
X123430040Y-68580000D01*
X120850500Y-68580000D01*
X120850500Y-66040000D01*
X123479780Y-66040000D01*
X123498615Y-66231231D01*
X123554395Y-66415114D01*
X123644977Y-66584581D01*
X123766880Y-66733120D01*
X123915419Y-66855023D01*
X124084886Y-66945605D01*
X124268769Y-67001385D01*
X124460000Y-67020220D01*
X124651231Y-67001385D01*
X124835114Y-66945605D01*
X125004581Y-66855023D01*
X125153120Y-66733120D01*
X125275023Y-66584581D01*
X125365605Y-66415114D01*
X125421385Y-66231231D01*
X125440220Y-66040000D01*
X126019780Y-66040000D01*
X126038615Y-66231231D01*
X126094395Y-66415114D01*
X126184977Y-66584581D01*
X126306880Y-66733120D01*
X126455419Y-66855023D01*
X126624886Y-66945605D01*
X126808769Y-67001385D01*
X127000000Y-67020220D01*
X127191231Y-67001385D01*
X127375114Y-66945605D01*
X127544581Y-66855023D01*
X127693120Y-66733120D01*
X127815023Y-66584581D01*
X127905605Y-66415114D01*
X127961385Y-66231231D01*
X127980220Y-66040000D01*
X127961385Y-65848769D01*
X127905605Y-65664886D01*
X127815023Y-65495419D01*
X127693120Y-65346880D01*
X127544581Y-65224977D01*
X127375114Y-65134395D01*
X127271300Y-65102903D01*
X127191232Y-65078615D01*
X127000000Y-65059780D01*
X126808767Y-65078615D01*
X126624883Y-65134396D01*
X126472812Y-65215680D01*
X126455419Y-65224977D01*
X126455416Y-65224978D01*
X126455412Y-65224982D01*
X126306880Y-65346880D01*
X126184982Y-65495412D01*
X126184976Y-65495421D01*
X126094396Y-65664883D01*
X126038615Y-65848767D01*
X126038615Y-65848769D01*
X126019780Y-66040000D01*
X125440220Y-66040000D01*
X125421385Y-65848769D01*
X125365605Y-65664886D01*
X125275023Y-65495419D01*
X125153120Y-65346880D01*
X125004581Y-65224977D01*
X124835114Y-65134395D01*
X124731300Y-65102903D01*
X124651232Y-65078615D01*
X124460000Y-65059780D01*
X124268767Y-65078615D01*
X124084883Y-65134396D01*
X123932812Y-65215680D01*
X123915419Y-65224977D01*
X123915416Y-65224978D01*
X123915412Y-65224982D01*
X123766880Y-65346880D01*
X123644982Y-65495412D01*
X123644976Y-65495421D01*
X123554396Y-65664883D01*
X123498615Y-65848767D01*
X123498615Y-65848769D01*
X123479780Y-66040000D01*
X120850500Y-66040000D01*
X120850500Y-63324500D01*
X120872174Y-63272174D01*
X120924500Y-63250500D01*
X176275500Y-63250500D01*
X176327826Y-63272174D01*
G37*
%TD.AperFunction*%
%TD*%
M02*
